<?xml version="1.0" encoding="utf-8"?>
<!-- Generator: Adobe Illustrator 19.0.0, SVG Export Plug-In . SVG Version: 6.00 Build 0)  -->
<svg version="1.1" id="Layer_1" xmlns="http://www.w3.org/2000/svg" xmlns:xlink="http://www.w3.org/1999/xlink" x="0px" y="0px"
	 viewBox="0 0 792 612" style="enable-background:new 0 0 792 612;" xml:space="preserve">
<style type="text/css">
	.st0{fill:#FFFFFF;}
	.st1{clip-path:url(#XMLID_2_);fill:#FFFFFF;}
</style>
<g id="XMLID_585_">
	<g id="XMLID_4_">
		<g id="XMLID_896_">
			<g id="XMLID_897_">
				<path id="XMLID_898_" class="st0" d="M2461.9-63.7l-3.5,6l-40.4,70l-40.4-70l-3.5-6h-13.8l19.6,34.1l38.2,66.1l50.9-88.2h55.6
					L2418,132.8l-89.5-155l-12.9-22.4l-4.1-7.1l-3.5-6l-3.5-6h-14l10.5,18.1l15.9,27.5l90.6,157L2418,157l10.5-18.1l106.5-184.4
					l10.5-18.1H2461.9z"/>
			</g>
		</g>
		<g id="XMLID_885_">
			<g id="XMLID_895_">
				<path id="XMLID_54_" class="st0" d="M2190.2,84.8c2.8-9.4,6.2-19.5,10.1-29.7c7.4-19.5,15.7-36.8,24.8-51.7
					c-1.5-2-2.5-4.6-2.5-7.3c-14.1-3-29.4-4.2-45.6-3.5c-0.2,5.7-4.2,10.4-9.6,11.7C2169.4,38,2179.7,65.3,2190.2,84.8
					C2190.1,84.8,2190.2,84.8,2190.2,84.8z"/>
			</g>
			<g id="XMLID_894_">
				<path id="XMLID_52_" class="st0" d="M2213.7,131.7c-5.2-5.6-11.6-13.2-18.1-22.6c-1.3,0.5-2.7,0.8-4.2,0.9
					c-1.4,5.6-2.6,10.6-3.5,14.9C2196.3,128.3,2204.9,130.6,2213.7,131.7z"/>
			</g>
			<g id="XMLID_893_">
				<path id="XMLID_37_" class="st0" d="M2294.2,38.2c-4.2-5-9.2-10.1-15-15c-10.1-8.5-21.4-15.2-33.9-20.2c-2.3,3.3-6,5.4-10.3,5.4
					c-1.2,0-2.4-0.2-3.5-0.5c-10,16.4-17.9,34-23.9,49.8c-3.8,10-7.1,19.8-9.8,29c2.6,1.6,4.5,4.2,5.3,7.2
					c27.6-1.3,52.5-10.1,74.5-26.5c5.1-3.8,9.7-7.8,13.9-11.8c-1.5-2.1-2.4-4.6-2.4-7.4C2289.1,44.2,2291.1,40.5,2294.2,38.2z"/>
			</g>
			<g id="XMLID_892_">
				<path id="XMLID_35_" class="st0" d="M2245.1-11.6c1.5,2,2.4,4.4,2.5,7c13.7,5.4,26.1,12.8,37.1,22.1c7.1,6,12.9,12.3,17.8,18.3
					c1.9,0.1,3.7,0.7,5.3,1.5c9.1-12.1,13.3-21.4,13.4-21.6l1.2,0.5c-3.6-19.3-13-37.7-28.2-52.4c-3.2-3.1-6.6-6-10.1-8.6
					C2269-37.4,2256.1-25.6,2245.1-11.6z"/>
			</g>
			<g id="XMLID_891_">
				<path id="XMLID_33_" class="st0" d="M2182.8,87.9c-10-18.8-16.9-38.9-20.7-59.6c-1.5-8.1-2.4-16.4-2.9-24.7
					c-3.6-1.6-6.3-4.8-7.2-8.6c-5.8,0.9-11.6,1.9-17.6,3.2c-11.3,28.5-8.7,61,7.6,87.5c12.8,3.8,25.1,6.3,37,7.5
					C2179.9,91.1,2181.2,89.3,2182.8,87.9z"/>
			</g>
			<g id="XMLID_890_">
				<path id="XMLID_30_" class="st0" d="M2315.3,74.4c0-0.1-2-6.4-7-15.5c-1.9,1.2-4.2,1.9-6.7,1.9c-1.2,0-2.5-0.2-3.6-0.5
					c-4.6,4.6-9.9,9.1-15.7,13.5c-18.8,14-40,22.8-63,26.4c-5.4,0.8-10.9,1.4-16.5,1.6c-0.3,0.8-0.6,1.5-1.1,2.2
					c9.3,13.5,18.2,23.1,23.8,28.5c25.8,0.1,51.5-9.9,70.8-29.8c8.2-8.5,14.6-18,19.1-28.2L2315.3,74.4z"/>
			</g>
			<g id="XMLID_889_">
				<path id="XMLID_28_" class="st0" d="M2313.2,43.3c0.7,1.5,1.1,3.2,1.1,5c0,1.3-0.2,2.6-0.6,3.8c2.6,4.4,4.5,8.3,5.9,11.5
					c3.7-11.7,5.1-23.9,4.2-36.1C2321.3,31.8,2317.8,37.2,2313.2,43.3z"/>
			</g>
			<g id="XMLID_888_">
				<path id="XMLID_24_" class="st0" d="M2167.2-20.1c3,0.7,5.5,2.5,7.3,4.8c4-0.2,7.9-0.3,11.8-0.3c13.4,0,26,1.3,38,3.9
					c0.2,0.1,0.5,0.1,0.7,0.2c2.3-3.1,6-5.1,10.1-5.1c1.2,0,2.4,0.2,3.5,0.5c11.7-14.9,24.4-26.1,38-33.5
					c-32.8-19.8-74.5-18.6-106.2,3.1C2168.7-37.4,2167.7-28.6,2167.2-20.1z"/>
			</g>
			<g id="XMLID_887_">
				<path id="XMLID_19_" class="st0" d="M2152.9-13.1c1.3-2.8,3.5-5,6.3-6.2c0.4-6.7,1-13.4,2-20.1c-2,1.8-4,3.6-5.9,5.6
					c-6.8,7.1-12.4,14.9-16.7,23.2C2143.5-11.7,2148.2-12.5,2152.9-13.1z"/>
			</g>
			<g id="XMLID_886_">
				<path id="XMLID_17_" class="st0" d="M2183.9,107.7c-2.3-1.6-4-3.9-4.8-6.6c-9.7-1-19.6-2.7-29.7-5.2c2.5,3.1,5.2,6.1,8.2,9
					c7,6.8,14.8,12.4,23.1,16.6C2181.5,117.3,2182.6,112.7,2183.9,107.7z"/>
			</g>
		</g>
		<g id="XMLID_56_">
			<g id="XMLID_604_">
				<g id="XMLID_605_">
					<defs>
						<path id="XMLID_606_" d="M2612.8-57.3c23.8,0,46.3,9.1,63.4,25.7c17.5,16.9,27.3,39.6,27.7,63.9c0.4,24.3-8.7,47.3-25.7,64.8
							c-8.7,9-19,16-30.5,20.8c-11.1,4.6-22.9,6.9-35,6.9c-23.8,0-46.3-9.1-63.4-25.7c-17.5-16.9-27.3-39.6-27.7-63.9
							c-0.4-24.3,8.7-47.3,25.7-64.8c8.7-9,19-16,30.5-20.8C2588.9-54.9,2600.7-57.3,2612.8-57.3L2612.8-57.3 M2612.8-63.8
							c-25.5,0-51,9.9-70.2,29.7c-37.5,38.7-36.6,100.5,2.2,137.9c19,18.4,43.5,27.5,67.9,27.5c25.5,0,51-9.9,70.2-29.7
							c37.5-38.7,36.6-100.5-2.2-137.9C2661.8-54.6,2637.3-63.8,2612.8-63.8L2612.8-63.8z"/>
					</defs>
					<use xlink:href="#XMLID_606_"  style="overflow:visible;fill:#FFFFFF;"/>
					<clipPath id="XMLID_2_">
						<use xlink:href="#XMLID_606_"  style="overflow:visible;"/>
					</clipPath>
					<rect id="XMLID_884_" x="2505.1" y="-63.8" class="st1" width="215.4" height="195.1"/>
					<circle id="XMLID_883_" class="st1" cx="2612.8" cy="33.8" r="97.6"/>
					<circle id="XMLID_882_" class="st1" cx="2612.8" cy="33.8" r="96.9"/>
					<circle id="XMLID_881_" class="st1" cx="2612.8" cy="33.8" r="96.2"/>
					<circle id="XMLID_880_" class="st1" cx="2612.8" cy="33.8" r="95.4"/>
					<circle id="XMLID_879_" class="st1" cx="2612.8" cy="33.8" r="94.7"/>
					<circle id="XMLID_878_" class="st1" cx="2612.8" cy="33.8" r="93.9"/>
					<circle id="XMLID_877_" class="st1" cx="2612.8" cy="33.8" r="93.2"/>
					<circle id="XMLID_876_" class="st1" cx="2612.8" cy="33.8" r="92.5"/>
					<circle id="XMLID_875_" class="st1" cx="2612.8" cy="33.8" r="91.7"/>
					<circle id="XMLID_874_" class="st1" cx="2612.8" cy="33.8" r="91"/>
					<circle id="XMLID_873_" class="st1" cx="2612.8" cy="33.8" r="90.3"/>
					<circle id="XMLID_872_" class="st1" cx="2612.8" cy="33.8" r="89.5"/>
					<circle id="XMLID_871_" class="st1" cx="2612.8" cy="33.8" r="88.8"/>
					<circle id="XMLID_870_" class="st1" cx="2612.8" cy="33.8" r="88.1"/>
					<circle id="XMLID_869_" class="st1" cx="2612.8" cy="33.8" r="87.3"/>
					<circle id="XMLID_868_" class="st1" cx="2612.8" cy="33.8" r="86.6"/>
					<circle id="XMLID_867_" class="st1" cx="2612.8" cy="33.8" r="85.9"/>
					<path id="XMLID_866_" class="st1" d="M2697.9,33.8c0,47-38.1,85.1-85.1,85.1c-47,0-85.1-38.1-85.1-85.1
						c0-47,38.1-85.1,85.1-85.1C2659.8-51.4,2697.9-13.2,2697.9,33.8z"/>
					<circle id="XMLID_865_" class="st1" cx="2612.8" cy="33.8" r="84.4"/>
					<circle id="XMLID_864_" class="st1" cx="2612.8" cy="33.8" r="83.7"/>
					<circle id="XMLID_863_" class="st1" cx="2612.8" cy="33.8" r="82.9"/>
					<path id="XMLID_862_" class="st1" d="M2695,33.8c0,45.4-36.8,82.2-82.2,82.2c-45.4,0-82.2-36.8-82.2-82.2
						c0-45.4,36.8-82.2,82.2-82.2C2658.2-48.4,2695-11.6,2695,33.8z"/>
					<circle id="XMLID_861_" class="st1" cx="2612.8" cy="33.8" r="81.5"/>
					<circle id="XMLID_860_" class="st1" cx="2612.8" cy="33.8" r="80.7"/>
					<circle id="XMLID_859_" class="st1" cx="2612.8" cy="33.8" r="80"/>
					<circle id="XMLID_858_" class="st1" cx="2612.8" cy="33.8" r="79.3"/>
					<circle id="XMLID_857_" class="st1" cx="2612.8" cy="33.8" r="78.5"/>
					<path id="XMLID_856_" class="st1" d="M2690.6,33.8c0,43-34.8,77.8-77.8,77.8c-43,0-77.8-34.8-77.8-77.8
						c0-43,34.8-77.8,77.8-77.8C2655.7-44,2690.6-9.2,2690.6,33.8z"/>
					<circle id="XMLID_855_" class="st1" cx="2612.8" cy="33.8" r="77.1"/>
					<circle id="XMLID_854_" class="st1" cx="2612.8" cy="33.8" r="76.3"/>
					<circle id="XMLID_853_" class="st1" cx="2612.8" cy="33.8" r="75.6"/>
					<path id="XMLID_852_" class="st1" d="M2687.6,33.8c0,41.3-33.5,74.9-74.9,74.9c-41.3,0-74.9-33.5-74.9-74.9
						c0-41.3,33.5-74.9,74.9-74.9C2654.1-41.1,2687.6-7.6,2687.6,33.8z"/>
					<circle id="XMLID_851_" class="st1" cx="2612.8" cy="33.8" r="74.1"/>
					<path id="XMLID_850_" class="st1" d="M2686.2,33.8c0,40.5-32.9,73.4-73.4,73.4c-40.5,0-73.4-32.9-73.4-73.4
						c0-40.5,32.9-73.4,73.4-73.4C2653.3-39.6,2686.2-6.8,2686.2,33.8z"/>
					<circle id="XMLID_849_" class="st1" cx="2612.8" cy="33.8" r="72.7"/>
					<circle id="XMLID_848_" class="st1" cx="2612.8" cy="33.8" r="71.9"/>
					<circle id="XMLID_847_" class="st1" cx="2612.8" cy="33.8" r="71.2"/>
					<circle id="XMLID_846_" class="st1" cx="2612.8" cy="33.8" r="70.5"/>
					<circle id="XMLID_845_" class="st1" cx="2612.8" cy="33.8" r="69.7"/>
					<circle id="XMLID_844_" class="st1" cx="2612.8" cy="33.8" r="69"/>
					<circle id="XMLID_843_" class="st1" cx="2612.8" cy="33.8" r="68.3"/>
					<circle id="XMLID_842_" class="st1" cx="2612.8" cy="33.8" r="67.5"/>
					<circle id="XMLID_841_" class="st1" cx="2612.8" cy="33.8" r="66.8"/>
					<circle id="XMLID_840_" class="st1" cx="2612.8" cy="33.8" r="66.1"/>
					<circle id="XMLID_839_" class="st1" cx="2612.8" cy="33.8" r="65.3"/>
					<circle id="XMLID_838_" class="st1" cx="2612.8" cy="33.8" r="64.6"/>
					<circle id="XMLID_837_" class="st1" cx="2612.8" cy="33.8" r="63.9"/>
					<circle id="XMLID_836_" class="st1" cx="2612.8" cy="33.8" r="63.1"/>
					<circle id="XMLID_835_" class="st1" cx="2612.8" cy="33.8" r="62.4"/>
					<circle id="XMLID_834_" class="st1" cx="2612.8" cy="33.8" r="61.7"/>
					<circle id="XMLID_833_" class="st1" cx="2612.8" cy="33.8" r="60.9"/>
					<circle id="XMLID_832_" class="st1" cx="2612.8" cy="33.8" r="60.2"/>
					<circle id="XMLID_831_" class="st1" cx="2612.8" cy="33.8" r="59.5"/>
					<circle id="XMLID_830_" class="st1" cx="2612.8" cy="33.8" r="58.7"/>
					<circle id="XMLID_829_" class="st1" cx="2612.8" cy="33.8" r="58"/>
					<circle id="XMLID_828_" class="st1" cx="2612.8" cy="33.8" r="57.2"/>
					<circle id="XMLID_827_" class="st1" cx="2612.8" cy="33.8" r="56.5"/>
					<circle id="XMLID_826_" class="st1" cx="2612.8" cy="33.8" r="55.8"/>
					<circle id="XMLID_825_" class="st1" cx="2612.8" cy="33.8" r="55"/>
					<circle id="XMLID_824_" class="st1" cx="2612.8" cy="33.8" r="54.3"/>
					<circle id="XMLID_823_" class="st1" cx="2612.8" cy="33.8" r="53.6"/>
					<circle id="XMLID_822_" class="st1" cx="2612.8" cy="33.8" r="52.8"/>
					<circle id="XMLID_821_" class="st1" cx="2612.8" cy="33.8" r="52.1"/>
					<circle id="XMLID_820_" class="st1" cx="2612.8" cy="33.8" r="51.4"/>
					<circle id="XMLID_819_" class="st1" cx="2612.8" cy="33.8" r="50.6"/>
					<circle id="XMLID_818_" class="st1" cx="2612.8" cy="33.8" r="49.9"/>
					<circle id="XMLID_817_" class="st1" cx="2612.8" cy="33.8" r="49.2"/>
					<circle id="XMLID_816_" class="st1" cx="2612.8" cy="33.8" r="48.4"/>
					<circle id="XMLID_815_" class="st1" cx="2612.8" cy="33.8" r="47.7"/>
					<circle id="XMLID_814_" class="st1" cx="2612.8" cy="33.8" r="47"/>
					<circle id="XMLID_813_" class="st1" cx="2612.8" cy="33.8" r="46.2"/>
					<circle id="XMLID_812_" class="st1" cx="2612.8" cy="33.8" r="45.5"/>
					<circle id="XMLID_811_" class="st1" cx="2612.8" cy="33.8" r="44.8"/>
					<path id="XMLID_810_" class="st1" d="M2656.8,33.8c0,24.3-19.7,44-44,44c-24.3,0-44-19.7-44-44c0-24.3,19.7-44,44-44
						C2637.1-10.3,2656.8,9.5,2656.8,33.8z"/>
					<circle id="XMLID_809_" class="st1" cx="2612.8" cy="33.8" r="43.3"/>
					<circle id="XMLID_808_" class="st1" cx="2612.8" cy="33.8" r="42.6"/>
					<circle id="XMLID_807_" class="st1" cx="2612.8" cy="33.8" r="41.8"/>
					<circle id="XMLID_806_" class="st1" cx="2612.8" cy="33.8" r="41.1"/>
					<circle id="XMLID_805_" class="st1" cx="2612.8" cy="33.8" r="40.4"/>
					<circle id="XMLID_804_" class="st1" cx="2612.8" cy="33.8" r="39.6"/>
					<circle id="XMLID_803_" class="st1" cx="2612.8" cy="33.8" r="38.9"/>
					<circle id="XMLID_802_" class="st1" cx="2612.8" cy="33.8" r="38.2"/>
					<circle id="XMLID_801_" class="st1" cx="2612.8" cy="33.8" r="37.4"/>
					<circle id="XMLID_800_" class="st1" cx="2612.8" cy="33.8" r="36.7"/>
					<circle id="XMLID_799_" class="st1" cx="2612.8" cy="33.8" r="36"/>
					<circle id="XMLID_798_" class="st1" cx="2612.8" cy="33.8" r="35.2"/>
					<circle id="XMLID_797_" class="st1" cx="2612.8" cy="33.8" r="34.5"/>
					<circle id="XMLID_796_" class="st1" cx="2612.8" cy="33.8" r="33.8"/>
					<circle id="XMLID_795_" class="st1" cx="2612.8" cy="33.8" r="33"/>
					<circle id="XMLID_794_" class="st1" cx="2612.8" cy="33.8" r="32.3"/>
					<circle id="XMLID_793_" class="st1" cx="2612.8" cy="33.8" r="31.6"/>
					<circle id="XMLID_792_" class="st1" cx="2612.8" cy="33.8" r="30.8"/>
					<circle id="XMLID_791_" class="st1" cx="2612.8" cy="33.8" r="30.1"/>
					<circle id="XMLID_790_" class="st1" cx="2612.8" cy="33.8" r="29.4"/>
					<circle id="XMLID_789_" class="st1" cx="2612.8" cy="33.8" r="28.6"/>
					<circle id="XMLID_788_" class="st1" cx="2612.8" cy="33.8" r="27.9"/>
					<circle id="XMLID_787_" class="st1" cx="2612.8" cy="33.8" r="27.2"/>
					<circle id="XMLID_786_" class="st1" cx="2612.8" cy="33.8" r="26.4"/>
					<circle id="XMLID_785_" class="st1" cx="2612.8" cy="33.8" r="25.7"/>
					<path id="XMLID_784_" class="st1" d="M2637.7,33.8c0,13.8-11.2,25-25,25c-13.8,0-25-11.2-25-25c0-13.8,11.2-25,25-25
						C2626.6,8.8,2637.7,20,2637.7,33.8z"/>
					<circle id="XMLID_783_" class="st1" cx="2612.8" cy="33.8" r="24.2"/>
					<circle id="XMLID_782_" class="st1" cx="2612.8" cy="33.8" r="23.5"/>
					<circle id="XMLID_781_" class="st1" cx="2612.8" cy="33.8" r="22.8"/>
					<path id="XMLID_780_" class="st1" d="M2634.8,33.8c0,12.2-9.9,22-22,22c-12.2,0-22-9.9-22-22c0-12.2,9.9-22,22-22
						C2624.9,11.8,2634.8,21.6,2634.8,33.8z"/>
					<circle id="XMLID_779_" class="st1" cx="2612.8" cy="33.8" r="21.3"/>
					<circle id="XMLID_778_" class="st1" cx="2612.8" cy="33.8" r="20.6"/>
					<circle id="XMLID_777_" class="st1" cx="2612.8" cy="33.8" r="19.8"/>
					<circle id="XMLID_776_" class="st1" cx="2612.8" cy="33.8" r="19.1"/>
					<circle id="XMLID_775_" class="st1" cx="2612.8" cy="33.8" r="18.4"/>
					<circle id="XMLID_774_" class="st1" cx="2612.8" cy="33.8" r="17.6"/>
					<circle id="XMLID_773_" class="st1" cx="2612.8" cy="33.8" r="16.9"/>
					<circle id="XMLID_772_" class="st1" cx="2612.8" cy="33.8" r="16.1"/>
					<circle id="XMLID_771_" class="st1" cx="2612.8" cy="33.8" r="15.4"/>
					<circle id="XMLID_770_" class="st1" cx="2612.8" cy="33.8" r="14.7"/>
					<circle id="XMLID_769_" class="st1" cx="2612.8" cy="33.8" r="13.9"/>
					<circle id="XMLID_768_" class="st1" cx="2612.8" cy="33.8" r="13.2"/>
					<circle id="XMLID_767_" class="st1" cx="2612.8" cy="33.8" r="12.5"/>
					<circle id="XMLID_766_" class="st1" cx="2612.8" cy="33.8" r="11.7"/>
					<circle id="XMLID_765_" class="st1" cx="2612.8" cy="33.8" r="11"/>
					<circle id="XMLID_764_" class="st1" cx="2612.8" cy="33.8" r="10.3"/>
					<circle id="XMLID_763_" class="st1" cx="2612.8" cy="33.8" r="9.5"/>
					<circle id="XMLID_762_" class="st1" cx="2612.8" cy="33.8" r="8.8"/>
					<circle id="XMLID_761_" class="st1" cx="2612.8" cy="33.8" r="8.1"/>
					<circle id="XMLID_760_" class="st1" cx="2612.8" cy="33.8" r="7.3"/>
					<circle id="XMLID_759_" class="st1" cx="2612.8" cy="33.8" r="6.6"/>
					<circle id="XMLID_758_" class="st1" cx="2612.8" cy="33.8" r="5.9"/>
					<circle id="XMLID_757_" class="st1" cx="2612.8" cy="33.8" r="5.1"/>
					<circle id="XMLID_756_" class="st1" cx="2612.8" cy="33.8" r="4.4"/>
					<circle id="XMLID_755_" class="st1" cx="2612.8" cy="33.8" r="3.7"/>
					<circle id="XMLID_754_" class="st1" cx="2612.8" cy="33.8" r="2.9"/>
					<circle id="XMLID_753_" class="st1" cx="2612.8" cy="33.8" r="2.2"/>
					<circle id="XMLID_752_" class="st1" cx="2612.8" cy="33.8" r="1.5"/>
					<circle id="XMLID_751_" class="st1" cx="2612.8" cy="33.8" r="0.7"/>
					<rect id="XMLID_750_" x="2521.2" y="-57.3" class="st1" width="183.1" height="182.1"/>
					<path id="XMLID_749_" class="st1" d="M2705,33.8v19.7h3.4c-1.3,6.4-3.2,12.5-5.7,18.3c-4.9,11.7-12.1,22.2-20.9,31
						c-8.8,8.8-19.4,16-31,20.9c-5.8,2.5-12,4.4-18.3,5.7v-3.9h-39.3v3.9c-6.4-1.3-12.5-3.2-18.3-5.7c-11.7-4.9-22.2-12.1-31-20.9
						c-8.8-8.8-16-19.4-20.9-31c-2.5-5.8-4.4-12-5.7-18.3h3.4V14.1h-3.4c1.3-6.4,3.2-12.5,5.7-18.3c4.9-11.7,12.1-22.2,20.9-31
						c8.8-8.8,19.4-16,31-20.9c5.8-2.5,12-4.4,18.3-5.7v3.9h39.3v-3.9c6.4,1.3,12.5,3.2,18.3,5.7c11.7,4.9,22.2,12.1,31,20.9
						c8.8,8.8,16,19.3,20.9,31c2.5,5.8,4.4,12,5.7,18.3h-3.4V33.8z"/>
					<path id="XMLID_748_" class="st1" d="M2705,33.8v19.5h2.7c-1.3,6.3-3.2,12.4-5.6,18.2c-4.9,11.6-12,22-20.8,30.8
						c-8.8,8.8-19.2,15.9-30.8,20.8c-5.8,2.5-11.9,4.4-18.2,5.6v-3.2h-39v3.2c-6.3-1.3-12.4-3.2-18.2-5.6c-11.6-4.9-22-12-30.8-20.8
						c-8.8-8.8-15.9-19.2-20.8-30.8c-2.4-5.8-4.4-11.9-5.6-18.2h2.7V14.2h-2.7c1.3-6.3,3.2-12.4,5.6-18.2c4.9-11.6,12-22,20.8-30.8
						c8.8-8.8,19.2-15.9,30.8-20.8c5.8-2.5,11.9-4.4,18.2-5.6v3.2h39v-3.2c6.3,1.3,12.4,3.2,18.2,5.6c11.6,4.9,22,12,30.8,20.8
						c8.8,8.8,15.9,19.2,20.8,30.8c2.4,5.8,4.4,11.9,5.6,18.2h-2.7V33.8z"/>
					<circle id="XMLID_747_" class="st1" cx="2612.8" cy="33.8" r="96.2"/>
					<circle id="XMLID_746_" class="st1" cx="2612.8" cy="33.8" r="95.4"/>
					<circle id="XMLID_745_" class="st1" cx="2612.8" cy="33.8" r="94.7"/>
					<circle id="XMLID_744_" class="st1" cx="2612.8" cy="33.8" r="93.9"/>
					<circle id="XMLID_743_" class="st1" cx="2612.8" cy="33.8" r="93.2"/>
					<circle id="XMLID_742_" class="st1" cx="2612.8" cy="33.8" r="92.5"/>
					<circle id="XMLID_741_" class="st1" cx="2612.8" cy="33.8" r="91.7"/>
					<circle id="XMLID_740_" class="st1" cx="2612.8" cy="33.8" r="91"/>
					<circle id="XMLID_739_" class="st1" cx="2612.8" cy="33.8" r="90.3"/>
					<circle id="XMLID_738_" class="st1" cx="2612.8" cy="33.8" r="89.5"/>
					<circle id="XMLID_737_" class="st1" cx="2612.8" cy="33.8" r="88.8"/>
					<circle id="XMLID_736_" class="st1" cx="2612.8" cy="33.8" r="88.1"/>
					<circle id="XMLID_735_" class="st1" cx="2612.8" cy="33.8" r="87.3"/>
					<circle id="XMLID_734_" class="st1" cx="2612.8" cy="33.8" r="86.6"/>
					<circle id="XMLID_733_" class="st1" cx="2612.8" cy="33.8" r="85.9"/>
					<path id="XMLID_732_" class="st1" d="M2697.9,33.8c0,47-38.1,85.1-85.1,85.1c-47,0-85.1-38.1-85.1-85.1
						c0-47,38.1-85.1,85.1-85.1C2659.8-51.4,2697.9-13.2,2697.9,33.8z"/>
					<circle id="XMLID_731_" class="st1" cx="2612.8" cy="33.8" r="84.4"/>
					<circle id="XMLID_730_" class="st1" cx="2612.8" cy="33.8" r="83.7"/>
					<circle id="XMLID_729_" class="st1" cx="2612.8" cy="33.8" r="82.9"/>
					<path id="XMLID_728_" class="st1" d="M2695,33.8c0,45.4-36.8,82.2-82.2,82.2c-45.4,0-82.2-36.8-82.2-82.2
						c0-45.4,36.8-82.2,82.2-82.2C2658.2-48.4,2695-11.6,2695,33.8z"/>
					<circle id="XMLID_727_" class="st1" cx="2612.8" cy="33.8" r="81.5"/>
					<circle id="XMLID_726_" class="st1" cx="2612.8" cy="33.8" r="80.7"/>
					<circle id="XMLID_725_" class="st1" cx="2612.8" cy="33.8" r="80"/>
					<circle id="XMLID_724_" class="st1" cx="2612.8" cy="33.8" r="79.3"/>
					<circle id="XMLID_723_" class="st1" cx="2612.8" cy="33.8" r="78.5"/>
					<path id="XMLID_722_" class="st1" d="M2690.6,33.8c0,43-34.8,77.8-77.8,77.8c-43,0-77.8-34.8-77.8-77.8
						c0-43,34.8-77.8,77.8-77.8C2655.7-44,2690.6-9.2,2690.6,33.8z"/>
					<circle id="XMLID_721_" class="st1" cx="2612.8" cy="33.8" r="77.1"/>
					<circle id="XMLID_720_" class="st1" cx="2612.8" cy="33.8" r="76.3"/>
					<circle id="XMLID_719_" class="st1" cx="2612.8" cy="33.8" r="75.6"/>
					<path id="XMLID_718_" class="st1" d="M2687.6,33.8c0,41.3-33.5,74.9-74.9,74.9c-41.3,0-74.9-33.5-74.9-74.9
						c0-41.3,33.5-74.9,74.9-74.9C2654.1-41.1,2687.6-7.6,2687.6,33.8z"/>
					<circle id="XMLID_717_" class="st1" cx="2612.8" cy="33.8" r="74.1"/>
					<path id="XMLID_716_" class="st1" d="M2686.2,33.8c0,40.5-32.9,73.4-73.4,73.4c-40.5,0-73.4-32.9-73.4-73.4
						c0-40.5,32.9-73.4,73.4-73.4C2653.3-39.6,2686.2-6.8,2686.2,33.8z"/>
					<circle id="XMLID_715_" class="st1" cx="2612.8" cy="33.8" r="72.7"/>
					<circle id="XMLID_714_" class="st1" cx="2612.8" cy="33.8" r="71.9"/>
					<circle id="XMLID_713_" class="st1" cx="2612.8" cy="33.8" r="71.2"/>
					<circle id="XMLID_712_" class="st1" cx="2612.8" cy="33.8" r="70.5"/>
					<circle id="XMLID_711_" class="st1" cx="2612.8" cy="33.8" r="69.7"/>
					<circle id="XMLID_710_" class="st1" cx="2612.8" cy="33.8" r="69"/>
					<circle id="XMLID_709_" class="st1" cx="2612.8" cy="33.8" r="68.3"/>
					<circle id="XMLID_708_" class="st1" cx="2612.8" cy="33.8" r="67.5"/>
					<circle id="XMLID_707_" class="st1" cx="2612.8" cy="33.8" r="66.8"/>
					<circle id="XMLID_706_" class="st1" cx="2612.8" cy="33.8" r="66.1"/>
					<circle id="XMLID_705_" class="st1" cx="2612.8" cy="33.8" r="65.3"/>
					<circle id="XMLID_704_" class="st1" cx="2612.8" cy="33.8" r="64.6"/>
					<circle id="XMLID_703_" class="st1" cx="2612.8" cy="33.8" r="63.9"/>
					<circle id="XMLID_702_" class="st1" cx="2612.8" cy="33.8" r="63.1"/>
					<circle id="XMLID_701_" class="st1" cx="2612.8" cy="33.8" r="62.4"/>
					<circle id="XMLID_700_" class="st1" cx="2612.8" cy="33.8" r="61.7"/>
					<circle id="XMLID_696_" class="st1" cx="2612.8" cy="33.8" r="60.9"/>
					<circle id="XMLID_695_" class="st1" cx="2612.8" cy="33.8" r="60.2"/>
					<circle id="XMLID_694_" class="st1" cx="2612.8" cy="33.8" r="59.5"/>
					<circle id="XMLID_693_" class="st1" cx="2612.8" cy="33.8" r="58.7"/>
					<circle id="XMLID_692_" class="st1" cx="2612.8" cy="33.8" r="58"/>
					<circle id="XMLID_691_" class="st1" cx="2612.8" cy="33.8" r="57.2"/>
					<circle id="XMLID_690_" class="st1" cx="2612.8" cy="33.8" r="56.5"/>
					<circle id="XMLID_689_" class="st1" cx="2612.8" cy="33.8" r="55.8"/>
					<circle id="XMLID_688_" class="st1" cx="2612.8" cy="33.8" r="55"/>
					<circle id="XMLID_687_" class="st1" cx="2612.8" cy="33.8" r="54.3"/>
					<circle id="XMLID_686_" class="st1" cx="2612.8" cy="33.8" r="53.6"/>
					<circle id="XMLID_685_" class="st1" cx="2612.8" cy="33.8" r="52.8"/>
					<circle id="XMLID_684_" class="st1" cx="2612.8" cy="33.8" r="52.1"/>
					<circle id="XMLID_683_" class="st1" cx="2612.8" cy="33.8" r="51.4"/>
					<circle id="XMLID_682_" class="st1" cx="2612.8" cy="33.8" r="50.6"/>
					<circle id="XMLID_681_" class="st1" cx="2612.8" cy="33.8" r="49.9"/>
					<circle id="XMLID_680_" class="st1" cx="2612.8" cy="33.8" r="49.2"/>
					<circle id="XMLID_679_" class="st1" cx="2612.8" cy="33.8" r="48.4"/>
					<circle id="XMLID_678_" class="st1" cx="2612.8" cy="33.8" r="47.7"/>
					<circle id="XMLID_677_" class="st1" cx="2612.8" cy="33.8" r="47"/>
					<circle id="XMLID_676_" class="st1" cx="2612.8" cy="33.8" r="46.2"/>
					<circle id="XMLID_675_" class="st1" cx="2612.8" cy="33.8" r="45.5"/>
					<circle id="XMLID_674_" class="st1" cx="2612.8" cy="33.8" r="44.8"/>
					<path id="XMLID_673_" class="st1" d="M2656.8,33.8c0,24.3-19.7,44-44,44c-24.3,0-44-19.7-44-44c0-24.3,19.7-44,44-44
						C2637.1-10.3,2656.8,9.5,2656.8,33.8z"/>
					<circle id="XMLID_672_" class="st1" cx="2612.8" cy="33.8" r="43.3"/>
					<circle id="XMLID_671_" class="st1" cx="2612.8" cy="33.8" r="42.6"/>
					<circle id="XMLID_670_" class="st1" cx="2612.8" cy="33.8" r="41.8"/>
					<circle id="XMLID_669_" class="st1" cx="2612.8" cy="33.8" r="41.1"/>
					<circle id="XMLID_668_" class="st1" cx="2612.8" cy="33.8" r="40.4"/>
					<circle id="XMLID_667_" class="st1" cx="2612.8" cy="33.8" r="39.6"/>
					<circle id="XMLID_666_" class="st1" cx="2612.8" cy="33.8" r="38.9"/>
					<circle id="XMLID_665_" class="st1" cx="2612.8" cy="33.8" r="38.2"/>
					<circle id="XMLID_664_" class="st1" cx="2612.8" cy="33.8" r="37.4"/>
					<circle id="XMLID_663_" class="st1" cx="2612.8" cy="33.8" r="36.7"/>
					<circle id="XMLID_662_" class="st1" cx="2612.8" cy="33.8" r="36"/>
					<circle id="XMLID_661_" class="st1" cx="2612.8" cy="33.8" r="35.2"/>
					<circle id="XMLID_660_" class="st1" cx="2612.8" cy="33.8" r="34.5"/>
					<circle id="XMLID_659_" class="st1" cx="2612.8" cy="33.8" r="33.8"/>
					<circle id="XMLID_658_" class="st1" cx="2612.8" cy="33.8" r="33"/>
					<circle id="XMLID_657_" class="st1" cx="2612.8" cy="33.8" r="32.3"/>
					<circle id="XMLID_656_" class="st1" cx="2612.8" cy="33.8" r="31.6"/>
					<circle id="XMLID_655_" class="st1" cx="2612.8" cy="33.8" r="30.8"/>
					<circle id="XMLID_654_" class="st1" cx="2612.8" cy="33.8" r="30.1"/>
					<circle id="XMLID_653_" class="st1" cx="2612.8" cy="33.8" r="29.4"/>
					<circle id="XMLID_652_" class="st1" cx="2612.8" cy="33.8" r="28.6"/>
					<circle id="XMLID_651_" class="st1" cx="2612.8" cy="33.8" r="27.9"/>
					<circle id="XMLID_650_" class="st1" cx="2612.8" cy="33.8" r="27.2"/>
					<circle id="XMLID_649_" class="st1" cx="2612.8" cy="33.8" r="26.4"/>
					<circle id="XMLID_648_" class="st1" cx="2612.8" cy="33.8" r="25.7"/>
					<path id="XMLID_647_" class="st1" d="M2637.7,33.8c0,13.8-11.2,25-25,25c-13.8,0-25-11.2-25-25c0-13.8,11.2-25,25-25
						C2626.6,8.8,2637.7,20,2637.7,33.8z"/>
					<circle id="XMLID_646_" class="st1" cx="2612.8" cy="33.8" r="24.2"/>
					<circle id="XMLID_645_" class="st1" cx="2612.8" cy="33.8" r="23.5"/>
					<circle id="XMLID_644_" class="st1" cx="2612.8" cy="33.8" r="22.8"/>
					<path id="XMLID_643_" class="st1" d="M2634.8,33.8c0,12.2-9.9,22-22,22c-12.2,0-22-9.9-22-22c0-12.2,9.9-22,22-22
						C2624.9,11.8,2634.8,21.6,2634.8,33.8z"/>
					<circle id="XMLID_642_" class="st1" cx="2612.8" cy="33.8" r="21.3"/>
					<circle id="XMLID_641_" class="st1" cx="2612.8" cy="33.8" r="20.6"/>
					<circle id="XMLID_640_" class="st1" cx="2612.8" cy="33.8" r="19.8"/>
					<circle id="XMLID_639_" class="st1" cx="2612.8" cy="33.8" r="19.1"/>
					<circle id="XMLID_638_" class="st1" cx="2612.8" cy="33.8" r="18.4"/>
					<circle id="XMLID_637_" class="st1" cx="2612.8" cy="33.8" r="17.6"/>
					<circle id="XMLID_636_" class="st1" cx="2612.8" cy="33.8" r="16.9"/>
					<circle id="XMLID_635_" class="st1" cx="2612.8" cy="33.8" r="16.1"/>
					<circle id="XMLID_634_" class="st1" cx="2612.8" cy="33.8" r="15.4"/>
					<circle id="XMLID_633_" class="st1" cx="2612.8" cy="33.8" r="14.7"/>
					<circle id="XMLID_632_" class="st1" cx="2612.8" cy="33.8" r="13.9"/>
					<circle id="XMLID_631_" class="st1" cx="2612.8" cy="33.8" r="13.2"/>
					<circle id="XMLID_630_" class="st1" cx="2612.8" cy="33.8" r="12.5"/>
					<circle id="XMLID_629_" class="st1" cx="2612.8" cy="33.8" r="11.7"/>
					<circle id="XMLID_628_" class="st1" cx="2612.8" cy="33.8" r="11"/>
					<circle id="XMLID_627_" class="st1" cx="2612.8" cy="33.8" r="10.3"/>
					<circle id="XMLID_626_" class="st1" cx="2612.8" cy="33.8" r="9.5"/>
					<circle id="XMLID_625_" class="st1" cx="2612.8" cy="33.8" r="8.8"/>
					<circle id="XMLID_622_" class="st1" cx="2612.8" cy="33.8" r="8.1"/>
					<circle id="XMLID_621_" class="st1" cx="2612.8" cy="33.8" r="7.3"/>
					<circle id="XMLID_618_" class="st1" cx="2612.8" cy="33.8" r="6.6"/>
					<circle id="XMLID_616_" class="st1" cx="2612.8" cy="33.8" r="5.9"/>
					<circle id="XMLID_615_" class="st1" cx="2612.8" cy="33.8" r="5.1"/>
					<circle id="XMLID_614_" class="st1" cx="2612.8" cy="33.8" r="4.4"/>
					<circle id="XMLID_613_" class="st1" cx="2612.8" cy="33.8" r="3.7"/>
					<circle id="XMLID_612_" class="st1" cx="2612.8" cy="33.8" r="2.9"/>
					<circle id="XMLID_611_" class="st1" cx="2612.8" cy="33.8" r="2.2"/>
					<circle id="XMLID_610_" class="st1" cx="2612.8" cy="33.8" r="1.5"/>
					<circle id="XMLID_609_" class="st1" cx="2612.8" cy="33.8" r="0.7"/>
				</g>
			</g>
			<g id="XMLID_57_">
				<path id="XMLID_58_" class="st0" d="M2521.1,0l0,0.1L2521.1,0c-0.1,0.3-0.2,0.4-0.2,0.6C2521,0.4,2521,0.2,2521.1,0 M2521.2-0.2
					c0,0.1-0.1,0.2-0.1,0.3l0,0C2521.1,0,2521.2-0.1,2521.2-0.2 M2521.2-0.2C2521.2-0.2,2521.2-0.3,2521.2-0.2
					c0,0.1-0.1,0.2-0.1,0.3l0,0C2521.1,0,2521.2-0.1,2521.2-0.2 M2521.2-0.3c0.5-1.2,1-2.5,1.4-3.7l-0.4,1.1
					c-0.3,0.6-0.5,1.2-0.7,1.8C2521.5-0.8,2521.3-0.5,2521.2-0.3C2521.2-0.3,2521.2-0.3,2521.2-0.3 M2521.6-1.4
					c0-0.1,0.1-0.2,0.1-0.3c0-0.1,0.1-0.2,0.1-0.3c0-0.1,0.1-0.3,0.2-0.4c0.2-0.6,0.5-1.1,0.7-1.7l0,0.1c-0.4,1.1-1,2.4-1.4,3.7
					C2521.4-0.7,2521.5-1,2521.6-1.4 M2523.9-6.6c0.9-1.9,1.3-2.7,1.5-3.2l0.1-0.3l0,0.1c0.1-0.2,0.2-0.4,0.3-0.6
					c-0.1,0.1-0.1,0.2-0.2,0.4c-0.2,0.4-0.4,0.7-0.5,1.1c-0.5,1-0.9,2-1.4,2.9c-0.2,0.5-0.4,0.9-0.6,1.3
					C2523.3-5.5,2523.6-6,2523.9-6.6 M2516.9,52.3L2516.9,52.3c-0.1-0.3-0.1-0.7-0.2-1c0.1,0.5,0.2,0.9,0.3,1.4
					C2517,52.6,2517,52.5,2516.9,52.3 M2515.3,39.3c0,0.5,0.1,1.1,0.1,1.7l0,0.9C2515.4,41.1,2515.3,40.2,2515.3,39.3 M2515.4,26.2
					c-0.1,1.6-0.2,3.3-0.2,5.1c0,0.6,0,1.2,0,1.7v0C2515.1,30.1,2515.1,28.7,2515.4,26.2 M2515.1,31.3c0,0.4,0,0.8,0,1.2l0,0.5
					C2515.1,32.5,2515.1,31.9,2515.1,31.3 M2519.3,5.4c-0.1,0.3-0.2,0.6-0.2,0.9c-0.1,0.2-0.1,0.4-0.2,0.6c-0.1,0.2-0.1,0.4-0.2,0.6
					l0,0.1C2518.9,6.8,2519.1,6.1,2519.3,5.4 M2519.4,5.1l0.1-0.1c0,0.1-0.1,0.2-0.1,0.4C2519.3,5.3,2519.3,5.2,2519.4,5.1
					 M2603.2-63L2603.2-63L2603.2-63c0.1,0,0.2,0,0.3,0l-0.1,0l0.1,0c0.2,0,0.4,0,0.5,0l0.1,0l0.1,0h0.1c-0.2,0-0.5,0.1-0.7,0.1
					c-0.3,0-0.5,0.1-0.8,0.1C2603-62.9,2603.1-63,2603.2-63 M2603.4-63L2603.4-63L2603.4-63L2603.4-63 M2604.4-63.1L2604.4-63.1
					l0.1,0l0.5,0c0,0-0.1,0-0.1,0h0l-0.1,0C2604.7-63.1,2604.5-63.1,2604.4-63.1L2604.4-63.1l-0.2,0c0,0-0.1,0-0.2,0
					c-0.1,0-0.2,0-0.3,0C2603.9-63,2604.1-63.1,2604.4-63.1 M2604.5-63.1l0.1,0l0.2,0l0.1,0l0.1,0l0,0l0.1,0h0.1c0.1,0,0.2,0,0.3,0
					c-0.2,0-0.4,0-0.5,0.1L2604.5-63.1L2604.5-63.1 M2604.8-63.1C2604.8-63.1,2604.8-63.1,2604.8-63.1
					C2604.9-63.1,2604.8-63.1,2604.8-63.1L2604.8-63.1 M2605.3-63.2l0.2,0c0,0,0,0,0,0C2605.4-63.2,2605.3-63.2,2605.3-63.2
					L2605.3-63.2 M2605.4-63.2l0.1,0h0.1c0,0,0,0,0,0L2605.4-63.2L2605.4-63.2 M2605.5-63.2C2605.6-63.2,2605.6-63.2,2605.5-63.2
					L2605.5-63.2C2605.6-63.2,2605.6-63.2,2605.5-63.2L2605.5-63.2 M2606.1-63.2L2606.1-63.2C2606.1-63.2,2606.1-63.2,2606.1-63.2
					L2606.1-63.2 M2595.6,54.9c0-0.2-0.1-0.5-0.2-0.7c0-0.1,0-0.2,0-0.3l0-0.3l0-0.1l-0.6-0.9c-0.1-0.1-0.2-0.1-0.3-0.2
					c-0.3-0.3-0.3-0.3-0.3-0.4c-0.2-0.2-0.2-0.2-0.3-1l-0.5-0.1c-0.1,0.1-0.1,0.1-0.2,0.1c-0.1,0.1-0.1,0.1-0.2,0.4
					c0,0.1,0.1,0.2,0.1,0.3c0,0.1-0.1,0.2-0.1,0.3l0,0c0,0.1,0.2,0.2,0.2,0.3c0,0.1-0.1,0.2-0.1,0.3c0,0.1,0.1,0.2,0.1,0.4
					c0,0,0,0-0.2,0.2c-0.2,0.2-0.2,1.8,0.2,2.3c0,0,0.6,0.5,1,0.6c0.2,0,0.2,0,1.3,0C2595.6,55.2,2595.6,55.2,2595.6,54.9
					 M2655.4,115.5c0.3-0.2,0.5-0.5,0.8-0.7c-0.3,0-0.5,0-0.7,0c0,0-0.4,0.1-0.5,0.2l-0.2,0l0.1-0.3l0-0.1c0.1-0.1,0.1-0.2,0.1-0.2
					l0,0c-0.1,0-0.4,0.1-0.5,0.1c-0.6,0.5-0.6,0.5-0.7,0.5c-0.1,0.2-0.1,0.2-0.3,0.4l-0.2,0.2l-0.2,0.3l0,0.1c0,0.2-0.2,0.3-0.3,0.5
					c-0.1,0.1-0.1,0.2-0.2,0.3c-0.1,0.2-0.3,0.2-0.4,0.4l0.1,0l0.1,0l0.2,0c0.2-0.2,0.4-0.3,0.6-0.5l0.1-0.1c0.2,0,0.3,0,0.5,0
					c0.2-0.1,0.4-0.3,0.5-0.4c0.2-0.2,0.3-0.4,0.6-0.5C2655,115.7,2655.2,115.7,2655.4,115.5 M2656.9,114.4l0.4-0.3
					c0.1-0.1,0.1-0.1,0.2-0.2l0-0.1l0.1-0.2l0.2-0.2l0,0l-0.1,0l0,0h0l0,0l0,0c-0.1,0-0.1,0.1-0.2,0.1l-0.1,0l-0.1,0.1
					c-0.3,0.3-0.3,0.3-0.3,0.4l0.1,0c-0.1,0.1-0.1,0.1-0.2,0.2l-0.1,0.1L2656.9,114.4 M2654.4,114.2c0.2-0.2,0.5-0.5,0.7-0.7l-0.1,0
					c0,0-0.3,0.1-0.5,0.3c-0.1,0.1-0.1,0.1-0.3,0.5L2654.4,114.2 M2666.3,114.5c0.3-0.2,0.5-0.3,0.7-0.5c-0.1,0-0.1,0-0.2,0
					c0.5-0.4,0.6-0.4,0.6-0.5l-0.2,0.1c-0.4,0.3-0.8,0.6-1.2,0.8c-1.3,0.7-2.5,1.6-3.8,2.2c-1.4,0.7-1.4,0.7-1.7,0.8
					c-1.1,0.6-1.3,0.7-1.5,0.8h0l0,0h0l0,0h0h0h0l0,0c-0.1,0.1-1,0.5-1.3,0.8v0c0.2,0,0.2,0,0.2,0c-0.1,0.1-0.3,0.2-0.4,0.3l0.1,0
					C2662.9,116.6,2666,114.7,2666.3,114.5 M2656.3,119.9c0.1-0.1,0.2-0.1,0.3-0.2c0.1,0,0.2-0.1,0.2-0.1l-0.1,0c0,0,0,0-0.2,0.1
					l-0.1,0.1L2656.3,119.9l-0.2,0L2656.3,119.9 M2672.1,110.7c0.2-0.2,0.7-0.5,0.7-0.6c-0.1,0-0.1,0-0.2,0.1
					c-0.1,0.1-0.2,0.1-0.3,0.2c-0.1,0.1-0.1,0.1-0.2,0l-0.1,0l-0.1,0.1c1.5-1.2,1.5-1.2,1.6-1.4c-0.3,0.1-0.5,0.4-0.8,0.6
					c0.4-0.5,0.9-0.8,1.4-1.2l-0.1,0c1.3-1.3,1.3-1.3,1.3-1.4l-0.1,0c-0.2,0-0.5,0.4-0.6,0.5c-1.9,2-1.9,2-3,2.9
					c-0.5,0.4-1,0.8-1.5,1.2c-0.1,0-0.2,0-0.3,0c-0.3,0.2-0.6,0.4-0.9,0.7l-0.3,0.2c0.1,0,0.2,0,0.3-0.1c-0.7,0.5-1.4,1-2,1.5l0.2,0
					c1-0.7,2-1.3,3-2.1l0.2,0l0.1,0l0,0c0.4-0.3,1.3-0.9,1.3-0.9l0.1,0L2672.1,110.7 M2685.7,93.1c0.2-0.2,0.3-0.6,0.3-0.6l-0.1-0.1
					c0-0.1,0.1-0.2,0.1-0.3l0,0c-0.1-0.1,0.1-0.3,0.1-0.4c0.4-0.5,0.3-1.2,0.3-1.2l-0.1,0l-0.2,0.1c-0.1,0.2-0.2,0.3-0.2,0.5l0,0
					c0,0,0,0,0,0.2c0,0.1,0,0.1-0.2,0.4c-0.1,0.2-0.3,0.4-0.3,0.7c0,0.2,0.1,0.3,0.1,0.5c0,0.1,0,0.3,0.1,0.4l0,0l0.2,0L2685.7,93.1
					 M2662.1,81.2c0.1-0.2,0.1-0.4,0.2-0.6l-0.5-0.1c-0.5,0.2-0.5,0.2-1.1,0.2c0.1,0,0.2-0.1,0.3-0.1c-0.1,0-0.4,0.1-0.5,0.3
					c0,0-0.3,0.5,0,0.6c0.2,0.1,0.3,0,0.3,0c0.1-0.1,0.1-0.1,0.7-0.2c0.1,0,0.2,0,0.2,0C2661.7,81.2,2661.9,81.2,2662.1,81.2
					 M2671.5,102.3c0.3-0.4,0.6-0.8,0.9-1.1c0.1-0.3,0.2-0.6,0.2-0.9c0.1-0.1,0.1-0.2,0.2-0.3c0.3-0.4,0.7-0.7,0.9-1.1l0-0.1
					c0.2-0.2,0.3-0.5,0.5-0.8c0,0,1.1-1.8,0.4-2.8l0.1-0.2c0.2-0.4,0.5-0.8,0.6-1.2c-1.1-0.1-1.1-0.1-0.9-0.7c0-0.1,0.1-0.2,0.1-0.2
					c0.1-0.2,0.1-0.2,0.4-0.8l-0.2,0c0-0.2,0.1-0.4,0.1-0.6c-0.4-0.3-0.5-0.4-0.5-1.1c-1-0.9-1-0.9-0.4-2c0,0,0,0,0.1-0.2
					c0.1-0.5,0.1-0.5,0.2-0.6c0-0.1,0.1-0.2,0.1-0.3c0,0,0.7-2.3,0.5-2.8c-0.4-0.1-0.8-0.1-1.2-0.4c0.1-0.3,0.2-0.5,0.2-0.8
					c0-0.1,0.1-0.2,0.1-0.3c0.6-1.4,0.4-2.9,0.3-3.2l-0.2,0c-0.1,0.3-0.3,0.6-0.4,0.8c0,0.1-0.1,0.2-0.1,0.3c-0.8,0.8-0.8,0.8-1.8,3
					c-0.1,0.2-0.1,0.4-0.3,0.7c-0.2,0.4-0.2,0.4-0.7,0.9c-0.3,0.7-0.6,1.5-0.9,2.2c-0.6,1-1.1,0.8-1.9,0.7c-0.2-0.3-0.2-0.3-0.1-0.6
					c-0.5-0.7-1.1-1.3-1.5-2c-0.8-0.1-0.8-0.1-0.9-0.4c0.2-0.4,0.4-0.8,0.5-1.2c0,0,0-0.1,0-0.2c-0.1-1.4,1.4-1.6,1.9-2.5l-0.2,0
					c-0.6-0.2-0.6-0.2-0.9-0.2c-0.1,0-0.2,0-0.4,0c-0.5,0-1-0.2-1.5-0.2c0,0-1-0.7-1.5-0.9l-0.2,0c-0.1,0-0.2,0-0.3,0
					c-0.1,0-0.3,0.1-0.4,0c0,0.2-0.1,0.3-0.2,0.6l0,0.2c0.5,0.2,0.5,0.2,0.9,0.4c-0.3,0.7-1.1,0.2-1.6,0.5c-0.5,0.3-1,0.8-1.5,1.1
					c-0.5,0.3-0.5,0.3-0.7,0.6c0,0,0,0.1-0.1,0.3c-0.1,0.7-0.4,1.2-0.5,1.3c-0.2,0.4-1.5,0.4-1.6-0.2c-0.2,0-0.5,0-0.7,0l-0.1-0.1
					c0-0.1,0-0.3,0-0.5c-0.2,0-0.3,0-0.6,0c-0.8,0.3-1.5,0.8-2.2,1.2c-0.8,0.4-1.3,1.4-2.4,1.4c0,0.2-0.1,0.3-0.1,0.6
					c0.3,0.5,0.3,0.5,0.3,0.6c-0.1,0.2-0.1,0.3-0.1,0.5c-0.4,0-0.7,0-1.1,0c0.1-0.3,0.1-0.6,0.2-0.8c-0.2,0-0.5,0-0.7,0
					c-0.3,0.1-3.3,3.8-3.3,3.8c-0.1,0.2-0.2,0.3-1,0.6c-1.3,0.5-2.9,0-4.1,0.9c-0.6,0.4-1.4,0.4-2,0.9c-0.4,0.3-0.1,0.9-0.6,1.1
					c-0.2,0.1-0.3,0.1-1-0.2c0-0.1,0-0.3,0-0.4c-0.3,0.5-0.3,0.5-0.6,0.6l0,0.2c0,0.1,0,0.2-0.1,0.3c0,0.3,0,0.3-0.1,0.7
					c0,0.1,0,0.2-0.1,0.3c-0.6,0.5-0.9,0.8,0,2.7c-0.4,0.2-0.8-0.3-1.3,0c0,0.1-0.1,0.3-0.1,0.4c0.8,1.8,1.5,3.5,0.7,7.1
					c-0.1,0.3-0.2,0.6-0.4,0.9c-0.7,0-1.3,0.5-1.4,0.6l0,0.2c0.1,0,0.3,0,0.4,0c0.1,0.1,0.1,0.3,0.1,0.4c0.4,0.3,1.7,1.3,3.2,0
					c0.9-1,1.4-0.9,3.7-0.5c0.3,0,0.5,0.1,1.4-0.7c1-0.9,2.1-1.3,2.5-1.4c0.4-0.1,0.5,0,0.7,0.2c1.6-0.1,2.7-2.3,4.6-1.2
					c0.4,0.4,0.4,0.4,0.9,0.4c0.1,0,0.3,0,0.4,0c0.4,0,0.4,0,0.6,0.1c0,0.5-0.3,0.8-0.4,1.3c0.1,0,0.3,0,0.4,0.1c0,0,0,0-0.7,1.5
					l0.1,0.2c0.8-0.1,3-2.1,3-2.1l0.2,0.1l0,0.2c-0.5,0.5-1.1,0.9-1.5,1.5l0.2-0.1c0.3-0.3,0.3-0.3,0.7-0.3
					c-0.2,0.2-0.3,0.4-0.6,0.7l-0.2,0.2l-0.2,0.2c-0.4,0.4-0.4,0.4-0.5,0.6c0.4-0.1,0.6-0.5,1-0.4c-0.1,0.2-0.3,0.4-0.4,0.6l0.1,0.2
					l0,0.2l-0.2,0.2c0,0-0.1,0.1-0.2,0.2c-0.7,0.8-0.7,0.8-0.4,1.3c0.6,0,0.6,0,0.7,0c0,0.1,0,0.3,0.1,0.4c0.8,0.3,1.6-0.6,2-0.9
					c0.1,0,0.2,0,0.4,0.1c-0.1,0.3-0.4,0.5-0.5,0.7l0.2,0.1c3.8-1.2,3.8-1.2,6.1-3.1c0,0,0.1-0.1,0.2-0.3
					C2665.5,106.6,2668.9,104.9,2671.5,102.3 M2690.9,77.2L2690.9,77.2l0.1-0.1l0-0.2l0-0.1l0-0.2l0,0l-0.1,0l0,0
					c-0.1-0.1-0.1-0.1-0.2-0.1c-0.1,0-0.2,0.1-0.2,0.1c0,0.2-0.1,0.3-0.2,0.5c0,0,0,0.2,0,0.2c0,0.2,0.1,0.1,0.2,0.1l0.1,0
					C2690.8,77.3,2690.9,77.2,2690.9,77.2 M2688.8,73.7L2688.8,73.7c0-0.1,0.1-0.2,0.1-0.3c0-0.1,0-0.2,0-0.3c0-0.1,0.1-0.2,0.1-0.3
					l0-0.1l-0.1-0.3c0,0-0.1-0.3-0.2-0.3c-0.1,0-0.1-0.1,0-0.3c0.1-0.1,0.1-0.3,0.1-0.4l-0.2,0l-0.2,0.1c0,0.4,0,0.4-0.1,0.6
					c0,0.1-0.1,0.2-0.2,0.4l0.1,0.4c0,0.1,0.1,0.1,0.2,0.2c0.1,0.2,0,0.4,0,0.6l0.1,0.2l0.1,0L2688.8,73.7 M2687.1,70.1
					c0-0.1,0-0.2,0-0.3c-0.1,0.1-0.3,0.1-0.4,0.1l-0.4,0.3c-0.2,0.2-0.1,0.4-0.2,0.6l-0.4,0.6l0,0c0,0,0,0-1,0.1l-0.2,0l-0.2,0
					c-0.2,0-0.4,0-0.7,0l-0.2-0.1c-0.1,0.2-0.2,0.3-0.3,0.5c-0.1,0.2-0.1,0.4-0.1,0.6l-0.1,0.1c0.2,0,0.5-0.1,0.7-0.1
					c0.2,0,0.3,0.1,0.5,0.1l0.8-0.1c0.2-0.1,0.3-0.2,0.3-0.3c0.1-0.1,0.1-0.1,0.2-0.1c0.3,0,0.3,0,0.4-0.1l0,0l0.1-0.1
					c0,0,0.3-0.4,0.4-0.6c0.1-0.2,0.2-0.5,0.3-0.7c0.1-0.1,0.2-0.2,0.3-0.4C2687,70.3,2687,70.2,2687.1,70.1 M2664.2,76.2
					c0.1-0.3,0.1-0.6,0.1-0.8c0-0.1-0.1-0.2-0.1-0.3c-0.7,0.3-1,0.6-1,0.6c0,0-0.2,0.5-0.3,0.8c0,0.1,0,0.2,0,0.3c0.2,0,0.5,0,0.7,0
					C2663.8,76.6,2664.1,76.4,2664.2,76.2 M2657.8,76.1L2657.8,76.1l-0.1-0.3c-0.4,0-0.8,0-1.2,0c0,0.1-0.1,0.2-0.1,0.3
					c0,0.1,0.1,0.2,0.1,0.2l0,0l0.2,0c0.1,0,0.1,0,0.2-0.2c0.2-0.2,0.3,0.1,0.5,0.1l0.1,0C2657.7,76.3,2657.7,76.2,2657.8,76.1
					 M2668.3,72.7l0-0.1c0-0.1-0.1-0.1-0.2-0.2c-0.1,0.1-0.3,0.2-0.4,0.3l-0.2,0.2l-0.2,0.1l0,0c-0.1,0.1-0.1,0.2-0.1,0.3
					c0,0.1-0.1,0.2-0.1,0.3c-0.1,0.1-0.1,0.3-0.2,0.4c0,0.1-0.1,0.1-0.2,0.2l0,0.1l0.1,0c0.1,0,0.3,0,0.4,0l0.1,0c0,0,0.1,0,0.3-0.2
					c0.1-0.1,0.1-0.2,0.2-0.3c0.1-0.2,0.2-0.3,0.4-0.5l0.1-0.1C2668.3,73,2668.3,72.8,2668.3,72.7 M2682.5,79
					c0.1-0.3,0.2-0.6,0.4-0.9c0-0.3-0.1-0.3-0.4-0.4c-0.1-0.2,0.1-0.6-0.2-0.8l-1.3-0.3c0.2-0.6,0.4-1.2,0.6-1.8c-0.4,0-0.6,0-0.9,0
					c0.1-0.5,0.3-0.9,0.5-1.4c0.4,0,0.5-0.1,0.7,0c0-0.2,0.1-0.3,0.1-0.5c-0.2-0.1-0.2-0.4-0.3-0.6c-0.2,0-0.3,0-0.5,0
					c-0.2,0-0.4,0-0.6,0c-0.1-0.4-0.1-0.8-0.1-1.3l0-0.1l-0.2-0.1c-0.1-0.1-0.1-0.1-0.6-1.1c-0.2-0.5-0.9-0.1-1.2-0.4
					c-0.1-0.1-0.1-0.1-0.1-0.4l-0.1-0.1c-0.2,0-0.2,0-0.6-0.1c-0.4-0.1-0.5-0.5-0.9-0.7c-0.4-0.1-0.7,0.1-1.1,0l-0.1,0h0h0l0,0h0h0
					h0l0,0h0l0,0h0h0h0h0h0h0l-0.1,0c-0.9,0-1.2-1.1-1.9-1.3c-0.1,0-0.1,0-0.8,0.5c-0.3,0.2-0.7,0-1,0.2c-0.5,0.3-0.5,0.4-0.6,0.7
					c-0.1,1-0.8,1-1.8,0.9c-0.5,0-0.1-0.8-0.6-0.9c-0.4-0.1-0.7,0.3-1,0.3c-0.5,0-1,0-1.6,0.1c0,0.2-0.1,0.4-0.1,0.6
					c0.5,0.2,0.5,0.2,0.2,1.2c0.1,0,0.3,0,0.4-0.1l0-0.2c0.2-0.1,0.3-0.2,0.5-0.3c0.5,0.3,1.2,0.1,1.6,0.6c0.5,0.6,0.5,0.6,0.6,0.6
					c1-0.2,2,0.2,2.3,0.9c0.6,1.2,0.7,1.7,0.6,1.8c-0.3,0.7-0.3,0.9-0.7,1.1c-0.4,0.3-0.9,0.4-1.3,0.8c-0.1,0.1-0.1,0.2-0.2,0.6
					c0,0,0,0.9,1.3-0.1c0.2-0.4,0.4-0.7,0.8-0.6c0.2,0.1,0.3,0.2,0.4,0.4c0.2,0.4,0.2,0.5,0.5,0.6c0.3,0.1,0.5,0.4,0.8,0.5
					c0.4,0.2,1.3,0.3,1.6,0.1l0.5-0.3c0.2-0.3,0.2-0.6,0.4-0.9c0.9,0,1-1,1.8-1.1l0.1,0c0.1,0,0.9,0.5,1,0.8
					c0.4,0.8,0.2,1.7,0.5,2.6l0.1,0c0.1,0,0.7-0.1,1.3-0.2c0.2,0,0.2,0,0.5,0.6C2682,79.2,2682.2,79.1,2682.5,79 M2658.2,67.9
					L2658.2,67.9L2658.2,67.9c-0.1-0.1-0.1-0.1,0-0.6c-0.1,0-0.3,0-0.4,0c-0.3,0-0.5,0-0.8,0l-0.1,0.1c0,0.1,0,0.1-0.1,0.1l-0.2,0
					l0,0c-0.1,0.1-0.1,0.2-0.1,0.3c0.1,0.1,0.1,0.2,0.2,0.2c0.1,0,0.2,0,0.3,0c0.1,0,0.2,0,0.3,0c0.2,0,0.4,0.1,0.5,0.1
					C2657.9,68,2658,68,2658.2,67.9 M2671.6,67.4c0-0.1,0-0.2,0.1-0.4c-0.2,0-0.4,0-0.5,0c0.2-0.6,0.2-0.6,0.2-0.8l0-0.2
					c0-0.1,0.1-0.2,0.1-0.3c-0.2,0-0.3,0-0.5,0c-0.1,0-0.2,0-0.4,0c0,0,0,0.3,0,0.5l0,0.2c0,0.3-0.2,0.6-0.2,0.9
					C2670.8,67.4,2671.2,67.4,2671.6,67.4 M2665,66.5L2665,66.5L2665,66.5L2665,66.5 M2668.6,67.6L2668.6,67.6c0-0.1,0.1-0.2,0-0.3
					c0-0.1-0.2,0-0.2-0.1c0-0.2,0-0.3,0.1-0.5c0.2-0.7,0.2-0.8,0.1-0.9c-0.1-0.3-1-0.3-1-0.3c-0.4,0-0.7,0.4-1.1,0.5
					c-0.3,0-0.5,0-0.8,0c-0.1,0-0.4,0.2-0.6,0.4l0.1-0.2c-0.1,0-0.2,0-0.3,0c-0.1,0-0.1,0-0.6,0.3c0,0.1,0,0.2,0,0.3
					c0.2,0,0.3,0.1,0.6,0.3c0.1,0.1,0.2,0.1,0.5,0.1c0.4-0.1,0.5,0.3,0.5,0.3c0,0.6,0,0.6,0.3,0.6l0.1,0c0.1,0,0.2,0,0.3,0
					c0,0,0.3,0,0.6-0.2c0.2,0,0.4,0.1,0.7,0.1c0.2,0,0.4,0,0.6,0C2668.4,67.8,2668.5,67.7,2668.6,67.6 M2665.5,64.9
					c0-0.1,0-0.2,0-0.3l-0.3-0.3l-0.1,0c-0.1,0-0.2,0-0.2,0l-0.2,0l-0.1,0.1c-0.1,0.1,0,0.2-0.1,0.3c-0.1,0.1-0.2,0.2-0.2,0.4
					l-0.1,0.2c0.4,0.3,0.4,0.3,0.5,0.4l0.4,0C2665,65.6,2665.4,65.3,2665.5,64.9 M2664.1,68.3c0.1-0.3,0.1-0.6,0.2-0.9
					c-0.3,0-0.5,0-0.8,0c0,0.2-0.1,0.3-0.1,0.5l-0.1-0.3c0,0.1,0,0.2-0.1,0.3c0,0.2,0,0.3,0,0.5
					C2663.7,68.3,2663.8,68.3,2664.1,68.3 M2663.9,70.3L2663.9,70.3c0.1-0.6,0.1-0.6,0.2-0.9c-0.3,0-0.6,0-0.9-0.1
					c-0.2,0-0.3-0.1-0.5-0.1c-0.1,0-0.2,0-0.3,0c-0.4,0-0.8-0.3-1.3-0.3c-0.2,0-0.2,0-0.6,0.7c0-0.1,0-0.2,0.1-0.3
					c0,0.1-0.1,0.2-0.1,0.3c0,0.1,0.1,0.2,0.1,0.2c0.3,0,0.5,0,0.8,0c0.2,0,0.4-0.1,0.6-0.1c0.1,0,0.2,0.1,0.2,0.1l0.3,0
					c0,0,0.1,0,0.7,0.2c0.1,0,0.1,0.2,0.2,0.2C2663.4,70.3,2663.4,70.3,2663.9,70.3 M2659.5,70.4c0-0.2,0.1-0.3,0.1-0.5l0-0.1
					c0-0.1,0-0.2-0.1-0.2c0,0-0.1,0-0.2-0.1c-0.1,0-0.3,0-0.4-0.1c-0.1,0-0.2-0.1-0.4-0.1l-0.1,0c-0.1,0.2-0.1,0.4-0.2,0.6
					c0.1,0.1,0.1,0.2,0.1,0.3c0.3,0.2,0.3,0.2,0.5,0.2C2659.2,70.4,2659.4,70.4,2659.5,70.4 M2663,64.3c0-0.2,0-0.3-0.1-0.4
					c-0.1-0.1-0.2-0.1-0.3-0.2l0,0l0-0.2c0-0.1,0-0.1,0.1-0.5c-0.3-0.1-0.3-0.1-0.8,0c0-0.1,0-0.3,0.1-0.4c0.1-0.4,0.2-0.4,0.3-0.4
					l0.2-0.1c0-0.1,0-0.1,0.1-0.7c-0.3,0.4-0.3,0.4-1,1.1c-0.1,0.1-0.1,0.1-0.3,0.1c-0.1,0-0.1,0-0.2,0.3l0,0.1c0,0.3,0.1,0.5,0,0.8
					l-0.2,0.8c0,0.1,0,0.1-0.1,0.2c-0.2,0.2-0.4,0.6-0.4,0.7l-0.1,1c0.1,0,0.2,0,0.3,0c0.1,0,0.2,0.2,0.3,0.1c0.1,0,0.1,0,0.6-0.2
					c0.2-0.7,0.2-0.7,0.3-1.6c0.4-0.2,1.1-0.1,1.3,0C2662.9,64.6,2662.9,64.5,2663,64.3 M2655.4,67.1c0.1-0.6-1-1.2-1-1.2
					c-0.1,0-0.2,0-0.3,0l-0.2,0c0,0-0.4,0.1-0.5,0.4c0,0-0.5,0.6-1,0.7c-0.2,0-0.9-0.2-0.9-0.2c-0.2-0.1-0.4-0.3-0.7-0.3
					c-0.1,0-0.2,0-0.3,0c-0.2,0-0.8,0.7-0.8,1.2c0,0.2,0,0.2-0.1,0.2l-0.1,0.1c-0.1,0.2-0.1,0.6-0.1,0.6c0,0.2,0,0.2-0.3,0.4l-0.3,0
					l-0.1,0.1c-0.6,0.6-0.6,1.4,0.9,1.4c0,0.1,0,0.1,0,0.2c0.1,0.6-0.4,0.9-0.5,1.4c0,0.3,0,0.3,0,0.4l0.1,0.1
					c0.1,0.1,0.1,0.1,0.2,0.8c0.4-0.3,0.6-0.4,0.6-0.4s0.1-0.1,0.1-0.2c0.1-0.3,0.1-0.7,0.2-1c0-0.1,0.2-0.2,0.2-0.3
					c0.1-0.7,0.2-1.3,0.3-2c0.3,0,0.6,0,0.8,0c0,0.2-0.1,0.4-0.1,0.7l-0.2,0.3c0,0.1,0,0.2,0,0.3c1.1,0.3,1.1,0.3,1.3,0.3
					c0,0.2-0.1,0.4-0.1,0.6c-0.1,0.2-0.2,0.4-0.3,0.6c0,0.1,0,0.2-0.1,0.3c0,0.2-0.1,0.7,0.5,0.7c0.3,0,0.6,0,0.9,0
					c0-0.1,0.1-0.2,0.1-0.3c0-0.1,0.1-0.3,0.1-0.4c0-0.3,0.1-0.6,0.1-0.7c0-0.1-0.2-0.1-0.3-0.2c-0.1-0.1-0.1-0.2-0.2-0.3
					c-0.3-0.4-0.3-0.4-0.1-1.1c0-0.1,0-0.2,0-0.3c0.1-0.3,0.1-0.3-0.4-0.8c-0.1-0.2-0.4-0.1-0.6-0.3l0-0.3c0-0.2,0.1-0.4,0.1-0.5
					c0.3,0,0.5,0.1,0.7,0c0.3,0,0.5-0.3,0.9-0.4c0.3,0,0.6,0.1,1,0l0,0C2655.3,67.4,2655.4,67.2,2655.4,67.1 M2658.1,63.1l0-0.1
					c-0.1,0-0.2,0-0.3,0c-0.3,0-0.3,0-0.5,0.4c-1.5,0-3.1,0.1-4.7,0.1c-0.4,0.1-0.5,0.5-0.9,0.6c-1,0.2-1,0.2-1,0.2
					c-0.1,0-0.2,0.1-0.3,0.1c-0.4,0.3-0.4,0.8-0.4,1.2c0.4-0.2,0.8-0.3,1.2-0.5c0.1-0.1,0.2-0.3,0.3-0.4c0.5-0.3,0.5-0.3,0.7-0.3
					c0.1,0,0.1,0,0.2,0c0.1-0.1,0.2-0.2,0.3-0.3l0.5,0.1c0.6,0,1.2,0,1.7,0c0.2,0,0.6,0.2,0.7,0.3c0.1,0.1,0.1,0.2,0.2,0.2
					c0.3,0,0.4-0.1,0.7-0.2c0.2-0.1,0.2-0.4,0.4-0.3l0.1,0C2657.4,64,2657.8,63.8,2658.1,63.1 M2653.3,79.2L2653.3,79.2L2653.3,79.2
					 M2658.4,77.2L2658.4,77.2l-0.2-0.2c-0.1-0.1-0.1-0.2-0.2-0.3c-0.1,0-0.3-0.1-0.7-0.1c-0.3,0-0.4,0.1-0.5,0.2
					c-0.1,0.1-0.1,0.1-0.5,0.3c-0.2,0.1-0.3,0.2-0.5,0.3c-0.2,0-0.4,0.1-0.5,0.1c-0.1,0-0.1,0.1-0.1,0.2c0,0.1,0,0.2-0.3,0.2
					c-0.6,0-0.6,0-0.7,0c-0.2,0.1-0.2,0.3-0.3,0.3c-0.2,0.1-0.4,0.3-0.4,0.3l-0.1,0.2l0,0.1l0,0.1l0-0.1c-0.1,0.4-0.1,0.4,0,0.5
					c0,0,0.7,0.3,0.9,0.2c0.1-0.1,0.2-0.2,0.2-0.3c0.1-0.2,1-0.9,1-0.9c0.3-0.3,0.8-0.1,1.1-0.3c0.2-0.1,0.3-0.3,0.5-0.5
					c0,0,0.3-0.1,0.7-0.1C2658.3,77.5,2658.3,77.5,2658.4,77.2L2658.4,77.2 M2652.7,80.8c0-0.2,0.1-0.3,0.1-0.5l-0.1-0.3
					c-0.3,0.1-0.3,0.1-0.9,0.4c0,0.3,0,0.3,0,0.4C2652.1,80.8,2652.4,80.8,2652.7,80.8 M2655,76.9L2655,76.9c0-0.1,0-0.2,0-0.3h-0.2
					c-0.1,0-0.1,0-0.2,0.1c-0.1,0.1-0.1,0.1-0.2,0.1c0,0,0,0-0.6,0c-0.3,0-0.5,0.1-0.8,0.2c-0.1,0-0.2,0-0.3,0c-0.3,0-0.6,0.2-1,0.2
					c-0.1,0-0.4,0-0.5-0.2c-0.3-0.4-1.2-0.4-1.7-0.1c-0.2,0.1-0.3,0.3-0.5,0.3c-0.1,0-0.2,0-0.3,0c0.2,0.1,0.3,0.5,0.5,0.5
					c0.1,0,0.1,0,1.5,0l0.2,0c1.2,0,1.2,0,1.2,0c0.3-0.1,0.6-0.1,0.8-0.2l0.1-0.1c0.1-0.1,0.2-0.3,0.4-0.3l0.4,0
					C2654.7,77.1,2654.7,77.1,2655,76.9 M2649.8,79.6l0.1,0c0-0.1,0-0.2,0-0.3c-0.5-0.1-0.5-0.2-0.6-0.2c0-0.1,0-0.2,0-0.3l-0.1,0
					l-0.4-0.1c-0.1-0.1-0.1-0.2-0.2-0.3c-0.2,0-0.3-0.1-0.4-0.1c-0.1,0-0.1,0-0.6,0.3c0.1,0.3,0.1,0.3,0.2,0.4
					c0.1,0.1,0.1,0.3,0.2,0.4c0,0.1,0,0.2,0.1,0.3C2648.4,79.7,2648.6,79.7,2649.8,79.6 M2648.1,77.4L2648.1,77.4L2648.1,77.4
					c-0.1-0.1,0-0.2,0-0.4c-0.6,0-0.6,0-0.7-0.1l-0.1,0l0,0c-0.1,0-0.2,0-0.2,0c-0.1,0-0.3-0.1-0.4-0.1c-0.1,0-0.2,0-0.4,0.1
					c-0.1,0-0.1,0-0.2,0.1c-0.1,0.1-0.2,0.2-0.3,0.3l0,0c-0.2,0.1-0.5-0.1-0.7,0c-0.1,0-0.2,0.1-0.3,0.1c-0.2,0.2,0.2,0.6,0.4,0.6
					c0.1,0,1,0,1,0c0,0,0.4-0.1,0.5-0.3c0.1-0.1,0.1-0.2,0.2-0.2c0.2,0,0.4,0.1,0.5,0.1C2647.5,77.5,2647.5,77.5,2648.1,77.4
					 M2643.5,77.7L2643.5,77.7c-0.2-0.7-0.2-0.9-0.5-0.8c-0.3,0-0.4-0.2-0.6-0.5c-0.7,0-1.4,0-2.2,0c0.1-0.9,1.1-0.6,1.7-1
					c-0.3,0-0.6-0.2-0.9-0.2l-1.4-0.1c-0.8-0.1-1.5-0.4-2.3-0.5c-2.2,0.1-5.1,0.2-7.3,0.3c0,0.1,0,0.2,0,0.4c0.3,0,0.6,0,0.9,0
					c0,0.2,0,0.4,0,0.6c0.7,0,0.7,0,0.8,0c0.4,0.2,0.5,0.7,0.9,0.8c0.6,0.1,1.1-0.3,1.6-0.3c0.4,0,0.8-0.2,1.3-0.1
					c0.3,0.1,0.2,0.4,0.5,0.5c0.6,0.1,1.2-0.3,1.7,0.1c0.7,0.6,0.7,0.6,1.6,0.6c0.1-0.4,0.1-0.5,0.3-0.6c0.3-0.1,0.5,0.2,0.8,0.2
					c0.1,0,0.2,0,0.3,0c1-0.4,1.5,0.8,2.3,0.8c0.1,0,0.2,0,0.3,0L2643.5,77.7 M2625.8,73.6c0-0.1,0-0.2,0-0.3l-0.1-0.2
					c0-0.1,0-0.2,0-0.3c-0.1,0.1-0.2,0.2-0.2,0.3c0,0.1,0,0.2,0,0.3L2625.8,73.6 M2650.8,57.9L2650.8,57.9c0-0.6,0-0.6-0.1-0.7
					c-0.2-0.2-1.2-0.1-1.2-0.1c-0.2,0-0.8-0.4-0.8-0.4c0-0.2,0.1-0.4,0.1-0.6l-0.5-0.8l-0.6-0.2c-0.3,0.9-1.3,1.1-1.8,1.7
					c-0.5,0.6-0.7,1.4-1.3,1.9c-0.4,0.3-1,0.1-1.5,0.5c-0.3,0.3-0.8,0.7-0.8,1.1l-0.1,0.2c-0.5,0.3-0.8,0.8-1.3,1
					c-0.3,0.2-0.5,0.2-1.1,0.2c0,0.5-0.1,1.1-0.2,1.6c-0.6-0.1-1.1,0.2-1.6,0.1c-0.3,0-0.3-0.1-0.6-0.5l-0.3-0.2c-0.1,0-0.2,0-0.3,0
					c-0.1,0-0.2,0-0.3,0.1c0,0.8,0,0.8-0.1,0.9c-0.1,0.2-0.4,0.3-0.5,0.6l-0.2,1.3c-0.1,1,1.5,1,1.3,2.1l0.1,0.2c0,0.1,0,0.2,0,0.3
					c-0.2,0.7-0.3,1.1,0,1.5c0.5,0.5,1.2,0.1,1.8,0.3c0.1,0.5,0.3,0.7,0.5,0.7c0.8,0.2,1.4-0.5,2.2-0.4l0.1,0c0.1,0,0.1,0,0.4,0.5
					c0.2,0.3,0.5-0.3,0.8-0.1c0.1,0,0.3,0.2,0.4,0.5c0.1,0.1,0.1,0.1,0.3,0.2c0.2,0,0.2,0,0.6,0c0.1,0,0.3,0,0.4,0l0.2-0.1
					c0-0.2,0-0.4,0.1-0.6c0-0.1,0-0.1,0.7-0.5c0.5-0.3,0.3-0.9,0.2-1.1c-0.1-0.2-0.2-0.4-0.2-0.4l0.8-1c0.2-0.2,0.2-0.3,0.5-1.2
					c0.3,0,0.6,0,0.9,0c0.1-0.5,0.1-1.1,0.2-1.6c2.5,0,1.7-0.9,1.6-1c-0.5,0-0.5,0-1.2,0c-0.1-0.3-0.1-0.3,0.1-0.8
					c0-0.2,0-0.3,0.1-0.5c0.1-0.5-0.2-0.9-0.2-1.3c0-0.5,0.1-1.1,0.1-1.6c0.7,0,0.7,0,1.1,0C2649.4,58.5,2649.4,58.3,2650.8,57.9
					 M2623.4,70.8c0-0.4,0-0.8,0.1-1.2c-0.1,0-0.2-0.1-0.3-0.1c-0.1-0.1-0.1-0.2-0.3-0.3c0,0-0.3-0.1-0.5-0.1
					c-0.5,0.1-0.7-0.8-0.7-0.8c-0.1-0.4,0.1-0.8,0-1.2c-0.1-0.2-0.1-0.2-0.6-0.4c-0.3,0.6-0.2,1-0.2,1.1c0.2,0.4,1.3,1.9,1.5,2
					c0.3,0.1,0.3,0.1,0.5,0.4C2623,70.8,2623.1,70.8,2623.4,70.8 M2618.6,64l0-0.1l-0.1-0.1C2618.5,63.9,2618.6,64,2618.6,64
					L2618.6,64 M2620,65.3l0-0.3c0-0.4-0.1-0.6-0.1-0.6c-0.1-0.1-0.2-0.1-0.3-0.2c-0.2-0.2-0.2-0.4-0.4-0.5l-0.1-0.1
					c-0.1-0.1-0.3-0.1-0.4-0.1l0,0c-0.2,0.3-0.3,0.5,0.3,1c0.1,0.1,0.2,0.2,0.3,0.3c0.1,0.1,0.2,0.1,0.3,0.2
					c0.1,0.1,0.2,0.3,0.2,0.4l0,0.1L2620,65.3 M2617.8,62.6c0-0.1,0.1-0.2,0.1-0.3c-0.2-0.1-0.4-0.2-0.5-0.3l-0.1-0.2
					c0-0.1,0-0.2-0.1-0.3l-0.3-0.2c0,0.1-0.1,0.2-0.1,0.4c0,0.1,0.1,0.1,0.1,0.2l0.1,0.2l0.1,0.2l0,0.2l0,0l0,0
					c0,0.1,0.2,0.1,0.4,0.1h0h0h0h0h0h0h0h0L2617.8,62.6 M2632.6,69.8c0,0-0.2-0.7-0.6-0.7c-0.6,0-0.5-0.1-0.1-0.8l0-0.2
					c0,0-1.4-1.3-1.9,0.4c-0.3,0-0.5,0-0.8-0.1c0-0.4,0.4-1-0.1-1.3c-0.1,0-0.2,0-0.3,0c-0.7,0-0.7,0-0.8,0c0,0-0.9-0.6-0.9-0.9
					c0-0.5,0-1,0-1.5c-1.1,0.1-1.1,0.1-1.6-0.5c-0.4-0.4-0.1-1.1-0.4-1.6c-0.1,0-0.2,0.1-0.3,0.2c-0.1,0-0.2,0-0.3,0
					c-0.5,0-0.8,0-1.3-0.6l-0.1-0.3c-0.6-0.2-0.9-0.8-1.3-1.2c-0.8-0.7-0.8-0.7-0.9-0.7c-0.2-0.1-0.4,0-0.5-0.2
					c-0.2-0.2,0-0.5-0.1-0.7c-0.2,0-0.5-0.1-1-1.1c-0.5,0.1-0.9,0.4-1.4,0.3c-0.6-0.1-0.9-0.8-1.6-0.9c-0.7,0.2-0.3,0.7,0.5,1.7
					c0.5,0.6,1.3,0.9,1.8,1.5c0.5,0.6,0.5,0.6,0.6,1.2c0.2,0.6,0.2,0.7,0.8,0.6c0.5,0,0.7,0.2,0.7,0.4c0.3,0.5,0.3,0.5,0.3,1.5
					c0,0.1,0,0.2,0,0.3c0.4,1,1.5,1.2,2,2c0.3,0.5,0.7,0.8,0.9,1.4c0.2,0.5,0.2,1.1,0.5,1.7c0.5,0.9,1.5,1.4,2.1,2.2
					c0.7,1,0.7,1,1,1.2c0.9,0.7,0.9,0.7,1,1l1.8-0.2c0.1,0,0.6-0.6,0.6-0.6c0-0.1,0-0.2,0-0.3c0.1-0.8,0.1-0.8,0.3-1.8
					c0-0.1,0-0.2,0-0.3c0.2-0.8,1.1-0.3,1.6-0.6L2632.6,69.8 M2660.6,54.8l0.2-0.3l-0.2-0.6c0.1-0.8,0.1-1.6,0.2-2.4
					c0-0.2-0.1-1-0.6-1.1c-0.1,0-0.2,0.1-0.3,0.3c-0.1,0.2-0.1,0.5-0.3,0.7c0,0-0.4,0.3-0.7,0.2c-0.2-0.1-0.5,0.2-0.7,0.5
					c-0.1,0.4-0.1,0.5-0.9,0.5c-0.2,0,0-0.3-0.1-0.5c-0.3,0-0.7,0.1-0.9,0.2l0,0.3c-0.2,0.2-0.3,0.2-0.7,0.2c-0.7,0-0.9,0.8-0.9,0.8
					c0,0.5-0.1,1.1-0.1,1.6c0.1,0.1,0.2,0.2,0.3,0.2c0.1-0.1,0.2-0.2,0.2-0.3c0-0.1,0-0.2,0-0.3c0-0.1,0-0.2,0-0.3
					c0-0.3,0-0.3,0-0.3l0.7-0.4c0.2-0.1,0.2-0.1,1.4,0c0,0.2,0,0.4-0.1,0.6c-0.1,0.8-0.1,0.8,0.1,1l0.2,0.1c0.1,0.1,0.3,0,0.4,0.1
					c0.2,0.1,0.3,0.2,0.4,0.3c0.2,0.1,0.2,0.1,0.4,0.1c0.1,0,0.1,0,0.3,0.3c0,0.1,0,0.2,0,0.3c0.1,0,0.2-0.1,0.3,0
					c0.1,0,0.2,0.2,0.3,0.2l0.3-0.1c0-0.2,0.1-0.4,0.1-0.6c0-0.4-0.1-0.4-0.2-0.4c-0.1,0-0.1,0-0.2-1c0.1-0.1,0.1-0.2,0.3-0.2
					c0.1,0,0.1,0,0.3,0.1c0,0,0.3,0.1,0.5,0.1L2660.6,54.8 M2657.4,50.9c0-0.3,0-0.6,0.1-1c0-0.3-0.1-0.4-0.3-0.6
					c-0.4-0.1-0.4-0.1-0.5-0.2c-0.2-0.2,0.1-0.6-0.2-0.8c0,0-0.4-0.3-0.6-0.3c-0.1,0-0.1,0-0.2-0.1c-0.1-0.1-0.1-0.3-0.2-0.4
					c-0.1-0.1-0.1-0.2-0.1-0.5c0-0.4,0-0.4-0.4-1c-0.2-0.3-0.6-0.3-0.9-0.6c-0.1-0.2-0.2-0.4-0.4-0.5l0,0c0,0,0,0-0.5-0.1
					c-0.2,1.3,0.2,1.3,1.2,1.3c-0.1,1-0.1,1,0.1,1.2c0,0,0.2,0.6,0.1,1.1c-0.1,0.5-0.1,0.5-0.1,0.6c0.4,1,1.1,0.8,1.4,0.7
					c-0.1,0.1-0.2,0.2-0.2,0.3l-0.2,0.6c0,0.1,0,0.4,0.1,0.4c0.6,0.4,1.1,0.2,1.1,0.2c0.2-0.1-0.1-0.3,0.1-0.4
					C2656.8,50.9,2656.8,50.9,2657.4,50.9 M2660.1,48.1L2660.1,48.1c-0.1-0.8-0.2-1-0.5-1.3c-0.3-0.2-0.3-0.2-0.3-0.3
					c0-0.1,0-0.1-0.1-0.3c-0.3-0.8-0.9-0.8-0.9-0.8c-0.1,0-0.1,0-0.1,0c0-0.1-0.1-0.3-0.1-0.4c0-0.1,0.1-0.2,0.1-0.3
					c0-0.3,0-0.6,0-1c-0.1,0-0.2,0.1-0.3,0.1c-0.1,0-0.2-0.1-0.3-0.1c-0.1,0-0.2,0-0.3,0c-0.1,0-0.2,0-0.3,0c-0.4,0-0.4,0.2-0.4,0.3
					c0,0.1,0,0.2-0.4,0.3c0,0-0.8,0.2-1,0.2c0.2,0.2,0.9,0.7,0.9,0.7c0.3,0.2,0.3,0.2,0.4,0.1l0.1,0c0,0.1,0,0.2,0,0.3
					c0.1,0.2,0.4,0.2,0.5,0.4c0.3,0.3,0,0.8,0.2,1.1c0.1,0.1,0.2,0.1,0.3,0.2c0.2,0.2,0.3,0.4,0.5,0.6c0,0,0.1,0,0.2,0.1
					c0.1,0,0.1,0,0.3,0.3c0.1,0.2,0.1,0.2,0.1,0.8c0.4,0,0.8,0,1.2,0C2660.1,48.7,2660.1,48.7,2660.1,48.1 M2652.5,46.2l0-0.1
					c-0.1,0.3-0.1,0.3-0.3,0.5c-0.4,0.5-0.4,0.5-0.4,0.7c0,0.1,0,0.1-0.4,0.8c-0.1,0.1-0.2,0.1-0.3,0.3c-0.2,0.2-0.2,0.5-0.4,0.7
					c-0.1,0.1-0.2,0.1-0.2,0.2c-0.1,0.1-0.1,0.1,0,0.3c0,0,0,0.4-0.1,0.5c-0.1,0.1-0.2,0.3-0.3,0.4c-0.1,0.1-0.1,0.3-0.3,0.5
					c-0.2,0.2-0.4,0.1-0.6,0.2c0,0.2-0.2,0.8-0.8,0.7c-0.3,0-0.4,0.4-0.6,1l0.1,0c0.3,0.1,1.3-0.1,1.3-0.8c0,0,0-1,1.7-1
					c0.1-1.8,0.9-2.1,1.1-2.2c0.1,0,0.2-0.1,0.2-0.2L2652.5,46.2 M2655.9,39v-0.2c0-0.2,0-0.3,0-0.4l-0.1-0.2l-0.1-0.2l0-0.2
					l-0.1-0.2l-0.1-0.2l0-0.2l-0.1-0.2l-0.1-0.2l-0.2-0.2l-0.2-0.1l-0.1,0h0h0h0h0h0h0l0,0h0c-0.1,0-0.1,0-0.2,0l-0.1-0.1l-0.1-0.2
					c-0.4-0.2-0.4-0.2-0.5-0.2c-0.2,0-0.5,0-0.7,0l0,0.2l0,0.2l0,0.2l0,0.2l0,0.2v0.2c0.1,0.2,0.1,0.2,0.1,0.5V38l-0.1,0.2
					c-0.1,0.1-0.2,0.4-0.1,0.9c0.1,0.4,0.1,0.4-0.1,0.6c-0.2,0.2-0.5,0.3-0.8,0.5l-0.1,0.2v0.2l0,0.2c0,0,0.1,0.4,0.6,0.7
					c0.3,0.3,0.5,0.4,0.5,0.4l0.1,0.1l0.1,0c-0.4,0.9-0.1,1.2,0.1,1.3c0.1,0,0.3,0.1,0.4,0.1c0.2,0,0.4,0,0.6,0c0-0.2,0-0.3,0-0.5
					c0-0.1-0.1-0.3-0.1-0.4c0-0.3,0-0.5,0-0.8c0-0.3,0.4-0.7,0.5-0.7l0.2-0.1l0.1-0.2l0.1-0.2c0.4-0.6,0.4-1.2,0.4-1.2v-0.2
					L2655.9,39 M2655.1,26.4c0-0.1,0-0.2,0-0.3c0-0.1-0.1-0.2-0.2-0.3c0-0.2,0-0.3,0.1-0.5c-0.5,0-0.5,0-0.8,0
					c-0.2,0-0.2,0.3-0.3,0.4c-0.2,0.1-0.3,0.3-0.4,0.4l0,0c-0.2,0.2-0.2,0.5-0.4,0.7c-0.1,0-0.2,0.1-0.3,0.1c0,0-0.2,0.6-0.2,1
					c0,0.9,0.1,1.9,0.1,2.8c0.3,0,0.6,0,0.9,0c0-0.8,0-0.8,0.1-1.3c0-0.2,0.2-0.2,0.3-0.3c0.2-0.4,0.2-0.4,0.1-0.5
					c0-0.1,0-0.1,0-0.1c0.1-0.2,0.3-0.3,0.3-0.5c0.1-0.3,0.1-0.3,0.4-0.6c0,0,0.3-0.4,0.4-0.6C2655.1,26.6,2655.1,26.5,2655.1,26.4
					 M2679.4-9.4c0-0.1-0.1-0.2-0.1-0.3l-0.1,0c-0.4,0.3,0.1,0.7-0.2,1c-0.5,0.5-0.5,0.5-1,0.5c-0.1,0-0.1,0-0.3,0.1l-0.1,0.1
					c-0.1,0-0.1,0-0.3,0l-0.3,0c-0.2,0.4-0.4,0.9-0.7,0.8c0,0-0.5-0.2-0.8-0.3c-0.5-0.3-0.9-0.8-1.4-1.1c-0.4-0.3-1-0.3-1.4-0.6
					c-0.1,0.9,0.6,1.6,0.8,2.4c-0.5,0.6,0.2,1.4-0.3,2c-0.2-0.1-0.3-0.4-0.5-0.5c0,0.2,0,0.4,0,0.6l-0.1,0c-0.6,0.2-0.2,1.8,1,2.4
					c0,0,0.1,0,0.2,0l0.2-0.2c0.1,0.2,0.1,0.5,0.2,0.7c-0.3,0-0.6,0-0.8,0c0,0.2,0.1,0.4,0.1,0.6c0,0.1,0.1,0.2,0.1,0.4
					c0.2,0.4,0.1,0.8,0.2,1.2c0.1,0.3,0.2,0.6,0.3,1.1c0.3,1,0.2,1-0.3,1.1c-0.4,0.5-0.3,1.2-0.7,1.8c-0.2-0.4-0.1-0.8-0.3-1.2
					l-0.2,0.2c0.1,0.7,0.1,0.7,0.1,0.9c-0.3,0-0.6,0-0.9,0c0.1,0.4,0.2,0.8,0.3,1.2c-0.4,0-0.7,0.1-0.8-1c-0.1,0-0.2,0-0.3,0
					c-0.1,0.3-0.1,0.3,0,0.5l0,0c0.1,0.8,0.1,0.8-0.6,0.8c0.1,0.6,0.2,1.2,0.4,1.8l-0.5,0c-0.1,0-0.2-0.1-0.3-0.1
					c-0.3-0.7-0.7-0.5-0.7-0.5c-0.2,1.1-1.5,0.5-2.3,0.8c-1.3,0.4-1.3,0.4-1,1.9c-0.4,0-0.8,0-1.2,0.1c0,0.2,0,0.2,0.2,0.9
					c-0.5,0-0.8,0.2-0.9,0.3c-1.1,2,0.2,1.8,1.2,1.6l0-0.1c0.1,0.5,0.1,0.6-0.1,1c-0.2,0.7-0.6,1.8,0.5,1.9c0.2,0,0.3,0,0.5,0
					c-0.2-1.5-0.2-1.5,0.5-1.9c0.4-0.2,0.3-0.5,0.3-0.5c-0.1-0.6-0.5-1.2-0.6-1.8c-0.2,0-0.5,0.1-0.8,0c0-0.1-0.1-0.2-0.1-0.3
					c0.5-0.4,0.5-0.4,0.9-0.3c0.8,0.1,1.1-0.8,1.8-1.1c0.6-0.2,1.3,0,1.9-0.3l0.1-0.1c0,0.1-0.1,0.2-0.1,0.3c-0.3,0.1-0.6,0-0.8,0.1
					c-0.3,0.1-0.4,0.5-0.8,0.6l-0.2,0c-0.4,0-0.8,0-1.3,0c0.1,0.7,0.2,1.4,0.3,2.1c0.2,0,0.3,0,0.5,0c0.3-0.1,0.7-0.4,0.7-0.4
					c0.2-0.2,0.3-0.6,0.4-0.8c0.2-0.3,0.7,0,0.9-0.3c0.1-0.1,0-0.5,0-0.6c0.1-0.1,0.2-0.1,0.3-0.1c0.8,0.9,0.8,0.9,0.8,0.9
					c0.6,0,0.5-0.8,1.1-0.8c0.2-0.3,0.2-0.3-0.2-1.2l0.2-0.1c0.8,0,1.9-0.1,2.7-0.1c0.3-0.6,1.4-0.5,1.3-1.4c-0.1-0.5-0.2-1-0.3-1.5
					c0-0.4,0.1-0.8,0.2-1.3l-0.1-0.3c-0.1-0.2-0.1-0.4-0.2-0.6c0-0.2-0.1-0.3-0.1-0.5c-0.2-0.5-0.2-0.5,0.3-0.8
					c0-0.1,0.1-2.3-0.4-3.3c0,0-1.4-2.6-2.5-2.8c-0.1-0.1-0.1-0.3-0.1-0.4c0.4,0,0.7,0,1.1,0l0.2-0.2c0,0,0.1,0,0.2,0
					c0.7,0.3,0.7,0.3,0.8,0.3c0.2,0.3,0.2,0.3,1.2,0.4c0-0.3,0-0.3-0.4-1.2c0.4,0,0.8,0,1.1-0.1c0.2-0.2,0.2-0.2,0.5-0.4
					c0-0.5-0.4-0.9-0.3-1.4c0.4-0.2,0.4-0.2,0.7-0.3c0.1-0.3,0.2-0.3,0.7-0.5c0.1,0,0.1,0,0.2,0c0.1,0,0.2-0.1,0.3-0.1
					C2679.5-9.2,2679.5-9.2,2679.4-9.4 M2680.4-11.1L2680.4-11.1l-0.2-0.1c0,0-0.1,0-0.1,0.1c0,0.1,0,0.1-0.1,0.2
					c-0.1,0.1-0.1,0.1-0.1,0.3c0,0.1,0,0.1-0.2,0.2c0.2,0.1,0.3,0.2,0.4,0.2c0.3,0,0.3,0,0.3-0.1c0-0.1-0.1-0.2-0.1-0.3
					C2680.5-10.8,2680.5-11,2680.4-11.1 M2681.2-18.5c0-0.1-0.1-0.2-0.1-0.2l-0.2-0.1c0,0,0,0,0.1,0.4c0,0.1,0,0.2,0,0.3
					c0,0.1,0.1,0.2,0.2,0.3c0,0.1,0,0.3,0,0.4c0,0.1,0,0.2,0.1,0.3l0.1,0l0-0.1c0,0,0-0.1,0-0.2c0-0.1,0-0.2-0.1-0.3
					c0-0.2,0-0.2,0-0.2l0-0.1c0-0.1-0.1-0.2-0.1-0.2C2681.2-18.2,2681.2-18.3,2681.2-18.5L2681.2-18.5 M2683.8-26l-0.1-0.1
					c-0.3-0.3-0.3-0.3-0.3-0.3l-0.1,0l-0.1,0l-0.1,0h0c0,0,0,0,0.5,0.7c0.1,0,0.2,0,0.3,0L2683.8-26 M2683.2-25.5c0.1,0,0.2,0,0.3,0
					c0,0-0.3-0.3-0.4-0.4c-0.2-0.2-0.4-0.5-0.6-0.7c-0.3-0.3-0.6-0.5-0.8-0.7c0.2,0.2,0.3,0.4,0.5,0.6c0.1,0.1,0.2,0.2,0.2,0.2
					C2682.6-26.2,2682.9-25.9,2683.2-25.5 M2676.6-32.7l-0.3-0.3l-0.2-0.1l0,0L2676-33l-0.1,0l0,0c0,0.2,0.1,0.3,0.2,0.4
					c0.1,0.1,0.3,0.3,0.4,0.4l0.1,0l0.2-0.1c0,0,0,0-0.1-0.3l0-0.1L2676.6-32.7 M2676.1-40.7c-0.2-0.1-0.3-0.3-0.5-0.4
					c-0.1,0-0.2-0.1-0.2-0.2l-0.1-0.1l0,0l-0.1,0l-0.1-0.1l0,0l-0.1,0l0.1,0.2l0.4,0.4l0,0l0,0v0c0.1,0,0.2,0.1,0.2,0.2
					c0.1,0.1,0.1,0.1,0.1,0l0,0l-0.1-0.1L2676.1-40.7L2676.1-40.7L2676.1-40.7L2676.1-40.7 M2658.6-51.6c-0.1-0.1-0.3-0.2-0.4-0.2
					c-0.3-0.1-0.6-0.3-0.6-0.3l-0.1,0l0,0c-0.2,0-0.3-0.2-0.5-0.2l0,0c0,0,0,0,0.1,0.1c0.1,0.1,0.3,0.1,0.4,0.2v0l-0.1,0
					c0.1,0.1,1.2,0.7,1.3,0.7l0.2-0.1l-0.2-0.2l-0.1-0.1l0,0l0.1,0L2658.6-51.6L2658.6-51.6L2658.6-51.6L2658.6-51.6 M2641.5-55.5
					c-0.2-0.1-0.3-0.2-0.5-0.3c-0.1,0-0.2-0.1-0.3-0.1c-0.1-0.1-0.4,0-0.4,0l-0.1,0.1l-0.1,0l-0.1,0l-0.1,0l0,0
					c-0.2-0.1-0.4-0.2-0.6-0.3c-0.3,0-0.3,0-0.3,0l0,0l0.2,0.1l0,0c-0.3,0-0.3,0-1-0.3l0,0.1c0.3,0.2,0.6,0.3,0.9,0.5
					c0.2,0.1,0.4,0.1,0.6,0.2c0.1,0,0.2,0.1,0.3,0.1c0.1,0,0.1,0,0.1,0l0-0.1c0.1,0,0.6,0.2,0.6,0.2c0.1,0.1,0.2,0.1,0.2,0.1
					c0.4,0.1,0.4,0.1,0.5,0.1l0.1,0h0.1l0,0c0,0-0.1-0.1-0.3-0.2l-0.1-0.1L2641.5-55.5 M2642-53.2c-0.5-0.4-0.6-0.4-1.1-0.6h0
					c-0.1,0-0.2,0-0.3,0c-0.2-0.1-0.2-0.1-0.3-0.1c-0.1-0.1-0.1-0.1-0.2-0.1l0,0l-0.1,0c-0.2,0-0.2,0-0.2,0c0,0.2,0.2,0.2,0.2,0.3
					l-0.1,0c0,0.2,0.1,0.2,0.2,0.3l-0.1,0c0.3,0,0.5,0.1,0.5,0.1l0.1,0l0.2,0l0.2,0l0,0l0.1,0h0.1c0.3,0.1,0.5,0.2,0.8,0.2
					L2642-53.2 M2639.1-54.4l-0.2-0.1l0,0l-0.1,0c-0.1,0-0.2-0.1-0.4-0.1l-0.2,0l0.2,0.2l0.2,0.1l0.2,0.1c0.3,0.1,0.4,0.1,0.4,0.1
					l0.1,0l0,0l0-0.1L2639.1-54.4 M2637.8-56.2c-0.3-0.2-0.3-0.2-1.2-0.3l0,0l0,0c0.3,0.2,0.6,0.4,1,0.6c-0.2,0-0.2,0-0.3,0
					c-0.2-0.1-0.4-0.2-0.6-0.4c-0.2-0.1-0.4-0.4-0.7-0.5c0,0-0.3-0.1-0.5,0l0,0c0.2,0.1,0.4,0.2,0.6,0.3c-0.2,0-0.3,0-0.5,0
					c-0.2-0.1-0.5-0.2-0.7-0.3c-0.1,0-0.1-0.1-0.2-0.1l-0.1,0l-0.1,0l-0.1,0l0,0c-0.1,0-0.3,0-0.4,0c0.1,0.1,0.1,0.1,1.5,1l-0.2-0.1
					c0.2,0.1,0.3,0.2,0.5,0.2l0,0c0.2,0.1,0.5,0.1,0.7,0.2c0.2,0.1,0.4,0.3,0.7,0.3c0,0,0,0,0.3,0c-0.4-0.3-0.4-0.3-0.6-0.5
					c0.4,0.2,0.4,0.2,0.7,0.1l0,0h0l0,0h0l0,0h0h0h0l0.1,0c0-0.1-0.1-0.1-0.2-0.2c0.2,0,0.4,0.2,0.6,0.1c0-0.2-0.2-0.2-0.3-0.3
					l0.1,0h0.1c0.2,0,0.3,0.1,0.5,0.1c0.1,0,0.2,0,0.3,0c-0.6-0.4-0.6-0.4-0.7-0.4C2638.1-56,2638-56.1,2637.8-56.2 M2633.9-56.2
					L2633.9-56.2l-0.1,0l-0.2-0.1l0,0l0,0c0,0.1,0.5,0.4,0.5,0.4l0.4,0.2l0.1,0l-0.1-0.1l-0.1,0C2634.3-56,2634.2-56,2633.9-56.2
					 M2637.4-53.7c0.2,0,0.3,0,0.5,0c-0.1,0-0.1-0.1-0.2-0.1l-0.2,0c-0.2,0-0.4-0.1-0.6-0.3l-0.1-0.1c-0.2-0.1-0.3-0.2-0.5-0.3
					l-0.1,0c0.3,0.2,0.6,0.3,0.9,0.5C2637.2-53.9,2637.3-53.8,2637.4-53.7 M2619.2-58.5L2619.2-58.5l-0.2-0.1l-0.1-0.1l-0.2,0h-0.1
					l-0.1-0.1l-0.1,0h-0.1l0,0.1l0.1,0.1l0.2,0l0.2,0.1l0.1,0c0.1,0,0.1,0,0.2,0L2619.2-58.5L2619.2-58.5L2619.2-58.5 M2614.9-57.2
					L2614.9-57.2l0-0.2l0-0.1l0,0l-0.2-0.1h0l0,0.1c0,0,0,0.1-0.2,0.2l0,0.1l0.1-0.1l0.2,0.1L2614.9-57.2L2614.9-57.2 M2618-59
					l-0.1-0.1l-0.1-0.1c-0.1,0-0.2,0-0.3,0c-0.2-0.3-0.2-0.3-0.2-0.3c-0.1,0-0.4-0.1-0.5-0.1v0.2l0,0h0l-0.1-0.1l0.1-0.2l0-0.1
					c-0.2,0-0.2,0-0.2-0.1l-0.1,0h0l0,0.1l-0.1,0l0,0c-0.1,0.1-0.1,0.2-0.1,0.2l0,0.2h-0.1l0,0.1c0,0.1,0.1,0.1,0.1,0.2
					c0.1,0.2,0,0.2-0.1,0.2l-0.1,0c-0.1,0.1,0,0.4,0,0.4c0.1,0.1,0.2,0.3,0.3,0.1l0.1-0.1l0.1-0.1l0.2-0.1l0.1,0.1
					c0.2,0,0.3,0,0.4,0l0.1-0.1c0,0,0,0,0.1,0c0.1,0,0.2,0,0.2,0l0,0l0.1-0.1c0.1,0,0.2,0,0.2,0C2618-58.8,2618.1-58.8,2618-59
					 M2615.6-60.1c0,0-0.2-0.3-0.3-0.4c0,0-0.3-0.1-0.3,0.1l0,0.1l-0.2,0l0.1-0.1l0-0.1c-0.1,0-0.2,0-0.3,0c-0.1,0-0.1,0.2-0.2,0.2
					c-0.1,0-0.2,0-0.3,0l-0.1,0.1l-0.2,0l-0.1,0.2v0.1l0.2,0.1l0,0.1l0,0.2c0.2,0,0.4,0,0.7,0c0.2,0,0.2,0,0.3,0.2
					c0.5,0,0.5,0,0.6,0h0.1c0.4,0,0.3-0.2,0.3-0.2l-0.1-0.2c-0.1,0-0.1,0-0.2,0c-0.1-0.2-0.1-0.2,0-0.3L2615.6-60.1 M2614.6-61.1
					L2614.6-61.1L2614.6-61.1L2614.6-61.1l-0.4-0.1c0-0.2-0.1-0.2-0.2-0.3l-0.1,0.1l-0.1,0.1c-0.1,0-0.1,0-0.2,0.1l-0.2,0
					c0,0.2,0,0.2-0.1,0.3l-0.1,0h-0.1l-0.1,0.1l0,0.2l0.2,0h0l0.1,0.1c0,0,0,0,0.2,0.1l0.1,0c0.1,0,0.2,0,0.2,0l0.1-0.1
					c0,0,0,0,0.1,0c0.1,0,0.2,0,0.2-0.1l0,0c0.1,0,0.2,0,0.3,0c0-0.1,0-0.2,0-0.3l0,0l0.1,0L2614.6-61.1L2614.6-61.1 M2613.5-60
					L2613.5-60l0-0.1l0-0.1l-0.1,0l-0.1,0l0,0l-0.1,0l-0.1,0h-0.1l-0.1,0l0,0h-0.1h-0.1c0,0.1,0,0.2,0,0.3c0.1,0,0.2,0,0.3,0h0.1
					c0,0,0.1,0,0.1,0.1l0,0l0.1,0L2613.5-60L2613.5-60L2613.5-60 M2613-61.3L2613-61.3L2613-61.3l0-0.1l-0.1,0l-0.1,0l0,0l-0.1,0
					l-0.1,0.1l0,0.1l0.1,0l0.1,0.1h0L2613-61.3L2613-61.3 M2581.8-47.6l0.2-0.2c-0.2-0.1-0.2-0.1,0.1-0.4c-0.3,0-0.5,0-0.8,0
					c-0.1,0.1-0.2,0.1-0.3,0.2l-0.1,0.2c-0.3,0.3-0.6,0.5-0.8,0.8c0.1,0,0.3,0,0.4,0c0.2,0,0.4-0.2,0.5-0.3l0.1,0
					c0.1,0,0.3,0,0.4-0.1L2581.8-47.6 M2602.3-57.1c0,0,0.2-0.2,0.2-0.4l-0.2,0l-0.1-0.1l-0.1,0l-0.1,0c-3.2,0.8-3.2,0.8-3.4,0.8
					c0,0-0.1,0-0.2,0c-0.8,0.2-0.8,0.2-1.4,0.5c-0.2,0-0.4,0-0.7,0c-2,0.8-3,1.2-3.4,1.5l-0.2,0.1c-0.1,0.1-0.2,0.2-0.3,0.3
					c-1.4,0.2-1.4,0.2-1.8,0.6c0.5-0.1,0.5-0.1,0.6-0.1c-0.1,0.1-0.2,0.1-0.3,0.2l-0.1,0.1l0,0.1c-0.1,0-0.3,0.1-0.4,0.1h0
					c-0.2-0.1-0.2-0.1-0.4,0c-0.2,0.1-0.4,0.3-0.6,0.5l-2.2,1c-0.4,0.2-0.4,0.2-1.4,1.1c0.1,0,0.2,0,0.3,0.1
					c0.2-0.2,0.2-0.2,0.4-0.2l0.1,0c-0.1,0.1-0.1,0.1-0.2,0.3c0.2-0.1,0.3-0.2,0.5-0.3c0.1,0.4,0.1,0.4,0,0.6l-0.6,0.4l-0.1,0.1
					l-0.1,0.2c0.2,0,0.5,0,0.7,0c0.3,0.1,0.6,0.3,1,0.2l0.2,0c0.2,0,0.2,0,0.3,0c0.1-0.1,0.2-0.2,0.3-0.4l0.1-0.2l-0.1-0.1
					c0.1-0.1,0.2-0.2,0.3-0.3l-0.1,0l0-0.1c0,0,0,0,0.2-0.7l0.1-0.2l0-0.1c0.2-0.2,0.3-0.3,0.5-0.5l0.1-0.1c0.6-0.2,1.1-0.7,1.6-1
					l0.2-0.1l0.2,0l0.2,0l0.2-0.1c0,0,2.2-0.9,2.7-1.5c0,0,0.6,0,1-0.2c0,0,0.1-0.1,0.2-0.2c0.3,0,1-0.2,1.3-0.6l1.6-0.4
					c0.2,0,0.4,0,0.7,0c0,0,0.9-0.3,1.1-0.3c0.2,0,0.3,0,0.5,0C2602.1-56.9,2602.2-57,2602.3-57.1 M2600.2-53l0-0.2
					c-0.1-0.1-0.2-0.1-0.3-0.1c-0.1,0-0.2,0-1,0.5l0,0.1c0.1,0,0.2,0,0.3,0l0.1,0c0.1,0,0.1,0,0.2,0l0.2,0l0.1,0
					C2600.1-52.8,2600.2-52.9,2600.2-53 M2606.9-61.3L2606.9-61.3c0.2-0.1,0.2-0.1,0.2-0.1l0,0v0l-0.1,0l-0.2,0.1l-0.1,0
					c-0.1,0-0.2,0-0.2,0l-0.2,0.1l-0.1,0l0,0c-0.2,0.1-0.3,0.2-0.4,0.3c-0.1,0.1,0.4,0,0.5-0.1C2606.5-61.3,2606.8-61.3,2606.9-61.3
					 M2605.2-60.9l0.1-0.1c0.4-0.2,0.5-0.3,0.8-0.4l0,0c-0.2,0.1-0.5,0.1-0.7,0.2l0.1-0.1c-0.1,0-0.2,0.1-0.4,0.1
					c-0.3,0.1-0.5,0.1-0.5,0.1l-0.1,0l-0.1,0.1l0,0l0,0c0.1,0,0.2-0.1,0.2-0.1l0.1,0l0,0l0,0C2605-60.9,2605.2-60.9,2605.2-60.9
					 M2603.9-60.6l0.2-0.1C2604-60.7,2603.9-60.7,2603.9-60.6l-0.1-0.1l-0.1,0h-0.1l0,0l0,0c-0.2,0.1-0.3,0.1-0.3,0.1v0h0.1l0.1,0
					L2603.9-60.6L2603.9-60.6 M2604.1-60.8l0.2-0.1l0.2-0.1c-0.1,0-0.3,0-0.4,0c-0.3,0-0.6,0.2-0.8,0.2c-0.1,0.1-0.3,0.1-0.4,0.2
					c0.1,0,0.2,0,0.2,0c0.2-0.1,0.4-0.1,0.5-0.2c-0.3,0.1-0.4,0.2-0.4,0.2l0.2,0c0.2-0.1,0.3-0.2,0.5-0.2L2604.1-60.8 M2605.2-61.3
					l0.2-0.1l0.2-0.1c-0.1,0-0.2,0-0.2,0l0,0c0.3-0.1,0.5-0.2,0.8-0.2l0.2-0.1h0l-0.2,0l0,0c-0.3,0.1-0.3,0.1-0.5,0.1
					c-0.4,0.2-0.4,0.2-0.5,0.2l0,0l-0.1,0h-0.1l-0.7,0.2c-0.1,0-0.2,0.1-0.3,0.1c-0.2,0-0.4,0.1-0.6,0.1l0,0h0h0l0,0h0l0,0h0h0
					c-0.1,0-0.1,0-0.4,0.1l-0.3,0.1l-0.1,0.1l0.1,0c0.1,0,0.3-0.1,0.4-0.1c0.1,0,0.2,0,0.4-0.1c0.3-0.1,0.6-0.1,0.9-0.2l0,0l0,0.1
					l0,0l0.1,0c0.7-0.3,0.7-0.3,0.8-0.3l0,0c-0.2,0.1-0.2,0.1-0.2,0.1C2604.9-61.2,2605-61.2,2605.2-61.3 M2602.9-61.1
					c0.1-0.1,0.3-0.1,0.4-0.1l0,0l-0.1,0c0.2-0.1,0.4-0.1,0.6-0.2l0.1,0c-0.2,0-0.2,0-0.3,0.1l-0.6,0.1c0,0,0,0-0.4,0.1l0,0l0,0
					l0.1-0.1c-0.7,0.2-0.7,0.2-0.7,0.2c0.1,0,0.1,0,0.1-0.1v0l-0.1,0c-0.4,0.1-0.6,0.2-0.7,0.2l0,0c0.2,0,0.3-0.1,0.5-0.1
					c0.3-0.1,0.3-0.1,0.4,0l0,0l0.1,0c-0.5,0.2-0.5,0.2-0.7,0.2c-0.2,0-0.3,0.1-0.4,0.2c-0.1,0-0.3,0.1-0.3,0.1
					c-0.1,0.1-0.1,0.1-0.1,0.1c0.2,0,0.7-0.2,1.2-0.3l0.2-0.1l0.2,0l0,0l0,0C2602.3-61,2602.7-61.1,2602.9-61.1 M2596.3-60.9
					c0.4-0.1,0.6-0.2,0.6-0.2c-0.1,0-0.2,0-0.3,0l-0.1,0c0.4-0.1,0.8-0.2,1.1-0.3c-0.4,0.1-0.8,0.2-1.2,0.2l0.2-0.1l0.7-0.1l0.1,0
					c0.1,0,0.2,0,0.3-0.1c-0.1,0-0.3,0.1-0.4,0.1l0,0l0,0l0.1,0l-0.1,0c-0.6,0.1-1.1,0.2-1.6,0.4c0.4-0.2,0.9-0.1,1.3-0.3
					c-0.4-0.1-1.4,0.2-1.6,0.3l0,0l-0.1,0.1c0.1,0,0.2-0.1,0.3,0c-0.1,0-0.1,0-0.6,0.2l-0.2,0c-0.2,0.1-0.4,0.1-0.7,0.2
					c-0.1,0-0.3,0.1-0.4,0.1l0.2,0c0.1,0,0.1,0,0.1,0c-0.1,0.1-0.3,0-0.4,0.2c0.3,0,0.6-0.1,0.9-0.2l-0.2,0.1c0.1,0,0.3,0,0.7-0.2
					C2595.4-60.7,2595.4-60.7,2596.3-60.9 M2593.5-60.6l0.1,0L2593.5-60.6L2593.5-60.6 M2589.1-58.9l0.3-0.1
					c0.3-0.1,0.3-0.1,0.4-0.2l-0.1,0c0.1-0.1,0.1-0.1,0.9-0.3c-0.1,0-0.2,0-0.2,0c0.6-0.2,1.2-0.4,1.7-0.6c0.3-0.1,0.6-0.2,0.8-0.3
					c0,0,0,0-0.4,0.1c0.1-0.1,0.1-0.1,0.2-0.1c0.3-0.1,0.5-0.1,0.8-0.2l-0.1,0c0.5-0.3,1.1-0.2,1.6-0.5l0,0c-0.2,0-0.7,0.1-1,0.2
					c-0.1,0-0.2,0-0.3,0.1c-0.5,0.1-1,0.3-1.5,0.4c0.1,0,0.1,0,0.7-0.2c0.1,0,0.2-0.1,0.3-0.1c0.1,0,0.2,0,0.3-0.1
					c0.1,0,0.2-0.1,0.3-0.1c0.5-0.1,0.5-0.1,0.6-0.1c-0.4,0.1-0.7,0.2-1.1,0.2l-0.1,0c0.2,0,0.4-0.1,0.5-0.1
					c0.3-0.1,0.6-0.1,0.9-0.2c-0.1,0-0.5,0.1-0.7,0.1c-0.1,0-0.1,0-0.2,0c-0.2,0-0.2,0-4.1,1.1c0.4-0.1,0.9-0.3,1.3-0.4
					c-0.2,0-1.6,0.4-1.9,0.6c0.1,0,0.1,0,1-0.3c-0.3,0.2-0.6,0.2-0.9,0.3l0.1,0c0.1,0,1.1-0.3,1.4-0.4c0.2-0.1,0.3-0.1,0.5-0.1
					l0.1,0c-0.4,0.1-0.7,0.2-1.1,0.3l0.1,0l0.5-0.1l-0.2,0.1c-0.6,0.2-0.6,0.2-0.7,0.2c-0.1,0-0.2,0.1-0.3,0.1l0,0l0,0
					c0,0-0.3,0-1.2,0.2c-0.2,0.1-0.4,0.1-0.6,0.2l0.2,0l0.1,0l-0.1,0c0,0,0,0,0.9-0.2l0,0c-0.3,0.1-1.3,0.4-1.3,0.4h0l0,0
					c-0.2,0-1.2,0.3-1.4,0.4l0.1,0c-0.1,0-0.1,0-1.5,0.6l0.1,0c0,0,2.8-0.9,3-0.9c0.5-0.2,1-0.3,1.5-0.5c0.1,0,0.1,0,2-0.5l0.2,0
					c-0.4,0.1-0.9,0.2-1.3,0.4l0.1,0c-0.1,0.1-0.1,0.1-1.1,0.4c-0.4,0.1-0.9,0.2-1.3,0.4l0.1,0c0.3-0.1,0.6-0.2,1-0.2
					c-0.3,0.2-0.7,0.2-1,0.4l0.1,0c0.1,0,0.1,0,0.8-0.2c0.1,0,0.1,0,0.2,0L2589.1-58.9 M2561,21.9c0.3-3.3,0.7-6.5,1.2-9.7
					c-4.1-0.2-8.1-0.3-11.9-0.5c-4.9-0.3-9.3-0.5-13-0.8c0,0-0.6,1.5-0.9,1.8l-0.1,0.2l-0.1,0.1l-0.1,0c-0.2,0-0.2,0-0.5,0.1l-0.1,0
					l-0.1,0l-0.1,0.1l-0.1,0.1l-0.2,0l-0.1-0.1l-0.1-0.2c-0.1-0.1-0.2-0.1-0.2-0.1c-0.1,0-0.4-0.1-0.7-0.3l-0.1,0l-0.1,0l-0.1,0.1
					c0.4,0.4,0.4,0.4,0.7,0.5c0.1,0.1,0.1,0.3,0,0.4l0,0.2c0,0.1,0.1,0.3,0.1,0.4c0,0.1,0,0.3-0.1,0.4l0,0.2l-0.1,0.2
					c-0.2,0.8,0.2,1.5,0.2,2.2c0.2,0.8,0.3,1,0.4,1.1c0.2,0.1,0.2,0.1,0.3,0.1c0.5,0.1,0.4-0.5,0.7-0.8l0.1,0.2
					c0.4,1.7,1.4,3.2,1.3,5c0,0.2,0,0.3,0,0.3c-0.2,0.8-0.2,1.2-0.1,1.5c0.1,0.4,0.7,0.3,0.8,0.7l0.8,2.8c0.1,0.3,0.3,1.2,0,1.6
					c-0.4,0.7-0.3,0.8,0.7,2.1c0.6,0.8,0.8,1,1,2.1c0.1,0.5,0.1,0.5,1.5,2.8c0.4,0.7,0.2,1.6,0.5,2.4c0.1,0.3,0.1,0.4,0.3,0.6
					c0.1,0.1,0.1,0.3,0.1,0.4c0,1,0.1,1.9,0.1,2.9c0.4,1.5,2,1.9,2.5,1.3c0.9-1.3,0.9-1.3,1.1-1.3c0.5,0,0.9,0.1,1.4,0.1l0.1,0
					c0.1,0.1,0.2,0.2,0.3,0.3l0.2,0c0.1-0.2,0.2-0.5,0.3-0.6c0.8-1.6,2.9-0.9,3.9-2.1c0.2-0.4,0.2-0.4,1.3-0.3
					c0-0.8-0.1-1.3,0.4-1.2c0.6-0.6,0.6-0.6,3.3-0.4c0,0,0-1.1,0.4-1.8c0.5-0.1,1-0.1,1.4,0c0,0,0.4-1.4,0.7-1.6
					c0.1-3,0.2-5.9,0.4-8.8c-0.1,0.1-0.2,0.2-0.3,0.2c-0.1-0.4,0-0.8-0.1-1.1c-0.2-0.1-0.2-0.1-0.4-0.4c0-0.6,0.1-1.1,0.1-1.7
					c-0.2-0.3-0.2-0.3-0.4-0.6c-0.1,0.3-0.1,0.3-0.5,0.5c-0.4,0.2-0.4,0.2-0.8,2.4c-0.5-0.1-0.5-0.1-1-0.1c-0.2,0-0.3,0-0.4,0
					c-0.2-0.1-0.4-0.2-0.7-0.3c-0.2,0-0.3,0-0.3,0c-0.6,0.5-0.6,0.5-1.1,1c0,0-1-0.1-1-1.5c0.1-0.1,0.2-0.1,0.3-0.2
					c0.3-0.2,0.4-0.3,0.7-0.3l0.1,0c0.4,0.2,0.9,0.5,1.5,0.2c0.1-0.3,0-0.3-0.1-0.5c-0.2-0.1-0.3-0.1-0.4-0.1c-0.1,0-0.3,0-0.4,0
					c-0.2,0-0.3,0-0.4,0c-0.7-0.3-1.5-0.3-2.2-0.6c-0.2,0-0.3,0-0.4,0c0.1-0.5,0.1-1.1,0.2-1.6c0-0.1-0.1-0.2-0.2-0.3l-1.6-0.9
					c0.1-1.4-0.6-2.8-0.1-4.2c0.3-0.9,1.5-0.4,1.7-0.1c0.7,0.9,0.7,2.2,1.5,3.1c2.2,2.2,2.2,2.2,4,2.5c0.2,0,0.3,0,0.3,0
					c0.1,0,0.2,0,0.3,0c0.3-0.2,0.7,0,1.1-0.3c0.2,0,0.3,0,0.3,0C2560.5,21.4,2560.5,21.4,2561,21.9L2561,21.9 M2654.3,0.7
					c-2.2-11.7-5.3-22.4-9.2-31.6c-21.7,0.5-48.2,0.4-69.3-0.5c-6.3,12.2-11,27.1-13.5,43.6c27.4,1.1,61.6,1.3,90.3,0.7
					c0-0.8,0-0.8-2.5-3.2c0-0.3,0-0.4,0-0.5c0.1-0.3,0.3-0.6,0.5-0.8c0-0.1,0-0.3,0-0.5c-0.1-0.4-0.1-0.7-0.1-0.9c0.3,0,0.5,0,0.8,0
					c0.2-0.2,0.4-0.5,0.5-0.8c0.1,0,0.3-0.1,0.5-0.1c0.5-0.2,0.6-0.2,0.6-0.2c0.1,0,0.3,0,0.5,0c0.1-0.1,0.2-0.3,0.3-0.4
					c0-0.1,0-0.3-0.1-0.5c-0.5-0.2-1-0.1-1.4-0.1c-0.2-0.2-0.4-0.6-0.6-0.8c-0.4-0.1-0.8-0.1-1.1-0.1c0,0.3,0,0.7,0.1,1
					c-0.2,0.1-0.6,0.2-0.9,0.2c-0.2-0.6-0.2-1.1-0.3-1.7c-0.6,0-1.2,0-1.7,0c-1.2-0.8-0.2-1.8,0.2-1.8c0.3-0.1,0.7,0,1,0
					c0.8-1.2,2.1-1.7,3-2.8c0.1,0,0.1,0,0.2,0l0.4,0.4c-0.5,0.9-1,2.9-1,2.9c0.1-0.1,0.2-0.2,0.4-0.3c0.5-0.1,0.9-0.1,1.4-0.1
					C2653.4,1.6,2653.7,1,2654.3,0.7L2654.3,0.7L2654.3,0.7L2654.3,0.7L2654.3,0.7L2654.3,0.7L2654.3,0.7L2654.3,0.7L2654.3,0.7
					 M2550.2-33.1c0.2,0,0.4,0,0.6,0.1l0,0l0,0l-0.1,0l0,0c0,0,0-0.1,0.1-0.2l0.2-0.2l0,0h-0.1l-0.1,0c0,0,0,0-0.1,0.1l-0.1,0.1
					l-0.2,0.2C2550.2-33.2,2550.2-33.2,2550.2-33.1 M2571.6-50.1c0.4-0.2,0.7-0.5,1.1-0.7v0l-0.1,0l-0.2,0l-0.1,0.1
					c-0.3,0.2-0.6,0.4-1,0.6C2571.4-50.1,2571.5-50.1,2571.6-50.1 M2575.7-31.4c3-5.8,6.4-11,10.1-15.4c-0.2,0-0.2,0-0.6,0.3
					c-0.3,0-0.3,0-0.4,0c-0.2-0.1-0.2-0.1-0.3-0.1c-0.1,0-0.2,0-0.3,0c-0.3,0.2-0.4,0.3-0.6,0.5c-0.1,0-0.3,0-0.4,0
					c0-0.1,0-0.3,0-0.4c0.4-0.3,0.9-0.8,0.9-0.8c-0.1,0-0.1,0-1.7,0.6c-0.2,0.1-0.3,0.1-0.4,0c-0.5,0-0.7,0.1-0.9,0.3l-0.2,0.1
					c-0.2,0-0.3,0-0.3,0c-1.7,0.3-3,1.4-4.6,1.9c-0.2,0.1-0.2,0.1-0.2,0.1c0-0.1,0-0.3,0-0.4c0.3-0.6,0.3-0.6,0.6-0.9
					c0.4-0.1,0.6-0.1,0.9-0.1c0.2-0.2,0.4-0.4,0.6-0.6l0-0.2c0.1-0.1,0.2-0.3,0.2-0.4L2578-47c-0.1,0-0.2,0-0.2,0l0-0.2l-0.2-0.1
					c-0.2,0-0.3,0-0.4,0l-0.2,0c-0.2,0.1-0.3,0.2-0.4,0.4l0.2,0.1c-0.4,0.4-0.7,0.8-1.1,1.2c-0.7,0.5-0.7,0.5-0.9,0.6l0.1,0.1
					c0,0.1,0,0.3-0.1,0.4c-0.1,0.1-0.1,0.2-0.2,0.2c-0.5,0.2-0.7,0.6-1,0.9c-0.1,0-0.3-0.1-0.4-0.2c0.1-0.1,0.1-0.2,0.2-0.3l0.1-0.2
					c-1.4-0.1-2.3,1.2-3.7,1.2l0,0c-0.4,0.4-0.4,0.4-0.6,0.7c0.1,0.4,0,0.4-0.3,0.7c-0.1,0.1-0.1,0,0,0c-0.5,0-0.5,0-0.6-0.1
					c-0.1-0.1-0.2-0.1-0.2-0.1l-0.2-0.1c0-0.1-0.2-0.2-0.3-0.3c0-0.2,0-0.2,0.3-0.6c-1,0.4-1.1,0.5-1.3,0.9l0.1,0.2
					c-0.1,0.1-0.2,0.2-0.3,0.3l0.1,0.1l0.2,0l0.2,0.2c-0.1,0.3-0.1,0.3-0.3,0.5c-0.3,0.1-0.5,0-0.8,0c-0.1,0.1-0.2,0.2-0.4,0.2
					c0-0.2,0-0.4,0-0.6l-0.2-0.1c0-0.3,0-0.3,1-1.3c-0.1,0-0.2,0-0.4,0l0.7-0.6c1.1-1,1.1-1,1.2-1.2l-0.2-0.1
					c0.2-0.4,0.2-0.4,0.5-0.7l-0.1-0.2c0.1-0.2,0.3-0.4,0.4-0.6c0,0.5,0,0.5-0.1,0.7l0.2,0.2h0.2c0,0.1,0,0.3,0,0.4
					c0.3,0,0.5,0,0.8,0.1c0.1,0.1,0.1,0.3,0.2,0.4l0.2,0.1c0.2,0,0.2,0,0.2,0l0.1,0c3.8-1.5,3.9-1.6,4-2.7c-0.2-0.1-0.4-0.1-0.6-0.2
					c0.1-0.3,0.2-0.5,0.2-0.8l0.1-0.2l-0.1-0.1l0-0.2c-0.3,0-0.3,0-0.7,0l-0.1,0c0-0.1,0.1-0.3,0.2-0.4c0-0.1-0.1-0.1-0.2-0.1
					c-0.2,0.2-0.2,0.2-0.6,0.4c-0.2,0-0.2,0-0.2,0c0.1-0.1,0.1-0.1,0.7-0.5l0.1-0.1c0.1-0.2,0.1-0.2,0.4-0.5c0-0.1-0.1-0.1-0.2-0.1
					c-0.1,0-0.3,0.1-0.4,0.2l0-0.2l-0.2-0.1c0-0.2,0.1-0.2,0.2-0.3c0.3,0,0.6-0.2,0.8-0.3c0.1-0.1,0.2-0.2,0.3-0.3l-0.2,0
					c0-0.1,0.1-0.3,0.2-0.4l-0.1,0c-0.2,0.2-0.5,0.3-0.7,0.5l-0.2,0c0.1-0.1,0.3-0.2,0.4-0.3c0.2-0.1,0.2-0.1,0.6-0.3l0.2-0.1
					c-0.2,0-0.3,0-0.5-0.1c-0.7,0.5-0.7,0.5-1,0.6c-0.2,0.1-0.2,0.1-0.3,0.2l-0.2,0.1l-0.1,0c0.7-0.4,0.7-0.4,1-0.6
					c0-0.1,0-0.1-0.1-0.1l0.6-0.4l0,0l-0.1,0c-0.6,0.2-1.2,0.4-1.7,0.7c-0.2,0-0.2,0-0.2,0c0.2-0.2,0.2-0.2,0.5-0.4
					c0.1-0.1,0-0.1-0.1-0.1c-0.8,0.1-1,0.3-1.4,0.6v0.2c-0.2,0.1-0.4,0.2-0.5,0.4l-0.1,0l-0.1-0.2l-0.1-0.1c-1,0.6-1,0.6-1.3,0.8
					c0.4-0.3,0.7-0.7,1.1-1.1c-0.3,0.1-0.5,0.2-0.6,0.3c0,0-1.3,0.9-1.9,1.1c0.2-0.2,0.2-0.2,0.7-0.5c-0.2,0.1-0.3,0.1-1.2,0.6
					c-0.2,0.1-0.3,0.3-0.5,0.4c-0.1,0.1-0.2,0.1-0.3,0.2l-0.2,0.1l0-0.2c0.1,0,0.1,0,0.9-0.6c-0.3,0.1-0.6,0.3-0.8,0.4
					c-0.5,0-1.9,0.8-1.9,0.8l-0.1,0c-0.2,0.1-0.4,0.2-0.6,0.3l-0.1,0l-0.2,0.1c-0.1,0.1-0.1,0.1-0.1,0.1c0.4-0.2,0.9-0.3,1.2-0.5
					c0.2,0,0.2,0,0.2,0c0.4-0.1,0.4-0.1,0.6-0.1c-0.1,0.1-0.3,0.2-0.4,0.3c-0.7,0-5.3,2.9-6.5,3.7l0.1-0.1c-0.6,0.3-1.3,0.6-1.8,1
					c0.1,0,0.2,0,0.2,0c-0.9,0.7-1.9,1.2-2.8,1.8c0-0.2,0-0.2-0.1-0.2l-0.4,0.3c-0.4,0.4-0.4,0.4-0.7,0.5l-0.1,0h0l0,0h0l0,0l0,0v0
					h0c-0.6,0.3-2.1,1.2-4.3,3.2c-0.2,0.1-0.2,0.1-0.2,0.1l-0.2,0.2c-0.2,0.2-0.4,0.3-0.5,0.5l0.1,0c-0.2,0.5-2.2,2.3-2.2,2.3
					c0.1,0.2,0.4,0.2,0.7,0.3c0.7-0.6,0.7-0.6,0.9-0.6c0.2-0.2,0.4-0.4,0.5-0.5c0,0.2-0.1,0.4-0.8,1.1c0.5,0.2,1.2,0.4,2.1,0.5
					c1.6-1.1,1.6-1.1,1.8-1.3c0.2-0.2,0.2-0.2,0.3-0.3l0.1-0.2l-0.1-0.2c0.2-0.6,0.9-1.3,0.9-1.3c0.6-0.6,1.2-1.1,1.8-1.7
					c0.3-0.2,1-0.7,1.3-0.9c1-0.8,2.2-1.3,3.3-2c0.8-0.5,1.4-1.1,2.2-1.6l2.2-1.1l0.1,0h0l0,0h0h0h0l0,0h0c-0.2,0.2-0.3,0.4-0.5,0.5
					c0.1,0,0.3-0.1,0.4-0.2l0,0.2c-0.1,0.1-0.2,0.2-0.3,0.3c-0.4,0.3-0.6,0.5-0.8,0.7c-0.1,0-0.2,0-0.3,0c-2.2,1.9-5,3-7,5.1
					l-0.2,0.2c-0.2,0.2-0.2,0.2-0.7,0.7l0.2,0.1c0,0.4-0.2,0.8-0.3,1.2l0.1,0.1c0.3-0.1,0.6-0.3,0.8-0.4l0.1,0.2
					c0.4,0,0.4,0,0.8-0.3l0.2-0.1c0.3,0,0.6,0.1,0.9,0.1c0.1-0.1,0.3-0.2,0.4-0.2c0.1,0,0.1,0,0.1,0c-0.1,0.2-0.2,0.4-0.3,0.6
					c0.2,0,0.4,0,0.6,0.1l-0.1,0.2c0,0-2.3,1.4-2.8,1.3c0-0.1,0-0.3,0.1-0.4c-0.2-0.1-0.4,0-0.6,0c-0.1-0.1-0.1-0.1-0.1-0.1
					c-0.2,0.1-0.3,0.1-0.6,0.3l-0.1-0.2c-0.5,0.3-0.6,0.3-1,0.8c3.8,0.5,9.2,0.9,16.1,1.3C2569.7-31.6,2572.7-31.5,2575.7-31.4
					 M2670.1-45.2c-0.3-0.2-0.6-0.4-0.9-0.6c-0.4-0.2-0.4-0.2-0.6-0.4l0,0l-0.1,0.1l0,0c-0.1-0.1-0.3-0.2-0.5-0.3
					c0.2,0.3,0.5,0.4,0.8,0.6c0.1,0.1,0.2,0.1,0.2,0.2c0.1,0.1,0.3,0.2,0.4,0.3c-0.3-0.1-0.3-0.1-0.7-0.4c-0.6-0.4-1.1-0.8-1.6-1.1
					c-0.1-0.1-0.3-0.2-0.4-0.2c-0.1-0.1-0.1-0.1-0.1-0.1c-0.5-0.2-1.8-0.9-1.9-0.9c-0.8-0.3-1.1-0.3-3.2-1.4
					c-0.2-0.1-0.2-0.1-0.2-0.1l0,0c-0.3-0.1-0.6-0.2-0.9-0.4c-0.2,0-0.2,0-0.3,0l0.2,0.2c-0.2,0.1-0.2,0.1-0.2,0.1
					c-1.3-0.5-1.3-0.5-1.4-0.5c0.7,1,2,1.3,2.9,2c0,0.1-0.1,0.1-0.2,0.1c-0.3-0.2-0.6-0.4-0.9-0.6c-0.1,0-0.2,0-0.3,0
					c-0.3-0.2-0.6-0.4-0.9-0.6l0.1,0c0-0.2-0.2-0.4-0.4-0.4l-0.2-0.1c-0.2,0-0.3,0-0.4,0c0.9,0.5,0.9,0.5,1,0.8l0,0.1
					c-0.6-0.3-0.6-0.2-0.9-0.2c-0.1,0-0.2,0-0.3,0l0,0.2c-0.1,0-0.1,0-1-0.3l-0.1,0c0.1,0.1,0.3,0.2,0.4,0.3c0.5,0.3,0.7,0.5,1,0.7
					l-0.1,0.1l-0.2-0.1c-0.2-0.1-0.3-0.2-0.5-0.3c0,0-3-1.8-3.9-2.1c-0.2-0.1-0.4-0.2-0.5-0.3c-0.3,0-0.6-0.2-1-0.2l-0.1,0.2
					c0,0.2-0.1,0.2-0.1,0.2c-0.1,0-0.3,0.1-0.5,0.1c0,0.2,0,0.2,0,0.2c-0.4-0.1-0.8-0.3-1.2-0.4c-0.1,0-0.2,0-0.2,0
					c-0.7-0.1-0.7-0.1-1-0.4c-0.4-0.1-0.7-0.4-1.1-0.4c-0.1,0-0.2,0-0.3,0l-0.2-0.2c-0.1-0.1-0.3-0.3-0.5-0.5l-0.2,0
					c-0.5,0-0.9,0-1.3,0h0c0.4,0.3,0.4,0.3,0.6,0.5c0,0.2-0.1,0.2-0.1,0.2c-0.2-0.1-0.4-0.2-1-0.7l0-0.1c-1.1-0.8-2.4-0.4-3.6-0.7
					c0.1,0.2,0.1,0.2,0.5,0.5c-0.1,0.1-0.3,0.1-0.5,0.1l0,0.2c0.6,0.4,1.3,0.6,1.9,1.1c0.1,0.1,0,0.1,0,0.1c-1-0.2-1.4-0.2-1.4-0.2
					c-0.1,0.1,0,0.1,0.1,0.2l0.2,0.1c0.4,0.1,0.4,0.1,0.7,0.4c-0.2,0-0.2,0-1.1-0.4c-0.3-0.2-0.3-0.2-0.4-0.3c-0.1,0-0.3,0-0.5,0
					c0,0.1-0.1,0.3-0.2,0.5c-0.6-0.1-1.4-0.4-1.4-0.4l-0.2,0.2c-0.1,0-0.2-0.1-0.3-0.1l-0.1,0.2c0.3,0.3,0.5,0.5,0.9,0.9
					c-0.1,0.1-0.3,0.1-0.6,0.1c-0.7-0.8-1.8-0.9-2.6-1.5l-0.1-0.1c-0.1-0.4-1.5-1.9-2.7-2.2c-0.1,0-0.2,0-0.2,0l0,0h0h0h0h0l0,0h0
					l0.1,0.4c-1,0.2-1.6-0.7-2.4-0.8l-0.2,0.2c0.1,0.3,0.3,0.5,0.5,0.7c0.3,0.2,0.4,0.3,0.5,0.5l-0.1,0c4.9,5.5,9.2,12.7,12.9,21.4
					c6-0.1,11.6-0.3,16.7-0.6c0.1-0.3,0-0.6,0.1-0.9c0.3,0,0.3,0,0.7,0.1l0.2-0.1c0.1,0,0.2,0,0.2,0l0.2,0.1c0.1,0,0.1,0,0.2,0
					l0.2-0.1c0.1-0.1,0.1-0.1,0.2-0.1c0.8,0.4,0.8,0.4,1.1,0.1l0.2,0c0.6,0,1.2-0.1,1.8-0.1c-0.1-0.2-0.2-0.3-0.3-0.5
					c-0.3-0.4-0.3-0.4-0.3-0.7c0.4,0.2,0.4,0.2,0.7,0.4c1-0.6,1.3,1,2.1,1.3c0.3,0,0.5,0,0.7,0c0.1-0.3,0.1-0.3-0.1-0.7
					c0.2,0,0.2,0,0.9,0.4l-0.1-0.2c0.1,0,0.2,0,0.3,0c0.3,0.1,0.4,0,0.5,0c-0.1-0.1-0.1-0.1-0.7-0.7l-0.2,0.1
					c-0.3-0.2-0.5-0.4-0.6-0.6l-0.1-0.2l0.1-0.2c-0.4-1-0.4-1-0.3-1.3c-0.2-0.3-0.4-0.8-0.6-1.5l0.1-0.2l0.2,0.1
					c0.2,0.1,0.2,0.1,0.3,0.1l-0.1-0.3c0-0.1,0-0.1,0-0.1c0.4,0.3,1,0.3,1.2,0.8c0.1,0.1,0.1,0.2,0.2,0.2c0.4,0.4,1.3,1,1.3,1
					c-0.1-0.5-0.5-1.6-0.5-1.6l0.2-0.1c-0.1-0.2-0.1-0.2-1.1-1.4l0.1-0.2c0.2-0.1,0.3-0.1,0.5-0.2c0.1,0.1,0.2,0.2,0.3,0.3l0.1,0.4
					c0.2,0.5,1.9,2.9,1.9,2.9c0.7,0.8,0.4,1.9,0.8,2.8c0.6,0,1.2-0.1,1.8-0.1c-0.2-0.3-0.6-0.9-0.9-1.2c-0.1-0.1-0.1-0.1-0.1-0.1
					c-0.5-0.5-0.5-0.5-0.5-0.8c0.2,0,0.2,0,0.9,0.5l0.1-0.2c-0.1-0.1-0.2-0.3-0.2-0.4c0.2,0.1,0.2,0.1,0.6,0.4
					c0.2,0.1,0.2,0.1,0.2,0.1c0-0.3,0-0.3-0.4-0.9l0.2-0.2l0.2,0.1c0.3,0,0.5,0,0.6-0.1c0.8,0.8,0.8,0.8,1.1,1
					c-0.5-0.9-1.6-1.4-1.7-2.6l0.1-0.1c0.2-0.5-0.7-1.8-1.1-2.3c0.2,0,0.2,0,0.9,0.3c0.2,0,0.3,0,0.3,0c-0.2-0.3-0.5-0.5-0.7-0.7
					c-0.4-0.2-0.4-0.2-0.9-0.7c-0.6-0.4-0.6-0.4-1.5-1.2c-0.2-0.1-0.2-0.1-1-0.6c-0.2,0-0.3,0-0.3,0l-0.4-0.2
					c-0.1-0.1-0.2-0.3-0.3-0.4c0-0.1,0-0.1,0-0.1c0.1,0.1,0.3,0.2,0.5,0.3c0.1,0,0.2,0,0.3-0.1c-0.1-0.4-0.7-0.8-1.7-1.5
					c-0.3-0.2-0.5-0.4-0.8-0.6c0.2,0,0.2,0,1.6,1c0.2,0,0.2,0,0.3,0c0.4,0.2,0.4,0.2,1.1,0.7c0.1,0.1,0.2,0,0.2,0
					c0.4,0.2,0.7,0.5,1.1,0.7c0.2,0.1,0.2,0.1,0.2,0.1c-0.1-0.1-0.1-0.1-1-0.8c-0.1-0.1-0.1-0.1-0.1-0.1c-0.1-0.1-0.1-0.1-1.6-1.2
					c0.1,0.1,0.3,0.2,0.4,0.3c0.1,0.1,0.1,0.1,0.1,0C2670.9-44.5,2670.1-45.2,2670.1-45.2 M2545.5-33.8L2545.5-33.8
					c-0.3-0.1-0.6-0.1-0.8-0.2l0,0c-0.1,0.1-0.1,0.1-0.6,0.6c0.1,0,0.1,0,0.1,0l0.1,0l0,0l-0.1,0.1c-0.1,0.1-0.2,0.2-0.3,0.4
					l0.2-0.1l-0.1,0.2l0.1,0c0.2-0.1,0.2-0.1,0.3-0.2l0.1-0.1l0,0l0.1,0l0,0C2544.9-33.3,2544.9-33.3,2545.5-33.8 M2548.2-33.3
					c-0.8-0.1-1.5-0.3-2.2-0.4c-0.2,0.3-0.4,0.6-0.6,0.8l-0.1,0.1c-0.6,0.6-0.6,0.6-0.7,0.7c-0.2,0.2-0.3,0.5-0.4,0.8l-0.2,0.2
					l-0.2,0.2c-0.3,0.3-0.4,0.8-0.7,1.1c-0.2,0.3-0.5,0.5-0.7,0.8l-0.1,0.1c-0.1,0.2-0.2,0.3-0.4,0.5c0.2,0,0.3,0.1,0.5,0.1
					c0.4-0.5,0.9-1.1,1.1-1l0.1,0c0,0.1,0,0.1,0,0.2l0,0c0.6-0.4,0.6-0.4,0.6-0.3c0.2-0.2,0.4-0.5,0.6-0.7c0.1,0,0.2,0,0.3,0.1
					c0.3-0.4,0.3-0.4,0.5-0.6l-0.2,0c-0.1,0-0.1,0-0.2,0c0-0.1,0.1-0.2,0.2-0.2l0-0.1l0.1-0.1c0.2-0.2,0.3-0.3,0.5-0.5
					C2546.8-32,2547.3-33,2548.2-33.3 M2562.2,12.2c2.5-16.5,7.2-31.4,13.5-43.6c-3.1-0.1-6-0.3-8.8-0.4c-6.9-0.4-12.3-0.8-16.2-1.2
					c-0.2,0-0.4,0-0.6-0.1l0,0.1h0h0h0h0h0l0,0h0c-1.2,0.8-1.2,0.8-1.3,1c0.2,0.1,0.2,0.1,1.3-0.5c0.1,0.4,0.1,0.4-1.8,2.5
					c-0.2,0.1-0.2,0.1-0.3,0.1c0-0.1-0.1-0.2-0.1-0.3c0.1-0.1,0.2-0.3,0.3-0.5c0-0.1,0-0.1-0.1-0.1c0.1-0.1,0.3-0.3,0.4-0.5l-0.2,0
					c-0.9,0.8-3.5,3.1-3.9,4.1l-0.2,0.2c0-0.1-0.1-0.2-0.1-0.3c-0.3-0.1-0.3-0.1-1.4,1.2l-0.1,0c0.1-0.5,0.1-0.5,0.3-1.2
					c-0.6,0.2-2.4,1.3-2.5,1.3c0-0.1-0.1-0.2-0.1-0.3c0.2-0.3,0.2-0.3,0.6-0.8l-0.1,0l-0.2,0.2c-0.3,0-0.3,0-0.4,0
					c-0.3,0.1-0.3,0.1-0.7,0.7c-0.1,0.1-0.2,0.1-0.2,0.1c0-0.3,0-0.3,0.4-0.8l-0.2,0.1l-0.1,0c0.1-0.1,0.2-0.3,0.3-0.4
					c0.1-0.1,0.3-0.3,0.4-0.5c0.1,0,0.2,0,0.3,0c0,0.1,0,0.2,0,0.3c0.1,0,0.2,0,0.3,0c0.5-0.5,1.8-2.1,1.8-2.1l-0.1,0
					c-0.3,0.1-0.3,0.1-0.9,0.6l0,0h0c0.2-0.4,0.2-0.4,0.8-0.9c0.2-0.2,0.3-0.4,0.4-0.5c0.2-0.9,1-1.2,1.4-1.8
					c-0.7,0.3-1.7,1.3-1.7,1.3c-0.2,0.2-0.2,0.3-0.2,0.3c-0.8,0.8-1.5,1.7-2.2,2.5c-0.2,0.2-0.2,0.3-0.3,0.4
					c-0.1,0.2-0.3,0.4-0.5,0.5c-0.2,0.3-0.4,0.7-0.7,1c-0.1,0.2-0.2,0.3-0.4,0.5l-0.1,0c-0.1,0-0.2,0.1-0.3,0.1l-0.1,0l-0.2-0.1
					c-0.4,0.4-0.9,0.8-1.3,1.2c-0.1-0.1-0.1-0.1-0.1-0.1l0,0c-0.2,0.1-0.3,0.3-0.5,0.5l-0.1,0.3c-0.2,0.3-0.4,0.5-0.6,0.8
					c-0.3,0.2-0.3,0.2-1.1,1c-0.1,0.1-0.1,0.1-0.2,0.1c-0.5,0.5-0.8,1-1.2,1.5l-0.3,0.1c-0.2,0.3-0.4,0.5-0.6,0.8l-0.1-0.1
					c0.1-0.4,0.2-0.4,0.2-0.5l0.1-0.3c-0.2,0.3-0.4,0.5-0.6,0.8l-0.5,0.7l-0.2,0.3c-0.1,0.1-0.1,0.2-0.2,0.3c0-0.2,0.1-0.4,0.1-0.6
					c-0.3,0.3-0.3,0.3-0.6,0.7c-0.1,0.2-0.1,0.2-0.1,0.3c-0.1,0.1-0.2,0.4-0.3,0.5c0,0.1,0,0.1,0,0.1c-0.2,0.5-0.5,0.9-0.7,1.4
					c-0.3,0.5-0.6,0.9-0.8,1.4c-1.7,3.4-1.7,3.4-2.5,4.7l-0.2,0.3c-0.1,0.2-0.1,0.2-0.2,0.2c0.1-0.3,0.1-0.6,0.3-0.8
					c0.1-0.3,0.1-0.3,0.1-0.4c0-0.1,0.1-0.2,0.1-0.3c0.1-0.1,0.1-0.1,0.1-0.1c-1.6,3.3-3.6,7.8-4.9,11.3l0,0c0,0.1-0.1,0.3-0.2,0.5
					c-0.1,0.4-0.3,0.7-0.4,1.1c0-0.1,0.1-0.2,0.1-0.3l0-0.1c0.6-0.9,0.3-2.3,1.6-2.8c0.1-0.3,0.3-0.7,0.4-1c0.4-1.2,0.4-1.2,1.1-2.5
					c0.6-1.2,1.2-1.5,1.2-1.5c0.3-0.3,0.4-0.6,0.5-0.9c0-0.1,0.1-0.2,0.1-0.3c0,0,0.7-1.5,0.9-1.8c0.2,0.1,0.2,0.1,0.2,0.1v0h0l0,0
					l0,0l0,0h0l0,0c0,0.2,0,0.4,0,0.6l0.1,0c0.1-0.1,0.1-0.1,0.8-1.2l0.1,0c0.4-0.2,0.4-0.2,0.8-0.8c0.2,1.1-0.7,1.9-0.7,3
					c0,0.2-0.1,0.5-0.2,0.7c-0.1,1.7-0.1,1.7,0.1,1.9c-0.5,3.9-0.5,3.9-0.7,4.5c-0.6,0.1-1,0.5-1.7,0.4c-0.1,0.1-0.2,0.2-0.3,0.3
					c0.1,0.5-0.1,1-0.1,1.4l0.2,0.2c0.2,0,0.4,0.1,0.6,0.1c0.1-0.4,0.3-0.8,0.4-1.1c0.8-0.6,2.1-2.7,2.1-2.7
					c0.1-0.3,0.1-0.4,0.2-0.5c-0.2,0-0.3,0-0.4,0c0-0.2,0-0.3,0-0.4c0-0.1,0.1-0.2,0.1-0.3c0.2-0.2,0.3-0.1,0.5-0.1
					c0.1,0.2,0.1,0.4,0.2,0.5c0,0,0,0,0.6-1.4l-0.2-0.1c0-0.7,0-1.7,0-1.7l-0.2-0.2c0-0.9,0.2-1.8,0.3-2.7c0-0.2,0-0.2,0-0.2
					c0.1-0.3,0.2-0.4,0.4-0.9c-0.1,0-0.2-0.1-0.3-0.1c0-0.2,0.2-0.5,0.3-0.7l0.2-0.3c0.2-0.2,0.2-0.3,0.3-0.3c0.4-0.9,0.4-0.9,0.6-1
					l0.1,0.3c0,0.1-0.7,1.7-0.3,4.4c-0.1,0.7,0.3,1.3,0.2,2c-0.3,1.5-1.1,2.7-1.4,4.2c0.1,0,0.2,0.1,0.3,0.1c0,0.5-0.2,0.9-0.3,1.3
					c-0.1,0-0.2,0-0.3,0c0-0.1,0.1-0.2,0.1-0.3c-0.1,0-0.2,0-0.3,0.1c-0.2,0.8-0.1,1.2,0,1.6c0.1-0.1,0.2-0.3,0.3-0.4l0.2-0.2
					c-0.2,0.7-0.2,1.4-0.4,2c0.2,0.3,0.3,0.3,0.4,0.3c0.1,0,0.2,0,0.3,0c0.1-0.2,0.3-0.5,0.4-0.7c0.1-0.2,0.1-0.3,0.1-0.4
					c0-0.3,0.1-0.5,0.5-0.7c0,0.1,0.1,0.2,0.1,0.3c0.2,0.1,0.2,0.1,0.3,0.1c0.2-0.2,0.2-0.2,0.6-1.2c0.1,0,0.2,0,0.3,0
					c0.4-0.5,0.1-0.9-0.1-1c-0.2,0.5-0.2,0.5-0.3,0.9c-0.1,0-0.2,0-0.3-0.1c0-0.5,0-0.5,0.3-1.7c-0.4-0.4-0.3-0.8-0.2-1
					c0-0.1,0.1-0.2,0.1-0.3l0.2-0.2l0.1,0.1c0,0.2,0.1,0.4,0.3,0.5c0.1,0,0.2,0,0.2,0l0.1,0c0.3-0.3,0.3-0.9,0.7-1.2
					c0.2,0,0.4,0.1,0.6,0.1c0.1,0.1,0.2,0.4,0.2,0.5c0.1,0,0.2,0.1,0.3,0.1c0,0.2-0.1,0.4-0.2,0.5l0.1,0.1l-0.1,0.5
					c-1.1,0.5-0.3,1.6-0.6,2.4c0,0.2-0.1,0.4-0.2,0.6c0,0.1-0.1,0.2-0.1,0.3c0,0.2,0,0.2,0,0.8l0,0.2l0,0.1l0,0.2l0.1,0.2l0,0.1
					c0,0.2-0.1,0.5-0.2,0.6l-0.1,0.1l-0.1,0.2c-0.2,0.5-0.2,0.5-0.2,0.9l0,0.2l0,0.1c0.1-0.1,0.2-0.3,0.3-0.5l0.2-0.4
					c0.1-0.2,0.1-0.4,0.2-0.6c0-0.1,0.1-0.2,0.1-0.3c0.1-0.2,0.2-0.2,0.2-0.2l0.1,0l0,0.1l0,0.1l0,0.1c0,0.1,0.1,0.3,0.1,0.5l0,0.2
					l0,0.2l0.1,0.1l0.1,0c0.1,0,0.2,0,0.3,0l0.1,0.1c0.2,0.1,0.2,0.1,0.3,0.1L2535,5l0.1-0.1l0-0.1l0.1-0.2c0.1-0.5,0.1-0.5,0.3-0.8
					l0.1-0.1l0.2-0.1c0.1,0,0.2,0,0.3,0l0.2,0.2c0,0.1,0.1,0.3,0.1,0.4c0,0.1,0.1,0.3,0.2,0.5l0,0.2l0.1,0.1l0.1,0.1l0.1,0.1
					c0.4,0,0.8,0.1,1.2,0.1c0-0.2,0.1-0.4,0.1-0.5l0.1-0.2c0-0.2,0.1-0.4,0.2-0.5l0.3,0l0.1,0l0.1,0c0.1,0,0.2,0.1,0.3,0.1
					c0,0.1,0,0.3,0.1,0.4c0.2,0.1,0.3,0.1,0.3,0.1l0.1-0.1l0.1-0.1l0.1-0.1l0.1,0.1c0,0.1,0,0.3,0.1,0.4l0,0.1
					c-0.2,0.6-0.2,0.6-0.4,1c-0.5,0.9-0.5,1.5-0.5,1.7l0,0.2c0.1,0.5,0,0.5-0.2,0.9l-0.1,0.1l-0.1,0.2c0,0.2-0.1,0.4-0.2,0.5
					l-0.1,0.1c-0.7,0.9-0.7,0.9-0.8,1l-0.1,0.1l-0.1,0.1l-0.1,0.2c3.7,0.4,8.1,0.7,13,1C2554.1,11.9,2558.1,12.1,2562.2,12.2
					 M2672.7-15.5c-0.9-1.8-2.6-3.1-3.5-5c-0.1-0.2-0.1-0.3-0.2-0.4c0,0-0.4-0.9-0.7-1.1l0,0h0l0,0l0,0h0l0,0h0l0,0
					c-0.7-0.6-0.9-1.4-1.4-2.1c-0.1,0-0.3,0-0.4,0c0.3,0.6,0.6,1.2,1,1.8c-0.1,0-0.3,0-0.4,0.1c0,0.1,0,0.2,0.1,0.3l0.1,0.2
					c0.1,0.1,0.1,0.2,0.2,0.3c0.2,0.3,0.3,0.3,0.4,0.6c0,0.1-0.2,0.1-0.3,0.2c-0.2,0-0.2,0-0.8-1.3c0-0.1-0.1-0.2-0.1-0.3
					c-0.8-0.7-1.9-1.1-2.7-1.7c-0.3-0.1-0.5-0.1-0.7-0.1c0.2,0.4,0.4,0.8,0.6,1.3c-0.3,0-0.6,0-0.9,0c0,0-0.6-1.2-1.4-1.2l0.1,0.2
					c0.1,0.2,0.2,0.4,0.3,0.6l0.1,0.2c-0.1,0-0.3,0-0.4,0c-0.1-0.1-0.2-0.2-0.2-0.3c-0.2-0.8-0.2-0.8-0.8-1.2c0,0.1-0.1,0.3-0.2,0.4
					c-0.1,0-0.2,0-0.3,0l-0.2,0c-0.5-0.2-0.5-0.7-0.4-1c0.6-0.4,0.5-1.4,1.3-1.6c0.1-0.5-0.5-1-0.1-1.5c-0.1-0.7-0.1-0.7,0.2-1.2
					l-0.1-0.2c0.2-0.1,0.2-0.1,0-1.6l0.2-0.2c0.1,0,0.3,0,0.5-0.1c-5,0.1-10.6,0.3-16.6,0.4c3.9,9.2,7.1,19.9,9.2,31.6
					c0.3,0,0.6,0.2,0.8,0.3c0.1,0,0.1,0,0.1,0h0h0h0h0h0h0l0,0c0.9,0.2,0.9,0.4,1.1,0.8c0.1,0.3,0.1,0.4,0.1,0.5
					c-0.1,0.3-0.1,0.3-0.3,0.6c0.1,0.5-0.1,1,0,1.4c0.2,0,0.4,0,0.5,0l0.2-0.1c1-1,1.3,1.5,2.1,2.1c0.1,0.7,0.2,1.2,0.3,1.8
					c-0.1,0.4-0.4,0.8-0.5,1.2c0.1,0.4,0.1,0.7,0.1,1c0.5,0,1,0,1.5,0c0.4-0.1,0.6-0.5,1-0.7c0.4-0.3,0.9-0.6,1.3-1
					c0.4,0,0.4,0,0.6-0.3c-0.2-1.2-0.2-1.2-0.1-1.6c-0.1-0.3-0.1-0.6-0.2-0.9c-0.3,0-2.5-2.5-2.5-2.5c-0.2-0.4-0.2-0.4-0.4-2.8
					c0.1,0,0.1,0,0.7-0.2c0.2,0,0.2,0,0.3,0c0.2,0,0.3-0.1,0.5-0.1c-0.2-0.9-0.4-1.7-0.6-2.6c0-0.6,0-0.6,0.1-0.9
					c1,0,0.5-1.3,1.2-1.6c0.9-0.5,1.1,1.2,2,0.7c0.8-0.4,1.2-1.2,1.2-1.2c0.9,0,0.9,0,1.9-2.7c0.4-1.1-0.3-2.5,0.8-3.5l0-0.2
					c1-0.3,0.5-1.3,0.9-1.9c0-0.1-0.1-0.3-0.2-0.4l0-0.1c-0.1-0.4-0.1-0.4-0.3-0.8c-0.1-0.2-0.1-0.3-0.1-0.3
					c0.1-0.6,0.1-0.7-0.1-1.2c-0.1-0.3-0.2-0.4-0.3-0.6l-0.1-0.2c-0.1-0.2-0.1-0.2-0.2-0.3c-0.2-0.5-0.3-2.1-0.3-2.1l0.2,0
					c0.1,0.1,0.3,0.3,0.5,0.3c0,0,1.6,1.1,3.9,9.4c0.1,0.1,0.3,0.1,0.4,0.1l0.2-0.2c0-0.2-0.1-0.4-0.1-0.6c0-0.1,0-0.3,0-0.5l0.2,0
					c0.3,0.7,0.4,0.9,1.2,1c-0.3-0.9-1.4-1.2-1.8-2.1c-0.4-0.8-0.5-1.7-0.9-2.5c0.1-0.1,0.1-0.1,0.1-0.6l0.2-0.1
					c0.3,0.2,0.6,0.4,0.9,0.5C2672.8-15.2,2672.8-15.4,2672.7-15.5 M2679.8-27.8l-0.3-0.5c-1.6-1.4-1.6-1.4-2-2.1
					c0-0.1,0-0.1,0.1-0.2c-0.2-0.3-0.4-0.5-0.5-0.5l0,0.1l0.1,0.2l-0.2,0.1c-1-1.3-1-1.5-1-1.7c-0.6,0-1.2,0.1-1.8,0.1
					c0,0,0.3,0.8,0.3,1c-0.1,0-0.2,0-0.3,0c0,0.2-0.2,0.4-0.2,0.6l-0.1,0c0,0.1-0.1,0.3,0.2,0.5c0.1,0.1,0.3,0.2,0.6,0.7
					c0.2,0.3,0.2,0.7,0.3,1.1c0,0.1,0.1,0.2,0.4,0.6l3.1,4.8c0.1,0.1,0.1,0.2,0.1,0.4c0.3,0.3,0.7,0.7,1.1,1.1
					c0.4,0.7,0.8,1.4,1.2,2.1l0.2,0.1l0.1-0.1v-0.2c0.2-0.1,0.3-0.3,0.5-0.3c-0.2-0.4-0.5-0.7-0.6-1.1c-0.1-0.4-0.1-0.8-0.2-1.1
					c-0.1-0.4-0.1-0.4-0.1-0.5l0.1,0l0.2,0.1l0.1,0l0.1,0c0-0.1-0.1-0.4-0.1-0.4c-0.3-0.5-0.6-0.9-0.9-1.3c0-0.2-0.1-0.4-0.1-0.7
					c0.3-0.1,0.6-0.1,0.9-0.1c-0.2-0.2-0.3-0.5-0.5-0.7c-0.2-0.3-0.5-0.5-0.7-0.7c-0.1-0.1-0.1-0.2-0.2-0.2
					c-0.1-0.1-0.1-0.2-0.2-0.2l-0.4-1.1c0.2,0,0.2,0,0.4,0.3l0.2,0.1C2679.7-27.8,2679.7-27.8,2679.8-27.8 M2631.7-52.8
					c-0.2-0.2-0.4-0.4-0.6-0.6v0l0,0v0.1c0.1,0.1,0.3,0.2,0.4,0.3L2631.7-52.8L2631.7-52.8 M2645.1-30.9c-3.7-8.6-8-15.9-12.9-21.4
					c-0.2,0-0.5,0-0.7,0c-0.2,0.1-0.6,0.4-1.7-0.2c-0.1,0-0.2,0.1-0.3,0.2c-0.1,0-0.2-0.1-0.3-0.2c-0.2-0.3-0.3-0.4-0.4-0.5
					c-0.6-0.3-0.6-0.3-1-0.1l-0.2,0c-0.4-0.1-0.6-0.1-0.8-0.1l-0.2,0.1c-0.1,0-0.2,0-0.3-0.1c-0.4,0.2-0.4,0.2-0.5,0.2
					c-0.3-0.1-0.5-0.4-0.8-0.6c0,0.1-0.1,0.2-0.1,0.3c-0.1,0-0.3,0-0.4,0l-0.2-0.3h0.4l0.2-0.3c0-0.3,0-0.3-0.1-0.3
					c-0.1,0-0.2-0.1-0.3-0.1c-0.1,0-0.2,0.1-0.3,0.2c0,0.1,0,0.2,0,0.3c-0.4,0.3-0.6,0.3-0.9,0.3l-0.1,0.1c0.1,0.1,0.2,0.2,0.2,0.3
					c0.1,0.1,0.1,0.1,0.1,0.2l-0.2,0.3c-0.1,0-0.1,0-0.1,0c-0.2,0-0.5,0.1-0.7,0.2c-0.3,0-0.4,0-0.4,0c-0.3,0.1-0.3,0.1-0.4,0.1
					l-0.1,0c0.3-0.3,1-1.2,1-1.3c0.2,0,0.2,0,0.3,0l0.2-0.2c0.2-0.2,0.3-0.2,0.3-0.2c0.1,0,0.2-0.1,0.3-0.1c0-0.1,0-0.3,0-0.4
					c0.1-0.2,0.3-0.2,0.4-0.2c-0.1-0.1-0.1-0.2-0.2-0.3c0-0.1,0-0.1,0.1-0.1c-0.1-0.2-0.3-0.4-0.5-0.5c-0.2-0.1-0.2-0.1-0.3-0.1
					c-0.3-0.4-0.8-0.5-1.1-0.8c-0.2,0-0.5,0-0.7,0c-0.2,0-0.5,0-0.6,0.1c-0.2-0.1-0.5-0.2-0.7-0.2c0,0.1,0.1,0.2,0.2,0.4
					c-0.1,0-0.2,0-0.3,0l-0.1-0.1l0.1-0.1c0-0.1-0.1-0.2-0.1-0.3c-0.2,0-0.3,0-0.5,0c-0.1,0-0.3,0-0.4-0.1c0-0.1-0.1-0.2-0.2-0.3
					c0.1-0.2,0.1-0.2,0-0.3c-0.3,0-0.7,0-1,0c-0.2,0.1-0.4,0.2-0.6,0.3c0,0.3,0,0.3,0,0.3c0,0.1-0.1,0.2-0.2,0.3
					c0.1,0.1,0.2,0.2,0.2,0.3c-0.3,0-0.7,0-1,0c-0.1,0.3-0.1,0.3-0.1,0.3l0,0h0h0l0,0h0v0l0,0c-0.1,0.1-0.1,0.1-0.1,0.2
					c-0.2,0.1-0.2,0.1-1.3-0.1c-0.2,0-0.2,0-0.3,0c-0.1,0-0.2,0-0.3-0.1c-0.1,0.2-0.3,0.4-0.4,0.5c-0.2,0-0.4,0-0.6,0
					c-0.3,0.1-0.6,0.3-1,0.4c-0.1,0-0.2-0.1-0.3-0.1c-0.7,0.4-2.4,1.3-2.4,1.3c0.1,0.2,0.3,0.4,0.5,0.5c0,0.1,0,0.2-0.1,0.2
					c-1.1,0.2-1.1,0.2-1.4,0.3c-0.4-0.2-0.4-0.2-1-0.1c-0.3,0-0.5,0-0.7,0l-0.3,0.1c-0.4,0.1-0.6,0.1-0.8,0.1
					c-0.1,0.1-0.2,0.1-0.3,0.2c0.1,0.2,0.1,0.5,0.2,0.7c0,0.1-0.1,0.1-0.1,0.1c0,0.1,0,0.2-0.1,0.3c0.1,0.1,0.2,0.1,0.3,0.2l0.2,0
					c0.1,0,0.2,0.1,0.3,0.1c0,0.1,0.1,0.2,0.1,0.4c0,0.1-0.1,0.1-0.1,0.2c-0.1,0.1-0.2,0.1-0.3,0.2c-0.3-0.1-0.6-0.3-1-0.5l0-0.3
					c-0.4-0.1-0.6-0.1-0.9-0.1l-0.2-0.3c-0.7-0.2-1.2,0.3-1.2,0.3c0.2,0,0.5,0.2,0.6,0.3c-0.1,0.1-0.2,0.1-0.3,0.2
					c-0.1-0.1-0.2-0.2-0.3-0.2c-0.3,0-0.3,0-0.3,0c-0.2,0.1-0.4,0.3-0.6,0.4c0,0.1,0,0.2,0.1,0.3c0.3,0,0.3,0,0.3,0h0h0h0h0h0l0,0h0
					c0.4,0.2,0.4,0.2,0.7,0.7c-0.1-0.1-0.1-0.1-1.7-0.6c0-0.1-0.1-0.2-0.1-0.3c0.2-0.3,0.2-0.4,0.3-0.5c0.5-1.1,0.5-1.1,0.5-1.3
					c-0.2-0.1-0.2-0.1-0.2-0.1h0h0h0h0h0h0h0c-0.3,0.6-0.3,0.6-0.5,1l-0.1,0.2c-0.7,0-1.4,0.7-1.5,0.9l0,0.1
					c0.1,1.3,0.1,1.3-0.6,1.8l0,0.1c-0.1,0.4-0.2,0.7-0.3,1c0.4,0.3,0.7,0.3,0.9,0.3c0.2-0.1,0.4-0.3,0.6-0.5c0.1,0,0.1,0,0.1,0
					c1.3,1.5,1.2,1.7,0.4,2.3c0.1,0.1,0.2,0.2,0.3,0.3c0.2,0.1,0.4,0.2,0.6,0.3l-0.1,0.2c-0.1,0-0.2,0.1-0.3,0.1c-0.3,0-0.3,0-0.4,0
					c-0.1-0.2-0.3-0.4-0.4-0.6c0.1-0.3,0.1-0.4,0.2-0.5c0-0.1,0.1-0.2,0.1-0.3l-0.2-0.3c0-0.1,0-0.2,0-0.4c-0.7-0.3-2.1-0.8-3.6,2.6
					c-0.2,0.1-0.2,0.1-1.4,0.6c-0.1,0.1-0.2,0.2-0.2,0.3c-0.4,0.3-0.4,0.3-1,0c-0.5-0.2-0.8-0.2-1.2-0.2l-0.1-0.1
					c1-0.9,2.6-0.6,3.6-1.6c0.3-0.1,0.6-0.2,1.4-1.6c-0.2,0-0.5-0.1-0.7-0.2c0-0.1,0-0.1,0.6-1.4l0.1-0.2c0.7-0.9,0.7-0.9,0.8-1.9
					c0.2-0.5,0.4-0.9,0.6-1.2c0.1,0,0.3,0,0.4,0l0.6-0.9c-0.2-0.1-0.5-0.2-0.6-0.2c-0.1,0-0.2,0-0.3,0c-0.5,0-0.9,0.2-1.4,0.2
					c-0.8,1-1.6,1.6-2.2,1.9c-0.3,0-0.3,0-0.4,0c-0.1,0.1-0.2,0.1-0.3,0.2c-0.1,0.2-0.2,0.2-0.2,0.2c-0.1,0.2,0,0.2,0,0.2
					c0.1,0.8-0.6,1-0.6,1c-0.2,0.1-0.4,0.3-0.5,0.5c0.4,0.2,0.5,0.4,0.3,0.8c0.1,0.1,0.2,0.2,0.2,0.3c0.2,0.6,0.2,0.6-0.5,1.1
					c-0.1,0-0.2,0-0.2,0c-0.1,0-0.3,0-0.4,0c-0.1-0.1-0.1-0.2-0.2-0.3c0.1-0.1,0.1-0.3,0.2-0.4c-0.7-0.3-0.7-0.3-0.8-0.6
					c-0.5-0.1-0.5-0.1-0.8-0.6c-0.4-0.2-0.7-0.2-0.9-0.2c0-0.1-0.1-0.2-0.1-0.3c-0.3,0-0.5,0-0.8,0c-0.1-0.2-0.3-0.5-0.4-0.7
					c0-0.1-0.1-0.2-0.1-0.3c-0.1,0-0.1,0-0.2,0c-0.1,0-0.1,0-0.9,1c0.1,0.1,0.2,0.1,0.3,0.2c0.2,1.1,0.2,1.1-0.4,1.5
					c-0.4,0.1-0.4,0.1-0.5,0.1c-0.4,0.2-0.6,0.6-1.1,0.6c0.3-0.3,0.5-0.6,0.8-0.9c0-0.2-0.1-0.2-0.1-0.2c-0.3,0.1-0.3,0.1-0.9,0.5
					c-0.3,0-0.3,0-0.4,0c-4,4.4-7.4,9.5-10.4,15.3C2596.8-30.6,2623.3-30.4,2645.1-30.9 M2564.4,30.4L2564.4,30.4c0-0.5,0-0.8-0.1-1
					c-0.2-0.2-0.5-0.1-0.7-0.3c-0.3-0.2-0.3-0.2-0.3-0.6c0-0.2,0-0.4-0.1-0.5c-0.2-0.5-0.6-0.8-1.1-0.8c0,0-0.6,0-0.2-0.7
					c0.2-0.4,0.1-0.7,0.1-0.7c-0.1-0.1-0.5-0.4-0.5-0.4c-0.2,0-0.4,0-0.5,0c0,0.8,0,0.8-0.2,1c-0.2,2.9-0.4,5.8-0.4,8.8
					c0.1,0,0.1,0,0.3,0c0.1,0,0.2,0,0.3,0c0.1,0,0.2,0,0.3,0c0-0.2,0.1-0.4,0.1-0.6c0.4-1.3,0.5-1.5,1-1.6l0.1,0
					c0.1,0.1,0.1,0.2,0.2,0.3c0.1,0.1,0.2,0.1,0.3,0.1c0-1.9,0.3-2.6,0.4-2.7c0.1-0.1,0.1-0.1,0.5-0.1
					C2564,30.6,2564.1,30.5,2564.4,30.4 M2654.5,18.2c0-0.3-0.2-0.7-0.4-0.9c-0.3,0-0.7-0.1-1-0.2c0-0.3-0.1-0.7,0-1
					c0.1-0.2,0.3-0.2,0.5-0.2c-0.3-0.9-0.7-1.8-1.1-2.8c-28.7,0.4-62.9,0.2-90.3-0.9c-0.5,3.2-0.9,6.4-1.2,9.7
					c0.4,1.4,0.4,1.4,0.8,1.6c0.6,0,1,0,1.5,0.1c0.1,0,0.1,0,1.5,0.8c0.6,0.1,1.1,0.1,1.6,0.1c0.1,0.1,0.3,0.2,0.4,0.2
					c1,0.1,1.8,0.1,2.6,0.1l1.8-0.3c0.6,0,1.1,0,1.7,0c0.8,0.6,1.4,1.1,3.4,4.1c0.4,0,0.5,0,0.6,0c0.5,0.1,0.5,0.1,1.9,0.7
					c-1.4-0.1-1.5,0.1-1.8,0.5c0.1,0.1,0.1,0.3,0.2,0.4c1.1,0.3,1.3,1.9,2.6,2c0.5,0.1,1.8-1.4,1.8-1.4c1.4,0.2,1.6,2.6,1.5,3.9
					c0,0.2,0,0.5,0,0.7c-0.4,2.7-0.4,2.7,3.2,10.2c0,0.5,0,0.6,0,0.8c-0.3,2.4,1.7,3.9,2.4,5.9c1.1,0.9,1.1,0.9,2.4-1.6
					c1.5-0.2,1.6-0.9,2.2-5.9c0-0.6,0-1.2,0-1.8c-0.1-1.7-0.1-1.7,2-2.3c1.2-2.3,4-3.1,5-5.6c0.3-0.1,0.6-0.2,0.9-0.2
					c0.2-0.8,0.4-0.8,1-0.9h0.1h0h0h0l0,0h0h0h0c0.8-0.2,0.8-0.3,1-2.1c0.5-0.3,1-0.3,1.5-0.3c0.1,0.1,0.3,0.1,0.4,0.2
					c0.4,0.1,0.5,0.1,0.5,0.1c0.5-0.3,1.1-0.5,1.6-1c0.6-0.3,1.2-0.3,1.7-0.3c0-0.3,0-0.7,0-1c0.3,0,0.7,0.1,1,0.2
					c0.6,1.3,0.9,2.7,1.7,3.9c1.1,0.9,1.1,0.9,1.4,1.4c0,0.2,0,0.3,0,0.4c0,0.3-0.1,0.8-0.1,1.1v-0.1c0.5-0.1,0.7-0.1,1.3,0.4
					c-0.3,4-0.3,4,1.1,4c0.2,0,0.3,0,0.4,0c0.5-0.3,0.5-0.3,1.4-0.7c0.4-0.2,0.4-0.3,0.4-0.4c0-0.1,0-0.2,0-0.3
					c0.1-0.1,0.3-0.2,0.4-0.3c1.8,0.6,0.9,2.7,2.2,3.6c0.1,0.5,0.1,0.5-0.4,1.4c1.1,4.5,1.1,4.5,0.4,4.9c-0.2,0.6-0.2,0.6-0.2,1.5
					c0,0.1,0,0.2,0,0.3c-1,3.7,3.1,5,3.7,7.9c0,0.6,0,1.1-0.1,1.7c0.8,2.3,4.3,3.7,4.4,3.7c0.3,0,0.3,0,0.4,0
					c0.1-0.1,0.1-0.3,0.2-0.5c-0.2-0.3-0.4-0.6-0.7-0.7c-0.7-1-0.8-4.4-0.8-4.4c0-0.1,0-0.2,0-0.3c-0.1-0.4,0-0.5,0-0.6
					c-0.1-0.6,0-0.8,0-1c-2.9,0.2-2.7-3.1-4.5-4.1c0-0.1-0.1-0.3-0.1-0.5c0-0.3,0-0.4,0-0.5c-0.2-0.3-0.6-0.5-0.9-0.6
					c0-0.5,0-1.1,0-1.6c0.5-1.2,2.1-4.2,2.1-4.2c0.6,0.5,0.7,1.4,1.4,1.8c0.3,0,0.4,0,0.4,0c0.2-0.1,0.6-0.2,0.9-0.1
					c1.9,3.5,1.9,3.5,3.2,3.8c0.1,0.1,0.2,0.3,0.3,0.5c-0.7,1.1-0.3,1.9,0,2.5c0.7-0.9,3-3.7,3-3.7c0.6,0.1,3.3,0.3,3.4-3.9
					c0-0.6,0-1,0-1.4c0.1-1.1-0.6-2-0.6-3.1c-0.8-0.3-0.8-0.3-2.1-1.9c-1-0.8-1.3-2.1-2.2-3c0.1-1.4,0.1-1.4,0.9-2
					c0.5-2.6,0.5-2.6,4.6-3c0.1,0.1,0.1,0.3,0.1,0.4c-0.1,0.9-0.1,1.6-0.1,2.2c-1.6,2-1.6,2-1.4,2.6c1,0.1,1.9,0.1,2.7,0.1
					c0.1-0.9,0.5-1.7,0.5-2.6c-0.1-0.1-0.3-0.2-0.5-0.2c-0.1-0.7-0.1-1.4-0.1-2c0.1,0,0.3,0,0.5,0c0.3,0,0.4,0,0.5,0
					c1.4-0.9,1.4-0.9,2.2-1c0.1,0,0.2,0,0.3,0C2646.4,31.9,2653.7,23.6,2654.5,18.2 M2543.1-34.3L2543.1-34.3c0,0-0.3,0.2-1.3,1.3
					l-0.1,0.1c0.2-0.2,0.3-0.4,0.5-0.5l0,0l0.1-0.1C2542.6-33.8,2542.8-34,2543.1-34.3 M2535-23.7c0.1-0.2,0.2-0.3,0.4-0.5
					c0.2-0.4,0.5-0.7,0.7-1.1c-0.3,0.2-0.4,0.5-0.6,0.7c0-0.1,0-0.1,1.1-1.5l-0.1,0c0.1-0.1,0.1-0.1,1.2-1.6c0,0,2.1-2.8,2.3-2.9
					c0.1-0.1,0.1-0.2,0.2-0.3c0.2-0.3,0.5-0.5,0.7-0.7c0.3-0.3,0.6-0.6,0.9-0.9l-0.1-0.2c0.5-0.5,1.1-0.9,1.5-1.5l0,0l0,0l-0.1,0
					l0-0.1c-0.3,0.3-0.6,0.6-0.9,0.9c-0.8,0.8-0.8,0.8-0.8,0.8c0.1-0.1,0.2-0.2,0.2-0.3c-0.4,0.4-0.8,0.9-1.2,1.3l-0.2,0.2
					c-0.4,0.5-0.9,0.9-1.3,1.4l0,0l0.1,0c-0.1,0.2-0.3,0.3-0.4,0.5v0c0.1-0.2,0.3-0.3,0.4-0.5c-0.5,0.6-1.1,1.2-1.6,1.8l0,0.1
					l0.2-0.2c-0.4,0.6-0.9,1-1.2,1.6c-0.3,0.4-0.6,0.9-1,1.2c0-0.1,0.1-0.2,0.1-0.3l0,0c-0.1,0.1-0.1,0.2-0.2,0.2l-0.2,0.2
					c-0.3,0.3-0.3,0.3-0.3,0.4l0.1,0c0,0.1-0.1,0.1-0.4,0.5l0,0c-0.1,0.2-0.2,0.3-0.4,0.5l0,0l0,0l0,0l0,0v0h0v0v0
					c-0.5,0.6-0.5,0.7-0.6,0.8c0.1-0.1,0.1-0.1,0.2-0.2c-0.5,0.8-0.5,0.8-0.9,1.2l0,0c-0.1,0-0.9,1.2-1,1.3l0.1-0.1
					c0.1-0.1,0.2-0.2,0.3-0.4l-0.1,0.2l0,0c0.2-0.2,0.3-0.5,0.5-0.7l0,0.1l0.1,0l0,0.1l0.1,0.1c0.1-0.1,0.2-0.3,0.3-0.4
					c0,0.2-0.2,0.3-0.2,0.5l0,0l0.1,0c0.1-0.1,0.2-0.3,0.3-0.4l0.1,0l0.1-0.1c0.2-0.3,0.4-0.6,0.6-0.9l0.1-0.1
					C2534.5-23.2,2534.7-23.4,2535-23.7L2535-23.7 M2537.3-27.9L2537.3-27.9L2537.3-27.9L2537.3-27.9L2537.3-27.9 M2537-27.6
					c0.6-0.7,0.8-0.9,1.3-1.6v0c-0.2,0.1-0.3,0.3-0.4,0.5c0.1-0.2,0.3-0.3,0.4-0.5l0,0c-0.9,1.1-0.9,1.1-4,5l-0.6,0.8v0
					c0.2-0.3,0.4-0.5,0.6-0.8l0,0.1c0.1-0.1,0.2-0.2,0.3-0.4c0.6-0.8,1.8-2.3,1.8-2.4c0.1-0.2,0.3-0.3,0.4-0.5
					C2536.7-27.2,2536.8-27.2,2537-27.6 M2559.7,85.7c0-0.1-0.1-0.2-0.1-0.3c-1.4-3.4-1.4-3.4-3-4c0.4,1,0.4,1,0.4,1.2
					c0,0-0.2,0.6-0.7,1c-0.5,0.4,0.3,0.8,0.2,1.3c-0.3,0-0.3,0-0.3,0c0,0.4,0.4,0.7,0,1.1c-1.9-0.1-1.9-0.1-2.2,0.3
					c-0.1,0.1-0.1,0.1,0.3,0.9c0.1,0.1,0.1,0.1,0.1,1c0,0,0.7,1.7,1.2,2.1c0.1,0.1,0.4,0.3,0.8,1.2l-0.1,0.1
					c-0.3-0.1-0.3-0.1-0.3-0.1c0,0.9,0.5,1.6,0.6,2.4c0,0.1,0.1,0.2,0.1,0.2c0.3,0.4,0.7,0.8,1,1.2c0.1,0.2,0.2,0.3,0.3,0.5
					c0.6,0.9,0.6,0.9,0.9,1.4c0.4,0.1,0.8-0.1,1.1,0.1c0.2,0.1,0.2,0.3,0.4,0.4c0.2,0.1,1.8,0.3,1.9-0.1c0.3-1.2-0.7-1.8-1.1-2.7
					c-0.2-0.5,0.1-1.1-0.1-1.7c-0.3-0.6-0.7-1.2-0.9-1.8l0.1-0.2c0,0,0.8-0.6,0.8-0.7c0-0.7-0.8-0.9-0.9-1.5c-0.1-0.4,0-0.8-0.1-1.2
					c-0.1-0.2-0.1-0.3-0.2-0.5c-0.1-0.2-0.2-0.3-0.3-0.5c0-0.1-0.1-0.2-0.1-0.3l0-0.1C2559.8,86.3,2559.8,86.3,2559.7,85.7
					 M2552.3,48c0-0.4-0.1-0.8-0.4-1.3c-1.6-0.3-2.8,1.8-4.5,1c-0.2,0-0.3,0-0.5,0c-1.5,0.2-1.8,0.2-2.7-0.3c-0.7-1.5-0.7-1.5-0.7-2
					c-0.1-0.1-0.3-0.3-0.5-0.4c-0.6-1.8-0.6-1.8-1.4-2c-5-8.5-5-8.5-4.7-9.9c0-0.2,0-0.4,0-1.2c-0.7-12.1-3.6-18.4-3.9-19.1
					c-0.1,0-0.1,0-0.6,0.2c-0.2,0.1-0.3,0.2-0.5,0.4l-0.2,0c-0.9-0.4-2-1.1-3-1.2c-0.8-2.2-0.8-2.2-1.3-2.6
					c-0.2,0.1-0.4,0.1-0.5,0.2c-0.1-0.1-0.3-0.2-0.5-0.3c-1,3.8-1,3.8-1.4,4.1c-0.1,0-0.1,0-0.3,0c-0.2-0.5-0.3-1.1-0.6-1.6
					c-0.4-0.1-0.7-0.1-1-0.6c0.3-1.8-0.3-2.1-0.9-2.4c-0.5-2.7,2.3-4.8,1.5-7.5c-0.4,0.1-0.8,0.5-1.3,0.5c-0.1,0.1-0.3,0.3-0.4,0.4
					c0.1-0.3,0-0.8-0.1-1.1c-0.2,0.3-0.5,0.6-0.7,1c-0.1-0.1-0.2-0.1-0.4,0.1c-0.4,1-0.4,1-0.8,1.5c0,0,0,0,0-0.2c0,0,0,0,0-0.2
					c0-0.2,0.1-0.4,0.2-0.5c0-0.1,0.1-0.2,0.1-0.3c-0.3,0.8-0.4,1-0.9,2.8c-1,3.7-2.1,8.6-2.9,12.3c-0.9,5.2-0.9,5.2-1.3,15.8
					c0,2.6,0.2,6.1,0.3,8.7c0.3,3.2,1,7.4,1.5,10.5l0-0.1c0,0,0,0,0.1,0.2c0.1,0.1,0.2,0.3,0.3,0.4c0-0.3,0-0.7,0.2-1c0,0,0,0,0-0.3
					c0.1-0.1,0.2-0.3,0.3-0.5c0.7,2.8,0.7,2.8,1,3.3c0.3,0.1,0.7,0.2,1.2,0.3c0.1,0.6,0.3,1.3,0.4,1.9c1.1,6.4,4.9,11.8,7,17.8
					c0.1,0.2,0.2,0.4,0.3,0.6c6.2,13.2,6.2,13.2,11,18.1c0.6,0.8,1.2,1.7,1.9,2.5c3,3.5,8.7,8.6,8.8,8.6l0.2,0.2
					c0.5,0.8,0.5,0.8,1.1,1.2c0.1,0,0.1,0,0.4,0.2c0.5,0.5,0.6,0.6,1.4,1.1c0.3,0,0.5,0.1,1.1-0.3c0.4,0,0.8,0.1,1-0.2
					c0-0.3,0-0.7,0.2-1l-4-8.2c0.2,0,0.4-0.1,0.5-0.1c0-1.4,0-1.4,0.1-1.7c-3.2-4.8-3.2-4.8-3.5-7.9c0.3-0.2,0.7-0.4,1-0.5
					c0.7-1,0.7-1,0.1-3.6c-0.1-0.3-0.2-0.5-0.5-1.2c-0.2-0.3-0.4-0.7-0.6-1c-0.4-1.1-0.8-2.2-1.6-3.6c-1.4-1.6-1.6-3.8-2.7-5.5
					c0-0.1-0.1-0.2-0.2-0.6c-0.1-0.3-0.1-0.7-0.2-1l4.7-11.2C2551.5,57.8,2552.2,51.6,2552.3,48 M2605-63.1L2605-63.1l-0.1,0
					L2605-63.1 M2599.8-62.5c-0.4,0.1-0.9,0.1-1.3,0.2c-0.1,0-0.1,0-0.1,0c-0.5,0.1-1,0.2-1.5,0.2v0c0.1,0,0.3,0,0.4-0.1
					c-0.5,0.1-0.6,0.1-0.8,0.1l-0.1,0L2596-62c-2.2,0.4-2.5,0.4-4.1,0.8c-0.1,0-0.1,0-0.1,0c-0.3,0.1-0.7,0.1-1,0.2
					c-0.1,0-0.1,0-0.1,0c-1,0.2-1.7,0.4-2.1,0.5c-0.5,0.1-1,0.3-1.5,0.4c0.3-0.1,0.5-0.1,0.8-0.2c-0.4,0.1-1.2,0.3-1.3,0.4l0,0
					l0.1,0c-0.3,0.1-0.7,0.2-1,0.3c-0.1,0-0.1,0-0.1,0l0.1,0c-0.2,0.1-0.4,0.1-0.7,0.2c-0.2,0.1-0.2,0.1-0.3,0.1
					c-0.2,0.1-0.4,0.1-0.6,0.2c-0.1,0-0.3,0.1-0.4,0.1l0.4-0.1l0.2,0c4.3-1.2,9.3-2.6,18.3-3.6l-0.1,0c0.1,0,0.3,0,0.4,0l0.1,0
					l0.1,0l0.2,0c0.1,0,0.3,0,0.4,0c0.1,0,0.2,0,0.3,0l0.1,0l0.1,0l0,0l0.1,0l0.1,0l0.1,0c0.1,0,0.3,0,0.5,0l0.1,0
					c0.1,0,0.3,0,0.4,0l0.1,0l0.1,0l0,0l-0.1,0h0l-0.1,0h0l-0.1,0l-0.1,0l0,0h0l-0.1,0l-0.1,0l-0.1,0c0.3,0,0.5,0,0.8-0.1l0.1,0
					l0.1,0l0.1,0l0.1,0l0.1,0l0.1,0c0.2,0,0.4,0,0.6,0h0l0,0l-0.1,0l0.1,0l-0.1,0c-0.1,0-0.1,0-0.1,0c0.1,0,0.3,0,0.4,0
					c-0.3,0-0.5,0-0.8,0l-0.1,0c-0.1,0-0.2,0-0.3,0c0.5,0,1.1-0.1,1.6-0.1l0,0c-0.1,0-0.1,0-0.1,0c0.2,0,0.4,0,0.6,0
					c-0.1,0-0.2,0-0.3,0c-0.1,0-0.1,0-0.1,0c-0.1,0-0.3,0-0.4,0h0c-0.3,0-0.7,0-1,0.1c0,0,0.1,0,0.2,0c-0.2,0-0.4,0-0.6,0l0,0
					l-0.3,0l-0.1,0c0.1,0,0.2,0,0.3,0l0,0l0,0l0,0l-0.1,0c-0.1,0-0.3,0-0.4,0c-0.1,0-0.1,0-0.1,0l0.1,0c0.1,0,0.1,0,0.1,0
					c-0.4,0-0.9,0.1-1.3,0.1l0,0l0.1,0l-0.1,0c-0.2,0-0.5,0-0.7,0.1c-0.3,0-0.5,0-0.8,0.1l0.1,0c-0.1,0-0.3,0-0.4,0c0,0,0.1,0,0.2,0
					c-0.2,0-0.8,0.1-1.6,0.2l0.3,0l0,0l0,0h0l0,0l0,0l0,0h0h0c0.1,0,0.1,0,0.1,0l0,0l0,0l0,0l0,0h0l0,0h0c0.2,0,0.4,0,0.5-0.1
					l-0.1,0l-0.1,0l0.2,0c-0.2,0-0.4,0-0.5,0.1l-0.3,0l0,0c-0.4,0-0.8,0.1-1.1,0.1c0.1,0,0.3,0,0.4,0l-0.1,0
					c0.6-0.1,1.1-0.1,1.7-0.2l-0.1,0l0,0c-0.6,0.1-1.2,0.1-1.8,0.2c-0.3,0-0.6,0.1-0.8,0.1c-0.7,0.1-1.4,0.2-2.3,0.3
					c0.8-0.1,1.2-0.2,1.9-0.3h0h0l0,0l0,0h0l0,0l0,0l0,0C2599.2-62.5,2599.5-62.5,2599.8-62.5c-0.1,0-0.3,0-0.5,0
					c0.5,0,1-0.1,1.6-0.2c0.1,0,0.1,0,0.1,0h0l0,0l0,0l0,0l0.1,0c-0.1,0-0.2,0-0.3,0c-0.1,0-0.2,0-0.3,0c0.1,0,0.2,0,0.3,0
					C2600.5-62.6,2600.1-62.6,2599.8-62.5"/>
			</g>
		</g>
		<path id="XMLID_48_" class="st0" d="M2110.3-63.6v220.5L1986.2,32.8v89h0v11.7h11.7V61L2102,165.2l20,20V-63.6H2110.3z M2060.7-52
			L2060.7-52l0-11.7H2049V8.8l-124.1-124.1v248.8h11.7V-87.1L2060.7,37V-52z"/>
		<g id="XMLID_42_">
			<g id="XMLID_44_">
				<path id="XMLID_47_" class="st0" d="M1856-71.6c14-0.6,28.2-3.3,39.3,9.3c12,13.7,14.5,31.4,6.1,50.1
					c-11.8,26.4-31.7,46.9-50,68.5c-9,10.7-18.4,21.4-25.3,33.4c-10.1,17.4-6.5,32.3,8.5,45.8c-12.8-2.5-26-20.1-27.3-35
					c-1.7-19.6,7.1-35.1,18.1-50c14.3-19.5,29.3-38.6,42.6-58.8c5.2-7.9,7.9-18.2,9.4-27.7C1880.6-55.7,1874.7-64.3,1856-71.6z"/>
				<path id="XMLID_46_" class="st0" d="M1894.3,133.4c-12.9,0-25.1,0.3-37.2-0.1c-20.7-0.6-31.9-17.4-23.8-36.6
					c3.3-7.7,8.1-15.1,13.5-21.6c15.4-18.3,31.6-36.1,47.5-54.1C1894.3,57.9,1894.3,95.2,1894.3,133.4z"/>
				<path id="XMLID_45_" class="st0" d="M1819,42.8c0-37.2,0-72.2,0-108.8c11.3,0.9,22.3,0.9,33,3c11.2,2.2,17.4,13.2,15.5,24.8
					c-3.2,20.3-14.3,36.8-25.9,52.9C1834.9,23.7,1827.5,32.3,1819,42.8z"/>
			</g>
			<circle id="XMLID_43_" class="st0" cx="1856.6" cy="-125.1" r="42.5"/>
		</g>
		<g id="XMLID_22_">
			<path id="XMLID_39_" class="st0" d="M2824.5,105.1l-47.4-47.4v75.9h11.7V85.9l47.7,47.7h16.5L2824.5,105.1z M2919.9,113.6l-57-57
				c1.9-1.5,3.7-3.2,5.4-4.9c13.2-13.2,19.8-29.2,19.8-47.8c0-18.5-6.7-34.6-19.8-47.8c-13.2-13.1-29.2-19.8-47.8-19.8h-104.9v197.3
				h11.7V-52.1h93.2c15.4,0,28.6,5.5,39.5,16.4s16.4,24.1,16.4,39.5c0,15.4-5.5,28.6-16.4,39.5c-4.8,4.8-10,8.6-15.7,11.3l32.6,32.6
				l46.4,46.3h16.5L2919.9,113.6z"/>
			<g id="XMLID_23_">
				<path id="XMLID_38_" class="st0" d="M2826.6,4.7c0,1.7-0.6,3.2-1.8,4.4c-1.2,1.2-2.7,1.8-4.4,1.8H2777V-1.6h43.4
					c1.7,0,3.2,0.6,4.4,1.8C2826,1.5,2826.6,2.9,2826.6,4.7z"/>
				<path id="XMLID_25_" class="st0" d="M2820.4,16.1h-48.6V-6.7h48.6c3.1,0,5.9,1.1,8,3.3c2.2,2.2,3.3,5,3.3,8.1
					c0,3.1-1.1,5.9-3.3,8.1C2826.3,14.9,2823.5,16.1,2820.4,16.1z M2782.2,5.7h38.3c0.4,0,0.5-0.1,0.7-0.3c0.2-0.2,0.3-0.3,0.3-0.7
					c0-0.4-0.1-0.5-0.3-0.8c-0.2-0.2-0.4-0.2-0.7-0.2h-38.3V5.7z"/>
			</g>
		</g>
		<path id="XMLID_5_" class="st0" d="M3184,116.1L3074.2-74.1l-10.1-17.5l-10.1,17.5l-109.8,190.2l-10.1,17.5h13.5l6.8-11.7
			l18.2-31.5l91.7-158.7l84.3,146l25.5,44.2h-0.1l6.7,11.7h13.7L3184,116.1z M3097.7,89.3l-7.5-13.1L3064.1,31l-38.6,66.8l-0.9,1.6
			l-13,22.6h0l-6.8,11.7h13.5l3.4-5.8l42.4-73.4l42.4,73.4l3.4,5.8h13.5L3097.7,89.3z"/>
	</g>
</g>
</svg>
