<?xml version="1.0" encoding="utf-8"?>
<!-- Generator: Adobe Illustrator 19.0.0, SVG Export Plug-In . SVG Version: 6.00 Build 0)  -->
<svg version="1.1" id="Layer_1" xmlns="http://www.w3.org/2000/svg" xmlns:xlink="http://www.w3.org/1999/xlink" x="0px" y="0px"
	 viewBox="0 0 792 300" style="enable-background:new 0 0 792 300;" xml:space="preserve">
<style type="text/css">
	.st0{fill:#FFF200;}
	.st1{clip-path:url(#XMLID_2_);fill:#FFF200;}
</style>
<g id="XMLID_585_">
	<g id="XMLID_4_">
		<g id="XMLID_896_">
			<g id="XMLID_897_">
				<path id="XMLID_898_" class="st0" d="M373.9,108.7l-2,3.5l-23.1,40l-23.1-40l-2-3.5h-7.9l11.2,19.5l21.8,37.8l29.1-50.3h31.7
					l-60.8,105.3l-51.1-88.5l-7.4-12.8l-2.3-4l-2-3.5l-2-3.5h-8l6,10.4l9.1,15.7l51.7,89.6l6,10.4l6-10.4L415.6,119l6-10.4H373.9z"
					/>
			</g>
		</g>
		<g id="XMLID_885_">
			<g id="XMLID_895_">
				<path id="XMLID_54_" class="st0" d="M218.8,193.4c1.6-5.4,3.5-11.1,5.8-17c4.2-11.1,9-21,14.1-29.5c-0.9-1.2-1.4-2.6-1.4-4.2
					c-8.1-1.7-16.8-2.4-26-2c-0.1,3.3-2.4,6-5.5,6.7C206.9,166.7,212.8,182.3,218.8,193.4C218.8,193.4,218.8,193.4,218.8,193.4z"/>
			</g>
			<g id="XMLID_894_">
				<path id="XMLID_52_" class="st0" d="M232.2,220.2c-3-3.2-6.6-7.5-10.3-12.9c-0.8,0.3-1.6,0.5-2.4,0.5c-0.8,3.2-1.5,6.1-2,8.5
					C222.2,218.3,227.2,219.6,232.2,220.2z"/>
			</g>
			<g id="XMLID_893_">
				<path id="XMLID_37_" class="st0" d="M278.2,166.8c-2.4-2.9-5.2-5.8-8.5-8.6c-5.7-4.8-12.2-8.7-19.3-11.5
					c-1.3,1.9-3.5,3.1-5.9,3.1c-0.7,0-1.4-0.1-2-0.3c-5.7,9.4-10.2,19.4-13.6,28.4c-2.2,5.7-4,11.3-5.6,16.6c1.5,0.9,2.6,2.4,3,4.1
					c15.7-0.7,30-5.8,42.5-15.1c2.9-2.2,5.5-4.4,7.9-6.7c-0.9-1.2-1.4-2.6-1.4-4.2C275.3,170.2,276.4,168.2,278.2,166.8z"/>
			</g>
			<g id="XMLID_892_">
				<path id="XMLID_35_" class="st0" d="M250.1,138.4c0.8,1.1,1.4,2.5,1.4,4c7.8,3.1,14.9,7.3,21.2,12.6c4,3.4,7.4,7,10.2,10.5
					c1.1,0.1,2.1,0.4,3,0.9c5.2-6.9,7.6-12.2,7.7-12.3l0.7,0.3c-2.1-11-7.4-21.5-16.1-29.9c-1.8-1.8-3.8-3.4-5.8-4.9
					C263.8,123.7,256.4,130.4,250.1,138.4z"/>
			</g>
			<g id="XMLID_891_">
				<path id="XMLID_33_" class="st0" d="M214.6,195.2c-5.7-10.8-9.7-22.2-11.8-34c-0.8-4.6-1.4-9.3-1.6-14.1c-2-0.9-3.6-2.7-4.1-4.9
					c-3.3,0.5-6.6,1.1-10,1.8c-6.4,16.2-5,34.9,4.3,50c7.3,2.2,14.3,3.6,21.1,4.3C212.9,197.1,213.6,196,214.6,195.2z"/>
			</g>
			<g id="XMLID_890_">
				<path id="XMLID_30_" class="st0" d="M290.2,187.5c0-0.1-1.1-3.7-4-8.8c-1.1,0.7-2.4,1.1-3.8,1.1c-0.7,0-1.4-0.1-2-0.3
					c-2.7,2.6-5.6,5.2-9,7.7c-10.7,8-22.8,13-36,15c-3.1,0.5-6.2,0.8-9.4,0.9c-0.2,0.4-0.4,0.8-0.6,1.2c5.3,7.7,10.4,13.2,13.6,16.2
					c14.7,0,29.4-5.6,40.5-17C284.1,198.7,287.7,193.3,290.2,187.5L290.2,187.5z"/>
			</g>
			<g id="XMLID_889_">
				<path id="XMLID_28_" class="st0" d="M289,169.7c0.4,0.9,0.6,1.8,0.6,2.9c0,0.8-0.1,1.5-0.3,2.2c1.5,2.5,2.6,4.7,3.4,6.6
					c2.1-6.7,2.9-13.7,2.4-20.6C293.7,163.2,291.7,166.3,289,169.7z"/>
			</g>
			<g id="XMLID_888_">
				<path id="XMLID_24_" class="st0" d="M205.7,133.5c1.7,0.4,3.2,1.4,4.1,2.8c2.3-0.1,4.5-0.2,6.7-0.2c7.6,0,14.9,0.7,21.7,2.2
					c0.1,0,0.3,0.1,0.4,0.1c1.3-1.8,3.4-2.9,5.8-2.9c0.7,0,1.4,0.1,2,0.3c6.7-8.5,13.9-14.9,21.7-19.1
					c-18.7-11.3-42.5-10.6-60.6,1.8C206.5,123.6,206,128.7,205.7,133.5z"/>
			</g>
			<g id="XMLID_887_">
				<path id="XMLID_19_" class="st0" d="M197.5,137.5c0.7-1.6,2-2.9,3.6-3.6c0.2-3.8,0.6-7.6,1.1-11.5c-1.2,1-2.3,2.1-3.4,3.2
					c-3.9,4-7.1,8.5-9.5,13.2C192.1,138.4,194.8,137.9,197.5,137.5z"/>
			</g>
			<g id="XMLID_886_">
				<path id="XMLID_17_" class="st0" d="M215.2,206.5c-1.3-0.9-2.3-2.2-2.8-3.8c-5.5-0.5-11.2-1.5-17-3c1.4,1.8,3,3.5,4.7,5.1
					c4,3.9,8.5,7.1,13.2,9.5C213.8,212,214.5,209.4,215.2,206.5z"/>
			</g>
		</g>
		<g id="XMLID_56_">
			<g id="XMLID_604_">
				<g id="XMLID_605_">
					<defs>
						<path id="XMLID_606_" d="M460.1,112.3c13.6,0,26.5,5.2,36.2,14.7c10,9.7,15.6,22.6,15.8,36.5c0.2,13.9-5,27-14.7,37
							c-5,5.1-10.9,9.1-17.4,11.9c-6.3,2.6-13.1,4-20,4c-13.6,0-26.5-5.2-36.2-14.6c-10-9.7-15.6-22.6-15.8-36.5
							c-0.2-13.9,5-27,14.7-37c5-5.1,10.9-9.1,17.4-11.9C446.5,113.6,453.2,112.3,460.1,112.3L460.1,112.3 M460.1,108.6
							c-14.6,0-29.1,5.7-40.1,16.9c-21.4,22.1-20.9,57.4,1.2,78.8c10.8,10.5,24.8,15.7,38.8,15.7c14.6,0,29.1-5.7,40.1-16.9
							c21.4-22.1,20.9-57.4-1.2-78.8C488.1,113.8,474.1,108.6,460.1,108.6L460.1,108.6z"/>
					</defs>
					<use xlink:href="#XMLID_606_"  style="overflow:visible;fill:#FFF200;"/>
					<clipPath id="XMLID_2_">
						<use xlink:href="#XMLID_606_"  style="overflow:visible;"/>
					</clipPath>
					<rect id="XMLID_884_" x="398.6" y="108.6" class="st1" width="123" height="111.4"/>
					<circle id="XMLID_883_" class="st1" cx="460.1" cy="164.3" r="55.7"/>
					<circle id="XMLID_882_" class="st1" cx="460.1" cy="164.3" r="55.3"/>
					<circle id="XMLID_881_" class="st1" cx="460.1" cy="164.3" r="54.9"/>
					<circle id="XMLID_880_" class="st1" cx="460.1" cy="164.3" r="54.5"/>
					<circle id="XMLID_879_" class="st1" cx="460.1" cy="164.3" r="54.1"/>
					<circle id="XMLID_878_" class="st1" cx="460.1" cy="164.3" r="53.6"/>
					<circle id="XMLID_877_" class="st1" cx="460.1" cy="164.3" r="53.2"/>
					<circle id="XMLID_876_" class="st1" cx="460.1" cy="164.3" r="52.8"/>
					<circle id="XMLID_875_" class="st1" cx="460.1" cy="164.3" r="52.4"/>
					<circle id="XMLID_874_" class="st1" cx="460.1" cy="164.3" r="52"/>
					<circle id="XMLID_873_" class="st1" cx="460.1" cy="164.3" r="51.5"/>
					<circle id="XMLID_872_" class="st1" cx="460.1" cy="164.3" r="51.1"/>
					<circle id="XMLID_871_" class="st1" cx="460.1" cy="164.3" r="50.7"/>
					<circle id="XMLID_870_" class="st1" cx="460.1" cy="164.3" r="50.3"/>
					<circle id="XMLID_869_" class="st1" cx="460.1" cy="164.3" r="49.9"/>
					<circle id="XMLID_868_" class="st1" cx="460.1" cy="164.3" r="49.5"/>
					<circle id="XMLID_867_" class="st1" cx="460.1" cy="164.3" r="49"/>
					<circle id="XMLID_866_" class="st1" cx="460.1" cy="164.3" r="48.6"/>
					<circle id="XMLID_865_" class="st1" cx="460.1" cy="164.3" r="48.2"/>
					<circle id="XMLID_864_" class="st1" cx="460.1" cy="164.3" r="47.8"/>
					<circle id="XMLID_863_" class="st1" cx="460.1" cy="164.3" r="47.4"/>
					<circle id="XMLID_862_" class="st1" cx="460.1" cy="164.3" r="46.9"/>
					<circle id="XMLID_861_" class="st1" cx="460.1" cy="164.3" r="46.5"/>
					<circle id="XMLID_860_" class="st1" cx="460.1" cy="164.3" r="46.1"/>
					<circle id="XMLID_859_" class="st1" cx="460.1" cy="164.3" r="45.7"/>
					<circle id="XMLID_858_" class="st1" cx="460.1" cy="164.3" r="45.3"/>
					<circle id="XMLID_857_" class="st1" cx="460.1" cy="164.3" r="44.8"/>
					<circle id="XMLID_856_" class="st1" cx="460.1" cy="164.3" r="44.4"/>
					<circle id="XMLID_855_" class="st1" cx="460.1" cy="164.3" r="44"/>
					<circle id="XMLID_854_" class="st1" cx="460.1" cy="164.3" r="43.6"/>
					<circle id="XMLID_853_" class="st1" cx="460.1" cy="164.3" r="43.2"/>
					<circle id="XMLID_852_" class="st1" cx="460.1" cy="164.3" r="42.7"/>
					<circle id="XMLID_851_" class="st1" cx="460.1" cy="164.3" r="42.3"/>
					<circle id="XMLID_850_" class="st1" cx="460.1" cy="164.3" r="41.9"/>
					<circle id="XMLID_849_" class="st1" cx="460.1" cy="164.3" r="41.5"/>
					<circle id="XMLID_848_" class="st1" cx="460.1" cy="164.3" r="41.1"/>
					<circle id="XMLID_847_" class="st1" cx="460.1" cy="164.3" r="40.7"/>
					<circle id="XMLID_846_" class="st1" cx="460.1" cy="164.3" r="40.2"/>
					<circle id="XMLID_845_" class="st1" cx="460.1" cy="164.3" r="39.8"/>
					<circle id="XMLID_844_" class="st1" cx="460.1" cy="164.3" r="39.4"/>
					<circle id="XMLID_843_" class="st1" cx="460.1" cy="164.3" r="39"/>
					<circle id="XMLID_842_" class="st1" cx="460.1" cy="164.3" r="38.6"/>
					<circle id="XMLID_841_" class="st1" cx="460.1" cy="164.3" r="38.1"/>
					<circle id="XMLID_840_" class="st1" cx="460.1" cy="164.3" r="37.7"/>
					<circle id="XMLID_839_" class="st1" cx="460.1" cy="164.3" r="37.3"/>
					<circle id="XMLID_838_" class="st1" cx="460.1" cy="164.3" r="36.9"/>
					<circle id="XMLID_837_" class="st1" cx="460.1" cy="164.3" r="36.5"/>
					<circle id="XMLID_836_" class="st1" cx="460.1" cy="164.3" r="36"/>
					<circle id="XMLID_835_" class="st1" cx="460.1" cy="164.3" r="35.6"/>
					<circle id="XMLID_834_" class="st1" cx="460.1" cy="164.3" r="35.2"/>
					<circle id="XMLID_833_" class="st1" cx="460.1" cy="164.3" r="34.8"/>
					<circle id="XMLID_832_" class="st1" cx="460.1" cy="164.3" r="34.4"/>
					<circle id="XMLID_831_" class="st1" cx="460.1" cy="164.3" r="33.9"/>
					<circle id="XMLID_830_" class="st1" cx="460.1" cy="164.3" r="33.5"/>
					<circle id="XMLID_829_" class="st1" cx="460.1" cy="164.3" r="33.1"/>
					<circle id="XMLID_828_" class="st1" cx="460.1" cy="164.3" r="32.7"/>
					<circle id="XMLID_827_" class="st1" cx="460.1" cy="164.3" r="32.3"/>
					<circle id="XMLID_826_" class="st1" cx="460.1" cy="164.3" r="31.9"/>
					<circle id="XMLID_825_" class="st1" cx="460.1" cy="164.3" r="31.4"/>
					<circle id="XMLID_824_" class="st1" cx="460.1" cy="164.3" r="31"/>
					<circle id="XMLID_823_" class="st1" cx="460.1" cy="164.3" r="30.6"/>
					<circle id="XMLID_822_" class="st1" cx="460.1" cy="164.3" r="30.2"/>
					<circle id="XMLID_821_" class="st1" cx="460.1" cy="164.3" r="29.8"/>
					<circle id="XMLID_820_" class="st1" cx="460.1" cy="164.3" r="29.3"/>
					<circle id="XMLID_819_" class="st1" cx="460.1" cy="164.3" r="28.9"/>
					<circle id="XMLID_818_" class="st1" cx="460.1" cy="164.3" r="28.5"/>
					<circle id="XMLID_817_" class="st1" cx="460.1" cy="164.3" r="28.1"/>
					<circle id="XMLID_816_" class="st1" cx="460.1" cy="164.3" r="27.7"/>
					<circle id="XMLID_815_" class="st1" cx="460.1" cy="164.3" r="27.2"/>
					<circle id="XMLID_814_" class="st1" cx="460.1" cy="164.3" r="26.8"/>
					<circle id="XMLID_813_" class="st1" cx="460.1" cy="164.3" r="26.4"/>
					<circle id="XMLID_812_" class="st1" cx="460.1" cy="164.3" r="26"/>
					<circle id="XMLID_811_" class="st1" cx="460.1" cy="164.3" r="25.6"/>
					<circle id="XMLID_810_" class="st1" cx="460.1" cy="164.3" r="25.1"/>
					<circle id="XMLID_809_" class="st1" cx="460.1" cy="164.3" r="24.7"/>
					<circle id="XMLID_808_" class="st1" cx="460.1" cy="164.3" r="24.3"/>
					<circle id="XMLID_807_" class="st1" cx="460.1" cy="164.3" r="23.9"/>
					<circle id="XMLID_806_" class="st1" cx="460.1" cy="164.3" r="23.5"/>
					<circle id="XMLID_805_" class="st1" cx="460.1" cy="164.3" r="23"/>
					<circle id="XMLID_804_" class="st1" cx="460.1" cy="164.3" r="22.6"/>
					<circle id="XMLID_803_" class="st1" cx="460.1" cy="164.3" r="22.2"/>
					<circle id="XMLID_802_" class="st1" cx="460.1" cy="164.3" r="21.8"/>
					<circle id="XMLID_801_" class="st1" cx="460.1" cy="164.3" r="21.4"/>
					<circle id="XMLID_800_" class="st1" cx="460.1" cy="164.3" r="21"/>
					<circle id="XMLID_799_" class="st1" cx="460.1" cy="164.3" r="20.5"/>
					<circle id="XMLID_798_" class="st1" cx="460.1" cy="164.3" r="20.1"/>
					<circle id="XMLID_797_" class="st1" cx="460.1" cy="164.3" r="19.7"/>
					<circle id="XMLID_796_" class="st1" cx="460.1" cy="164.3" r="19.3"/>
					<circle id="XMLID_795_" class="st1" cx="460.1" cy="164.3" r="18.9"/>
					<circle id="XMLID_794_" class="st1" cx="460.1" cy="164.3" r="18.4"/>
					<circle id="XMLID_793_" class="st1" cx="460.1" cy="164.3" r="18"/>
					<circle id="XMLID_792_" class="st1" cx="460.1" cy="164.3" r="17.6"/>
					<circle id="XMLID_791_" class="st1" cx="460.1" cy="164.3" r="17.2"/>
					<circle id="XMLID_790_" class="st1" cx="460.1" cy="164.3" r="16.8"/>
					<circle id="XMLID_789_" class="st1" cx="460.1" cy="164.3" r="16.3"/>
					<circle id="XMLID_788_" class="st1" cx="460.1" cy="164.3" r="15.9"/>
					<circle id="XMLID_787_" class="st1" cx="460.1" cy="164.3" r="15.5"/>
					<circle id="XMLID_786_" class="st1" cx="460.1" cy="164.3" r="15.1"/>
					<circle id="XMLID_785_" class="st1" cx="460.1" cy="164.3" r="14.7"/>
					<circle id="XMLID_784_" class="st1" cx="460.1" cy="164.3" r="14.2"/>
					<circle id="XMLID_783_" class="st1" cx="460.1" cy="164.3" r="13.8"/>
					<circle id="XMLID_782_" class="st1" cx="460.1" cy="164.3" r="13.4"/>
					<circle id="XMLID_781_" class="st1" cx="460.1" cy="164.3" r="13"/>
					<circle id="XMLID_780_" class="st1" cx="460.1" cy="164.3" r="12.6"/>
					<circle id="XMLID_779_" class="st1" cx="460.1" cy="164.3" r="12.2"/>
					<circle id="XMLID_778_" class="st1" cx="460.1" cy="164.3" r="11.7"/>
					<circle id="XMLID_777_" class="st1" cx="460.1" cy="164.3" r="11.3"/>
					<circle id="XMLID_776_" class="st1" cx="460.1" cy="164.3" r="10.9"/>
					<circle id="XMLID_775_" class="st1" cx="460.1" cy="164.3" r="10.5"/>
					<circle id="XMLID_774_" class="st1" cx="460.1" cy="164.3" r="10.1"/>
					<circle id="XMLID_773_" class="st1" cx="460.1" cy="164.3" r="9.6"/>
					<circle id="XMLID_772_" class="st1" cx="460.1" cy="164.3" r="9.2"/>
					<circle id="XMLID_771_" class="st1" cx="460.1" cy="164.3" r="8.8"/>
					<circle id="XMLID_770_" class="st1" cx="460.1" cy="164.3" r="8.4"/>
					<circle id="XMLID_769_" class="st1" cx="460.1" cy="164.3" r="8"/>
					<circle id="XMLID_768_" class="st1" cx="460.1" cy="164.3" r="7.5"/>
					<circle id="XMLID_767_" class="st1" cx="460.1" cy="164.3" r="7.1"/>
					<circle id="XMLID_766_" class="st1" cx="460.1" cy="164.3" r="6.7"/>
					<circle id="XMLID_765_" class="st1" cx="460.1" cy="164.3" r="6.3"/>
					<circle id="XMLID_764_" class="st1" cx="460.1" cy="164.3" r="5.9"/>
					<circle id="XMLID_763_" class="st1" cx="460.1" cy="164.3" r="5.4"/>
					<circle id="XMLID_762_" class="st1" cx="460.1" cy="164.3" r="5"/>
					<circle id="XMLID_761_" class="st1" cx="460.1" cy="164.3" r="4.6"/>
					<circle id="XMLID_760_" class="st1" cx="460.1" cy="164.3" r="4.2"/>
					<circle id="XMLID_759_" class="st1" cx="460.1" cy="164.3" r="3.8"/>
					<circle id="XMLID_758_" class="st1" cx="460.1" cy="164.3" r="3.4"/>
					<circle id="XMLID_757_" class="st1" cx="460.1" cy="164.3" r="2.9"/>
					<circle id="XMLID_756_" class="st1" cx="460.1" cy="164.3" r="2.5"/>
					<circle id="XMLID_755_" class="st1" cx="460.1" cy="164.3" r="2.1"/>
					<circle id="XMLID_754_" class="st1" cx="460.1" cy="164.3" r="1.7"/>
					<circle id="XMLID_753_" class="st1" cx="460.1" cy="164.3" r="1.3"/>
					<circle id="XMLID_752_" class="st1" cx="460.1" cy="164.3" r="0.8"/>
					<circle id="XMLID_751_" class="st1" cx="460.1" cy="164.3" r="0.4"/>
					<rect id="XMLID_750_" x="407.8" y="112.3" class="st1" width="104.5" height="104"/>
					<path id="XMLID_749_" class="st1" d="M512.7,164.3v11.2h2c-0.7,3.6-1.8,7.1-3.2,10.5c-2.8,6.7-6.9,12.7-11.9,17.7
						c-5,5-11,9.1-17.7,11.9c-3.3,1.4-6.8,2.5-10.5,3.2v-2.2h-22.5v2.2c-3.6-0.7-7.1-1.8-10.5-3.2c-6.7-2.8-12.7-6.9-17.7-11.9
						c-5-5-9.1-11-11.9-17.7c-1.4-3.3-2.5-6.8-3.2-10.5h2v-22.5h-2c0.7-3.6,1.8-7.1,3.2-10.5c2.8-6.7,6.9-12.7,11.9-17.7
						c5-5,11-9.1,17.7-11.9c3.3-1.4,6.8-2.5,10.5-3.2v2.2h22.5v-2.2c3.6,0.7,7.1,1.8,10.5,3.2c6.7,2.8,12.7,6.9,17.7,11.9
						c5,5,9.1,11,11.9,17.7c1.4,3.3,2.5,6.8,3.2,10.5h-2V164.3z"/>
					<path id="XMLID_748_" class="st1" d="M512.7,164.3v11.1h1.6c-0.7,3.6-1.8,7.1-3.2,10.4c-2.8,6.6-6.8,12.6-11.9,17.6
						c-5,5-11,9.1-17.6,11.9c-3.3,1.4-6.8,2.5-10.4,3.2v-1.8h-22.3v1.8c-3.6-0.7-7.1-1.8-10.4-3.2c-6.6-2.8-12.6-6.8-17.6-11.9
						c-5-5-9.1-11-11.9-17.6c-1.4-3.3-2.5-6.8-3.2-10.4h1.6v-22.3h-1.6c0.7-3.6,1.8-7.1,3.2-10.4c2.8-6.6,6.8-12.6,11.9-17.6
						c5-5,11-9.1,17.6-11.9c3.3-1.4,6.8-2.5,10.4-3.2v1.8h22.3v-1.8c3.6,0.7,7.1,1.8,10.4,3.2c6.6,2.8,12.6,6.9,17.6,11.9
						c5,5,9.1,11,11.9,17.6c1.4,3.3,2.5,6.8,3.2,10.4h-1.6V164.3z"/>
					<circle id="XMLID_747_" class="st1" cx="460.1" cy="164.3" r="54.9"/>
					<circle id="XMLID_746_" class="st1" cx="460.1" cy="164.3" r="54.5"/>
					<circle id="XMLID_745_" class="st1" cx="460.1" cy="164.3" r="54.1"/>
					<circle id="XMLID_744_" class="st1" cx="460.1" cy="164.3" r="53.6"/>
					<circle id="XMLID_743_" class="st1" cx="460.1" cy="164.3" r="53.2"/>
					<circle id="XMLID_742_" class="st1" cx="460.1" cy="164.3" r="52.8"/>
					<circle id="XMLID_741_" class="st1" cx="460.1" cy="164.3" r="52.4"/>
					<circle id="XMLID_740_" class="st1" cx="460.1" cy="164.3" r="52"/>
					<circle id="XMLID_739_" class="st1" cx="460.1" cy="164.3" r="51.5"/>
					<circle id="XMLID_738_" class="st1" cx="460.1" cy="164.3" r="51.1"/>
					<circle id="XMLID_737_" class="st1" cx="460.1" cy="164.3" r="50.7"/>
					<circle id="XMLID_736_" class="st1" cx="460.1" cy="164.3" r="50.3"/>
					<circle id="XMLID_735_" class="st1" cx="460.1" cy="164.3" r="49.9"/>
					<circle id="XMLID_734_" class="st1" cx="460.1" cy="164.3" r="49.5"/>
					<circle id="XMLID_733_" class="st1" cx="460.1" cy="164.3" r="49"/>
					<circle id="XMLID_732_" class="st1" cx="460.1" cy="164.3" r="48.6"/>
					<circle id="XMLID_731_" class="st1" cx="460.1" cy="164.3" r="48.2"/>
					<circle id="XMLID_730_" class="st1" cx="460.1" cy="164.3" r="47.8"/>
					<circle id="XMLID_729_" class="st1" cx="460.1" cy="164.3" r="47.4"/>
					<circle id="XMLID_728_" class="st1" cx="460.1" cy="164.3" r="46.9"/>
					<circle id="XMLID_727_" class="st1" cx="460.1" cy="164.3" r="46.5"/>
					<circle id="XMLID_726_" class="st1" cx="460.1" cy="164.3" r="46.1"/>
					<circle id="XMLID_725_" class="st1" cx="460.1" cy="164.3" r="45.7"/>
					<circle id="XMLID_724_" class="st1" cx="460.1" cy="164.3" r="45.3"/>
					<circle id="XMLID_723_" class="st1" cx="460.1" cy="164.3" r="44.8"/>
					<circle id="XMLID_722_" class="st1" cx="460.1" cy="164.3" r="44.4"/>
					<circle id="XMLID_721_" class="st1" cx="460.1" cy="164.3" r="44"/>
					<circle id="XMLID_720_" class="st1" cx="460.1" cy="164.3" r="43.6"/>
					<circle id="XMLID_719_" class="st1" cx="460.1" cy="164.3" r="43.2"/>
					<circle id="XMLID_718_" class="st1" cx="460.1" cy="164.3" r="42.7"/>
					<circle id="XMLID_717_" class="st1" cx="460.1" cy="164.3" r="42.3"/>
					<circle id="XMLID_716_" class="st1" cx="460.1" cy="164.3" r="41.9"/>
					<circle id="XMLID_715_" class="st1" cx="460.1" cy="164.3" r="41.5"/>
					<circle id="XMLID_714_" class="st1" cx="460.1" cy="164.3" r="41.1"/>
					<circle id="XMLID_713_" class="st1" cx="460.1" cy="164.3" r="40.7"/>
					<circle id="XMLID_712_" class="st1" cx="460.1" cy="164.3" r="40.2"/>
					<circle id="XMLID_711_" class="st1" cx="460.1" cy="164.3" r="39.8"/>
					<circle id="XMLID_710_" class="st1" cx="460.1" cy="164.3" r="39.4"/>
					<circle id="XMLID_709_" class="st1" cx="460.1" cy="164.3" r="39"/>
					<circle id="XMLID_708_" class="st1" cx="460.1" cy="164.3" r="38.6"/>
					<circle id="XMLID_707_" class="st1" cx="460.1" cy="164.3" r="38.1"/>
					<circle id="XMLID_706_" class="st1" cx="460.1" cy="164.3" r="37.7"/>
					<circle id="XMLID_705_" class="st1" cx="460.1" cy="164.3" r="37.3"/>
					<circle id="XMLID_704_" class="st1" cx="460.1" cy="164.3" r="36.9"/>
					<circle id="XMLID_703_" class="st1" cx="460.1" cy="164.3" r="36.5"/>
					<circle id="XMLID_702_" class="st1" cx="460.1" cy="164.3" r="36"/>
					<circle id="XMLID_701_" class="st1" cx="460.1" cy="164.3" r="35.6"/>
					<circle id="XMLID_700_" class="st1" cx="460.1" cy="164.3" r="35.2"/>
					<circle id="XMLID_696_" class="st1" cx="460.1" cy="164.3" r="34.8"/>
					<circle id="XMLID_695_" class="st1" cx="460.1" cy="164.3" r="34.4"/>
					<circle id="XMLID_694_" class="st1" cx="460.1" cy="164.3" r="33.9"/>
					<circle id="XMLID_693_" class="st1" cx="460.1" cy="164.3" r="33.5"/>
					<circle id="XMLID_692_" class="st1" cx="460.1" cy="164.3" r="33.1"/>
					<circle id="XMLID_691_" class="st1" cx="460.1" cy="164.3" r="32.7"/>
					<circle id="XMLID_690_" class="st1" cx="460.1" cy="164.3" r="32.3"/>
					<circle id="XMLID_689_" class="st1" cx="460.1" cy="164.3" r="31.9"/>
					<circle id="XMLID_688_" class="st1" cx="460.1" cy="164.3" r="31.4"/>
					<circle id="XMLID_687_" class="st1" cx="460.1" cy="164.3" r="31"/>
					<circle id="XMLID_686_" class="st1" cx="460.1" cy="164.3" r="30.6"/>
					<circle id="XMLID_685_" class="st1" cx="460.1" cy="164.3" r="30.2"/>
					<circle id="XMLID_684_" class="st1" cx="460.1" cy="164.3" r="29.8"/>
					<circle id="XMLID_683_" class="st1" cx="460.1" cy="164.3" r="29.3"/>
					<circle id="XMLID_682_" class="st1" cx="460.1" cy="164.3" r="28.9"/>
					<circle id="XMLID_681_" class="st1" cx="460.1" cy="164.3" r="28.5"/>
					<circle id="XMLID_680_" class="st1" cx="460.1" cy="164.3" r="28.1"/>
					<circle id="XMLID_679_" class="st1" cx="460.1" cy="164.3" r="27.7"/>
					<circle id="XMLID_678_" class="st1" cx="460.1" cy="164.3" r="27.2"/>
					<circle id="XMLID_677_" class="st1" cx="460.1" cy="164.3" r="26.8"/>
					<circle id="XMLID_676_" class="st1" cx="460.1" cy="164.3" r="26.4"/>
					<circle id="XMLID_675_" class="st1" cx="460.1" cy="164.3" r="26"/>
					<circle id="XMLID_674_" class="st1" cx="460.1" cy="164.3" r="25.6"/>
					<circle id="XMLID_673_" class="st1" cx="460.1" cy="164.3" r="25.1"/>
					<circle id="XMLID_672_" class="st1" cx="460.1" cy="164.3" r="24.7"/>
					<circle id="XMLID_671_" class="st1" cx="460.1" cy="164.3" r="24.3"/>
					<circle id="XMLID_670_" class="st1" cx="460.1" cy="164.3" r="23.9"/>
					<circle id="XMLID_669_" class="st1" cx="460.1" cy="164.3" r="23.5"/>
					<circle id="XMLID_668_" class="st1" cx="460.1" cy="164.3" r="23"/>
					<circle id="XMLID_667_" class="st1" cx="460.1" cy="164.3" r="22.6"/>
					<circle id="XMLID_666_" class="st1" cx="460.1" cy="164.3" r="22.2"/>
					<circle id="XMLID_665_" class="st1" cx="460.1" cy="164.3" r="21.8"/>
					<circle id="XMLID_664_" class="st1" cx="460.1" cy="164.3" r="21.4"/>
					<circle id="XMLID_663_" class="st1" cx="460.1" cy="164.3" r="21"/>
					<circle id="XMLID_662_" class="st1" cx="460.1" cy="164.3" r="20.5"/>
					<circle id="XMLID_661_" class="st1" cx="460.1" cy="164.3" r="20.1"/>
					<circle id="XMLID_660_" class="st1" cx="460.1" cy="164.3" r="19.7"/>
					<circle id="XMLID_659_" class="st1" cx="460.1" cy="164.3" r="19.3"/>
					<circle id="XMLID_658_" class="st1" cx="460.1" cy="164.3" r="18.9"/>
					<circle id="XMLID_657_" class="st1" cx="460.1" cy="164.3" r="18.4"/>
					<circle id="XMLID_656_" class="st1" cx="460.1" cy="164.3" r="18"/>
					<circle id="XMLID_655_" class="st1" cx="460.1" cy="164.3" r="17.6"/>
					<circle id="XMLID_654_" class="st1" cx="460.1" cy="164.3" r="17.2"/>
					<circle id="XMLID_653_" class="st1" cx="460.1" cy="164.3" r="16.8"/>
					<circle id="XMLID_652_" class="st1" cx="460.1" cy="164.3" r="16.3"/>
					<circle id="XMLID_651_" class="st1" cx="460.1" cy="164.3" r="15.9"/>
					<circle id="XMLID_650_" class="st1" cx="460.1" cy="164.3" r="15.5"/>
					<circle id="XMLID_649_" class="st1" cx="460.1" cy="164.3" r="15.1"/>
					<circle id="XMLID_648_" class="st1" cx="460.1" cy="164.3" r="14.7"/>
					<circle id="XMLID_647_" class="st1" cx="460.1" cy="164.3" r="14.2"/>
					<circle id="XMLID_646_" class="st1" cx="460.1" cy="164.3" r="13.8"/>
					<circle id="XMLID_645_" class="st1" cx="460.1" cy="164.3" r="13.4"/>
					<circle id="XMLID_644_" class="st1" cx="460.1" cy="164.3" r="13"/>
					<circle id="XMLID_643_" class="st1" cx="460.1" cy="164.3" r="12.6"/>
					<circle id="XMLID_642_" class="st1" cx="460.1" cy="164.3" r="12.2"/>
					<circle id="XMLID_641_" class="st1" cx="460.1" cy="164.3" r="11.7"/>
					<circle id="XMLID_640_" class="st1" cx="460.1" cy="164.3" r="11.3"/>
					<circle id="XMLID_639_" class="st1" cx="460.1" cy="164.3" r="10.9"/>
					<circle id="XMLID_638_" class="st1" cx="460.1" cy="164.3" r="10.5"/>
					<circle id="XMLID_637_" class="st1" cx="460.1" cy="164.3" r="10.1"/>
					<circle id="XMLID_636_" class="st1" cx="460.1" cy="164.3" r="9.6"/>
					<circle id="XMLID_635_" class="st1" cx="460.1" cy="164.3" r="9.2"/>
					<circle id="XMLID_634_" class="st1" cx="460.1" cy="164.3" r="8.8"/>
					<circle id="XMLID_633_" class="st1" cx="460.1" cy="164.3" r="8.4"/>
					<circle id="XMLID_632_" class="st1" cx="460.1" cy="164.3" r="8"/>
					<circle id="XMLID_631_" class="st1" cx="460.1" cy="164.3" r="7.5"/>
					<circle id="XMLID_630_" class="st1" cx="460.1" cy="164.3" r="7.1"/>
					<circle id="XMLID_629_" class="st1" cx="460.1" cy="164.3" r="6.7"/>
					<circle id="XMLID_628_" class="st1" cx="460.1" cy="164.3" r="6.3"/>
					<circle id="XMLID_627_" class="st1" cx="460.1" cy="164.3" r="5.9"/>
					<circle id="XMLID_626_" class="st1" cx="460.1" cy="164.3" r="5.4"/>
					<circle id="XMLID_625_" class="st1" cx="460.1" cy="164.3" r="5"/>
					<circle id="XMLID_622_" class="st1" cx="460.1" cy="164.3" r="4.6"/>
					<circle id="XMLID_621_" class="st1" cx="460.1" cy="164.3" r="4.2"/>
					<circle id="XMLID_618_" class="st1" cx="460.1" cy="164.3" r="3.8"/>
					<circle id="XMLID_616_" class="st1" cx="460.1" cy="164.3" r="3.4"/>
					<circle id="XMLID_615_" class="st1" cx="460.1" cy="164.3" r="2.9"/>
					<circle id="XMLID_614_" class="st1" cx="460.1" cy="164.3" r="2.5"/>
					<circle id="XMLID_613_" class="st1" cx="460.1" cy="164.3" r="2.1"/>
					<circle id="XMLID_612_" class="st1" cx="460.1" cy="164.3" r="1.7"/>
					<circle id="XMLID_611_" class="st1" cx="460.1" cy="164.3" r="1.3"/>
					<circle id="XMLID_610_" class="st1" cx="460.1" cy="164.3" r="0.8"/>
					<circle id="XMLID_609_" class="st1" cx="460.1" cy="164.3" r="0.4"/>
				</g>
			</g>
			<g id="XMLID_57_">
				<path id="XMLID_58_" class="st0" d="M407.7,145L407.7,145L407.7,145c-0.1,0.1-0.1,0.2-0.1,0.3
					C407.6,145.2,407.7,145.1,407.7,145 M407.8,144.9c0,0.1,0,0.1-0.1,0.2l0,0C407.7,145,407.8,144.9,407.8,144.9 M407.8,144.9
					C407.8,144.9,407.8,144.9,407.8,144.9c0,0,0,0.1-0.1,0.2l0,0C407.7,145,407.8,144.9,407.8,144.9 M407.8,144.8
					c0.3-0.7,0.6-1.4,0.8-2.1l-0.2,0.6c-0.1,0.3-0.3,0.7-0.4,1C407.9,144.5,407.9,144.7,407.8,144.8
					C407.8,144.8,407.8,144.8,407.8,144.8 M408,144.2c0-0.1,0-0.1,0.1-0.2c0-0.1,0-0.1,0.1-0.2c0-0.1,0.1-0.1,0.1-0.2
					c0.1-0.3,0.3-0.6,0.4-1l0,0c-0.3,0.6-0.5,1.4-0.8,2.1C407.9,144.6,408,144.4,408,144.2 M409.3,141.2c0.5-1.1,0.7-1.6,0.9-1.8
					l0.1-0.2l0,0c0.1-0.1,0.1-0.2,0.2-0.3c0,0.1-0.1,0.1-0.1,0.2c-0.1,0.2-0.2,0.4-0.3,0.6c-0.3,0.6-0.5,1.1-0.8,1.7
					c-0.1,0.3-0.2,0.5-0.4,0.8C409,141.9,409.1,141.6,409.3,141.2 M405.3,174.9L405.3,174.9c0-0.2-0.1-0.4-0.1-0.6
					c0,0.3,0.1,0.5,0.2,0.8C405.4,175,405.4,175,405.3,174.9 M404.4,167.5c0,0.3,0,0.6,0.1,0.9l0,0.5
					C404.5,168.5,404.4,168,404.4,167.5 M404.5,160c-0.1,0.9-0.1,1.9-0.1,2.9c0,0.3,0,0.7,0,1v0C404.3,162.2,404.3,161.4,404.5,160
					 M404.3,162.9c0,0.2,0,0.5,0,0.7l0,0.3C404.3,163.5,404.3,163.2,404.3,162.9 M406.7,148.1c0,0.2-0.1,0.3-0.1,0.5
					c0,0.1-0.1,0.2-0.1,0.4c0,0.1-0.1,0.2-0.1,0.3l0,0C406.4,148.9,406.6,148.5,406.7,148.1 M406.7,147.9L406.7,147.9
					c0,0,0,0.1,0,0.1C406.7,148,406.7,148,406.7,147.9 M454.6,109.1L454.6,109.1L454.6,109.1c0.1,0,0.1,0,0.2,0l-0.1,0l0.1,0
					c0.1,0,0.2,0,0.3,0l0,0l0.1,0h0c-0.1,0-0.3,0-0.4,0c-0.2,0-0.3,0-0.5,0C454.5,109.1,454.6,109.1,454.6,109.1 M454.7,109
					L454.7,109L454.7,109L454.7,109 M455.3,109L455.3,109L455.3,109l0.4,0c0,0,0,0-0.1,0h0l0,0C455.4,109,455.4,109,455.3,109
					L455.3,109l-0.1,0c0,0-0.1,0-0.1,0c-0.1,0-0.1,0-0.2,0C455,109,455.1,109,455.3,109 M455.4,109L455.4,109l0.2,0l0.1,0l0,0l0,0
					l0,0h0c0.1,0,0.1,0,0.2,0c-0.1,0-0.2,0-0.3,0L455.4,109L455.4,109 M455.5,109C455.5,109,455.5,109,455.5,109
					C455.5,109,455.5,109,455.5,109L455.5,109 M455.8,108.9l0.1,0c0,0,0,0,0,0C455.9,108.9,455.8,108.9,455.8,108.9L455.8,108.9
					 M455.8,108.9L455.8,108.9l0.1,0C455.9,108.9,455.9,108.9,455.8,108.9L455.8,108.9L455.8,108.9 M455.9,108.9
					C456,108.9,456,108.9,455.9,108.9L455.9,108.9C456,108.9,456,108.9,455.9,108.9L455.9,108.9 M456.3,108.9L456.3,108.9
					C456.3,108.9,456.3,108.9,456.3,108.9L456.3,108.9 M450.3,176.4c0-0.1-0.1-0.3-0.1-0.4c0-0.1,0-0.1,0-0.2l0-0.2l0-0.1l-0.4-0.5
					c-0.1-0.1-0.1-0.1-0.2-0.1c-0.1-0.2-0.1-0.2-0.2-0.2c-0.1-0.1-0.1-0.1-0.1-0.6l-0.3,0c0,0,0,0-0.1,0.1c-0.1,0-0.1,0-0.1,0.3
					c0,0.1,0,0.1,0,0.2c0,0.1,0,0.1,0,0.2l0,0c0,0.1,0.1,0.1,0.1,0.2c0,0.1,0,0.1,0,0.2c0,0.1,0.1,0.1,0,0.2c0,0,0,0-0.1,0.1
					c-0.1,0.1-0.1,1,0.1,1.3c0,0,0.4,0.3,0.6,0.3c0.1,0,0.1,0,0.8,0C450.3,176.5,450.3,176.5,450.3,176.4 M484.4,211
					c0.2-0.1,0.3-0.3,0.4-0.4c-0.1,0-0.3,0-0.4,0c0,0-0.2,0-0.3,0.1l-0.1,0l0.1-0.2l0,0c0,0,0.1-0.1,0.1-0.1l0,0c0,0-0.2,0-0.3,0.1
					c-0.4,0.3-0.4,0.3-0.4,0.3c-0.1,0.1-0.1,0.1-0.2,0.2l-0.1,0.1l-0.1,0.1l0,0.1c0,0.1-0.1,0.2-0.2,0.3c0,0.1-0.1,0.1-0.1,0.2
					c-0.1,0.1-0.2,0.1-0.2,0.2l0.1,0l0,0l0.1,0c0.1-0.1,0.2-0.2,0.4-0.3l0,0c0.1,0,0.2,0,0.3,0c0.1-0.1,0.2-0.2,0.3-0.2
					c0.1-0.1,0.2-0.2,0.3-0.3C484.2,211.1,484.3,211.1,484.4,211 M485.3,210.3l0.2-0.2c0.1,0,0.1-0.1,0.1-0.1l0,0l0.1-0.1l0.1-0.1
					l0,0l-0.1,0l0,0h0l0,0l0,0c0,0-0.1,0-0.1,0.1l0,0l-0.1,0.1c-0.2,0.2-0.2,0.2-0.2,0.2l0.1,0C485.3,210.2,485.3,210.2,485.3,210.3
					l-0.1,0L485.3,210.3 M483.8,210.2c0.1-0.1,0.3-0.3,0.4-0.4l0,0c0,0-0.2,0-0.3,0.2c-0.1,0.1-0.1,0.1-0.2,0.3L483.8,210.2
					 M490.6,210.4c0.1-0.1,0.3-0.2,0.4-0.3c-0.1,0-0.1,0-0.1,0c0.3-0.2,0.3-0.2,0.4-0.3l-0.1,0c-0.2,0.2-0.4,0.3-0.7,0.5
					c-0.7,0.4-1.4,0.9-2.2,1.3c-0.8,0.4-0.8,0.4-1,0.5c-0.6,0.4-0.7,0.4-0.9,0.4h0l0,0h0l0,0h0h0h0l0,0c-0.1,0-0.6,0.3-0.8,0.5v0
					c0.1,0,0.1,0,0.1,0c-0.1,0.1-0.2,0.1-0.2,0.2l0.1,0C488.7,211.6,490.4,210.5,490.6,210.4 M484.9,213.5c0.1,0,0.1-0.1,0.2-0.1
					c0,0,0.1-0.1,0.1-0.1l-0.1,0c0,0,0,0-0.1,0L484.9,213.5L484.9,213.5l-0.1,0L484.9,213.5 M493.9,208.2c0.1-0.1,0.4-0.3,0.4-0.4
					c0,0,0,0-0.1,0.1c0,0-0.1,0.1-0.1,0.1c-0.1,0-0.1,0-0.1,0l0,0l-0.1,0.1c0.8-0.7,0.8-0.7,0.9-0.8c-0.2,0.1-0.3,0.2-0.5,0.3
					c0.2-0.3,0.5-0.5,0.8-0.7l0,0c0.7-0.7,0.7-0.8,0.7-0.8l0,0c-0.1,0-0.3,0.2-0.3,0.3c-1.1,1.1-1.1,1.1-1.7,1.6
					c-0.3,0.2-0.6,0.5-0.9,0.7c0,0-0.1,0-0.2,0c-0.2,0.1-0.3,0.3-0.5,0.4l-0.2,0.1c0.1,0,0.1,0,0.2,0c-0.4,0.3-0.8,0.6-1.2,0.8
					l0.1,0c0.6-0.4,1.2-0.8,1.7-1.2l0.1,0l0,0l0,0c0.2-0.2,0.7-0.5,0.7-0.5l0,0L493.9,208.2 M501.7,198.2c0.1-0.1,0.1-0.3,0.1-0.3
					l-0.1-0.1c0-0.1,0.1-0.1,0-0.2l0,0c0-0.1,0-0.2,0.1-0.2c0.2-0.3,0.1-0.7,0.1-0.7l-0.1,0l-0.1,0c0,0.1-0.1,0.2-0.1,0.3l0,0
					c0,0,0,0,0,0.1c0,0,0,0.1-0.1,0.2c-0.1,0.1-0.2,0.2-0.2,0.4c0,0.1,0.1,0.2,0.1,0.3c0,0.1,0,0.1,0,0.2l0,0L501.7,198.2
					L501.7,198.2 M488.2,191.3c0-0.1,0.1-0.2,0.1-0.3L488,191c-0.3,0.1-0.3,0.1-0.6,0.1c0,0,0.1,0,0.1,0c-0.1,0-0.2,0.1-0.3,0.2
					c0,0-0.1,0.3,0,0.3c0.1,0,0.1,0,0.2,0c0.1,0,0.1-0.1,0.4-0.1c0,0,0.1,0,0.1,0C488,191.4,488.1,191.4,488.2,191.3 M493.6,203.4
					c0.2-0.2,0.3-0.4,0.5-0.7c0-0.2,0.1-0.3,0.1-0.5c0,0,0.1-0.1,0.1-0.2c0.2-0.2,0.4-0.4,0.5-0.6l0,0c0.1-0.1,0.2-0.3,0.3-0.4
					c0,0,0.6-1,0.2-1.6l0-0.1c0.1-0.2,0.3-0.4,0.4-0.7c-0.6-0.1-0.6-0.1-0.5-0.4c0,0,0.1-0.1,0.1-0.1c0.1-0.1,0.1-0.1,0.2-0.5
					l-0.1,0c0-0.1,0.1-0.2,0.1-0.4c-0.2-0.2-0.3-0.2-0.3-0.6c-0.5-0.5-0.5-0.5-0.2-1.1c0,0,0,0,0-0.1c0.1-0.3,0.1-0.3,0.1-0.4
					c0-0.1,0-0.1,0.1-0.2c0,0,0.4-1.3,0.3-1.6c-0.2-0.1-0.5-0.1-0.7-0.2c0-0.2,0.1-0.3,0.1-0.5c0-0.1,0-0.1,0.1-0.2
					c0.3-0.8,0.3-1.7,0.1-1.8l-0.1,0c-0.1,0.2-0.2,0.3-0.2,0.5c0,0.1,0,0.1-0.1,0.2c-0.5,0.4-0.5,0.4-1,1.7c0,0.1-0.1,0.2-0.2,0.4
					c-0.1,0.2-0.1,0.2-0.4,0.5c-0.2,0.4-0.4,0.8-0.5,1.3c-0.3,0.5-0.6,0.5-1.1,0.4c-0.1-0.2-0.1-0.2-0.1-0.3
					c-0.3-0.4-0.6-0.7-0.9-1.1c-0.4-0.1-0.4-0.1-0.5-0.2c0.1-0.2,0.2-0.4,0.3-0.7c0,0,0,0,0-0.1c-0.1-0.8,0.8-0.9,1.1-1.5l-0.1,0
					c-0.4-0.1-0.4-0.1-0.5-0.1c0,0-0.1,0-0.2,0c-0.3,0-0.6-0.1-0.9-0.1c0,0-0.5-0.4-0.8-0.5l-0.1,0c0,0-0.1,0-0.2,0
					c-0.1,0-0.2,0-0.2,0c0,0.1-0.1,0.2-0.1,0.3l0,0.1c0.3,0.1,0.3,0.1,0.5,0.2c-0.2,0.4-0.6,0.1-0.9,0.3c-0.3,0.2-0.6,0.4-0.9,0.6
					c-0.3,0.2-0.3,0.2-0.4,0.3c0,0,0,0,0,0.2c-0.1,0.4-0.2,0.7-0.3,0.8c-0.1,0.2-0.8,0.2-0.9-0.1c-0.1,0-0.3,0-0.4,0l-0.1-0.1
					c0-0.1,0-0.2,0-0.3c-0.1,0-0.2,0-0.4,0c-0.5,0.2-0.8,0.5-1.3,0.7c-0.5,0.2-0.7,0.8-1.4,0.8c0,0.1,0,0.2-0.1,0.3
					c0.1,0.3,0.1,0.3,0.1,0.3c0,0.1-0.1,0.2-0.1,0.3c-0.2,0-0.4,0-0.6,0c0.1-0.2,0.1-0.3,0.1-0.5c-0.1,0-0.3,0-0.4,0
					c-0.2,0-1.9,2.2-1.9,2.2c-0.1,0.1-0.1,0.2-0.6,0.4c-0.8,0.3-1.7,0-2.4,0.5c-0.4,0.2-0.8,0.3-1.2,0.5c-0.2,0.2-0.1,0.5-0.3,0.6
					c-0.1,0.1-0.2,0.1-0.6-0.1c0-0.1,0-0.2,0-0.2c-0.1,0.3-0.1,0.3-0.3,0.4l0,0.1c0,0,0,0.1,0,0.2c0,0.2,0,0.2-0.1,0.4
					c0,0,0,0.1-0.1,0.2c-0.3,0.3-0.5,0.4,0,1.5c-0.2,0.1-0.5-0.2-0.7,0c0,0.1,0,0.2-0.1,0.3c0.4,1,0.9,2,0.4,4.1
					c-0.1,0.2-0.1,0.3-0.2,0.5c-0.4,0-0.7,0.3-0.8,0.4l0,0.1c0.1,0,0.2,0,0.3,0c0,0.1,0.1,0.2,0.1,0.2c0.2,0.2,1,0.7,1.8,0
					c0.5-0.6,0.8-0.5,2.1-0.3c0.2,0,0.3,0.1,0.8-0.4c0.6-0.5,1.2-0.7,1.4-0.8c0.2-0.1,0.3,0,0.4,0.1c0.9,0,1.5-1.3,2.6-0.7
					c0.2,0.2,0.2,0.2,0.5,0.2c0.1,0,0.1,0,0.3,0c0.3,0,0.3,0,0.4,0c0,0.3-0.1,0.5-0.2,0.7c0.1,0,0.2,0,0.3,0.1c0,0,0,0-0.4,0.9
					l0.1,0.1c0.5-0.1,1.7-1.2,1.7-1.2l0.1,0l0,0.1c-0.3,0.3-0.6,0.5-0.9,0.9l0.1,0c0.2-0.2,0.2-0.2,0.4-0.2
					c-0.1,0.1-0.2,0.2-0.3,0.4l-0.1,0.1l-0.1,0.1c-0.2,0.2-0.2,0.2-0.3,0.3c0.2,0,0.3-0.3,0.6-0.2c-0.1,0.1-0.1,0.2-0.2,0.3l0,0.1
					l0,0.1l-0.1,0.1c0,0,0,0-0.1,0.1c-0.4,0.4-0.4,0.4-0.3,0.8c0.3,0,0.3,0,0.4,0c0,0.1,0,0.2,0,0.2c0.5,0.2,0.9-0.3,1.1-0.5
					c0.1,0,0.1,0,0.2,0.1c-0.1,0.2-0.2,0.3-0.3,0.4l0.1,0.1c2.2-0.7,2.2-0.7,3.5-1.8c0,0,0,0,0.1-0.2
					C490.2,205.9,492.1,204.9,493.6,203.4 M504.7,189.1L504.7,189.1L504.7,189.1l0-0.2l0-0.1l0-0.1l0,0l-0.1,0l0,0
					c0,0-0.1-0.1-0.1-0.1c0,0-0.1,0-0.1,0.1c0,0.1-0.1,0.2-0.1,0.3c0,0,0,0.1,0,0.1c0,0.1,0.1,0.1,0.1,0.1l0.1,0
					C504.6,189.2,504.7,189.1,504.7,189.1 M503.5,187.1L503.5,187.1c0-0.1,0-0.1,0-0.1c0-0.1,0-0.1,0-0.2c0-0.1,0-0.1,0.1-0.2l0,0
					l0-0.2c0,0-0.1-0.2-0.1-0.2c0,0,0-0.1,0-0.1c0-0.1,0.1-0.2,0.1-0.2l-0.1,0l-0.1,0.1c0,0.2,0,0.2,0,0.4c0,0.1-0.1,0.1-0.1,0.2
					l0,0.2c0,0,0.1,0.1,0.1,0.1c0,0.1,0,0.2,0,0.3l0.1,0.1L503.5,187.1L503.5,187.1 M502.5,185.1c0-0.1,0-0.1,0-0.2
					c-0.1,0-0.2,0-0.2,0.1l-0.2,0.2c-0.1,0.1-0.1,0.2-0.1,0.4l-0.2,0.3l0,0c0,0,0,0-0.6,0l-0.1,0l-0.1,0c-0.1,0-0.2,0-0.4,0l-0.1,0
					c0,0.1-0.1,0.2-0.1,0.3c0,0.1,0,0.2-0.1,0.3l0,0.1c0.1,0,0.3,0,0.4,0c0.1,0,0.2,0.1,0.3,0.1l0.5,0c0.1-0.1,0.2-0.1,0.2-0.2
					c0-0.1,0.1-0.1,0.1-0.1c0.1,0,0.1,0,0.2-0.1l0,0l0.1-0.1c0,0,0.2-0.2,0.2-0.3c0.1-0.1,0.1-0.3,0.2-0.4c0-0.1,0.1-0.1,0.2-0.2
					C502.4,185.2,502.5,185.1,502.5,185.1 M489.4,188.5c0.1-0.1,0-0.3,0-0.4c0-0.1-0.1-0.1-0.1-0.2c-0.4,0.2-0.6,0.3-0.6,0.3
					c0,0-0.1,0.3-0.1,0.4c0,0.1,0,0.1,0,0.2c0.1,0,0.3,0,0.4,0C489.2,188.8,489.3,188.7,489.4,188.5 M485.8,188.5L485.8,188.5
					l-0.1-0.2c-0.2,0-0.5,0-0.7,0c0,0.1,0,0.1,0,0.2c0,0.1,0,0.1,0,0.1l0,0l0.1,0c0,0,0,0,0.1-0.1c0.1-0.1,0.2,0,0.3,0l0.1,0
					C485.7,188.6,485.7,188.5,485.8,188.5 M491.8,186.5L491.8,186.5c0-0.2-0.1-0.2-0.1-0.2c-0.1,0.1-0.2,0.1-0.2,0.2l-0.1,0.1
					l-0.1,0.1l0,0c0,0,0,0.1,0,0.2c0,0.1,0,0.1-0.1,0.2c0,0.1-0.1,0.1-0.1,0.2c0,0-0.1,0.1-0.1,0.1l0,0.1l0.1,0c0.1,0,0.2,0,0.2,0
					l0,0c0,0,0.1,0,0.1-0.1c0,0,0.1-0.1,0.1-0.2c0.1-0.1,0.1-0.2,0.2-0.3l0-0.1C491.8,186.7,491.8,186.6,491.8,186.5 M499.9,190.1
					c0.1-0.2,0.1-0.3,0.2-0.5c0-0.2,0-0.2-0.2-0.2c-0.1-0.1,0.1-0.3-0.1-0.4l-0.7-0.2c0.1-0.3,0.2-0.7,0.4-1c-0.2,0-0.3,0-0.5,0
					c0.1-0.3,0.2-0.5,0.3-0.8c0.2,0,0.3,0,0.4,0c0-0.1,0.1-0.2,0.1-0.3c-0.1-0.1-0.1-0.2-0.2-0.3c-0.1,0-0.2,0-0.3,0
					c-0.1,0-0.2,0-0.3,0c-0.1-0.2,0-0.5-0.1-0.7l0-0.1l-0.1,0c-0.1-0.1-0.1-0.1-0.3-0.6c-0.1-0.3-0.5-0.1-0.7-0.2c0,0-0.1-0.1,0-0.2
					l0,0c-0.1,0-0.1,0-0.3,0c-0.2-0.1-0.3-0.3-0.5-0.4c-0.2-0.1-0.4,0.1-0.6,0l-0.1,0h0h0l0,0h0h0h0l0,0h0l0,0h0h0h0h0h0h0l0,0
					c-0.5,0-0.7-0.6-1.1-0.7c-0.1,0-0.1,0-0.4,0.3c-0.2,0.1-0.4,0-0.6,0.1c-0.3,0.2-0.3,0.2-0.3,0.4c-0.1,0.6-0.4,0.5-1,0.5
					c-0.3,0,0-0.5-0.3-0.5c-0.2,0-0.4,0.1-0.6,0.2c-0.3,0-0.6,0-0.9,0c0,0.1,0,0.2-0.1,0.3c0.3,0.1,0.3,0.1,0.1,0.7
					c0.1,0,0.1,0,0.2,0l0-0.1c0.1,0,0.2-0.1,0.3-0.2c0.3,0.2,0.7,0.1,0.9,0.4c0.3,0.4,0.3,0.4,0.3,0.3c0.6-0.1,1.1,0.1,1.3,0.5
					c0.3,0.7,0.4,0.9,0.3,1c-0.2,0.4-0.2,0.5-0.4,0.6c-0.2,0.2-0.5,0.2-0.7,0.4c-0.1,0.1-0.1,0.1-0.1,0.3c0,0,0,0.5,0.7-0.1
					c0.1-0.2,0.2-0.4,0.5-0.3c0.1,0,0.2,0.1,0.2,0.2c0.1,0.2,0.1,0.3,0.3,0.3c0.2,0.1,0.3,0.2,0.4,0.3c0.2,0.1,0.7,0.1,0.9,0.1
					l0.3-0.2c0.1-0.2,0.1-0.4,0.2-0.5c0.5,0,0.6-0.6,1-0.7l0.1,0c0.1,0,0.5,0.3,0.6,0.4c0.2,0.5,0.1,1,0.3,1.5l0.1,0
					c0.1,0,0.4-0.1,0.7-0.1c0.1,0,0.1,0,0.3,0.4C499.6,190.2,499.7,190.2,499.9,190.1 M486,183.8L486,183.8L486,183.8c0,0,0,0,0-0.4
					c-0.1,0-0.1,0-0.2,0c-0.2,0-0.3,0-0.5,0l0,0c0,0,0,0.1-0.1,0.1l-0.1,0l0,0c-0.1,0,0,0.1-0.1,0.2c0.1,0,0.1,0.1,0.1,0.1
					c0.1,0,0.1,0,0.2,0c0.1,0,0.1,0,0.2,0c0.1,0,0.2,0,0.3,0C485.8,183.8,485.9,183.8,486,183.8 M493.7,183.5c0-0.1,0-0.1,0-0.2
					c-0.1,0-0.2,0-0.3,0c0.1-0.4,0.1-0.4,0.1-0.4l0-0.1c0-0.1,0-0.1,0-0.2c-0.1,0-0.2,0-0.3,0c-0.1,0-0.1,0-0.2,0c0,0,0,0.2,0,0.3
					l0,0.1c0,0.2-0.1,0.3-0.1,0.5C493.2,183.5,493.4,183.5,493.7,183.5 M489.9,183L489.9,183L489.9,183L489.9,183 M491.9,183.6
					L491.9,183.6c0-0.1,0.1-0.1,0-0.2c0-0.1-0.1,0-0.1-0.1c0-0.1,0-0.2,0-0.3c0.1-0.4,0.1-0.4,0.1-0.5c-0.1-0.2-0.5-0.2-0.5-0.2
					c-0.2,0-0.4,0.2-0.6,0.3c-0.2,0-0.3,0-0.5,0c-0.1,0-0.2,0.1-0.3,0.2l0.1-0.1c-0.1,0-0.1,0-0.2,0c0,0,0,0-0.3,0.2
					c0,0.1,0,0.1,0,0.2c0.1,0,0.2,0,0.3,0.2c0.1,0,0.1,0.1,0.3,0c0.3,0,0.3,0.2,0.3,0.2c0,0.3,0,0.3,0.2,0.3l0,0c0.1,0,0.1,0,0.1,0
					c0,0,0.2,0,0.3-0.1c0.1,0,0.3,0.1,0.4,0.1c0.1,0,0.2,0,0.4,0C491.8,183.7,491.9,183.7,491.9,183.6 M490.2,182.1c0,0,0-0.1,0-0.2
					l-0.2-0.1l-0.1,0c0,0-0.1,0-0.1,0l-0.1,0l-0.1,0c0,0,0,0.1-0.1,0.2c0,0.1-0.1,0.1-0.1,0.2l-0.1,0.1c0.2,0.2,0.2,0.2,0.3,0.2
					l0.3,0C489.9,182.5,490.1,182.3,490.2,182.1 M489.3,184c0-0.2,0.1-0.4,0.1-0.5c-0.1,0-0.3,0-0.4,0c0,0.1,0,0.2,0,0.3l0-0.2
					c0,0.1,0,0.1,0,0.2c0,0.1,0,0.2,0,0.3C489.1,184,489.2,184,489.3,184 M489.3,185.1L489.3,185.1c0.1-0.3,0.1-0.3,0.1-0.5
					c-0.2,0-0.3,0-0.5,0c-0.1,0-0.2-0.1-0.3-0.1c-0.1,0-0.1,0-0.2,0c-0.2,0-0.5-0.2-0.7-0.1c-0.1,0-0.1,0-0.3,0.4c0-0.1,0-0.1,0-0.2
					c0,0.1-0.1,0.1-0.1,0.2c0,0.1,0,0.1,0,0.1c0.1,0,0.3,0,0.4,0c0.1,0,0.2,0,0.3-0.1c0,0,0.1,0,0.1,0l0.1,0c0,0,0,0,0.4,0.1
					c0.1,0,0.1,0.1,0.1,0.1C489,185.1,489,185.1,489.3,185.1 M486.8,185.2c0-0.1,0-0.2,0.1-0.3l0-0.1c0,0,0-0.1,0-0.1
					c0,0-0.1,0-0.1,0c-0.1,0-0.2,0-0.2,0c-0.1,0-0.1,0-0.2-0.1l0,0c0,0.1-0.1,0.2-0.1,0.3c0,0.1,0,0.1,0.1,0.2
					c0.2,0.1,0.2,0.1,0.3,0.1C486.6,185.2,486.7,185.2,486.8,185.2 M488.7,181.7c0-0.1,0-0.2,0-0.2c0-0.1-0.1-0.1-0.2-0.1l0,0l0-0.1
					c0,0,0,0,0.1-0.3c-0.2,0-0.2,0-0.5,0c0-0.1,0-0.2,0-0.3c0-0.2,0.1-0.2,0.2-0.3l0.1-0.1c0,0,0,0,0.1-0.4
					c-0.2,0.2-0.2,0.2-0.6,0.6c-0.1,0.1-0.1,0.1-0.2,0.1c-0.1,0-0.1,0-0.1,0.2l0,0.1c0,0.1,0,0.3,0,0.4l-0.1,0.5
					c0,0.1,0,0.1-0.1,0.1c-0.1,0.1-0.2,0.4-0.2,0.4l-0.1,0.6c0.1,0,0.1,0,0.1,0c0.1,0,0.1,0.1,0.2,0.1c0,0,0,0,0.3-0.1
					c0.1-0.4,0.1-0.4,0.1-0.9c0.2-0.1,0.6,0,0.8,0C488.7,181.9,488.7,181.8,488.7,181.7 M484.4,183.3c0.1-0.3-0.6-0.7-0.6-0.7
					c-0.1,0-0.1,0-0.2,0l-0.1,0c0,0-0.2,0-0.3,0.2c0,0-0.3,0.4-0.6,0.4c-0.1,0-0.5-0.1-0.5-0.1c-0.1,0-0.2-0.1-0.4-0.2
					c-0.1,0-0.1,0-0.2,0c-0.1,0-0.5,0.4-0.5,0.7c0,0.1,0,0.1,0,0.1l0,0c-0.1,0.1-0.1,0.3-0.1,0.3c0,0.1,0,0.1-0.2,0.2l-0.2,0l0,0
					c-0.3,0.4-0.4,0.8,0.5,0.8c0,0,0,0.1,0,0.1c0,0.3-0.2,0.5-0.3,0.8c0,0.2,0,0.2,0,0.2l0,0.1c0,0,0,0,0.1,0.5
					c0.3-0.2,0.4-0.3,0.4-0.3s0-0.1,0.1-0.1c0-0.2,0-0.4,0.1-0.6c0-0.1,0.1-0.1,0.1-0.2c0.1-0.4,0.1-0.7,0.2-1.1c0.2,0,0.3,0,0.5,0
					c0,0.1,0,0.3-0.1,0.4l-0.1,0.2c0,0.1,0,0.1,0,0.2c0.6,0.2,0.6,0.2,0.8,0.2c0,0.1,0,0.2-0.1,0.3c0,0.1-0.1,0.2-0.2,0.3
					c0,0.1,0,0.1,0,0.2c0,0.1-0.1,0.4,0.3,0.4c0.2,0,0.3,0,0.5,0c0-0.1,0.1-0.1,0.1-0.2c0-0.1,0-0.2,0-0.2c0-0.2,0.1-0.3,0-0.4
					c0-0.1-0.1-0.1-0.2-0.1c0,0-0.1-0.1-0.1-0.1c-0.2-0.2-0.2-0.2-0.1-0.6c0-0.1,0-0.1,0-0.2c0-0.2,0-0.2-0.2-0.5
					c-0.1-0.1-0.2-0.1-0.3-0.1l0-0.2c0-0.1,0.1-0.2,0.1-0.3c0.1,0,0.3,0,0.4,0c0.2,0,0.3-0.2,0.5-0.2c0.2,0,0.4,0,0.5,0l0,0
					C484.3,183.5,484.4,183.4,484.4,183.3 M485.9,181L485.9,181c0-0.1-0.1-0.1-0.1-0.1c-0.2,0-0.2,0-0.3,0.2c-0.9,0-1.8,0-2.7,0.1
					c-0.2,0-0.3,0.3-0.5,0.3c-0.6,0.1-0.6,0.1-0.6,0.1c0,0-0.1,0.1-0.1,0.1c-0.2,0.2-0.2,0.4-0.2,0.7c0.2-0.1,0.5-0.2,0.7-0.3
					c0.1,0,0.1-0.2,0.2-0.2c0.3-0.2,0.3-0.2,0.4-0.2c0.1,0,0.1,0,0.1,0c0.1,0,0.1-0.1,0.2-0.2l0.3,0.1c0.3,0,0.7,0,1,0
					c0.1,0,0.3,0.1,0.4,0.2c0,0.1,0.1,0.1,0.1,0.1c0.2,0,0.2,0,0.4-0.1c0.1,0,0.1-0.2,0.2-0.2l0.1,0
					C485.6,181.6,485.8,181.5,485.9,181 M483.2,190.2L483.2,190.2L483.2,190.2 M486.1,189.1L486.1,189.1L486,189
					c-0.1,0,0-0.1-0.1-0.2c-0.1,0-0.2,0-0.4,0c-0.2,0-0.2,0.1-0.3,0.1c-0.1,0.1-0.1,0.1-0.3,0.1c-0.1,0-0.2,0.1-0.3,0.2
					c-0.1,0-0.2,0-0.3,0.1c0,0,0,0-0.1,0.1c0,0,0,0.1-0.2,0.1c-0.3,0-0.3,0-0.4,0c-0.1,0-0.1,0.1-0.2,0.2c-0.1,0.1-0.2,0.2-0.2,0.2
					l0,0.1l0,0.1l0,0l0-0.1c-0.1,0.2-0.1,0.2,0,0.3c0,0,0.4,0.2,0.5,0.1c0,0,0.1-0.1,0.1-0.2c0.1-0.1,0.6-0.5,0.6-0.5
					c0.2-0.2,0.4,0,0.6-0.2c0.1-0.1,0.2-0.2,0.3-0.3c0,0,0.2-0.1,0.4-0.1C486,189.3,486,189.2,486.1,189.1L486.1,189.1 M482.8,191.1
					c0-0.1,0-0.2,0.1-0.3l0-0.2c-0.1,0-0.1,0-0.5,0.2c0,0.2,0,0.2,0,0.2C482.5,191.2,482.7,191.2,482.8,191.1 M484.2,188.9
					L484.2,188.9c0-0.1,0-0.1,0-0.2H484c0,0-0.1,0-0.1,0.1c-0.1,0.1-0.1,0.1-0.1,0.1c0,0,0,0-0.3,0c-0.2,0-0.3,0.1-0.4,0.1
					c0,0-0.1,0-0.2,0c-0.2,0-0.4,0.1-0.6,0.1c-0.1,0-0.2,0-0.3-0.1c-0.2-0.2-0.7-0.2-1-0.1c-0.1,0-0.2,0.1-0.3,0.2
					c-0.1,0-0.1,0-0.2,0c0.1,0.1,0.1,0.3,0.3,0.3c0.1,0,0.1,0,0.9,0l0.1,0c0.7,0,0.7,0,0.7,0c0.2,0,0.3,0,0.5-0.1l0.1,0
					c0.1-0.1,0.1-0.1,0.2-0.2l0.2,0C484,189,484,189,484.2,188.9 M481.2,190.5L481.2,190.5c0.1-0.1,0.1-0.1,0.1-0.2
					c-0.3,0-0.3-0.1-0.3-0.1c0,0,0-0.1,0-0.2l-0.1,0l-0.2-0.1c-0.1,0,0-0.1-0.1-0.2c-0.1,0-0.2-0.1-0.2-0.1c0,0,0,0-0.3,0.2
					c0.1,0.2,0.1,0.2,0.1,0.2c0.1,0.1,0.1,0.1,0.1,0.2c0,0.1,0,0.1,0.1,0.2C480.4,190.5,480.5,190.5,481.2,190.5 M480.2,189.2
					L480.2,189.2L480.2,189.2c-0.1-0.1,0-0.1,0-0.2c-0.3,0-0.3,0-0.4,0l0,0l0,0c0,0-0.1,0-0.1,0c-0.1,0-0.2-0.1-0.3-0.1
					c-0.1,0-0.1,0-0.2,0c0,0-0.1,0-0.1,0.1c-0.1,0-0.1,0.1-0.2,0.1l0,0c-0.1,0-0.3-0.1-0.4,0c0,0-0.1,0-0.1,0.1
					c-0.1,0.1,0.1,0.3,0.2,0.3c0.1,0,0.6,0,0.6,0c0,0,0.2,0,0.3-0.2c0-0.1,0.1-0.1,0.1-0.1c0.1,0,0.2,0,0.3,0
					C479.9,189.2,479.9,189.2,480.2,189.2 M477.6,189.4L477.6,189.4c-0.1-0.4-0.1-0.5-0.3-0.5c-0.2,0-0.2-0.1-0.3-0.3
					c-0.4,0-0.8,0-1.2,0c0.1-0.5,0.6-0.4,1-0.6c-0.2,0-0.3-0.1-0.5-0.1l-0.8,0c-0.4,0-0.9-0.2-1.3-0.3c-1.3,0.1-2.9,0.1-4.2,0.2
					c0,0.1,0,0.1,0,0.2c0.2,0,0.3,0,0.5,0c0,0.1,0,0.2,0,0.4c0.4,0,0.4,0,0.5,0c0.2,0.1,0.3,0.4,0.5,0.4c0.3,0.1,0.6-0.2,0.9-0.2
					c0.2,0,0.5-0.1,0.7,0c0.2,0,0.1,0.2,0.3,0.3c0.3,0.1,0.7-0.2,1,0.1c0.4,0.3,0.4,0.3,0.9,0.3c0-0.2,0.1-0.3,0.1-0.3
					c0.2-0.1,0.3,0.1,0.4,0.1c0.1,0,0.1,0,0.2,0c0.6-0.2,0.8,0.4,1.3,0.4c0.1,0,0.1,0,0.2,0L477.6,189.4 M467.5,187
					c0-0.1,0-0.1,0-0.2l0-0.1c0-0.1,0-0.1,0-0.2c0,0.1-0.1,0.1-0.1,0.2c0,0.1,0,0.1,0,0.2L467.5,187 M481.8,178L481.8,178
					c0-0.3,0-0.3-0.1-0.4c-0.1-0.1-0.7,0-0.7,0c-0.1,0-0.5-0.2-0.5-0.2c0-0.1,0.1-0.2,0-0.3l-0.3-0.5l-0.4-0.1c-0.2,0.5-0.7,0.6-1,1
					c-0.3,0.3-0.4,0.8-0.7,1.1c-0.2,0.2-0.6,0.1-0.8,0.3c-0.2,0.2-0.4,0.4-0.5,0.6l-0.1,0.1c-0.3,0.2-0.4,0.4-0.7,0.6
					c-0.2,0.1-0.3,0.1-0.7,0.1c0,0.3,0,0.6-0.1,0.9c-0.3-0.1-0.6,0.1-0.9,0.1c-0.1,0-0.2-0.1-0.3-0.3l-0.2-0.1c-0.1,0-0.1,0-0.2,0
					c-0.1,0-0.1,0-0.2,0c0,0.4,0,0.4-0.1,0.5c-0.1,0.1-0.2,0.2-0.3,0.3l-0.1,0.7c-0.1,0.6,0.9,0.6,0.7,1.2l0,0.1c0,0.1,0,0.1,0,0.2
					c-0.1,0.4-0.2,0.6,0,0.8c0.3,0.3,0.7,0,1,0.2c0,0.3,0.2,0.4,0.3,0.4c0.5,0.1,0.8-0.3,1.2-0.2l0.1,0c0,0,0,0,0.2,0.3
					c0.1,0.2,0.3-0.2,0.5-0.1c0,0,0.2,0.1,0.3,0.3c0,0.1,0,0.1,0.2,0.1c0.1,0,0.1,0,0.3,0c0.1,0,0.2,0,0.2,0l0.1,0
					c0-0.1,0-0.2,0.1-0.4c0-0.1,0-0.1,0.4-0.3c0.3-0.2,0.2-0.5,0.1-0.6c-0.1-0.1-0.1-0.2-0.1-0.2l0.5-0.6c0.1-0.1,0.1-0.2,0.3-0.7
					c0.2,0,0.3,0,0.5,0c0-0.3,0.1-0.6,0.1-0.9c1.4,0,1-0.5,0.9-0.6c-0.3,0-0.3,0-0.7,0c-0.1-0.2-0.1-0.2,0-0.4c0-0.1,0-0.2,0-0.3
					c0-0.3-0.1-0.5-0.1-0.7c0-0.3,0.1-0.6,0.1-0.9c0.4,0,0.4,0,0.6,0C481,178.4,481,178.3,481.8,178 M466.1,185.4c0-0.2,0-0.4,0-0.7
					c0,0-0.1,0-0.1-0.1c-0.1,0-0.1-0.1-0.2-0.2c0,0-0.2-0.1-0.3-0.1c-0.3,0-0.4-0.4-0.4-0.4c-0.1-0.2,0.1-0.5,0-0.7
					c0-0.1,0-0.1-0.4-0.2c-0.2,0.4-0.1,0.6-0.1,0.6c0.1,0.2,0.8,1.1,0.8,1.1c0.2,0,0.2,0,0.3,0.2C465.9,185.4,466,185.4,466.1,185.4
					 M463.4,181.6L463.4,181.6l0-0.1C463.4,181.5,463.4,181.5,463.4,181.6L463.4,181.6 M464.2,182.3l0-0.2c0-0.2,0-0.3-0.1-0.4
					c0,0-0.1-0.1-0.2-0.1c-0.1-0.1-0.1-0.2-0.2-0.3l0,0c-0.1-0.1-0.1-0.1-0.2-0.1l0,0c-0.1,0.2-0.2,0.3,0.2,0.5
					c0.1,0.1,0.1,0.1,0.2,0.2c0.1,0,0.1,0.1,0.2,0.1C464.1,182.2,464.1,182.3,464.2,182.3L464.2,182.3L464.2,182.3 M463,180.7
					c0-0.1,0-0.1,0-0.2c-0.1-0.1-0.2-0.1-0.3-0.2l0-0.1c0-0.1,0-0.1,0-0.2l-0.2-0.1c0,0.1-0.1,0.1,0,0.2c0,0,0.1,0.1,0.1,0.1l0,0.1
					l0,0.1l0,0.1l0,0l0,0c0,0.1,0.1,0.1,0.2,0.1h0h0h0h0h0h0h0h0L463,180.7 M471.4,184.9c0,0-0.1-0.4-0.4-0.4
					c-0.3,0-0.3-0.1-0.1-0.5l0-0.1c0,0-0.8-0.7-1.1,0.2c-0.2,0-0.3,0-0.5,0c0-0.3,0.2-0.6-0.1-0.8c-0.1,0-0.1,0-0.2,0
					c-0.4,0-0.4,0-0.4,0c0,0-0.5-0.4-0.5-0.5c0-0.3,0-0.6,0-0.9c-0.6,0-0.6,0-0.9-0.3c-0.3-0.3-0.1-0.6-0.2-0.9
					c-0.1,0-0.1,0.1-0.2,0.1c-0.1,0-0.1,0-0.2,0c-0.3,0-0.5,0-0.7-0.4l0-0.2c-0.4-0.1-0.5-0.5-0.7-0.7c-0.5-0.4-0.5-0.4-0.5-0.4
					c-0.1,0-0.2,0-0.3-0.1c-0.1-0.1,0-0.3-0.1-0.4c-0.1,0-0.3,0-0.5-0.7c-0.3,0-0.5,0.2-0.8,0.2c-0.4-0.1-0.5-0.5-0.9-0.5
					c-0.4,0.1-0.2,0.4,0.3,1c0.3,0.4,0.7,0.5,1,0.9c0.3,0.4,0.3,0.4,0.4,0.7c0.1,0.3,0.1,0.4,0.4,0.4c0.3,0,0.4,0.1,0.4,0.2
					c0.2,0.3,0.2,0.3,0.2,0.8c0,0.1,0,0.1,0,0.2c0.2,0.5,0.8,0.7,1.1,1.1c0.2,0.3,0.4,0.5,0.5,0.8c0.1,0.3,0.1,0.7,0.3,0.9
					c0.3,0.5,0.8,0.8,1.2,1.3c0.4,0.6,0.4,0.6,0.6,0.7c0.5,0.4,0.5,0.4,0.5,0.6l1.1-0.1c0.1,0,0.3-0.3,0.3-0.3c0-0.1,0-0.1,0-0.2
					c0.1-0.5,0.1-0.5,0.2-1c0-0.1,0-0.1,0-0.2c0.1-0.4,0.6-0.2,0.9-0.3L471.4,184.9 M487.4,176.3l0.1-0.2l-0.1-0.4
					c0-0.5,0.1-0.9,0.1-1.4c0-0.1-0.1-0.6-0.4-0.6c-0.1,0-0.1,0-0.2,0.2c-0.1,0.1-0.1,0.3-0.2,0.4c0,0-0.2,0.2-0.4,0.1
					c-0.1-0.1-0.3,0.1-0.4,0.3c-0.1,0.2-0.1,0.3-0.5,0.3c-0.1,0,0-0.2-0.1-0.3c-0.1,0-0.4,0-0.5,0.1l0,0.2c-0.1,0.1-0.2,0.1-0.4,0.1
					c-0.4,0-0.5,0.5-0.5,0.5c0,0.3,0,0.6-0.1,0.9c0,0,0.1,0.1,0.1,0.1c0-0.1,0.1-0.1,0.1-0.2c0-0.1,0-0.1,0-0.2c0-0.1,0-0.1,0-0.2
					c0-0.2,0-0.2,0-0.2l0.4-0.2c0.1,0,0.1,0,0.8,0c0,0.1,0,0.2,0,0.4c-0.1,0.4-0.1,0.4,0,0.6l0.1,0c0.1,0,0.2,0,0.2,0
					c0.1,0,0.1,0.1,0.2,0.2c0.1,0.1,0.1,0.1,0.2,0c0.1,0,0.1,0,0.2,0.2c0,0.1,0,0.1,0,0.2c0,0,0.1,0,0.1,0c0.1,0,0.1,0.1,0.1,0.1
					l0.2,0c0-0.1,0-0.2,0-0.4c0-0.2,0-0.2-0.1-0.2c0,0,0,0-0.1-0.6c0.1,0,0.1-0.1,0.1-0.1c0,0,0,0,0.2,0.1
					C487,176.3,487.1,176.3,487.4,176.3L487.4,176.3 M485.6,174.1c0-0.2,0-0.4,0-0.5c0-0.1,0-0.2-0.2-0.3c-0.2-0.1-0.2-0.1-0.3-0.1
					c-0.1-0.1,0.1-0.3-0.1-0.5c0,0-0.2-0.2-0.4-0.2c-0.1,0-0.1,0-0.1,0c-0.1-0.1,0-0.2-0.1-0.2c0-0.1-0.1-0.1,0-0.3
					c0-0.2,0-0.2-0.2-0.5c-0.1-0.2-0.4-0.2-0.5-0.3c-0.1-0.1-0.1-0.2-0.2-0.3l0,0c0,0,0,0-0.3,0c-0.1,0.8,0.1,0.8,0.7,0.7
					c0,0.5,0,0.5,0,0.7c0,0,0.1,0.4,0.1,0.6c-0.1,0.3-0.1,0.3-0.1,0.3c0.2,0.5,0.6,0.4,0.8,0.4c0,0.1-0.1,0.1-0.1,0.2l-0.1,0.4
					c0,0.1,0,0.2,0,0.2c0.3,0.2,0.6,0.1,0.6,0.1c0.1,0-0.1-0.2,0-0.2C485.2,174.1,485.2,174.1,485.6,174.1 M487.1,172.5L487.1,172.5
					c-0.1-0.4-0.1-0.6-0.3-0.7c-0.1-0.1-0.1-0.1-0.2-0.2c0-0.1,0-0.1-0.1-0.2c-0.2-0.4-0.5-0.5-0.5-0.5c-0.1,0-0.1,0-0.1,0
					c0-0.1-0.1-0.1-0.1-0.2c0-0.1,0-0.1,0.1-0.2c0-0.2,0-0.4,0-0.5c-0.1,0-0.1,0-0.2,0c-0.1,0-0.1,0-0.2,0c-0.1,0-0.1,0-0.2,0
					c0,0-0.1,0-0.1,0c-0.2,0-0.2,0.1-0.2,0.1c0,0.1,0,0.1-0.2,0.2c0,0-0.5,0.1-0.6,0.1c0.1,0.1,0.5,0.4,0.5,0.4
					c0.2,0.1,0.2,0.1,0.3,0.1l0.1,0c0,0.1,0,0.1,0,0.2c0.1,0.1,0.2,0.1,0.3,0.2c0.1,0.2,0,0.4,0.1,0.6c0,0.1,0.1,0.1,0.2,0.1
					c0.1,0.1,0.2,0.2,0.3,0.3c0,0,0,0,0.1,0c0.1,0,0.1,0,0.1,0.2c0.1,0.1,0.1,0.1,0.1,0.5c0.2,0,0.4,0,0.7,0
					C487.1,172.8,487.1,172.8,487.1,172.5 M482.8,171.4L482.8,171.4c-0.1,0.1-0.1,0.1-0.2,0.2c-0.2,0.3-0.2,0.3-0.2,0.4
					c0,0,0,0-0.2,0.5c0,0.1-0.1,0.1-0.2,0.1c-0.1,0.1-0.1,0.3-0.2,0.4c0,0-0.1,0-0.1,0.1c0,0,0,0.1,0,0.1c0,0,0,0.2,0,0.3
					c-0.1,0.1-0.1,0.2-0.2,0.2c-0.1,0.1-0.1,0.2-0.2,0.3c-0.1,0.1-0.2,0-0.4,0.1c0,0.1-0.1,0.4-0.5,0.4c-0.2,0-0.2,0.2-0.4,0.6
					l0.1,0c0.2,0.1,0.8-0.1,0.7-0.5c0,0,0-0.5,1-0.5c0-1,0.5-1.2,0.6-1.3c0.1,0,0.1,0,0.1-0.1L482.8,171.4 M484.7,167.3L484.7,167.3
					c0-0.2,0-0.2,0-0.3l0-0.1l0-0.1l0-0.1l0-0.1l0-0.1l0-0.1l-0.1-0.1l-0.1-0.1l-0.1-0.1l-0.1-0.1l-0.1,0h0h0h0h0h0h0l0,0h0
					c-0.1,0-0.1,0-0.1,0l-0.1,0l0-0.1c-0.2-0.1-0.2-0.1-0.3-0.1c-0.1,0-0.3,0-0.4,0l0,0.1l0,0.1l0,0.1l0,0.1l0,0.1v0.1
					c0.1,0.1,0.1,0.1,0.1,0.3v0.1l-0.1,0.1c0,0.1-0.1,0.2,0,0.5c0.1,0.2,0,0.3-0.1,0.3c-0.1,0.1-0.3,0.2-0.4,0.3l-0.1,0.1v0.1l0,0.1
					c0,0,0,0.2,0.3,0.4c0.2,0.2,0.3,0.3,0.3,0.3l0.1,0.1l0.1,0c-0.2,0.5,0,0.7,0,0.7c0.1,0,0.2,0.1,0.2,0.1c0.1,0,0.2,0,0.4,0
					c0-0.1,0-0.2,0-0.3c0-0.1,0-0.2,0-0.2c0-0.1,0-0.3,0-0.4c0-0.2,0.3-0.4,0.3-0.4l0.1,0l0-0.1l0.1-0.1c0.2-0.3,0.3-0.7,0.3-0.7
					v-0.1L484.7,167.3 M484.2,160.1c0-0.1,0-0.1,0-0.2c0-0.1-0.1-0.1-0.1-0.1c0-0.1,0-0.2,0-0.3c-0.3,0-0.3,0-0.4,0
					c-0.1,0-0.1,0.2-0.2,0.2c-0.1,0.1-0.2,0.1-0.3,0.2l0,0c-0.1,0.1-0.1,0.3-0.2,0.4c0,0-0.1,0-0.2,0.1c0,0-0.1,0.4-0.1,0.6
					c0,0.5,0,1.1,0.1,1.6c0.2,0,0.3,0,0.5,0c0-0.5,0-0.5,0-0.8c0-0.1,0.1-0.1,0.2-0.2c0.1-0.2,0.1-0.2,0.1-0.3c0-0.1,0-0.1,0-0.1
					c0-0.1,0.1-0.2,0.2-0.3c0.1-0.2,0.1-0.2,0.2-0.4c0,0,0.2-0.2,0.2-0.3C484.2,160.2,484.2,160.1,484.2,160.1 M498.1,139.6
					c0-0.1-0.1-0.1-0.1-0.2l-0.1,0c-0.2,0.2,0,0.4-0.1,0.6c-0.3,0.3-0.3,0.3-0.5,0.3c0,0-0.1,0-0.1,0l-0.1,0.1c0,0-0.1,0-0.2,0
					l-0.1,0c-0.1,0.2-0.2,0.5-0.4,0.4c0,0-0.3-0.1-0.5-0.2c-0.3-0.2-0.5-0.4-0.8-0.6c-0.3-0.2-0.6-0.2-0.8-0.3
					c0,0.5,0.4,0.9,0.4,1.4c-0.3,0.3,0.1,0.8-0.2,1.1c-0.1-0.1-0.2-0.2-0.3-0.3c0,0.1,0,0.2,0,0.3l-0.1,0c-0.3,0.1-0.1,1.1,0.6,1.4
					c0,0,0,0,0.1,0l0.1-0.1c0,0.1,0.1,0.3,0.1,0.4c-0.2,0-0.3,0-0.5,0c0,0.1,0,0.2,0.1,0.3c0,0.1,0,0.1,0.1,0.2
					c0.1,0.2,0,0.5,0.1,0.7c0.1,0.2,0.1,0.4,0.2,0.6c0.2,0.6,0.1,0.6-0.2,0.6c-0.2,0.3-0.2,0.7-0.4,1c-0.1-0.2-0.1-0.4-0.2-0.7
					l-0.1,0.1c0,0.4,0,0.4,0.1,0.5c-0.2,0-0.3,0-0.5,0c0.1,0.2,0.1,0.5,0.2,0.7c-0.2,0-0.4,0-0.4-0.6c0,0-0.1,0-0.2,0
					c-0.1,0.1-0.1,0.1,0,0.3l0,0c0,0.4,0,0.4-0.3,0.4c0.1,0.3,0.1,0.7,0.2,1.1l-0.3,0c0,0-0.1-0.1-0.2-0.1c-0.2-0.4-0.4-0.3-0.4-0.3
					c-0.1,0.6-0.9,0.3-1.3,0.4c-0.7,0.3-0.7,0.3-0.6,1.1c-0.2,0-0.5,0-0.7,0.1c0,0.1,0,0.1,0.1,0.5c-0.3,0-0.5,0.1-0.5,0.2
					c-0.6,1.1,0.1,1,0.7,0.9l0-0.1c0.1,0.3,0,0.3-0.1,0.6c-0.1,0.4-0.3,1,0.3,1.1c0.1,0,0.2,0,0.3,0c-0.1-0.8-0.1-0.8,0.3-1.1
					c0.2-0.1,0.2-0.3,0.2-0.3c0-0.4-0.3-0.7-0.3-1c-0.1,0-0.3,0.1-0.5,0c0,0,0-0.1,0-0.2c0.3-0.2,0.3-0.2,0.5-0.2
					c0.5,0,0.6-0.5,1-0.6c0.3-0.1,0.7,0,1.1-0.1l0.1,0c0,0,0,0.1,0,0.2c-0.2,0.1-0.3,0-0.5,0c-0.2,0.1-0.3,0.3-0.4,0.4l-0.1,0
					c-0.2,0-0.5,0-0.7,0c0.1,0.4,0.1,0.8,0.2,1.2c0.1,0,0.2,0,0.3,0c0.2,0,0.4-0.3,0.4-0.3c0.1-0.1,0.1-0.3,0.2-0.5
					c0.1-0.2,0.4,0,0.5-0.2c0-0.1,0-0.3,0-0.3c0,0,0.1-0.1,0.1-0.1c0.4,0.5,0.4,0.5,0.5,0.5c0.3,0,0.3-0.5,0.6-0.5
					c0.1-0.2,0.1-0.2-0.1-0.7l0.1-0.1c0.5,0,1.1,0,1.6,0c0.2-0.3,0.8-0.3,0.7-0.8c-0.1-0.3-0.1-0.6-0.2-0.8c0-0.2,0.1-0.5,0.1-0.7
					l0-0.2c0-0.1-0.1-0.2-0.1-0.3c0-0.1,0-0.2-0.1-0.3c-0.1-0.3-0.1-0.3,0.2-0.5c0-0.1,0-1.3-0.2-1.9c0,0-0.8-1.5-1.4-1.6
					c0-0.1-0.1-0.2-0.1-0.3c0.2,0,0.4,0,0.6,0l0.1-0.1c0,0,0,0,0.1,0c0.4,0.2,0.4,0.2,0.5,0.2c0.1,0.2,0.1,0.2,0.7,0.2
					c0-0.2,0-0.2-0.2-0.7c0.2,0,0.4,0,0.7,0c0.1-0.1,0.1-0.1,0.3-0.2c0-0.3-0.2-0.5-0.2-0.8c0.2-0.1,0.2-0.1,0.4-0.1
					c0.1-0.2,0.1-0.2,0.4-0.3c0,0,0.1,0,0.1,0c0,0,0.1,0,0.2-0.1C498.1,139.8,498.1,139.8,498.1,139.6 M498.7,138.7L498.7,138.7
					L498.7,138.7c-0.1,0-0.1,0-0.1,0c0,0,0,0-0.1,0.1c0,0,0,0,0,0.2c0,0,0,0-0.1,0.1c0.1,0.1,0.2,0.1,0.2,0.1c0.2,0,0.2,0,0.2-0.1
					c0-0.1,0-0.1,0-0.2C498.7,138.9,498.7,138.8,498.7,138.7 M499.1,134.5c0,0-0.1-0.1-0.1-0.1l-0.1,0c0,0,0,0,0.1,0.2
					c0,0.1,0,0.1,0,0.2c0,0.1,0.1,0.1,0.1,0.2c0,0.1,0,0.2,0,0.2c0,0,0,0.1,0,0.2l0.1,0l0,0c0,0,0,0,0-0.1c0-0.1,0-0.1,0-0.2
					c0-0.1,0-0.1,0-0.1l0,0c0-0.1,0-0.1-0.1-0.1C499.2,134.6,499.2,134.5,499.1,134.5L499.1,134.5 M500.6,130.2L500.6,130.2
					c-0.2-0.2-0.2-0.2-0.2-0.2l0,0l0,0l0,0h0c0,0,0,0,0.3,0.4c0.1,0,0.1,0,0.2,0L500.6,130.2 M500.3,130.4c0.1,0,0.1,0,0.2,0
					c0,0-0.1-0.2-0.2-0.2c-0.1-0.1-0.2-0.3-0.3-0.4c-0.2-0.2-0.3-0.3-0.5-0.4c0.1,0.1,0.2,0.2,0.3,0.3c0,0,0.1,0.1,0.1,0.1
					C500,130,500.1,130.2,500.3,130.4 M496.5,126.3l-0.1-0.2l-0.1-0.1l0,0l-0.1,0l-0.1,0l0,0c0,0.1,0.1,0.2,0.1,0.2
					c0.1,0.1,0.1,0.2,0.2,0.3l0.1,0l0.1,0c0,0,0,0,0-0.2L496.5,126.3L496.5,126.3 M496.2,121.8c-0.1-0.1-0.2-0.2-0.3-0.2
					c0,0-0.1-0.1-0.1-0.1l-0.1,0l0,0l-0.1,0l-0.1-0.1l0,0l0,0l0.1,0.1l0.3,0.2l0,0l0,0v0c0.1,0,0.1,0.1,0.1,0.1c0.1,0,0.1,0,0.1,0
					l0,0l-0.1-0.1L496.2,121.8L496.2,121.8L496.2,121.8L496.2,121.8 M486.2,115.5c-0.1,0-0.2-0.1-0.2-0.1c-0.2-0.1-0.3-0.2-0.4-0.2
					l-0.1,0l0,0c-0.1,0-0.2-0.1-0.3-0.1l0,0c0,0,0,0,0,0c0.1,0,0.1,0.1,0.2,0.1v0l-0.1,0c0.1,0.1,0.7,0.4,0.7,0.4l0.1,0L486.2,115.5
					l-0.1,0l0,0L486.2,115.5L486.2,115.5L486.2,115.5L486.2,115.5L486.2,115.5 M476.5,113.3c-0.1,0-0.2-0.1-0.3-0.1
					c-0.1,0-0.1,0-0.1-0.1c-0.1,0-0.2,0-0.2,0l-0.1,0l0,0l-0.1,0l-0.1,0l0,0c-0.1-0.1-0.2-0.1-0.4-0.2c-0.2,0-0.2,0-0.2,0l0,0
					l0.1,0.1l0,0c-0.1,0-0.1,0-0.6-0.2l0,0c0.2,0.1,0.4,0.2,0.5,0.3c0.1,0,0.2,0.1,0.4,0.1c0,0,0.1,0,0.2,0.1c0.1,0,0.1,0,0.1,0
					l0-0.1c0.1,0,0.3,0.1,0.3,0.1c0.1,0,0.1,0,0.1,0c0.2,0,0.2,0,0.3,0l0,0h0l0,0C476.5,113.5,476.5,113.4,476.5,113.3l-0.1,0
					L476.5,113.3 M476.8,114.6c-0.3-0.2-0.4-0.3-0.6-0.3h0c-0.1,0-0.1,0-0.2,0c-0.1,0-0.1-0.1-0.2-0.1c0,0-0.1,0-0.1,0l0,0l-0.1,0
					c-0.1,0-0.1,0-0.1,0c0,0.1,0.1,0.1,0.1,0.1l-0.1,0c0,0.1,0.1,0.1,0.1,0.2l0,0c0.1,0,0.3,0,0.3,0l0.1,0l0.1,0l0.1,0l0,0l0,0h0
					C476.4,114.5,476.5,114.6,476.8,114.6L476.8,114.6 M475.1,113.9l-0.1,0l0,0l0,0c-0.1,0-0.1,0-0.2-0.1l-0.1,0l0.1,0.1l0.1,0.1
					l0.1,0c0.2,0,0.2,0,0.2,0l0.1,0l0,0L475.1,113.9L475.1,113.9 M474.4,112.9c-0.2-0.1-0.2-0.1-0.7-0.1l0,0l0,0
					c0.2,0.1,0.4,0.2,0.6,0.4c-0.1,0-0.1,0-0.1,0c-0.1-0.1-0.2-0.1-0.3-0.2c-0.1-0.1-0.2-0.2-0.4-0.3c0,0-0.2,0-0.3,0l0,0
					c0.1,0.1,0.2,0.1,0.3,0.2c-0.1,0-0.2,0-0.3,0c-0.1,0-0.3-0.1-0.4-0.2c0,0-0.1,0-0.1-0.1l0,0l0,0l-0.1,0l0,0c-0.1,0-0.2,0-0.2,0
					c0.1,0,0.1,0,0.8,0.6l-0.1-0.1c0.1,0,0.2,0.1,0.3,0.1l0,0c0.1,0.1,0.3,0.1,0.4,0.1c0.1,0.1,0.2,0.1,0.4,0.2c0,0,0,0,0.2,0
					c-0.2-0.2-0.2-0.2-0.3-0.3c0.2,0.1,0.2,0.1,0.4,0.1l0,0h0l0,0h0l0,0h0h0h0l0,0c0-0.1-0.1,0-0.1-0.1c0.1,0,0.2,0.1,0.3,0.1
					c0-0.1-0.1-0.1-0.1-0.2l0,0h0c0.1,0,0.2,0.1,0.3,0.1c0.1,0,0.1,0,0.2,0c-0.4-0.2-0.4-0.2-0.4-0.2
					C474.5,113,474.5,113,474.4,112.9 M472.1,112.9L472.1,112.9L472.1,112.9l-0.2,0l0,0l0,0c0,0,0.3,0.2,0.3,0.2l0.2,0.1l0,0
					l-0.1-0.1l0,0C472.3,113.1,472.3,113,472.1,112.9 M474.1,114.4c0.1,0,0.2,0,0.3,0c0,0-0.1-0.1-0.1-0.1l-0.1,0
					c-0.1,0-0.2-0.1-0.3-0.2l-0.1,0c-0.1-0.1-0.2-0.1-0.3-0.2l-0.1,0c0.2,0.1,0.3,0.2,0.5,0.3C474,114.2,474.1,114.3,474.1,114.4
					 M463.7,111.6L463.7,111.6L463.7,111.6l-0.1-0.1l-0.1,0h0l-0.1,0l0,0h0l0,0l0,0.1l0.1,0l0.1,0.1l0,0
					C463.6,111.7,463.6,111.7,463.7,111.6L463.7,111.6L463.7,111.6L463.7,111.6 M461.3,112.3L461.3,112.3l0-0.1l0-0.1l0,0l-0.1,0h0
					l0,0c0,0,0,0.1-0.1,0.1l0,0.1l0.1,0L461.3,112.3L461.3,112.3L461.3,112.3 M463.1,111.3L463.1,111.3l-0.1-0.1c-0.1,0-0.1,0-0.2,0
					c-0.1-0.2-0.1-0.2-0.1-0.2c0,0-0.2-0.1-0.3-0.1v0.1l0,0h0l-0.1,0l0-0.1l0-0.1c-0.1,0-0.1,0-0.1-0.1l0,0h0l0,0l-0.1,0l0,0
					c0,0.1,0,0.1,0,0.1l0,0.1h0l0,0c0,0,0,0.1,0.1,0.1c0,0.1,0,0.1-0.1,0.1l0,0c-0.1,0,0,0.2,0,0.2c0,0.1,0.1,0.2,0.2,0.1l0-0.1
					l0-0.1l0.1,0l0.1,0c0.1,0,0.2,0,0.3,0l0-0.1c0,0,0,0,0.1,0c0,0,0.1,0,0.1,0l0,0l0,0c0,0,0.1,0,0.1,0
					C463.1,111.5,463.1,111.4,463.1,111.3 M461.7,110.7c0,0-0.1-0.2-0.2-0.2c0,0-0.2,0-0.1,0l0,0.1l-0.1,0l0-0.1l0-0.1
					c-0.1,0-0.1,0-0.2,0c-0.1,0-0.1,0.1-0.1,0.1c-0.1,0-0.1,0-0.2,0l-0.1,0.1l-0.1,0l-0.1,0.1v0l0.1,0.1l0,0.1l0,0.1
					c0.1,0,0.2,0,0.4,0c0.1,0,0.1,0,0.2,0.1c0.3,0,0.3,0,0.3,0h0.1c0.2,0,0.2-0.1,0.2-0.1l0-0.1c0,0,0,0-0.1,0
					C461.6,110.9,461.6,110.9,461.7,110.7L461.7,110.7 M461.1,110.1L461.1,110.1L461.1,110.1L461.1,110.1l-0.2,0
					c0-0.1,0-0.1-0.1-0.2l-0.1,0l0,0c0,0,0,0-0.1,0l-0.1,0c0,0.1,0,0.1,0,0.2l0,0h0l-0.1,0l0,0.1l0.1,0h0l0,0.1c0,0,0,0,0.1,0.1l0,0
					c0.1,0,0.1,0,0.1,0l0-0.1c0,0,0,0,0.1,0c0.1,0,0.1,0,0.1,0l0,0c0.1,0,0.1,0,0.2,0C461.1,110.3,461,110.3,461.1,110.1
					L461.1,110.1L461.1,110.1L461.1,110.1L461.1,110.1 M460.5,110.7L460.5,110.7L460.5,110.7l0-0.1l0,0l-0.1,0l0,0l0,0l0,0h0l0,0
					l0,0h0h0c0,0,0,0.1,0,0.1c0.1,0,0.1,0,0.2,0h0c0,0,0,0,0,0.1l0,0L460.5,110.7L460.5,110.7L460.5,110.7L460.5,110.7 M460.2,110
					L460.2,110L460.2,110L460.2,110l0-0.1L460.2,110l-0.1-0.1l0,0l0,0l0,0.1l0,0l0,0L460.2,110L460.2,110L460.2,110 M442.4,117.8
					L442.4,117.8c0-0.1,0-0.1,0.1-0.3c-0.2,0-0.3,0-0.5,0c-0.1,0-0.1,0.1-0.1,0.1l-0.1,0.1c-0.2,0.2-0.3,0.3-0.5,0.5
					c0.1,0,0.2,0,0.2,0c0.1,0,0.2-0.1,0.3-0.2l0,0c0.1,0,0.2,0,0.3-0.1L442.4,117.8 M454.1,112.4c0,0,0.1-0.1,0.1-0.2l-0.1,0l0,0
					l-0.1,0l-0.1,0c-1.8,0.5-1.8,0.5-1.9,0.4c0,0,0,0-0.1,0c-0.4,0.1-0.4,0.1-0.8,0.3c-0.1,0-0.3,0-0.4,0c-1.1,0.4-1.7,0.7-1.9,0.9
					l-0.1,0.1c-0.1,0.1-0.1,0.1-0.2,0.2c-0.8,0.1-0.8,0.1-1,0.4c0.3-0.1,0.3-0.1,0.3,0c-0.1,0-0.1,0.1-0.2,0.1l-0.1,0.1l0,0
					c-0.1,0-0.1,0-0.2,0h0c-0.1,0-0.1,0-0.2,0c-0.1,0.1-0.2,0.2-0.4,0.3l-1.2,0.6c-0.2,0.1-0.2,0.1-0.8,0.6c0,0,0.1,0,0.2,0
					c0.1-0.1,0.1-0.1,0.2-0.1l0,0c-0.1,0.1-0.1,0.1-0.1,0.2c0.1,0,0.2-0.1,0.3-0.2c0.1,0.2,0,0.3,0,0.3l-0.3,0.2l0,0l-0.1,0.1
					c0.1,0,0.3,0,0.4,0c0.2,0,0.3,0.1,0.5,0.1l0.1,0c0.1,0,0.1,0,0.1,0c0.1-0.1,0.1-0.1,0.2-0.2l0.1-0.1l0,0c0-0.1,0.1-0.1,0.1-0.2
					l0,0l0-0.1c0,0,0,0,0.1-0.4l0.1-0.1l0,0c0.1-0.1,0.2-0.2,0.3-0.3l0.1-0.1c0.3-0.1,0.6-0.4,0.9-0.6l0.1-0.1l0.1,0l0.1,0l0.1-0.1
					c0,0,1.2-0.5,1.6-0.8c0,0,0.4,0,0.6-0.1c0,0,0.1,0,0.1-0.1c0.2,0,0.5-0.1,0.8-0.4l0.9-0.2c0.1,0,0.2,0,0.4,0
					c0,0,0.5-0.2,0.6-0.2c0.1,0,0.2,0,0.3,0C454,112.5,454,112.5,454.1,112.4 M452.9,114.7l0-0.1c0,0-0.1-0.1-0.1-0.1
					c-0.1,0-0.1,0-0.6,0.3l0,0.1c0.1,0,0.1,0,0.2,0l0.1,0c0,0,0,0,0.1,0l0.1,0l0.1,0C452.8,114.8,452.9,114.8,452.9,114.7
					 M456.7,110L456.7,110C456.8,109.9,456.8,109.9,456.7,110L456.7,110L456.7,110L456.7,110l-0.1,0l-0.1,0c0,0-0.1,0-0.1,0l-0.1,0
					l-0.1,0l0,0c-0.1,0.1-0.2,0.1-0.2,0.2c0,0.1,0.2,0,0.3,0C456.5,110,456.6,110,456.7,110 M455.8,110.2L455.8,110.2
					c0.3-0.2,0.4-0.2,0.5-0.3l0,0c-0.1,0-0.3,0.1-0.4,0.1l0,0c-0.1,0-0.1,0.1-0.2,0.1c-0.1,0-0.3,0.1-0.3,0.1l0,0l-0.1,0.1l0,0l0,0
					c0,0,0.1,0,0.1,0l0,0l0,0l0,0C455.6,110.2,455.7,110.2,455.8,110.2 M455,110.4l0.1-0.1C455,110.4,455,110.4,455,110.4L455,110.4
					l-0.1,0h0l0,0l0,0c-0.1,0.1-0.2,0.1-0.2,0.1v0h0.1l0.1,0L455,110.4L455,110.4 M455.1,110.3L455.1,110.3l0.2-0.1
					C455.2,110.2,455.1,110.2,455.1,110.3c-0.2-0.1-0.4,0-0.5,0c-0.1,0-0.2,0.1-0.2,0.1c0,0,0.1,0,0.1,0c0.1,0,0.2-0.1,0.3-0.1
					c-0.2,0.1-0.2,0.1-0.2,0.1l0.1,0c0.1,0,0.2-0.1,0.3-0.1L455.1,110.3 M455.7,110l0.1,0l0.1,0C455.9,109.9,455.9,109.9,455.7,110
					L455.7,110c0.2-0.1,0.4-0.2,0.5-0.2l0.1,0h0l-0.1,0l0,0c-0.2,0-0.2,0-0.3,0.1c-0.3,0.1-0.3,0.1-0.3,0.1l0,0l0,0h0l-0.4,0.1
					c-0.1,0-0.1,0-0.2,0.1c-0.1,0-0.2,0.1-0.3,0l0,0h0h0l0,0h0l0,0h0h0c-0.1,0-0.1,0-0.2,0.1l-0.1,0l0,0l0.1,0
					c0.1,0,0.1-0.1,0.2-0.1c0.1,0,0.1,0,0.2,0c0.2,0,0.3,0,0.5-0.1l0,0l0,0l0,0l0.1,0C455.6,109.9,455.6,109.9,455.7,110L455.7,110
					c-0.2,0-0.2,0-0.2,0C455.6,110.1,455.6,110.1,455.7,110 M454.4,110.1c0.1,0,0.1-0.1,0.2-0.1l0,0l0,0c0.1,0,0.2-0.1,0.3-0.1l0,0
					c-0.1,0-0.1,0-0.2,0l-0.4,0.1c0,0,0,0-0.2,0l0,0l0,0l0,0c-0.4,0.1-0.4,0.1-0.4,0.1c0.1,0,0.1,0,0.1,0v0l0,0
					c-0.2,0.1-0.3,0.1-0.4,0.1l0,0c0.1,0,0.2,0,0.3,0c0.2,0,0.2,0,0.2,0l0,0l0.1,0c-0.3,0.1-0.3,0.1-0.4,0.1c-0.1,0-0.2,0.1-0.3,0.1
					c-0.1,0-0.1,0.1-0.2,0.1c-0.1,0.1-0.1,0.1-0.1,0.1c0.1,0,0.4-0.1,0.7-0.2l0.1,0l0.1,0l0,0l0,0
					C454.1,110.2,454.3,110.1,454.4,110.1 M450.7,110.2c0.2,0,0.4-0.1,0.4-0.1c-0.1,0-0.1,0-0.2,0l0,0c0.2-0.1,0.4-0.1,0.7-0.2
					c-0.2,0-0.5,0.1-0.7,0.1l0.1,0l0.4-0.1l0.1,0c0.1,0,0.1,0,0.2,0c-0.1,0-0.2,0-0.2,0l0,0l0,0l0.1,0l0,0c-0.3,0.1-0.6,0.1-0.9,0.2
					c0.2-0.1,0.5-0.1,0.7-0.2c-0.2-0.1-0.8,0.1-0.9,0.2l0,0l-0.1,0c0.1,0,0.1,0,0.2,0c-0.1,0-0.1,0-0.3,0.1l-0.1,0
					c-0.1,0-0.2,0.1-0.4,0.1c-0.1,0-0.2,0-0.2,0.1l0.1,0c0.1,0,0.1,0,0.1,0c-0.1,0.1-0.2,0-0.3,0.1c0.2,0,0.4-0.1,0.5-0.1l-0.1,0
					c0,0,0.1,0,0.4-0.1C450.1,110.3,450.1,110.3,450.7,110.2 M449.1,110.4L449.1,110.4L449.1,110.4L449.1,110.4 M446.6,111.4
					l0.2-0.1c0.2-0.1,0.2-0.1,0.2-0.1l-0.1,0c0,0,0,0,0.5-0.2c0,0-0.1,0-0.1,0c0.3-0.1,0.7-0.2,1-0.3c0.2-0.1,0.3-0.1,0.5-0.2
					c0,0,0,0-0.2,0c0.1,0,0.1,0,0.1-0.1c0.1,0,0.3-0.1,0.4-0.1l0,0c0.3-0.2,0.6-0.1,0.9-0.3l0,0c-0.1,0-0.4,0.1-0.5,0.1
					c-0.1,0-0.1,0-0.2,0c-0.3,0.1-0.6,0.2-0.9,0.2c0,0,0,0,0.4-0.1c0.1,0,0.1,0,0.2,0c0.1,0,0.1,0,0.2,0c0.1,0,0.1,0,0.2,0
					c0.3-0.1,0.3-0.1,0.3-0.1c-0.2,0-0.4,0.1-0.6,0.1l-0.1,0c0.1,0,0.2,0,0.3-0.1c0.2,0,0.3-0.1,0.5-0.1c-0.1,0-0.3,0.1-0.4,0.1
					c-0.1,0-0.1,0-0.1,0c-0.1,0-0.1,0-2.3,0.6c0.2-0.1,0.5-0.1,0.7-0.2c-0.1,0-0.9,0.2-1.1,0.3c0,0,0,0,0.6-0.1
					c-0.2,0.1-0.4,0.1-0.5,0.2l0,0c0.1,0,0.6-0.2,0.8-0.2c0.1,0,0.2-0.1,0.3-0.1l0.1,0c-0.2,0.1-0.4,0.1-0.6,0.2l0.1,0l0.3-0.1
					l-0.1,0c-0.4,0.1-0.4,0.1-0.4,0.1c-0.1,0-0.1,0-0.2,0.1l0,0l0,0c0,0-0.2,0-0.7,0.1c-0.1,0-0.2,0.1-0.4,0.1l0.1,0l0,0l0,0
					c0,0,0,0,0.5-0.1l0,0c-0.2,0.1-0.8,0.2-0.8,0.2h0l0,0c-0.1,0-0.7,0.2-0.8,0.2l0,0c0,0,0,0-0.9,0.4l0.1,0c0,0,1.6-0.5,1.7-0.5
					c0.3-0.1,0.6-0.2,0.8-0.3c0,0,0,0,1.1-0.3l0.1,0c-0.2,0.1-0.5,0.1-0.7,0.2l0,0c0,0-0.1,0-0.6,0.2c-0.2,0.1-0.5,0.1-0.7,0.2l0,0
					c0.2,0,0.4-0.1,0.6-0.1c-0.2,0.1-0.4,0.1-0.6,0.2l0.1,0c0.1,0,0.1,0,0.4-0.1c0,0,0.1,0,0.1,0L446.6,111.4 M430.5,157.5
					c0.2-1.9,0.4-3.7,0.7-5.5c-2.4-0.1-4.6-0.2-6.8-0.3c-2.8-0.1-5.3-0.3-7.4-0.5c0,0-0.3,0.8-0.5,1l-0.1,0.1l-0.1,0.1l-0.1,0
					c-0.1,0-0.1,0-0.3,0.1l-0.1,0l-0.1,0l-0.1,0l-0.1,0.1l-0.1,0l0-0.1l0-0.1c-0.1-0.1-0.1-0.1-0.1-0.1c-0.1,0-0.2,0-0.4-0.1l-0.1,0
					l-0.1,0l-0.1,0.1c0.2,0.2,0.2,0.2,0.4,0.3c0,0.1,0,0.1,0,0.2l0,0.1c0,0.1,0,0.2,0.1,0.3c0,0.1,0,0.2,0,0.3l0,0.1l0,0.1
					c-0.1,0.4,0.1,0.8,0.1,1.3c0.1,0.5,0.2,0.5,0.2,0.6c0.1,0.1,0.1,0.1,0.2,0.1c0.3,0,0.3-0.3,0.4-0.4l0.1,0.1
					c0.2,1,0.8,1.8,0.7,2.8c0,0.1,0,0.2,0,0.2c-0.1,0.4-0.1,0.7,0,0.8c0.1,0.2,0.4,0.2,0.5,0.4l0.5,1.6c0.1,0.2,0.2,0.7,0,0.9
					c-0.2,0.4-0.1,0.5,0.4,1.2c0.3,0.4,0.4,0.6,0.6,1.2c0.1,0.3,0.1,0.3,0.9,1.6c0.2,0.4,0.1,0.9,0.3,1.4c0.1,0.2,0.1,0.2,0.2,0.3
					c0,0.1,0.1,0.1,0.1,0.2c0,0.5,0,1.1,0,1.6c0.2,0.8,1.1,1.1,1.4,0.7c0.5-0.7,0.5-0.7,0.6-0.7c0.3,0,0.5,0,0.8,0l0.1,0
					c0.1,0,0.1,0.1,0.2,0.2l0.1,0c0.1-0.1,0.1-0.3,0.2-0.4c0.4-0.9,1.6-0.5,2.2-1.2c0.1-0.2,0.1-0.2,0.8-0.2c0-0.5,0-0.7,0.2-0.7
					c0.4-0.3,0.4-0.3,1.9-0.2c0,0,0-0.7,0.2-1c0.3,0,0.6,0,0.8,0c0,0,0.3-0.8,0.4-0.9c0-1.7,0.1-3.4,0.2-5c0,0-0.1,0.1-0.1,0.1
					c0-0.2,0-0.4-0.1-0.6c-0.1,0-0.1,0-0.2-0.2c0-0.3,0-0.6,0.1-1c-0.1-0.2-0.1-0.2-0.3-0.3c-0.1,0.2-0.1,0.2-0.3,0.3
					c-0.2,0.1-0.2,0.1-0.5,1.4c-0.3-0.1-0.3-0.1-0.6-0.1c-0.1,0-0.2,0-0.2,0c-0.1-0.1-0.3-0.1-0.4-0.2c-0.1,0-0.1,0-0.2,0
					c-0.4,0.3-0.4,0.3-0.6,0.6c0,0-0.6-0.1-0.6-0.8c0.1,0,0.1-0.1,0.2-0.1c0.2-0.1,0.2-0.2,0.4-0.2l0.1,0c0.2,0.1,0.5,0.3,0.9,0.1
					c0-0.2,0-0.2-0.1-0.3c-0.1,0-0.2,0-0.2,0c-0.1,0-0.2,0-0.2,0c-0.1,0-0.2,0-0.2,0c-0.4-0.1-0.8-0.2-1.2-0.3c-0.1,0-0.2,0-0.2,0
					c0-0.3,0.1-0.6,0.1-0.9c0-0.1-0.1-0.1-0.1-0.2l-0.9-0.5c0.1-0.8-0.4-1.6-0.1-2.4c0.2-0.5,0.9-0.2,1-0.1c0.4,0.5,0.4,1.3,0.9,1.7
					c1.3,1.3,1.3,1.3,2.3,1.4c0.1,0,0.1,0,0.2,0c0.1,0,0.1,0,0.2,0c0.2-0.1,0.4,0,0.6-0.1c0.1,0,0.1,0,0.2,0
					C430.2,157.2,430.2,157.2,430.5,157.5L430.5,157.5 M483.8,145.4c-1.2-6.7-3-12.8-5.3-18c-12.4,0.3-27.5,0.2-39.6-0.3
					c-3.6,7-6.3,15.5-7.7,24.9c15.6,0.6,35.2,0.7,51.6,0.4c0-0.5,0-0.5-1.4-1.8c0-0.2,0-0.2,0-0.3c0.1-0.1,0.2-0.3,0.3-0.4
					c0-0.1,0-0.2,0-0.3c0-0.3-0.1-0.4-0.1-0.5c0.1,0,0.3,0,0.4,0c0.1-0.1,0.2-0.3,0.3-0.5c0.1,0,0.2,0,0.3,0
					c0.3-0.1,0.3-0.1,0.4-0.1c0.1,0,0.2,0,0.3,0c0.1-0.1,0.1-0.2,0.2-0.2c0-0.1,0-0.2,0-0.3c-0.3-0.1-0.6-0.1-0.8-0.1
					c-0.1-0.1-0.2-0.3-0.3-0.4c-0.2,0-0.4,0-0.6,0c0,0.2,0,0.4,0,0.6c-0.1,0.1-0.3,0.1-0.5,0.1c-0.1-0.3-0.1-0.6-0.2-1
					c-0.3,0-0.7,0-1,0c-0.7-0.4-0.1-1,0.1-1c0.2,0,0.4,0,0.6,0c0.4-0.7,1.2-1,1.7-1.6c0.1,0,0.1,0,0.1,0l0.2,0.2
					c-0.3,0.5-0.6,1.6-0.6,1.6c0.1-0.1,0.1-0.1,0.2-0.2c0.3-0.1,0.5-0.1,0.8-0.1C483.3,145.9,483.4,145.6,483.8,145.4L483.8,145.4
					L483.8,145.4L483.8,145.4L483.8,145.4L483.8,145.4L483.8,145.4L483.8,145.4L483.8,145.4 M424.3,126.1c0.1,0,0.2,0,0.3,0l0,0l0,0
					l0,0l0,0c0,0,0,0,0-0.1l0.1-0.1l0,0h-0.1l0,0c0,0,0,0-0.1,0l-0.1,0L424.3,126.1C424.3,126.1,424.3,126.1,424.3,126.1
					 M436.5,116.4c0.2-0.1,0.4-0.3,0.6-0.4v0l-0.1,0l-0.1,0l-0.1,0c-0.2,0.1-0.4,0.2-0.6,0.3C436.4,116.4,436.5,116.4,436.5,116.4
					 M438.9,127.1c1.7-3.3,3.6-6.3,5.7-8.8c-0.1,0-0.1,0-0.3,0.2c-0.1,0-0.2,0-0.2,0c-0.1,0-0.1,0-0.1,0c-0.1,0-0.1,0-0.2,0
					c-0.2,0.1-0.3,0.2-0.3,0.3c-0.1,0-0.2,0-0.3,0c0-0.1,0-0.2,0-0.2c0.2-0.2,0.5-0.5,0.5-0.5c-0.1,0-0.1,0-1,0.3
					c-0.1,0-0.2,0-0.2,0c-0.3,0-0.4,0.1-0.5,0.2l-0.1,0c-0.1,0-0.2,0-0.2,0c-1,0.2-1.7,0.8-2.6,1.1c-0.1,0-0.1,0-0.1,0
					c0-0.1,0-0.2,0-0.2c0.2-0.3,0.2-0.3,0.4-0.5c0.2-0.1,0.4,0,0.5,0c0.1-0.1,0.2-0.2,0.3-0.3l0-0.1c0-0.1,0.1-0.2,0.1-0.2l-0.1-0.1
					c-0.1,0-0.1,0-0.1,0l0-0.1l-0.1,0c-0.1,0-0.2,0-0.2,0l-0.1,0c-0.1,0.1-0.2,0.1-0.2,0.2l0.1,0c-0.2,0.3-0.4,0.5-0.6,0.7
					c-0.4,0.3-0.4,0.3-0.5,0.4l0,0.1c0,0.1,0,0.2,0,0.2c-0.1,0.1-0.1,0.1-0.1,0.1c-0.3,0.1-0.4,0.4-0.6,0.5c-0.1,0-0.2-0.1-0.2-0.1
					c0-0.1,0.1-0.1,0.1-0.1l0-0.1c-0.8-0.1-1.3,0.7-2.1,0.7l0,0c-0.2,0.2-0.2,0.2-0.3,0.4c0,0.2,0,0.2-0.2,0.4c-0.1,0,0,0,0,0
					c-0.3,0-0.3,0-0.4-0.1c-0.1,0-0.1,0-0.1,0l-0.1,0c0-0.1-0.1-0.1-0.2-0.2c0-0.1,0-0.1,0.2-0.4c-0.6,0.2-0.6,0.3-0.7,0.5l0,0.1
					c-0.1,0.1-0.1,0.1-0.2,0.2l0.1,0l0.1,0l0.1,0.1c0,0.2-0.1,0.2-0.2,0.3c-0.2,0-0.3,0-0.4,0c-0.1,0.1-0.1,0.1-0.2,0.1
					c0-0.1,0-0.2,0-0.4l-0.1,0c0-0.2,0-0.2,0.6-0.8c-0.1,0-0.1,0-0.2,0l0.4-0.4c0.6-0.5,0.6-0.5,0.7-0.7l-0.1-0.1
					c0.1-0.2,0.1-0.2,0.3-0.4l-0.1-0.1c0.1-0.1,0.1-0.2,0.2-0.3c0,0.3,0,0.3,0,0.4l0.1,0.1h0.1c0,0.1,0,0.2,0,0.2c0.1,0,0.3,0,0.5,0
					c0,0.1,0.1,0.1,0.1,0.2l0.1,0c0.1,0,0.1,0,0.1,0l0.1,0c2.2-0.9,2.2-0.9,2.3-1.6c-0.1,0-0.2,0-0.3-0.1c0-0.2,0.1-0.3,0.1-0.5
					l0.1-0.1l0-0.1l0-0.1c-0.1,0-0.1,0-0.4,0l0,0c0-0.1,0.1-0.2,0.1-0.2c0-0.1-0.1-0.1-0.1-0.1c-0.1,0.1-0.1,0.1-0.3,0.2
					c-0.1,0-0.1,0-0.1,0c0.1-0.1,0.1-0.1,0.4-0.3l0.1,0c0-0.1,0-0.1,0.2-0.3c0-0.1,0-0.1-0.1-0.1c-0.1,0-0.2,0.1-0.2,0.1l0-0.1
					l-0.1-0.1c0-0.1,0.1-0.1,0.1-0.2c0.1,0,0.3-0.1,0.5-0.2c0.1-0.1,0.1-0.1,0.2-0.2l-0.1,0c0-0.1,0.1-0.2,0.1-0.2l-0.1,0
					c-0.1,0.1-0.3,0.2-0.4,0.3l-0.1,0c0.1-0.1,0.2-0.1,0.2-0.2c0.1-0.1,0.1-0.1,0.3-0.2l0.1-0.1c-0.1,0-0.2,0-0.3,0
					c-0.4,0.3-0.4,0.3-0.6,0.3c-0.1,0.1-0.1,0.1-0.2,0.1l-0.1,0.1l0,0c0.4-0.2,0.4-0.2,0.5-0.4c0-0.1,0-0.1-0.1-0.1l0.4-0.2l0,0l0,0
					c-0.3,0.1-0.7,0.3-1,0.4c-0.1,0-0.1,0-0.1,0c0.1-0.1,0.1-0.1,0.3-0.2c0.1,0,0-0.1,0-0.1c-0.4,0.1-0.6,0.2-0.8,0.4v0.1
					c-0.1,0.1-0.2,0.1-0.3,0.2l-0.1,0l-0.1-0.1l-0.1,0c-0.6,0.4-0.6,0.4-0.7,0.4c0.2-0.2,0.4-0.4,0.6-0.6c-0.2,0.1-0.3,0.1-0.4,0.2
					c0,0-0.8,0.5-1.1,0.6c0.1-0.1,0.1-0.1,0.4-0.3c-0.1,0.1-0.2,0.1-0.7,0.3c-0.1,0.1-0.2,0.2-0.3,0.2c0,0-0.1,0.1-0.1,0.1l-0.1,0.1
					l0-0.1c0,0,0,0,0.5-0.4c-0.2,0.1-0.3,0.2-0.5,0.3c-0.3,0-1.1,0.5-1.1,0.5l-0.1,0c-0.1,0.1-0.2,0.1-0.3,0.2l0,0l-0.1,0.1
					c-0.1,0.1-0.1,0.1,0,0.1c0.2-0.1,0.5-0.2,0.7-0.3c0.1,0,0.1,0,0.1,0c0.2-0.1,0.2-0.1,0.3,0c-0.1,0.1-0.2,0.1-0.2,0.2
					c-0.4,0-3,1.6-3.7,2.1l0.1-0.1c-0.3,0.2-0.7,0.3-1,0.6c0.1,0,0.1,0,0.1,0c-0.5,0.4-1.1,0.7-1.6,1c0-0.1,0-0.1,0-0.1l-0.2,0.2
					c-0.2,0.2-0.3,0.2-0.4,0.3l0,0h0l0,0h0l0,0l0,0v0h0c-0.3,0.2-1.2,0.7-2.4,1.8c-0.1,0.1-0.1,0.1-0.1,0.1l-0.1,0.1
					c-0.1,0.1-0.2,0.2-0.3,0.3l0.1,0c-0.1,0.3-1.2,1.3-1.3,1.3c0.1,0.1,0.2,0.1,0.4,0.2c0.4-0.3,0.4-0.3,0.5-0.3
					c0.1-0.1,0.2-0.2,0.3-0.3c0,0.1-0.1,0.2-0.5,0.6c0.3,0.1,0.7,0.2,1.2,0.3c0.9-0.6,0.9-0.6,1-0.7c0.1-0.1,0.1-0.1,0.2-0.2
					l0.1-0.1l-0.1-0.1c0.1-0.4,0.5-0.7,0.5-0.8c0.3-0.3,0.7-0.7,1-1c0.2-0.1,0.6-0.4,0.7-0.5c0.6-0.5,1.3-0.7,1.9-1.1
					c0.4-0.3,0.8-0.6,1.2-0.9l1.2-0.7l0,0h0l0,0h0h0h0l0,0h0c-0.1,0.1-0.2,0.2-0.3,0.3c0.1,0,0.2-0.1,0.2-0.1l0,0.1
					c-0.1,0.1-0.1,0.1-0.2,0.2c-0.2,0.2-0.3,0.3-0.5,0.4c-0.1,0-0.1,0-0.2,0c-1.2,1.1-2.8,1.7-4,2.9l-0.1,0.1
					c-0.1,0.1-0.1,0.1-0.4,0.4l0.1,0.1c0,0.2-0.1,0.5-0.2,0.7l0.1,0c0.2-0.1,0.3-0.2,0.5-0.2l0.1,0.1c0.2,0,0.2,0,0.4-0.2l0.1-0.1
					c0.2,0,0.3,0,0.5,0.1c0.1,0,0.2-0.1,0.2-0.1c0.1,0,0.1,0,0.1,0c-0.1,0.1-0.1,0.2-0.2,0.3c0.1,0,0.2,0,0.3,0l-0.1,0.1
					c0,0-1.3,0.8-1.6,0.7c0-0.1,0-0.2,0-0.2c-0.1,0-0.2,0-0.4,0c-0.1,0-0.1,0-0.1,0c-0.1,0-0.2,0-0.3,0.2l-0.1-0.1
					c-0.3,0.2-0.3,0.2-0.6,0.5c2.2,0.3,5.3,0.5,9.2,0.7C435.5,126.9,437.2,127,438.9,127.1 M492.8,119.2c-0.2-0.1-0.4-0.2-0.5-0.3
					c-0.2-0.1-0.2-0.1-0.3-0.2l0,0l0,0l0,0c-0.1,0-0.2-0.1-0.3-0.1c0.1,0.1,0.3,0.2,0.5,0.3c0.1,0.1,0.1,0.1,0.1,0.1
					c0.1,0,0.2,0.1,0.2,0.2c-0.1-0.1-0.1-0.1-0.4-0.2c-0.3-0.2-0.6-0.4-0.9-0.6c-0.1,0-0.2-0.1-0.3-0.1c-0.1,0-0.1,0-0.1,0
					c-0.3-0.1-1.1-0.5-1.1-0.5c-0.5-0.2-0.6-0.2-1.8-0.8c-0.1,0-0.1,0-0.1,0l0,0c-0.2-0.1-0.3-0.1-0.5-0.2c-0.1,0-0.1,0-0.1,0
					l0.1,0.1c-0.1,0-0.1,0.1-0.1,0.1c-0.8-0.3-0.8-0.3-0.8-0.3c0.4,0.6,1.1,0.7,1.7,1.1c0,0.1-0.1,0.1-0.1,0.1
					c-0.2-0.1-0.3-0.2-0.5-0.3c-0.1,0-0.1,0-0.2,0c-0.2-0.1-0.3-0.2-0.5-0.3l0,0c0-0.1-0.1-0.2-0.2-0.3l-0.1,0c-0.1,0-0.2,0-0.3,0
					c0.5,0.3,0.5,0.3,0.6,0.4l0,0c-0.3-0.2-0.4-0.1-0.5-0.1c-0.1,0-0.1,0-0.2,0l0,0.1c0,0,0,0-0.5-0.2l-0.1,0
					c0.1,0.1,0.2,0.1,0.2,0.2c0.3,0.2,0.4,0.3,0.6,0.4l0,0l-0.1,0c-0.1-0.1-0.2-0.1-0.3-0.2c0,0-1.7-1-2.2-1.2
					c-0.1,0-0.2-0.1-0.3-0.2c-0.2,0-0.4-0.1-0.6-0.1l-0.1,0.1c0,0.1-0.1,0.1-0.1,0.1c-0.1,0-0.2,0-0.3,0.1c0,0.1,0,0.1,0,0.1
					c-0.2,0-0.4-0.2-0.7-0.2c0,0-0.1,0-0.1,0c-0.4-0.1-0.4-0.1-0.6-0.2c-0.2-0.1-0.4-0.2-0.7-0.2c-0.1,0-0.1,0-0.1,0l-0.1-0.1
					c-0.1-0.1-0.2-0.2-0.3-0.3l-0.1,0c-0.3,0-0.5,0-0.7,0h0c0.2,0.2,0.2,0.2,0.3,0.3c0,0.1,0,0.1-0.1,0.1c-0.1,0-0.2-0.1-0.6-0.4
					l0,0c-0.6-0.4-1.4-0.2-2.1-0.4c0.1,0.1,0.1,0.1,0.3,0.3c-0.1,0-0.2,0-0.3,0l0,0.1c0.3,0.2,0.8,0.3,1.1,0.6c0,0.1,0,0.1,0,0.1
					c-0.6-0.1-0.8-0.1-0.8-0.1c0,0,0,0.1,0.1,0.1l0.1,0c0.2,0.1,0.2,0.1,0.4,0.2c-0.1,0-0.1,0-0.6-0.2c-0.1-0.1-0.2-0.1-0.2-0.2
					c-0.1,0-0.2,0-0.3,0c0,0.1,0,0.2-0.1,0.3c-0.4-0.1-0.8-0.2-0.8-0.2l-0.1,0.1c0,0-0.1,0-0.2-0.1l0,0.1c0.2,0.2,0.3,0.3,0.5,0.5
					c-0.1,0.1-0.2,0.1-0.3,0.1c-0.4-0.4-1-0.5-1.5-0.9l0,0c-0.1-0.2-0.9-1.1-1.5-1.2c-0.1,0-0.1,0-0.1,0l0,0h0h0h0h0l0,0h0l0.1,0.2
					c-0.6,0.1-0.9-0.4-1.4-0.5l-0.1,0.1c0.1,0.2,0.2,0.3,0.3,0.4c0.2,0.1,0.2,0.1,0.3,0.3l0,0c2.8,3.1,5.3,7.3,7.4,12.2
					c3.4-0.1,6.7-0.2,9.5-0.3c0-0.2,0-0.4,0.1-0.5c0.2,0,0.2,0,0.4,0.1l0.1-0.1c0.1,0,0.1,0,0.1,0l0.1,0.1c0.1,0,0.1,0,0.1,0
					l0.1-0.1c0.1,0,0.1-0.1,0.1-0.1c0.5,0.2,0.5,0.2,0.6,0.1l0.1,0c0.3,0,0.7,0,1-0.1c-0.1-0.1-0.1-0.2-0.2-0.3
					c-0.2-0.2-0.2-0.2-0.2-0.4c0.2,0.1,0.2,0.1,0.4,0.2c0.6-0.3,0.7,0.6,1.2,0.7c0.1,0,0.3,0,0.4,0c0-0.1,0-0.1-0.1-0.4
					c0.1,0,0.1,0,0.5,0.2l0-0.1c0,0,0.1,0,0.2,0c0.2,0,0.2,0,0.3,0c0-0.1,0-0.1-0.4-0.4l-0.1,0c-0.2-0.1-0.3-0.2-0.4-0.4l-0.1-0.1
					l0.1-0.1c-0.2-0.5-0.2-0.5-0.2-0.7c-0.1-0.2-0.2-0.5-0.4-0.9l0.1-0.1l0.1,0c0.1,0,0.1,0,0.2,0l0-0.1c0-0.1,0-0.1,0-0.1
					c0.2,0.2,0.6,0.2,0.7,0.5c0.1,0.1,0.1,0.1,0.1,0.1c0.2,0.2,0.7,0.6,0.7,0.6c-0.1-0.3-0.3-0.9-0.3-0.9l0.1,0
					c-0.1-0.1-0.1-0.1-0.6-0.8l0-0.1c0.1-0.1,0.2-0.1,0.3-0.1c0.1,0.1,0.1,0.1,0.2,0.2l0.1,0.2c0.1,0.3,1.1,1.7,1.1,1.7
					c0.4,0.5,0.2,1.1,0.5,1.6c0.4,0,0.7,0,1-0.1c-0.1-0.2-0.3-0.5-0.5-0.7c0,0-0.1-0.1-0.1-0.1c-0.3-0.3-0.3-0.3-0.3-0.5
					c0.1,0,0.1,0,0.5,0.3l0-0.1c0-0.1-0.1-0.2-0.1-0.2c0.1,0,0.1,0,0.3,0.3c0.1,0.1,0.1,0.1,0.1,0.1c0-0.2,0-0.2-0.2-0.5l0.1-0.1
					l0.1,0c0.2,0,0.3,0,0.4,0c0.4,0.4,0.4,0.4,0.6,0.6c-0.3-0.5-0.9-0.8-1-1.5l0,0c0.1-0.3-0.4-1-0.6-1.3c0.1,0,0.1,0,0.5,0.2
					c0.1,0,0.1,0,0.2,0c-0.1-0.2-0.3-0.3-0.4-0.4c-0.2-0.1-0.2-0.1-0.5-0.4c-0.3-0.2-0.3-0.2-0.9-0.7c-0.1,0-0.1,0-0.6-0.4
					c-0.1,0-0.1,0-0.2,0l-0.2-0.1c-0.1-0.1-0.1-0.1-0.2-0.2c0-0.1,0-0.1,0-0.1c0.1,0,0.2,0.1,0.3,0.2c0.1,0,0.1,0,0.2,0
					c0-0.2-0.4-0.5-0.9-0.9c-0.1-0.1-0.3-0.2-0.4-0.3c0.1,0,0.1,0,0.9,0.5c0.1,0,0.1,0,0.2,0c0.2,0.1,0.2,0.1,0.6,0.4
					c0.1,0,0.1,0,0.1,0c0.2,0.1,0.4,0.3,0.6,0.4c0.1,0.1,0.1,0.1,0.1,0.1c-0.1-0.1-0.1-0.1-0.6-0.5c-0.1-0.1-0.1-0.1-0.1-0.1
					c-0.1-0.1-0.1-0.1-0.9-0.7c0.1,0,0.2,0.1,0.2,0.1c0.1,0,0.1,0,0.1,0C493.3,119.6,492.8,119.2,492.8,119.2 M421.7,125.7
					L421.7,125.7c-0.2,0-0.3-0.1-0.5-0.1l0,0c-0.1,0.1-0.1,0.1-0.3,0.3c0,0,0,0,0,0l0,0l0,0l-0.1,0.1c-0.1,0.1-0.1,0.1-0.2,0.2
					l0.1-0.1l0,0.1l0.1,0c0.1-0.1,0.1-0.1,0.2-0.1l0.1-0.1l0,0l0.1,0l0,0C421.3,126,421.3,126,421.7,125.7 M423.2,126
					c-0.5-0.1-0.9-0.1-1.2-0.2c-0.1,0.1-0.2,0.3-0.3,0.5l-0.1,0.1c-0.3,0.3-0.3,0.3-0.4,0.4c-0.1,0.1-0.1,0.3-0.2,0.4l-0.1,0.1
					l-0.1,0.1c-0.2,0.2-0.2,0.4-0.4,0.6c-0.1,0.2-0.3,0.3-0.4,0.5l-0.1,0.1c-0.1,0.1-0.1,0.2-0.2,0.3c0.1,0,0.2,0,0.3,0
					c0.2-0.3,0.5-0.6,0.6-0.6l0,0c0,0,0,0,0,0.1l0,0c0.3-0.2,0.3-0.2,0.4-0.2c0.1-0.1,0.2-0.3,0.3-0.4c0.1,0,0.1,0,0.2,0
					c0.2-0.2,0.2-0.2,0.3-0.3l-0.1,0c-0.1,0-0.1,0-0.1,0c0-0.1,0.1-0.1,0.1-0.1l0,0l0,0c0.1-0.1,0.2-0.2,0.3-0.3
					C422.4,126.7,422.7,126.2,423.2,126 M431.2,152c1.4-9.4,4.1-18,7.7-24.9c-1.7-0.1-3.4-0.1-5-0.2c-4-0.2-7-0.4-9.2-0.7
					c-0.1,0-0.2,0-0.3,0l0,0h0h0h0h0h0l0,0h0c-0.7,0.5-0.7,0.5-0.7,0.6c0.1,0.1,0.1,0.1,0.8-0.3c0,0.2,0,0.2-1,1.4
					c-0.1,0.1-0.1,0.1-0.2,0.1c0,0,0-0.1,0-0.2c0.1-0.1,0.1-0.2,0.2-0.3c0-0.1,0-0.1,0-0.1c0.1-0.1,0.2-0.2,0.2-0.3l-0.1,0
					c-0.5,0.4-2,1.7-2.2,2.3l-0.1,0.1c0,0-0.1-0.1-0.1-0.2c-0.2,0-0.2,0-0.8,0.7l-0.1,0c0-0.3,0-0.3,0.2-0.7
					c-0.3,0.1-1.4,0.7-1.4,0.8c0-0.1,0-0.1-0.1-0.2c0.1-0.2,0.1-0.2,0.3-0.4l-0.1,0l-0.1,0.1c-0.2,0-0.2,0-0.2,0
					c-0.1,0.1-0.1,0.1-0.4,0.4c-0.1,0.1-0.1,0-0.1,0c0-0.2,0-0.2,0.2-0.5l-0.1,0.1l-0.1,0c0.1-0.1,0.1-0.2,0.2-0.2
					c0.1-0.1,0.1-0.2,0.2-0.3c0.1,0,0.1,0,0.2,0c0,0.1,0,0.1,0,0.2c0,0,0.1,0,0.2,0c0.3-0.3,1-1.2,1.1-1.2l-0.1,0
					c-0.2,0-0.2,0-0.5,0.4l0,0h0c0.1-0.2,0.1-0.2,0.4-0.5c0.1-0.1,0.2-0.2,0.2-0.3c0.1-0.5,0.5-0.7,0.8-1c-0.4,0.2-1,0.8-1,0.8
					c-0.1,0.1-0.1,0.1-0.1,0.2c-0.4,0.5-0.8,1-1.3,1.4c-0.1,0.1-0.1,0.2-0.2,0.2c-0.1,0.1-0.2,0.2-0.3,0.3c-0.1,0.2-0.3,0.4-0.4,0.6
					c-0.1,0.1-0.1,0.2-0.2,0.3l0,0c0,0-0.1,0-0.2,0l-0.1,0l-0.1-0.1c-0.2,0.2-0.5,0.5-0.7,0.7c0,0-0.1,0-0.1,0l0,0
					c-0.1,0.1-0.2,0.2-0.3,0.3l-0.1,0.2c-0.1,0.2-0.2,0.3-0.3,0.5c-0.2,0.1-0.2,0.1-0.6,0.5c-0.1,0.1-0.1,0.1-0.1,0.1
					c-0.3,0.3-0.5,0.6-0.7,0.9l-0.1,0.1c-0.1,0.2-0.2,0.3-0.3,0.5l0,0c0.1-0.2,0.1-0.2,0.1-0.3l0.1-0.1c-0.1,0.2-0.2,0.3-0.3,0.5
					l-0.3,0.4l-0.1,0.2c0,0.1-0.1,0.1-0.1,0.2c0-0.1,0-0.2,0.1-0.3c-0.2,0.1-0.2,0.1-0.3,0.4c-0.1,0.1-0.1,0.1-0.1,0.1
					c0,0.1-0.1,0.2-0.2,0.3c0,0.1,0,0.1,0,0.1c-0.1,0.3-0.3,0.5-0.4,0.8c-0.2,0.3-0.3,0.5-0.5,0.8c-1,1.9-1,1.9-1.4,2.7l-0.1,0.1
					c-0.1,0.1-0.1,0.1-0.1,0.1c0-0.2,0.1-0.3,0.2-0.5c0-0.2,0-0.2,0-0.2c0,0,0.1-0.1,0.1-0.2c0-0.1,0-0.1,0-0.1
					c-0.9,1.9-2.1,4.5-2.8,6.4l0,0c0,0.1-0.1,0.2-0.1,0.3c-0.1,0.2-0.1,0.4-0.2,0.6c0-0.1,0-0.1,0.1-0.2l0-0.1
					c0.3-0.5,0.2-1.3,0.9-1.6c0.1-0.2,0.1-0.4,0.2-0.6c0.2-0.7,0.2-0.7,0.6-1.4c0.3-0.7,0.7-0.9,0.7-0.9c0.2-0.2,0.2-0.4,0.3-0.5
					c0-0.1,0-0.1,0.1-0.2c0,0,0.4-0.8,0.5-1c0.1,0.1,0.1,0.1,0.1,0.1v0h0l0,0l0,0l0,0h0l0,0c0,0.1,0,0.2,0,0.3l0.1,0
					c0.1-0.1,0.1-0.1,0.5-0.7l0.1,0c0.2-0.1,0.2-0.1,0.5-0.5c0.1,0.6-0.4,1.1-0.4,1.7c0,0.1,0,0.3-0.1,0.4c-0.1,1-0.1,1,0.1,1.1
					c-0.3,2.2-0.3,2.2-0.4,2.5c-0.3,0.1-0.6,0.3-0.9,0.3c-0.1,0.1-0.1,0.1-0.2,0.2c0,0.3,0,0.5,0,0.8l0.1,0.1c0.1,0,0.2,0,0.3,0.1
					c0.1-0.2,0.1-0.4,0.2-0.6c0.4-0.3,1.2-1.5,1.2-1.5c0.1-0.2,0.1-0.2,0.1-0.3c-0.1,0-0.2,0-0.2,0c0-0.1,0-0.2,0-0.2
					c0,0,0.1-0.1,0.1-0.2c0.1-0.1,0.2-0.1,0.3-0.1c0,0.1,0.1,0.2,0.1,0.3c0,0,0,0,0.4-0.8l-0.1-0.1c0-0.4,0-1,0-1l-0.1-0.1
					c0-0.5,0.1-1,0.2-1.6c0-0.1,0-0.1,0-0.1c0.1-0.2,0.1-0.2,0.2-0.5c0,0-0.1,0-0.2-0.1c0-0.1,0.1-0.3,0.2-0.4l0.1-0.2
					c0.1-0.1,0.1-0.2,0.1-0.2c0.2-0.5,0.2-0.5,0.3-0.6l0.1,0.1c0,0-0.4,1-0.2,2.5c-0.1,0.4,0.2,0.8,0.1,1.1
					c-0.2,0.8-0.6,1.6-0.8,2.4c0.1,0,0.1,0,0.2,0.1c0,0.3-0.1,0.5-0.2,0.8c-0.1,0-0.1,0-0.2,0c0,0,0-0.1,0.1-0.2c0,0-0.1,0-0.2,0
					c-0.1,0.5-0.1,0.7,0,0.9c0.1-0.1,0.1-0.2,0.2-0.2l0.1-0.1c-0.1,0.4-0.1,0.8-0.2,1.2c0.1,0.2,0.1,0.2,0.2,0.2c0.1,0,0.1,0,0.2,0
					c0.1-0.1,0.2-0.3,0.3-0.4c0-0.1,0.1-0.2,0.1-0.2c0-0.2,0-0.3,0.3-0.4c0,0,0,0.1,0.1,0.2c0.1,0.1,0.1,0.1,0.2,0.1
					c0.1-0.1,0.1-0.1,0.3-0.7c0.1,0,0.1,0,0.2,0c0.2-0.3,0-0.5,0-0.6c-0.1,0.3-0.1,0.3-0.2,0.5c-0.1,0-0.1,0-0.2,0
					c0-0.3,0-0.3,0.2-1c-0.2-0.2-0.2-0.5-0.1-0.6c0-0.1,0-0.1,0.1-0.2l0.1-0.1l0.1,0.1c0,0.1,0.1,0.2,0.1,0.3c0.1,0,0.1,0,0.1,0
					l0.1,0c0.2-0.2,0.1-0.5,0.4-0.7c0.1,0,0.2,0,0.3,0.1c0.1,0.1,0.1,0.2,0.1,0.3c0,0,0.1,0,0.1,0.1c0,0.1-0.1,0.2-0.1,0.3l0.1,0.1
					l0,0.3c-0.6,0.3-0.2,0.9-0.4,1.4c0,0.1-0.1,0.2-0.1,0.3c0,0.1,0,0.1-0.1,0.2c0,0.1,0,0.1,0,0.5l0,0.1l0,0l0,0.1l0,0.1l0,0.1
					c0,0.1-0.1,0.3-0.1,0.4l-0.1,0.1l-0.1,0.1c-0.1,0.3-0.1,0.3-0.1,0.5l0,0.1l0,0.1c0.1-0.1,0.1-0.2,0.2-0.3l0.1-0.2
					c0-0.1,0.1-0.2,0.1-0.3c0,0,0-0.1,0.1-0.2c0.1-0.1,0.1-0.1,0.1-0.1l0,0l0,0.1l0,0.1l0,0.1c0,0.1,0.1,0.2,0.1,0.3l0,0.1l0,0.1
					l0,0l0,0c0,0,0.1,0,0.2,0l0,0.1c0.1,0,0.1,0,0.1,0l0.1,0l0.1-0.1l0-0.1l0-0.1c0.1-0.3,0.1-0.3,0.2-0.5l0.1-0.1l0.1-0.1
					c0,0,0.1,0,0.2,0l0.1,0.1c0,0.1,0,0.2,0.1,0.2c0,0.1,0.1,0.2,0.1,0.3l0,0.1l0,0.1l0,0l0.1,0c0.2,0,0.5,0,0.7,0.1
					c0-0.1,0.1-0.2,0.1-0.3l0-0.1c0-0.1,0.1-0.2,0.1-0.3l0.1,0l0.1,0l0.1,0c0.1,0,0.1,0.1,0.2,0.1c0,0.1,0,0.2,0.1,0.2
					c0.1,0,0.1,0,0.2,0l0.1,0l0-0.1l0.1-0.1l0,0c0,0.1,0,0.2,0,0.2l0,0.1c-0.1,0.3-0.1,0.3-0.2,0.6c-0.3,0.5-0.3,0.8-0.3,1l0,0.1
					c0,0.3,0,0.3-0.1,0.5l-0.1,0.1l0,0.1c0,0.1-0.1,0.2-0.1,0.3l-0.1,0.1c-0.4,0.5-0.4,0.5-0.5,0.6l-0.1,0.1L417,151l0,0.1
					c2.1,0.3,4.6,0.4,7.4,0.6C426.6,151.8,428.8,151.9,431.2,152 M494.3,136.1c-0.5-1-1.5-1.8-2-2.8c-0.1-0.1-0.1-0.2-0.1-0.2
					c0,0-0.2-0.5-0.4-0.6l0,0h0l0,0l0,0h0l0,0h0l0,0c-0.4-0.3-0.5-0.8-0.8-1.2c-0.1,0-0.1,0-0.2,0c0.2,0.3,0.4,0.7,0.6,1
					c-0.1,0-0.2,0-0.2,0.1c0,0.1,0,0.1,0.1,0.2l0.1,0.1c0,0.1,0.1,0.1,0.1,0.2c0.1,0.2,0.2,0.2,0.2,0.4c0,0.1-0.1,0.1-0.2,0.1
					c-0.1,0-0.1,0-0.5-0.8c0,0-0.1-0.1-0.1-0.1c-0.5-0.4-1.1-0.6-1.5-1c-0.2,0-0.3,0-0.4,0c0.1,0.2,0.2,0.5,0.4,0.7
					c-0.2,0-0.3,0-0.5,0c0,0-0.3-0.7-0.8-0.7l0.1,0.1c0.1,0.1,0.1,0.2,0.2,0.3l0,0.1c-0.1,0-0.2,0-0.2,0c-0.1-0.1-0.1-0.1-0.1-0.2
					c-0.1-0.5-0.1-0.5-0.4-0.7c0,0.1-0.1,0.2-0.1,0.2c-0.1,0-0.1,0-0.1,0l-0.1,0c-0.3-0.1-0.3-0.4-0.3-0.6c0.4-0.2,0.3-0.8,0.8-0.9
					c0.1-0.3-0.3-0.6,0-0.9c-0.1-0.4-0.1-0.4,0.1-0.7l0-0.1c0.1-0.1,0.1-0.1,0-0.9l0.1-0.1c0.1,0,0.2,0,0.3,0
					c-2.8,0-6.1,0.2-9.5,0.2c2.2,5.2,4,11.3,5.3,18c0.2,0,0.3,0.1,0.5,0.2c0.1,0,0.1,0,0.1,0h0h0h0h0h0h0l0,0
					c0.5,0.1,0.5,0.2,0.6,0.5c0,0.2,0,0.2,0,0.3c0,0.2,0,0.2-0.2,0.3c0.1,0.3-0.1,0.6,0,0.8c0.1,0,0.2,0,0.3,0l0.1-0.1
					c0.5-0.6,0.8,0.8,1.2,1.2c0.1,0.4,0.1,0.7,0.2,1c-0.1,0.2-0.3,0.4-0.3,0.7c0,0.2,0.1,0.4,0.1,0.5c0.3,0,0.6,0,0.8,0
					c0.2-0.1,0.4-0.3,0.6-0.4c0.2-0.2,0.5-0.3,0.7-0.6c0.2,0,0.2,0,0.3-0.2c-0.1-0.7-0.1-0.7-0.1-0.9c0-0.2-0.1-0.4-0.1-0.5
					c-0.2,0-1.4-1.4-1.4-1.4c-0.1-0.2-0.1-0.2-0.2-1.6c0.1,0,0.1,0,0.4-0.1c0.1,0,0.1,0,0.2,0c0.1,0,0.2,0,0.3,0
					c-0.1-0.5-0.2-1-0.3-1.5c0-0.4,0-0.4,0.1-0.5c0.5,0,0.3-0.7,0.7-0.9c0.5-0.3,0.6,0.7,1.1,0.4c0.5-0.2,0.7-0.7,0.7-0.7
					c0.5,0,0.5,0,1.1-1.6c0.2-0.6-0.2-1.4,0.5-2l0-0.1c0.6-0.2,0.3-0.8,0.5-1.1c0-0.1-0.1-0.2-0.1-0.2l0,0c-0.1-0.2-0.1-0.2-0.2-0.5
					c0-0.1-0.1-0.1-0.1-0.2c0.1-0.4,0.1-0.4-0.1-0.7c-0.1-0.1-0.1-0.2-0.1-0.3l-0.1-0.1c0-0.1-0.1-0.1-0.1-0.2
					c-0.1-0.3-0.2-1.2-0.2-1.2l0.1,0c0.1,0.1,0.2,0.1,0.3,0.2c0,0,0.9,0.6,2.2,5.4c0.1,0,0.2,0,0.2,0l0.1-0.1c0-0.1,0-0.2,0-0.3
					c0-0.1,0-0.2,0-0.3l0.1,0c0.2,0.4,0.2,0.5,0.7,0.6c-0.2-0.5-0.8-0.7-1-1.2c-0.2-0.5-0.3-1-0.5-1.5c0.1-0.1,0.1-0.1,0.1-0.4
					l0.1,0c0.2,0.1,0.3,0.2,0.5,0.3C494.3,136.3,494.3,136.2,494.3,136.1 M498.3,129.1l-0.2-0.3c-0.9-0.8-0.9-0.8-1.2-1.2
					c0,0,0,0,0-0.1c-0.1-0.1-0.2-0.3-0.3-0.3l0,0l0.1,0.1l-0.1,0c-0.6-0.7-0.6-0.9-0.6-1c-0.3,0-0.7,0-1,0.1c0,0,0.2,0.5,0.2,0.6
					c-0.1,0-0.1,0-0.2,0c0,0.1-0.1,0.2-0.1,0.3l-0.1,0c0,0.1,0,0.2,0.1,0.3c0.1,0.1,0.2,0.1,0.3,0.4c0.1,0.2,0.1,0.4,0.2,0.6
					c0,0,0.1,0.1,0.2,0.3l1.8,2.7c0.1,0.1,0.1,0.1,0,0.2c0.2,0.2,0.4,0.4,0.6,0.6c0.2,0.4,0.5,0.8,0.7,1.2l0.1,0.1l0,0v-0.1
					c0.1-0.1,0.2-0.2,0.3-0.2c-0.1-0.2-0.3-0.4-0.4-0.6c-0.1-0.2,0-0.4-0.1-0.6c-0.1-0.2-0.1-0.2-0.1-0.3l0.1,0l0.1,0.1l0.1,0l0.1,0
					c0-0.1-0.1-0.3-0.1-0.3c-0.2-0.3-0.3-0.5-0.5-0.8c0-0.1-0.1-0.2-0.1-0.4c0.2,0,0.3-0.1,0.5-0.1c-0.1-0.1-0.2-0.3-0.3-0.4
					c-0.1-0.2-0.3-0.3-0.4-0.4c0,0-0.1-0.1-0.1-0.1c0,0-0.1-0.1-0.1-0.1l-0.2-0.6c0.1,0,0.1,0,0.3,0.2l0.1,0.1
					C498.3,129.1,498.3,129.1,498.3,129.1 M470.9,114.8c-0.1-0.1-0.2-0.2-0.3-0.3v0l0,0v0.1c0.1,0,0.2,0.1,0.2,0.2L470.9,114.8
					L470.9,114.8 M478.5,127.3c-2.1-4.9-4.6-9.1-7.4-12.2c-0.1,0-0.3,0-0.4,0c-0.1,0.1-0.3,0.2-1-0.1c-0.1,0-0.1,0.1-0.2,0.1
					c-0.1,0-0.1-0.1-0.2-0.1c-0.1-0.2-0.2-0.2-0.2-0.3c-0.3-0.2-0.3-0.2-0.6-0.1l-0.1,0c-0.2,0-0.3,0-0.4,0l-0.1,0
					c-0.1,0-0.1,0-0.2,0c-0.2,0.1-0.2,0.1-0.3,0.1c-0.2-0.1-0.3-0.2-0.5-0.3c0,0.1-0.1,0.1-0.1,0.2c-0.1,0-0.2,0-0.2,0l-0.1-0.1h0.2
					l0.1-0.2c0-0.2,0-0.2,0-0.2c-0.1,0-0.1-0.1-0.2-0.1c-0.1,0-0.1,0.1-0.2,0.1c0,0.1,0,0.1,0,0.2c-0.2,0.2-0.4,0.2-0.5,0.2l0,0
					c0,0,0.1,0.1,0.1,0.2c0,0.1,0.1,0.1,0.1,0.1l-0.1,0.1c0,0-0.1,0-0.1,0c-0.1,0-0.3,0-0.4,0.1c-0.2,0-0.2,0-0.3,0
					c-0.2,0-0.2,0-0.2,0l0,0c0.2-0.2,0.6-0.7,0.6-0.7c0.1,0,0.1,0,0.2,0l0.1-0.1c0.1-0.1,0.2-0.1,0.2-0.1c0.1,0,0.1,0,0.2,0
					c0-0.1,0-0.1,0-0.2c0-0.1,0.1-0.1,0.3-0.1c0-0.1-0.1-0.1-0.1-0.2c0-0.1,0-0.1,0-0.1c-0.1-0.1-0.2-0.2-0.3-0.3
					c-0.1-0.1-0.1-0.1-0.1-0.1c-0.2-0.2-0.5-0.3-0.7-0.5c-0.1,0-0.3,0-0.4,0c-0.1,0-0.3,0-0.4,0.1c-0.1-0.1-0.3-0.1-0.4-0.1
					c0,0.1,0.1,0.1,0.1,0.2c-0.1,0-0.1,0-0.2,0l-0.1,0l0-0.1c0-0.1,0-0.1-0.1-0.2c-0.1,0-0.2,0-0.3,0c-0.1,0-0.1,0-0.2,0
					c0-0.1-0.1-0.1-0.1-0.2c0.1-0.1,0-0.1,0-0.2c-0.2,0-0.4,0-0.6,0c-0.1,0-0.3,0.1-0.4,0.2c0,0.2,0,0.2,0,0.2
					c0,0.1-0.1,0.1-0.1,0.2c0,0.1,0.1,0.1,0.1,0.2c-0.2,0-0.4,0-0.6,0c-0.1,0.2-0.1,0.2-0.1,0.2l0,0h0h0l0,0h0v0l0,0
					c0,0,0,0.1,0,0.1c-0.1,0.1-0.1,0.1-0.7-0.1c-0.1,0-0.1,0-0.1,0c-0.1,0-0.1,0-0.2,0c-0.1,0.1-0.2,0.2-0.3,0.3c-0.1,0-0.2,0-0.3,0
					c-0.2,0.1-0.4,0.2-0.6,0.3c-0.1,0-0.1-0.1-0.2-0.1c-0.4,0.2-1.4,0.7-1.4,0.7c0.1,0.1,0.2,0.2,0.3,0.3c0,0.1,0,0.1,0,0.1
					c-0.6,0.1-0.6,0.1-0.8,0.2c-0.2-0.1-0.2-0.1-0.6,0c-0.2,0-0.3,0-0.4,0l-0.2,0.1c-0.2,0.1-0.3,0.1-0.5,0.1
					c-0.1,0-0.1,0.1-0.2,0.1c0,0.1,0.1,0.3,0.1,0.4c0,0.1,0,0.1,0,0.1c0,0.1,0,0.1,0,0.2c0.1,0,0.1,0.1,0.2,0.1l0.1,0
					c0.1,0,0.1,0,0.2,0.1c0,0.1,0,0.1,0,0.2c0,0.1,0,0.1,0,0.1c0,0-0.1,0.1-0.2,0.1c-0.2-0.1-0.4-0.2-0.5-0.3l0-0.2
					c-0.2,0-0.4,0-0.5,0l-0.1-0.2c-0.4-0.1-0.7,0.2-0.7,0.2c0.1,0,0.3,0.1,0.3,0.2c-0.1,0-0.1,0.1-0.2,0.1c0,0-0.1-0.1-0.2-0.1
					c-0.1,0-0.2,0-0.2,0c-0.1,0.1-0.2,0.2-0.3,0.2c0,0.1,0,0.1,0,0.2c0.1,0,0.1,0,0.2,0h0h0h0h0h0l0,0h0c0.3,0.1,0.3,0.1,0.4,0.4
					c-0.1,0-0.1,0-0.9-0.3c0-0.1,0-0.1-0.1-0.2c0.1-0.1,0.1-0.2,0.2-0.3c0.3-0.6,0.3-0.6,0.3-0.7c-0.1-0.1-0.1-0.1-0.1-0.1h0h0h0h0
					h0h0h0c-0.2,0.4-0.2,0.4-0.3,0.5l-0.1,0.1c-0.4,0-0.8,0.4-0.9,0.5l0,0c0.1,0.7,0.1,0.7-0.3,1l0,0c0,0.2-0.1,0.4-0.2,0.6
					c0.2,0.2,0.4,0.2,0.5,0.2c0.1-0.1,0.2-0.2,0.3-0.3c0.1,0,0.1,0,0.1,0c0.8,0.9,0.7,1,0.2,1.3c0.1,0.1,0.1,0.1,0.2,0.2
					c0.1,0.1,0.2,0.1,0.4,0.1l-0.1,0.1c-0.1,0-0.1,0-0.2,0.1c-0.2,0-0.2,0-0.2,0c-0.1-0.1-0.2-0.2-0.2-0.3c0.1-0.2,0.1-0.2,0.1-0.3
					c0-0.1,0-0.1,0.1-0.2l-0.1-0.2c0-0.1,0-0.1,0-0.2c-0.4-0.2-1.2-0.5-2.1,1.5c-0.1,0-0.1,0-0.8,0.3c-0.1,0.1-0.1,0.1-0.1,0.2
					c-0.2,0.2-0.2,0.2-0.6,0c-0.3-0.1-0.5-0.1-0.7-0.1l-0.1-0.1c0.6-0.5,1.5-0.4,2.1-0.9c0.2-0.1,0.4-0.1,0.8-0.9
					c-0.1,0-0.3,0-0.4-0.1c0-0.1,0-0.1,0.4-0.8l0-0.1c0.4-0.5,0.4-0.5,0.5-1.1c0.1-0.3,0.2-0.5,0.3-0.7c0.1,0,0.2,0,0.3,0l0.3-0.5
					c-0.1,0-0.3-0.1-0.4-0.1c-0.1,0-0.1,0-0.2,0c-0.3,0-0.5,0.1-0.8,0.1c-0.5,0.6-0.9,0.9-1.3,1.1c-0.2,0-0.2,0-0.2,0
					c-0.1,0-0.1,0.1-0.2,0.1c-0.1,0.1-0.1,0.1-0.1,0.1c0,0.1,0,0.1,0,0.1c0,0.5-0.3,0.6-0.3,0.6c-0.1,0.1-0.2,0.2-0.3,0.3
					c0.3,0.1,0.3,0.2,0.2,0.5c0,0.1,0.1,0.1,0.1,0.2c0.1,0.4,0.1,0.4-0.3,0.6c-0.1,0-0.1,0-0.1,0c-0.1,0-0.1,0-0.2,0
					c0-0.1-0.1-0.1-0.1-0.2c0-0.1,0.1-0.2,0.1-0.2c-0.4-0.2-0.4-0.2-0.5-0.3c-0.3,0-0.3,0-0.5-0.3c-0.2-0.1-0.4-0.1-0.5-0.1
					c0-0.1,0-0.1,0-0.2c-0.2,0-0.3,0-0.4,0c-0.1-0.1-0.1-0.3-0.2-0.4c0-0.1-0.1-0.1-0.1-0.2c-0.1,0-0.1,0-0.1,0c0,0,0,0-0.5,0.6
					c0.1,0,0.1,0.1,0.2,0.1c0.1,0.6,0.1,0.6-0.2,0.8c-0.2,0-0.2,0-0.3,0c-0.2,0.1-0.3,0.4-0.6,0.3c0.1-0.2,0.3-0.3,0.4-0.5
					c0-0.1,0-0.1-0.1-0.1c-0.2,0.1-0.2,0.1-0.5,0.3c-0.2,0-0.2,0-0.2,0c-2.3,2.5-4.2,5.4-5.9,8.8C451,127.6,466.1,127.6,478.5,127.3
					 M432.5,162.4L432.5,162.4c0-0.3,0-0.5-0.1-0.6c-0.1-0.1-0.3-0.1-0.4-0.2c-0.1-0.1-0.1-0.1-0.2-0.3c0-0.1,0-0.2-0.1-0.3
					c-0.1-0.3-0.3-0.5-0.6-0.4c0,0-0.4,0-0.1-0.4c0.1-0.3,0.1-0.4,0.1-0.4c0,0-0.3-0.2-0.3-0.2c-0.1,0-0.2,0-0.3,0
					c0,0.5,0,0.5-0.1,0.6c-0.1,1.7-0.2,3.3-0.2,5c0,0,0,0,0.2,0c0.1,0,0.1,0,0.2,0c0.1,0,0.1,0,0.2,0c0-0.1,0.1-0.2,0.1-0.4
					c0.2-0.7,0.3-0.9,0.6-0.9l0.1,0c0.1,0.1,0.1,0.1,0.1,0.2c0,0,0.1,0,0.2,0.1c0-1.1,0.2-1.5,0.2-1.6c0-0.1,0-0.1,0.3-0.1
					C432.2,162.5,432.3,162.4,432.5,162.4 M483.9,155.4c0-0.2-0.1-0.4-0.2-0.5c-0.2,0-0.4-0.1-0.5-0.1c0-0.2,0-0.4,0-0.5
					c0.1-0.1,0.2-0.1,0.3-0.1c-0.2-0.5-0.4-1.1-0.6-1.6c-16.4,0.2-35.9,0.1-51.6-0.5c-0.3,1.8-0.5,3.7-0.7,5.5
					c0.2,0.8,0.2,0.8,0.4,0.9c0.3,0,0.6,0,0.9,0c0,0,0,0,0.9,0.5c0.4,0,0.6,0,0.9,0c0.1,0,0.2,0.1,0.2,0.1c0.6,0,1,0.1,1.5,0.1
					l1-0.2c0.3,0,0.6,0,0.9,0c0.5,0.4,0.8,0.6,1.9,2.3c0.2,0,0.3,0,0.3,0c0.3,0,0.3,0,1.1,0.4c-0.8,0-0.9,0.1-1.1,0.3
					c0,0.1,0.1,0.2,0.1,0.2c0.7,0.2,0.8,1.1,1.5,1.2c0.3,0,1-0.8,1.1-0.8c0.8,0.1,0.9,1.5,0.9,2.3c0,0.1,0,0.3,0,0.4
					c-0.2,1.6-0.2,1.6,1.8,5.8c0,0.3,0,0.4,0,0.4c-0.2,1.4,1,2.2,1.4,3.4c0.6,0.5,0.6,0.5,1.4-0.9c0.8-0.1,0.9-0.5,1.3-3.4
					c0-0.4,0-0.7,0-1.1c0-1,0-1,1.2-1.3c0.7-1.3,2.3-1.8,2.9-3.2c0.2,0,0.4-0.1,0.5-0.1c0.1-0.4,0.2-0.5,0.5-0.5h0h0h0h0l0,0h0h0h0
					c0.4-0.1,0.4-0.1,0.6-1.2c0.3-0.2,0.6-0.2,0.9-0.2c0.1,0,0.2,0.1,0.3,0.1c0.2,0,0.3,0,0.3,0c0.3-0.2,0.7-0.3,0.9-0.5
					c0.4-0.2,0.7-0.1,1-0.1c0-0.2,0-0.4,0-0.6c0.2,0,0.4,0.1,0.5,0.1c0.3,0.7,0.5,1.6,1,2.3c0.6,0.5,0.6,0.5,0.8,0.8
					c0,0.1,0,0.2,0,0.2c0,0.2,0,0.4,0,0.6v0c0.3-0.1,0.4-0.1,0.7,0.2c-0.2,2.3-0.2,2.3,0.6,2.3c0.1,0,0.2,0,0.2,0
					c0.3-0.2,0.3-0.2,0.8-0.4c0.3-0.1,0.3-0.2,0.3-0.2c0-0.1,0-0.1,0-0.2c0.1-0.1,0.2-0.1,0.2-0.2c1,0.3,0.5,1.6,1.2,2.1
					c0,0.3,0,0.3-0.2,0.8c0.6,2.6,0.6,2.6,0.2,2.8c-0.1,0.4-0.1,0.4-0.1,0.8c0,0.1,0,0.1,0,0.2c-0.6,2.1,1.8,2.8,2.1,4.5
					c0,0.3,0,0.6,0,1c0.5,1.3,2.5,2.1,2.5,2.1c0.1,0,0.2,0,0.2,0c0-0.1,0.1-0.2,0.1-0.3c-0.1-0.1-0.2-0.3-0.4-0.4
					c-0.4-0.6-0.5-2.5-0.5-2.5c0-0.1,0-0.1,0-0.2c0-0.2,0-0.3,0-0.4c0-0.3,0-0.5,0-0.6c-1.6,0.1-1.5-1.8-2.6-2.3c0-0.1,0-0.2,0-0.3
					c0-0.2,0-0.2,0-0.3c-0.1-0.2-0.3-0.3-0.5-0.4c0-0.3,0-0.6,0-0.9c0.3-0.7,1.2-2.4,1.2-2.4c0.3,0.3,0.4,0.8,0.8,1.1
					c0.2,0,0.2,0,0.2,0c0.1-0.1,0.4-0.1,0.5-0.1c1.1,2,1.1,2,1.8,2.2c0.1,0.1,0.1,0.2,0.2,0.3c-0.4,0.7-0.2,1.1,0,1.5
					c0.4-0.5,1.7-2.1,1.7-2.1c0.3,0.1,1.9,0.2,1.9-2.2c0-0.4,0-0.6,0-0.8c0-0.6-0.3-1.2-0.3-1.8c-0.5-0.2-0.5-0.2-1.2-1.1
					c-0.6-0.5-0.8-1.2-1.3-1.7c0.1-0.8,0.1-0.8,0.5-1.1c0.3-1.5,0.3-1.5,2.6-1.7c0.1,0.1,0.1,0.1,0.1,0.2c0,0.5,0,0.9,0,1.2
					c-0.9,1.2-0.9,1.2-0.8,1.5c0.6,0,1.1,0,1.5,0c0-0.5,0.3-1,0.3-1.5c-0.1,0-0.2-0.1-0.3-0.1c0-0.4-0.1-0.8-0.1-1.2
					c0.1,0,0.2,0,0.3,0c0.2,0,0.2,0,0.3,0c0.8-0.5,0.8-0.5,1.2-0.6c0.1,0,0.1,0,0.2,0C479.3,163.2,483.4,158.5,483.9,155.4
					 M420.3,125.4L420.3,125.4c0,0-0.2,0.1-0.7,0.7l-0.1,0.1c0.1-0.1,0.2-0.2,0.3-0.3l0,0l0,0C420,125.7,420.1,125.6,420.3,125.4
					 M415.7,131.5c0.1-0.1,0.1-0.2,0.2-0.3c0.1-0.2,0.3-0.4,0.4-0.6c-0.1,0.1-0.2,0.3-0.4,0.4c0-0.1,0-0.1,0.6-0.8l0,0
					c0.1-0.1,0.1-0.1,0.7-0.9c0,0,1.2-1.6,1.3-1.7c0,0,0.1-0.1,0.1-0.2c0.1-0.1,0.3-0.3,0.4-0.4c0.2-0.2,0.3-0.4,0.5-0.5l0-0.1
					c0.3-0.3,0.6-0.5,0.9-0.9l0,0l0,0l0,0l0,0c-0.2,0.2-0.4,0.4-0.5,0.5c-0.4,0.5-0.4,0.5-0.5,0.5c0-0.1,0.1-0.1,0.1-0.2
					c-0.2,0.2-0.4,0.5-0.7,0.7l-0.1,0.1c-0.2,0.3-0.5,0.5-0.7,0.8l0,0l0,0c-0.1,0.1-0.1,0.2-0.2,0.3v0c0.1-0.1,0.2-0.2,0.2-0.3
					c-0.3,0.4-0.6,0.7-0.9,1.1l0,0l0.1-0.1c-0.2,0.3-0.5,0.6-0.7,0.9c-0.2,0.2-0.3,0.5-0.6,0.7c0-0.1,0.1-0.1,0.1-0.1l0,0
					c0,0-0.1,0.1-0.1,0.1l-0.1,0.1c-0.2,0.2-0.2,0.2-0.2,0.2l0,0c0,0,0,0.1-0.2,0.3l0,0c-0.1,0.1-0.1,0.2-0.2,0.3l0,0l0,0l0,0l0,0v0
					h0v0v0c-0.3,0.4-0.3,0.4-0.3,0.4c0.1-0.1,0.1-0.1,0.1-0.1c-0.3,0.5-0.3,0.5-0.5,0.7l0,0c0,0-0.5,0.7-0.6,0.8l0.1-0.1
					c0.1-0.1,0.1-0.1,0.2-0.2l-0.1,0.1l0,0c0.1-0.1,0.2-0.3,0.3-0.4l0,0l0,0l0,0l0,0c0.1-0.1,0.1-0.2,0.2-0.2c0,0.1-0.1,0.2-0.1,0.3
					l0,0l0.1,0c0.1-0.1,0.1-0.2,0.2-0.2l0,0l0.1-0.1c0.1-0.2,0.2-0.3,0.3-0.5l0.1-0.1C415.4,131.8,415.5,131.6,415.7,131.5
					L415.7,131.5 M416.9,129.1L416.9,129.1L416.9,129.1L416.9,129.1L416.9,129.1 M416.8,129.3c0.4-0.4,0.4-0.5,0.7-0.9v0
					c-0.1,0.1-0.2,0.2-0.2,0.3c0.1-0.1,0.1-0.2,0.2-0.3l0,0c-0.5,0.6-0.5,0.6-2.3,2.9l-0.3,0.5v0c0.1-0.1,0.2-0.3,0.3-0.4l0,0.1
					c0-0.1,0.1-0.1,0.2-0.2c0.3-0.5,1-1.3,1.1-1.3c0.1-0.1,0.2-0.2,0.2-0.3C416.7,129.5,416.7,129.5,416.8,129.3 M429.8,194
					c0,0,0-0.1-0.1-0.1c-0.8-1.9-0.8-1.9-1.7-2.3c0.2,0.6,0.2,0.6,0.2,0.7c0,0-0.1,0.4-0.4,0.6c-0.3,0.2,0.2,0.5,0.1,0.7
					c-0.2,0-0.2,0-0.2,0c0,0.2,0.2,0.4,0,0.6c-1.1,0-1.1,0-1.3,0.2c0,0.1,0,0.1,0.2,0.5c0,0.1,0,0.1,0.1,0.6c0,0,0.4,1,0.7,1.2
					c0.1,0,0.2,0.2,0.4,0.7l0,0.1c-0.2,0-0.2,0-0.2,0c0,0.5,0.3,0.9,0.4,1.4c0,0,0.1,0.1,0.1,0.1c0.1,0.3,0.4,0.5,0.5,0.7
					c0,0.1,0.1,0.2,0.2,0.3c0.3,0.5,0.3,0.5,0.5,0.8c0.2,0,0.4,0,0.6,0c0.1,0,0.1,0.2,0.3,0.2c0.1,0,1,0.2,1.1-0.1
					c0.2-0.7-0.4-1-0.6-1.6c-0.1-0.3,0.1-0.6-0.1-1c-0.2-0.3-0.4-0.7-0.5-1l0.1-0.1c0,0,0.4-0.4,0.4-0.4c0-0.4-0.4-0.5-0.5-0.8
					c-0.1-0.2,0-0.4,0-0.7c0-0.1-0.1-0.2-0.1-0.3c-0.1-0.1-0.1-0.2-0.2-0.3c0-0.1,0-0.1-0.1-0.1l0-0.1
					C429.8,194.3,429.8,194.3,429.8,194 M425.5,172.4c0-0.2,0-0.5-0.2-0.8c-0.9-0.2-1.6,1-2.6,0.6c-0.1,0-0.2,0-0.3,0
					c-0.9,0.1-1,0.1-1.5-0.2c-0.4-0.9-0.4-0.9-0.4-1.1c-0.1-0.1-0.2-0.1-0.3-0.2c-0.3-1-0.3-1-0.8-1.2c-2.9-4.9-2.9-4.9-2.7-5.6
					c0-0.1,0-0.3,0-0.7c-0.4-6.9-2.1-10.5-2.2-10.9c0,0-0.1,0-0.4,0.1c-0.1,0.1-0.2,0.1-0.3,0.2l-0.1,0c-0.5-0.2-1.2-0.6-1.7-0.7
					c-0.4-1.3-0.4-1.3-0.7-1.5c-0.1,0-0.2,0.1-0.3,0.1c-0.1,0-0.2-0.1-0.3-0.1c-0.6,2.2-0.6,2.2-0.8,2.3c0,0-0.1,0-0.2,0
					c-0.1-0.3-0.1-0.6-0.3-0.9c-0.2,0-0.4-0.1-0.6-0.4c0.2-1-0.2-1.2-0.5-1.4c-0.3-1.6,1.3-2.7,0.9-4.3c-0.3,0.1-0.5,0.3-0.8,0.3
					c-0.1,0.1-0.2,0.2-0.2,0.2c0-0.2,0-0.5-0.1-0.6c-0.1,0.1-0.3,0.4-0.4,0.5c-0.1,0-0.1-0.1-0.2,0.1c-0.2,0.6-0.2,0.6-0.5,0.8
					c0,0,0,0,0-0.1c0,0,0,0,0-0.1c0-0.1,0.1-0.2,0.1-0.3c0-0.1,0-0.1,0.1-0.2c-0.2,0.5-0.2,0.6-0.5,1.6c-0.6,2.1-1.2,4.9-1.7,7
					c-0.5,3-0.5,3-0.8,9c0,1.5,0.1,3.5,0.2,4.9c0.2,1.8,0.6,4.2,0.8,6l0-0.1c0,0,0,0,0.1,0.1c0.1,0.1,0.1,0.2,0.2,0.3
					c0-0.2,0-0.4,0.1-0.6c0,0,0,0,0-0.2c0.1-0.1,0.1-0.2,0.2-0.3c0.4,1.6,0.4,1.6,0.6,1.9c0.2,0.1,0.4,0.1,0.7,0.2
					c0.1,0.4,0.2,0.7,0.2,1.1c0.6,3.7,2.8,6.7,4,10.2c0,0.1,0.1,0.2,0.1,0.3c3.6,7.5,3.6,7.5,6.3,10.3c0.3,0.5,0.7,1,1.1,1.4
					c1.7,2,5,4.9,5,4.9l0.1,0.1c0.3,0.4,0.3,0.5,0.7,0.7c0,0,0.1,0,0.2,0.1c0.3,0.3,0.4,0.4,0.8,0.6c0.2,0,0.3,0,0.6-0.2
					c0.2,0,0.5,0.1,0.6-0.1c0-0.2,0-0.4,0.1-0.6l-2.3-4.7c0.1,0,0.2-0.1,0.3-0.1c0-0.8,0-0.8,0.1-1c-1.8-2.7-1.8-2.7-2-4.5
					c0.1-0.1,0.4-0.2,0.6-0.3c0.4-0.6,0.4-0.6,0-2.1c-0.1-0.2-0.1-0.3-0.3-0.7c-0.1-0.2-0.2-0.4-0.3-0.6c-0.2-0.6-0.5-1.2-0.9-2
					c-0.8-0.9-0.9-2.2-1.6-3.2c0-0.1,0-0.1-0.1-0.4c0-0.2-0.1-0.4-0.1-0.6l2.7-6.4C425.1,178,425.5,174.5,425.5,172.4 M455.6,109
					L455.6,109L455.6,109L455.6,109 M452.7,109.3c-0.2,0-0.5,0.1-0.7,0.1c-0.1,0-0.1,0-0.1,0c-0.3,0-0.6,0.1-0.9,0.1v0
					c0.1,0,0.1,0,0.2,0c-0.3,0-0.3,0.1-0.5,0.1l-0.1,0l-0.2,0c-1.2,0.2-1.4,0.2-2.3,0.4c0,0,0,0,0,0c-0.2,0-0.4,0.1-0.6,0.1
					c-0.1,0,0,0,0,0c-0.6,0.1-1,0.2-1.2,0.3c-0.3,0.1-0.6,0.1-0.8,0.2c0.2,0,0.3-0.1,0.5-0.1c-0.3,0.1-0.7,0.2-0.8,0.2l0,0l0.1,0
					c-0.2,0.1-0.4,0.1-0.6,0.2c-0.1,0-0.1,0-0.1,0l0.1,0c-0.1,0-0.2,0.1-0.4,0.1c-0.1,0-0.1,0-0.2,0c-0.1,0-0.2,0.1-0.3,0.1
					c-0.1,0-0.1,0-0.2,0.1l0.2-0.1l0.1,0c2.5-0.7,5.3-1.5,10.5-2.1l0,0c0.1,0,0.2,0,0.3,0l0.1,0l0.1,0l0.1,0c0.1,0,0.2,0,0.2,0
					c0.1,0,0.1,0,0.2,0l0.1,0l0,0l0,0l0,0l0,0l0,0c0.1,0,0.2,0,0.3,0l0.1,0c0.1,0,0.2,0,0.2,0l0.1,0l0,0l0,0l0,0h0l-0.1,0h0l-0.1,0
					l0,0l0,0h0l-0.1,0l-0.1,0l-0.1,0c0.2,0,0.3,0,0.5,0l0.1,0l0.1,0l0.1,0l0,0l0,0l0.1,0c0.1,0,0.2,0,0.3,0h0l0,0l-0.1,0l0.1,0
					l-0.1,0c-0.1,0-0.1,0-0.1,0c0.1,0,0.2,0,0.2,0c-0.2,0-0.3,0-0.4,0l-0.1,0c0,0-0.1,0-0.2,0c0.3,0,0.6,0,0.9,0l0,0
					c-0.1,0-0.1,0-0.1,0c0.1,0,0.2,0,0.3,0c0,0-0.1,0-0.2,0c-0.1,0-0.1,0-0.1,0c-0.1,0-0.2,0-0.2,0h0c-0.2,0-0.4,0-0.6,0
					c0,0,0.1,0,0.1,0c-0.1,0-0.2,0-0.3,0l0,0l-0.2,0l-0.1,0c0.1,0,0.1,0,0.2,0l0,0l0,0l0,0l0,0c-0.1,0-0.2,0-0.2,0
					c-0.1,0-0.1,0-0.1,0l0.1,0c0.1,0,0.1,0,0.1,0c-0.2,0-0.5,0-0.7,0.1l0,0l0.1,0l0,0c-0.1,0-0.3,0-0.4,0c-0.2,0-0.3,0-0.5,0l0,0
					c-0.1,0-0.1,0-0.2,0c0,0,0.1,0,0.1,0c-0.1,0-0.4,0-0.9,0.1l0.1,0l0,0l0,0h0l0,0l0,0l0,0h0h0c0.1,0,0.1,0,0.1,0l0,0l0,0l0,0l0,0
					h0l0,0h0c0.1,0,0.2,0,0.3,0l-0.1,0l-0.1,0l0.1,0c-0.1,0-0.2,0-0.3,0l-0.1,0l0,0c-0.2,0-0.4,0.1-0.6,0.1c0.1,0,0.1,0,0.2,0
					l-0.1,0c0.3,0,0.6-0.1,1-0.1l-0.1,0l0,0c-0.3,0-0.7,0.1-1,0.1c-0.2,0-0.3,0-0.5,0.1c-0.4,0.1-0.8,0.1-1.3,0.2
					c0.5-0.1,0.7-0.1,1.1-0.2h0h0l0,0l0,0h0l0,0l0,0l0,0C452.3,109.3,452.5,109.3,452.7,109.3c-0.1,0-0.2,0-0.3,0
					c0.3,0,0.6-0.1,0.9-0.1c0.1,0,0.1,0,0.1,0h0l0,0l0,0l0,0l0.1,0c-0.1,0-0.1,0-0.2,0c0,0-0.1,0-0.2,0c0.1,0,0.1,0,0.2,0
					C453,109.3,452.8,109.3,452.7,109.3"/>
			</g>
		</g>
		<path id="XMLID_48_" class="st0" d="M173.2,108.7v125.9l-70.9-70.9v50.8h0v6.7h6.7v-41.4l59.5,59.5l11.4,11.4v-142H173.2z
			 M144.8,115.3L144.8,115.3l0-6.7h-6.7V150L67.3,79.2v142H74V95.3l70.9,70.9V115.3z"/>
		<g id="XMLID_42_">
			<g id="XMLID_44_">
				<path id="XMLID_47_" class="st0" d="M28,104.1c8-0.3,16.1-1.9,22.4,5.3c6.9,7.8,8.3,17.9,3.5,28.6
					c-6.8,15.1-18.1,26.8-28.5,39.1c-5.2,6.1-10.5,12.2-14.4,19.1c-5.7,9.9-3.7,18.4,4.8,26.1c-7.3-1.4-14.8-11.5-15.6-20
					c-1-11.2,4.1-20.1,10.3-28.6c8.2-11.1,16.7-22,24.3-33.6c3-4.5,4.5-10.4,5.4-15.8C42,113.2,38.6,108.3,28,104.1z"/>
				<path id="XMLID_46_" class="st0" d="M49.8,221.2c-7.4,0-14.3,0.2-21.3,0c-11.8-0.3-18.2-10-13.6-20.9c1.9-4.4,4.6-8.6,7.7-12.3
					c8.8-10.5,18-20.6,27.1-30.9C49.8,178.1,49.8,199.4,49.8,221.2z"/>
				<path id="XMLID_45_" class="st0" d="M6.9,169.4c0-21.2,0-41.2,0-62.1c6.4,0.5,12.7,0.5,18.8,1.7c6.4,1.2,9.9,7.5,8.9,14.2
					c-1.8,11.6-8.2,21-14.8,30.2C15.9,158.6,11.7,163.4,6.9,169.4z"/>
			</g>
			<circle id="XMLID_43_" class="st0" cx="28.3" cy="73.6" r="24.3"/>
		</g>
		<g id="XMLID_22_">
			<path id="XMLID_39_" class="st0" d="M581,205l-27.1-27.1v43.4h6.7V194l27.2,27.2h9.4L581,205z M635.4,209.9l-32.5-32.5
				c1.1-0.9,2.1-1.8,3.1-2.8c7.5-7.5,11.3-16.7,11.3-27.3c0-10.6-3.8-19.8-11.3-27.3c-7.5-7.5-16.7-11.3-27.3-11.3h-59.9v112.7h6.7
				v-106h53.2c8.8,0,16.3,3.1,22.6,9.4c6.2,6.2,9.4,13.8,9.4,22.6c0,8.8-3.1,16.3-9.4,22.6c-2.7,2.7-5.7,4.9-8.9,6.5l18.6,18.6
				l26.5,26.4h9.4L635.4,209.9z"/>
			<g id="XMLID_23_">
				<path id="XMLID_38_" class="st0" d="M582.2,147.7c0,1-0.3,1.8-1,2.5c-0.7,0.7-1.5,1-2.5,1h-24.8v-7.1h24.8c1,0,1.8,0.3,2.5,1
					C581.8,145.8,582.2,146.7,582.2,147.7z"/>
				<path id="XMLID_25_" class="st0" d="M578.6,154.2h-27.8v-13h27.8c1.8,0,3.3,0.6,4.6,1.9c1.3,1.3,1.9,2.9,1.9,4.6
					c0,1.8-0.7,3.4-1.9,4.6C582,153.5,580.4,154.2,578.6,154.2z M556.8,148.3h21.8c0.2,0,0.3,0,0.4-0.2c0.1-0.1,0.2-0.2,0.2-0.4
					c0-0.2,0-0.3-0.2-0.4c-0.1-0.1-0.2-0.1-0.4-0.1h-21.8V148.3z"/>
			</g>
		</g>
		<path id="XMLID_5_" class="st0" d="M786.2,211.3l-62.7-108.6l-5.8-10l-5.8,10l-62.7,108.6l-5.8,10h7.7l3.9-6.7l10.4-18l52.3-90.6
			l48.1,83.3l14.6,25.3h-0.1l3.8,6.7h7.8L786.2,211.3z M736.9,196l-4.3-7.5l-14.9-25.8l-22,38.1l-0.5,0.9l-7.4,12.9h0l-3.9,6.7h7.7
			l1.9-3.3l24.2-41.9l24.2,41.9l1.9,3.3h7.7L736.9,196z"/>
	</g>
</g>
</svg>
