<?xml version="1.0" encoding="utf-8"?>
<!-- Generator: Adobe Illustrator 19.0.0, SVG Export Plug-In . SVG Version: 6.00 Build 0)  -->
<svg version="1.1" id="Layer_1" xmlns="http://www.w3.org/2000/svg" xmlns:xlink="http://www.w3.org/1999/xlink" x="0px" y="0px"
	 viewBox="0 0 1300 400" style="enable-background:new 0 0 1300 400;" xml:space="preserve">
<style type="text/css">
	.st0{fill:#FFFFFF;}
	.st1{clip-path:url(#XMLID_2_);fill:#FFFFFF;}
</style>
<g id="XMLID_585_">
	<g id="XMLID_4_">
		<g id="XMLID_896_">
			<g id="XMLID_897_">
				<path id="XMLID_898_" class="st0" d="M614.4,135.6l-3.2,5.6l-37.6,65.1L536,141.3l-3.2-5.6h-12.8l18.2,31.7l35.5,61.5l47.3-82
					h51.7l-99,171.4l-83.2-144.1l-12-20.8l-3.8-6.6l-3.2-5.6l-3.2-5.6h-13l9.7,16.9l14.7,25.5l84.2,145.9l9.7,16.9l9.7-16.9
					l99-171.4l9.7-16.9H614.4z"/>
			</g>
		</g>
		<g id="XMLID_885_">
			<g id="XMLID_895_">
				<path id="XMLID_54_" class="st0" d="M361.9,273.7c2.6-8.8,5.7-18.1,9.4-27.6c6.9-18.2,14.6-34.2,23-48c-1.4-1.9-2.3-4.3-2.3-6.8
					c-13.1-2.8-27.3-3.9-42.4-3.3c-0.2,5.3-3.9,9.7-8.9,10.9C342.6,230.2,352.1,255.5,361.9,273.7
					C361.8,273.7,361.8,273.7,361.9,273.7z"/>
			</g>
			<g id="XMLID_894_">
				<path id="XMLID_52_" class="st0" d="M383.8,317.2c-4.8-5.2-10.7-12.2-16.8-21c-1.2,0.5-2.5,0.8-3.9,0.8
					c-1.3,5.2-2.4,9.9-3.3,13.9C367.5,314.1,375.6,316.2,383.8,317.2z"/>
			</g>
			<g id="XMLID_893_">
				<path id="XMLID_37_" class="st0" d="M458.6,230.4c-3.9-4.7-8.5-9.4-13.9-13.9c-9.4-7.9-19.9-14.1-31.5-18.8c-2.1,3-5.6,5-9.6,5
					c-1.1,0-2.2-0.2-3.2-0.5c-9.3,15.2-16.6,31.6-22.2,46.3c-3.5,9.3-6.6,18.4-9.1,27c2.4,1.5,4.2,3.9,5,6.7
					c25.6-1.2,48.8-9.4,69.2-24.6c4.7-3.5,9-7.2,12.9-11c-1.4-1.9-2.2-4.3-2.2-6.9C453.8,235.9,455.7,232.5,458.6,230.4z"/>
			</g>
			<g id="XMLID_892_">
				<path id="XMLID_35_" class="st0" d="M412.9,184c1.4,1.8,2.2,4.1,2.3,6.5c12.7,5,24.2,11.9,34.5,20.6c6.6,5.6,12,11.4,16.5,17
					c1.8,0.1,3.5,0.6,4.9,1.4c8.5-11.3,12.4-19.9,12.5-20.1l1.1,0.5c-3.3-17.9-12.1-35-26.2-48.7c-3-2.9-6.2-5.6-9.4-8
					C435.2,160.1,423.2,171,412.9,184z"/>
			</g>
			<g id="XMLID_891_">
				<path id="XMLID_33_" class="st0" d="M355,276.5c-9.3-17.5-15.7-36.1-19.2-55.4c-1.4-7.5-2.2-15.2-2.7-22.9
					c-3.3-1.5-5.8-4.4-6.7-8c-5.3,0.8-10.8,1.8-16.3,3c-10.5,26.4-8.1,56.7,7.1,81.4c11.9,3.5,23.3,5.9,34.4,7
					C352.3,279.6,353.5,277.9,355,276.5z"/>
			</g>
			<g id="XMLID_890_">
				<path id="XMLID_30_" class="st0" d="M478.2,264c0-0.1-1.9-6-6.5-14.4c-1.8,1.1-3.9,1.8-6.2,1.8c-1.2,0-2.3-0.2-3.3-0.5
					c-4.3,4.2-9.2,8.5-14.6,12.5c-17.4,13-37.2,21.2-58.6,24.5c-5,0.8-10.1,1.3-15.3,1.5c-0.3,0.7-0.6,1.4-1,2
					c8.6,12.5,17,21.4,22.1,26.4c23.9,0.1,47.9-9.2,65.9-27.7c7.6-7.9,13.6-16.7,17.8-26.2L478.2,264z"/>
			</g>
			<g id="XMLID_889_">
				<path id="XMLID_28_" class="st0" d="M476.2,235.1c0.6,1.4,1,3,1,4.7c0,1.2-0.2,2.4-0.6,3.5c2.4,4.1,4.2,7.7,5.5,10.7
					c3.4-10.9,4.7-22.3,3.9-33.5C483.8,224.4,480.5,229.5,476.2,235.1z"/>
			</g>
			<g id="XMLID_888_">
				<path id="XMLID_24_" class="st0" d="M340.5,176.1c2.8,0.7,5.1,2.3,6.8,4.5c3.7-0.2,7.3-0.3,10.9-0.3c12.4,0,24.2,1.2,35.3,3.6
					c0.2,0,0.4,0.1,0.7,0.2c2.1-2.9,5.5-4.8,9.4-4.8c1.1,0,2.2,0.2,3.3,0.5c10.9-13.8,22.7-24.3,35.3-31.1
					c-30.5-18.4-69.2-17.3-98.7,2.9C341.9,160,341,168.2,340.5,176.1z"/>
			</g>
			<g id="XMLID_887_">
				<path id="XMLID_19_" class="st0" d="M327.2,182.6c1.2-2.6,3.3-4.7,5.9-5.8c0.3-6.2,0.9-12.4,1.8-18.7c-1.9,1.6-3.7,3.4-5.5,5.2
					c-6.4,6.6-11.5,13.8-15.5,21.6C318.4,184,322.9,183.3,327.2,182.6z"/>
			</g>
			<g id="XMLID_886_">
				<path id="XMLID_17_" class="st0" d="M356,294.9c-2.1-1.5-3.7-3.6-4.5-6.1c-9-0.9-18.2-2.5-27.6-4.9c2.3,2.9,4.9,5.7,7.6,8.3
					c6.5,6.3,13.8,11.5,21.5,15.5C353.8,303.9,354.8,299.6,356,294.9z"/>
			</g>
		</g>
		<g id="XMLID_56_">
			<g id="XMLID_604_">
				<g id="XMLID_605_">
					<defs>
						<path id="XMLID_606_" d="M754.7,141.6c22.1,0,43.1,8.5,59,23.9c16.3,15.7,25.4,36.8,25.8,59.4c0.4,22.6-8.1,44-23.9,60.2
							c-8.1,8.4-17.7,14.9-28.4,19.3c-10.3,4.3-21.3,6.4-32.5,6.4c-22.1,0-43.1-8.5-59-23.8c-16.3-15.7-25.4-36.8-25.8-59.4
							c-0.4-22.6,8.1-44,23.9-60.2c8.1-8.4,17.7-14.9,28.4-19.3C732.5,143.8,743.5,141.6,754.7,141.6L754.7,141.6 M754.7,135.6
							c-23.7,0-47.4,9.2-65.2,27.6c-34.9,36-34,93.4,2,128.2c17.6,17.1,40.4,25.6,63.2,25.6c23.7,0,47.4-9.2,65.2-27.6
							c34.9-36,34-93.4-2-128.2C800.2,144,777.5,135.6,754.7,135.6L754.7,135.6z"/>
					</defs>
					<use xlink:href="#XMLID_606_"  style="overflow:visible;fill:#FFFFFF;"/>
					<clipPath id="XMLID_2_">
						<use xlink:href="#XMLID_606_"  style="overflow:visible;"/>
					</clipPath>
					<rect id="XMLID_884_" x="654.6" y="135.6" class="st1" width="200.2" height="181.4"/>
					<circle id="XMLID_883_" class="st1" cx="754.7" cy="226.2" r="90.7"/>
					<circle id="XMLID_882_" class="st1" cx="754.7" cy="226.2" r="90.1"/>
					<circle id="XMLID_881_" class="st1" cx="754.7" cy="226.2" r="89.4"/>
					<circle id="XMLID_880_" class="st1" cx="754.7" cy="226.2" r="88.7"/>
					<circle id="XMLID_879_" class="st1" cx="754.7" cy="226.2" r="88"/>
					<circle id="XMLID_878_" class="st1" cx="754.7" cy="226.2" r="87.3"/>
					<circle id="XMLID_877_" class="st1" cx="754.7" cy="226.2" r="86.6"/>
					<circle id="XMLID_876_" class="st1" cx="754.7" cy="226.2" r="86"/>
					<circle id="XMLID_875_" class="st1" cx="754.7" cy="226.2" r="85.3"/>
					<circle id="XMLID_874_" class="st1" cx="754.7" cy="226.2" r="84.6"/>
					<circle id="XMLID_873_" class="st1" cx="754.7" cy="226.2" r="83.9"/>
					<circle id="XMLID_872_" class="st1" cx="754.7" cy="226.2" r="83.2"/>
					<circle id="XMLID_871_" class="st1" cx="754.7" cy="226.2" r="82.6"/>
					<circle id="XMLID_870_" class="st1" cx="754.7" cy="226.2" r="81.9"/>
					<circle id="XMLID_869_" class="st1" cx="754.7" cy="226.2" r="81.2"/>
					<circle id="XMLID_868_" class="st1" cx="754.7" cy="226.2" r="80.5"/>
					<circle id="XMLID_867_" class="st1" cx="754.7" cy="226.2" r="79.8"/>
					<circle id="XMLID_866_" class="st1" cx="754.7" cy="226.2" r="79.1"/>
					<circle id="XMLID_865_" class="st1" cx="754.7" cy="226.2" r="78.5"/>
					<circle id="XMLID_864_" class="st1" cx="754.7" cy="226.2" r="77.8"/>
					<circle id="XMLID_863_" class="st1" cx="754.7" cy="226.2" r="77.1"/>
					<circle id="XMLID_862_" class="st1" cx="754.7" cy="226.2" r="76.4"/>
					<circle id="XMLID_861_" class="st1" cx="754.7" cy="226.2" r="75.7"/>
					<circle id="XMLID_860_" class="st1" cx="754.7" cy="226.2" r="75"/>
					<circle id="XMLID_859_" class="st1" cx="754.7" cy="226.2" r="74.4"/>
					<circle id="XMLID_858_" class="st1" cx="754.7" cy="226.2" r="73.7"/>
					<circle id="XMLID_857_" class="st1" cx="754.7" cy="226.2" r="73"/>
					<circle id="XMLID_856_" class="st1" cx="754.7" cy="226.2" r="72.3"/>
					<circle id="XMLID_855_" class="st1" cx="754.7" cy="226.2" r="71.6"/>
					<circle id="XMLID_854_" class="st1" cx="754.7" cy="226.2" r="71"/>
					<circle id="XMLID_853_" class="st1" cx="754.7" cy="226.2" r="70.3"/>
					<circle id="XMLID_852_" class="st1" cx="754.7" cy="226.2" r="69.6"/>
					<circle id="XMLID_851_" class="st1" cx="754.7" cy="226.2" r="68.9"/>
					<circle id="XMLID_850_" class="st1" cx="754.7" cy="226.2" r="68.2"/>
					<circle id="XMLID_849_" class="st1" cx="754.7" cy="226.2" r="67.5"/>
					<circle id="XMLID_848_" class="st1" cx="754.7" cy="226.2" r="66.9"/>
					<circle id="XMLID_847_" class="st1" cx="754.7" cy="226.2" r="66.2"/>
					<circle id="XMLID_846_" class="st1" cx="754.7" cy="226.2" r="65.5"/>
					<circle id="XMLID_845_" class="st1" cx="754.7" cy="226.2" r="64.8"/>
					<circle id="XMLID_844_" class="st1" cx="754.7" cy="226.2" r="64.1"/>
					<circle id="XMLID_843_" class="st1" cx="754.7" cy="226.2" r="63.4"/>
					<circle id="XMLID_842_" class="st1" cx="754.7" cy="226.2" r="62.8"/>
					<circle id="XMLID_841_" class="st1" cx="754.7" cy="226.2" r="62.1"/>
					<circle id="XMLID_840_" class="st1" cx="754.7" cy="226.2" r="61.4"/>
					<circle id="XMLID_839_" class="st1" cx="754.7" cy="226.2" r="60.7"/>
					<circle id="XMLID_838_" class="st1" cx="754.7" cy="226.2" r="60"/>
					<circle id="XMLID_837_" class="st1" cx="754.7" cy="226.2" r="59.4"/>
					<circle id="XMLID_836_" class="st1" cx="754.7" cy="226.2" r="58.7"/>
					<circle id="XMLID_835_" class="st1" cx="754.7" cy="226.2" r="58"/>
					<circle id="XMLID_834_" class="st1" cx="754.7" cy="226.2" r="57.3"/>
					<circle id="XMLID_833_" class="st1" cx="754.7" cy="226.2" r="56.6"/>
					<circle id="XMLID_832_" class="st1" cx="754.7" cy="226.2" r="55.9"/>
					<circle id="XMLID_831_" class="st1" cx="754.7" cy="226.2" r="55.3"/>
					<circle id="XMLID_830_" class="st1" cx="754.7" cy="226.2" r="54.6"/>
					<circle id="XMLID_829_" class="st1" cx="754.7" cy="226.2" r="53.9"/>
					<circle id="XMLID_828_" class="st1" cx="754.7" cy="226.2" r="53.2"/>
					<circle id="XMLID_827_" class="st1" cx="754.7" cy="226.2" r="52.5"/>
					<circle id="XMLID_826_" class="st1" cx="754.7" cy="226.2" r="51.9"/>
					<circle id="XMLID_825_" class="st1" cx="754.7" cy="226.2" r="51.2"/>
					<circle id="XMLID_824_" class="st1" cx="754.7" cy="226.2" r="50.5"/>
					<circle id="XMLID_823_" class="st1" cx="754.7" cy="226.2" r="49.8"/>
					<circle id="XMLID_822_" class="st1" cx="754.7" cy="226.2" r="49.1"/>
					<circle id="XMLID_821_" class="st1" cx="754.7" cy="226.2" r="48.4"/>
					<circle id="XMLID_820_" class="st1" cx="754.7" cy="226.2" r="47.8"/>
					<circle id="XMLID_819_" class="st1" cx="754.7" cy="226.2" r="47.1"/>
					<circle id="XMLID_818_" class="st1" cx="754.7" cy="226.2" r="46.4"/>
					<circle id="XMLID_817_" class="st1" cx="754.7" cy="226.2" r="45.7"/>
					<circle id="XMLID_816_" class="st1" cx="754.7" cy="226.2" r="45"/>
					<circle id="XMLID_815_" class="st1" cx="754.7" cy="226.2" r="44.3"/>
					<circle id="XMLID_814_" class="st1" cx="754.7" cy="226.2" r="43.7"/>
					<circle id="XMLID_813_" class="st1" cx="754.7" cy="226.2" r="43"/>
					<circle id="XMLID_812_" class="st1" cx="754.7" cy="226.2" r="42.3"/>
					<circle id="XMLID_811_" class="st1" cx="754.7" cy="226.2" r="41.6"/>
					<circle id="XMLID_810_" class="st1" cx="754.7" cy="226.2" r="40.9"/>
					<circle id="XMLID_809_" class="st1" cx="754.7" cy="226.2" r="40.3"/>
					<circle id="XMLID_808_" class="st1" cx="754.7" cy="226.2" r="39.6"/>
					<circle id="XMLID_807_" class="st1" cx="754.7" cy="226.2" r="38.9"/>
					<circle id="XMLID_806_" class="st1" cx="754.7" cy="226.2" r="38.2"/>
					<circle id="XMLID_805_" class="st1" cx="754.7" cy="226.2" r="37.5"/>
					<circle id="XMLID_804_" class="st1" cx="754.7" cy="226.2" r="36.8"/>
					<circle id="XMLID_803_" class="st1" cx="754.7" cy="226.2" r="36.2"/>
					<circle id="XMLID_802_" class="st1" cx="754.7" cy="226.2" r="35.5"/>
					<circle id="XMLID_801_" class="st1" cx="754.7" cy="226.2" r="34.8"/>
					<circle id="XMLID_800_" class="st1" cx="754.7" cy="226.2" r="34.1"/>
					<circle id="XMLID_799_" class="st1" cx="754.7" cy="226.2" r="33.4"/>
					<circle id="XMLID_798_" class="st1" cx="754.7" cy="226.2" r="32.7"/>
					<circle id="XMLID_797_" class="st1" cx="754.7" cy="226.2" r="32.1"/>
					<circle id="XMLID_796_" class="st1" cx="754.7" cy="226.2" r="31.4"/>
					<circle id="XMLID_795_" class="st1" cx="754.7" cy="226.2" r="30.7"/>
					<circle id="XMLID_794_" class="st1" cx="754.7" cy="226.2" r="30"/>
					<circle id="XMLID_793_" class="st1" cx="754.7" cy="226.2" r="29.3"/>
					<circle id="XMLID_792_" class="st1" cx="754.7" cy="226.2" r="28.7"/>
					<circle id="XMLID_791_" class="st1" cx="754.7" cy="226.2" r="28"/>
					<circle id="XMLID_790_" class="st1" cx="754.7" cy="226.2" r="27.3"/>
					<circle id="XMLID_789_" class="st1" cx="754.7" cy="226.2" r="26.6"/>
					<circle id="XMLID_788_" class="st1" cx="754.7" cy="226.2" r="25.9"/>
					<circle id="XMLID_787_" class="st1" cx="754.7" cy="226.2" r="25.2"/>
					<circle id="XMLID_786_" class="st1" cx="754.7" cy="226.2" r="24.6"/>
					<circle id="XMLID_785_" class="st1" cx="754.7" cy="226.2" r="23.9"/>
					<circle id="XMLID_784_" class="st1" cx="754.7" cy="226.2" r="23.2"/>
					<circle id="XMLID_783_" class="st1" cx="754.7" cy="226.2" r="22.5"/>
					<circle id="XMLID_782_" class="st1" cx="754.7" cy="226.2" r="21.8"/>
					<circle id="XMLID_781_" class="st1" cx="754.7" cy="226.2" r="21.1"/>
					<circle id="XMLID_780_" class="st1" cx="754.7" cy="226.2" r="20.5"/>
					<circle id="XMLID_779_" class="st1" cx="754.7" cy="226.2" r="19.8"/>
					<circle id="XMLID_778_" class="st1" cx="754.7" cy="226.2" r="19.1"/>
					<circle id="XMLID_777_" class="st1" cx="754.7" cy="226.2" r="18.4"/>
					<circle id="XMLID_776_" class="st1" cx="754.7" cy="226.2" r="17.7"/>
					<circle id="XMLID_775_" class="st1" cx="754.7" cy="226.2" r="17.1"/>
					<circle id="XMLID_774_" class="st1" cx="754.7" cy="226.2" r="16.4"/>
					<circle id="XMLID_773_" class="st1" cx="754.7" cy="226.2" r="15.7"/>
					<circle id="XMLID_772_" class="st1" cx="754.7" cy="226.2" r="15"/>
					<circle id="XMLID_771_" class="st1" cx="754.7" cy="226.2" r="14.3"/>
					<circle id="XMLID_770_" class="st1" cx="754.7" cy="226.2" r="13.6"/>
					<circle id="XMLID_769_" class="st1" cx="754.7" cy="226.2" r="13"/>
					<circle id="XMLID_768_" class="st1" cx="754.7" cy="226.2" r="12.3"/>
					<circle id="XMLID_767_" class="st1" cx="754.7" cy="226.2" r="11.6"/>
					<circle id="XMLID_766_" class="st1" cx="754.7" cy="226.2" r="10.9"/>
					<circle id="XMLID_765_" class="st1" cx="754.7" cy="226.2" r="10.2"/>
					<circle id="XMLID_764_" class="st1" cx="754.7" cy="226.2" r="9.5"/>
					<circle id="XMLID_763_" class="st1" cx="754.7" cy="226.2" r="8.9"/>
					<circle id="XMLID_762_" class="st1" cx="754.7" cy="226.2" r="8.2"/>
					<circle id="XMLID_761_" class="st1" cx="754.7" cy="226.2" r="7.5"/>
					<circle id="XMLID_760_" class="st1" cx="754.7" cy="226.2" r="6.8"/>
					<circle id="XMLID_759_" class="st1" cx="754.7" cy="226.2" r="6.1"/>
					<circle id="XMLID_758_" class="st1" cx="754.7" cy="226.2" r="5.5"/>
					<circle id="XMLID_757_" class="st1" cx="754.7" cy="226.2" r="4.8"/>
					<circle id="XMLID_756_" class="st1" cx="754.7" cy="226.2" r="4.1"/>
					<circle id="XMLID_755_" class="st1" cx="754.7" cy="226.2" r="3.4"/>
					<circle id="XMLID_754_" class="st1" cx="754.7" cy="226.2" r="2.7"/>
					<circle id="XMLID_753_" class="st1" cx="754.7" cy="226.2" r="2"/>
					<circle id="XMLID_752_" class="st1" cx="754.7" cy="226.2" r="1.4"/>
					<circle id="XMLID_751_" class="st1" cx="754.7" cy="226.2" r="0.7"/>
					<rect id="XMLID_750_" x="669.6" y="141.6" class="st1" width="170.2" height="169.3"/>
					<path id="XMLID_749_" class="st1" d="M840.4,226.2v18.3h3.2c-1.2,5.9-3,11.6-5.3,17c-4.6,10.9-11.2,20.6-19.4,28.8
						c-8.2,8.2-18,14.9-28.8,19.4c-5.4,2.3-11.1,4.1-17,5.3v-3.7h-36.6v3.7c-5.9-1.2-11.6-3-17-5.3c-10.9-4.6-20.6-11.2-28.8-19.4
						c-8.2-8.2-14.9-18-19.4-28.8c-2.3-5.4-4.1-11.1-5.3-17h3.2v-36.6h-3.2c1.2-5.9,3-11.6,5.3-17c4.6-10.9,11.2-20.6,19.4-28.8
						c8.2-8.2,18-14.9,28.8-19.4c5.4-2.3,11.1-4.1,17-5.3v3.7H773v-3.7c5.9,1.2,11.6,3,17,5.3c10.9,4.6,20.6,11.2,28.8,19.4
						c8.2,8.2,14.9,18,19.4,28.8c2.3,5.4,4.1,11.1,5.3,17h-3.2V226.2z"/>
					<path id="XMLID_748_" class="st1" d="M840.4,226.2v18.2h2.5c-1.2,5.9-3,11.5-5.2,16.9c-4.6,10.8-11.2,20.5-19.3,28.6
						c-8.1,8.1-17.9,14.7-28.6,19.3c-5.4,2.3-11,4-16.9,5.2v-3h-36.3v3c-5.9-1.2-11.5-3-16.9-5.2c-10.8-4.6-20.5-11.2-28.6-19.3
						c-8.1-8.1-14.7-17.9-19.3-28.6c-2.3-5.4-4-11-5.2-16.9h2.5v-36.3h-2.5c1.2-5.9,3-11.5,5.2-16.9c4.6-10.8,11.2-20.5,19.3-28.6
						c8.1-8.1,17.9-14.7,28.6-19.3c5.4-2.3,11-4,16.9-5.2v3h36.3v-3c5.9,1.2,11.5,3,16.9,5.2c10.8,4.6,20.5,11.2,28.6,19.3
						c8.1,8.1,14.7,17.9,19.3,28.6c2.3,5.4,4,11,5.2,16.9h-2.5V226.2z"/>
					<circle id="XMLID_747_" class="st1" cx="754.7" cy="226.2" r="89.4"/>
					<circle id="XMLID_746_" class="st1" cx="754.7" cy="226.2" r="88.7"/>
					<circle id="XMLID_745_" class="st1" cx="754.7" cy="226.2" r="88"/>
					<circle id="XMLID_744_" class="st1" cx="754.7" cy="226.2" r="87.3"/>
					<circle id="XMLID_743_" class="st1" cx="754.7" cy="226.2" r="86.6"/>
					<circle id="XMLID_742_" class="st1" cx="754.7" cy="226.2" r="86"/>
					<circle id="XMLID_741_" class="st1" cx="754.7" cy="226.2" r="85.3"/>
					<circle id="XMLID_740_" class="st1" cx="754.7" cy="226.2" r="84.6"/>
					<circle id="XMLID_739_" class="st1" cx="754.7" cy="226.2" r="83.9"/>
					<circle id="XMLID_738_" class="st1" cx="754.7" cy="226.2" r="83.2"/>
					<circle id="XMLID_737_" class="st1" cx="754.7" cy="226.2" r="82.6"/>
					<circle id="XMLID_736_" class="st1" cx="754.7" cy="226.2" r="81.9"/>
					<circle id="XMLID_735_" class="st1" cx="754.7" cy="226.2" r="81.2"/>
					<circle id="XMLID_734_" class="st1" cx="754.7" cy="226.2" r="80.5"/>
					<circle id="XMLID_733_" class="st1" cx="754.7" cy="226.2" r="79.8"/>
					<circle id="XMLID_732_" class="st1" cx="754.7" cy="226.2" r="79.1"/>
					<circle id="XMLID_731_" class="st1" cx="754.7" cy="226.2" r="78.5"/>
					<circle id="XMLID_730_" class="st1" cx="754.7" cy="226.2" r="77.8"/>
					<circle id="XMLID_729_" class="st1" cx="754.7" cy="226.2" r="77.1"/>
					<circle id="XMLID_728_" class="st1" cx="754.7" cy="226.2" r="76.4"/>
					<circle id="XMLID_727_" class="st1" cx="754.7" cy="226.2" r="75.7"/>
					<circle id="XMLID_726_" class="st1" cx="754.7" cy="226.2" r="75"/>
					<circle id="XMLID_725_" class="st1" cx="754.7" cy="226.2" r="74.4"/>
					<circle id="XMLID_724_" class="st1" cx="754.7" cy="226.2" r="73.7"/>
					<circle id="XMLID_723_" class="st1" cx="754.7" cy="226.2" r="73"/>
					<circle id="XMLID_722_" class="st1" cx="754.7" cy="226.2" r="72.3"/>
					<circle id="XMLID_721_" class="st1" cx="754.7" cy="226.2" r="71.6"/>
					<circle id="XMLID_720_" class="st1" cx="754.7" cy="226.2" r="71"/>
					<circle id="XMLID_719_" class="st1" cx="754.7" cy="226.2" r="70.3"/>
					<circle id="XMLID_718_" class="st1" cx="754.7" cy="226.2" r="69.6"/>
					<circle id="XMLID_717_" class="st1" cx="754.7" cy="226.2" r="68.9"/>
					<circle id="XMLID_716_" class="st1" cx="754.7" cy="226.2" r="68.2"/>
					<circle id="XMLID_715_" class="st1" cx="754.7" cy="226.2" r="67.5"/>
					<circle id="XMLID_714_" class="st1" cx="754.7" cy="226.2" r="66.9"/>
					<circle id="XMLID_713_" class="st1" cx="754.7" cy="226.2" r="66.2"/>
					<circle id="XMLID_712_" class="st1" cx="754.7" cy="226.2" r="65.5"/>
					<circle id="XMLID_711_" class="st1" cx="754.7" cy="226.2" r="64.8"/>
					<circle id="XMLID_710_" class="st1" cx="754.7" cy="226.2" r="64.1"/>
					<circle id="XMLID_709_" class="st1" cx="754.7" cy="226.2" r="63.4"/>
					<circle id="XMLID_708_" class="st1" cx="754.7" cy="226.2" r="62.8"/>
					<circle id="XMLID_707_" class="st1" cx="754.7" cy="226.2" r="62.1"/>
					<circle id="XMLID_706_" class="st1" cx="754.7" cy="226.2" r="61.4"/>
					<circle id="XMLID_705_" class="st1" cx="754.7" cy="226.2" r="60.7"/>
					<circle id="XMLID_704_" class="st1" cx="754.7" cy="226.2" r="60"/>
					<circle id="XMLID_703_" class="st1" cx="754.7" cy="226.2" r="59.4"/>
					<circle id="XMLID_702_" class="st1" cx="754.7" cy="226.2" r="58.7"/>
					<circle id="XMLID_701_" class="st1" cx="754.7" cy="226.2" r="58"/>
					<circle id="XMLID_700_" class="st1" cx="754.7" cy="226.2" r="57.3"/>
					<circle id="XMLID_696_" class="st1" cx="754.7" cy="226.2" r="56.6"/>
					<circle id="XMLID_695_" class="st1" cx="754.7" cy="226.2" r="55.9"/>
					<circle id="XMLID_694_" class="st1" cx="754.7" cy="226.2" r="55.3"/>
					<circle id="XMLID_693_" class="st1" cx="754.7" cy="226.2" r="54.6"/>
					<circle id="XMLID_692_" class="st1" cx="754.7" cy="226.2" r="53.9"/>
					<circle id="XMLID_691_" class="st1" cx="754.7" cy="226.2" r="53.2"/>
					<circle id="XMLID_690_" class="st1" cx="754.7" cy="226.2" r="52.5"/>
					<circle id="XMLID_689_" class="st1" cx="754.7" cy="226.2" r="51.9"/>
					<circle id="XMLID_688_" class="st1" cx="754.7" cy="226.2" r="51.2"/>
					<circle id="XMLID_687_" class="st1" cx="754.7" cy="226.2" r="50.5"/>
					<circle id="XMLID_686_" class="st1" cx="754.7" cy="226.2" r="49.8"/>
					<circle id="XMLID_685_" class="st1" cx="754.7" cy="226.2" r="49.1"/>
					<circle id="XMLID_684_" class="st1" cx="754.7" cy="226.2" r="48.4"/>
					<circle id="XMLID_683_" class="st1" cx="754.7" cy="226.2" r="47.8"/>
					<circle id="XMLID_682_" class="st1" cx="754.7" cy="226.2" r="47.1"/>
					<circle id="XMLID_681_" class="st1" cx="754.7" cy="226.2" r="46.4"/>
					<circle id="XMLID_680_" class="st1" cx="754.7" cy="226.2" r="45.7"/>
					<circle id="XMLID_679_" class="st1" cx="754.7" cy="226.2" r="45"/>
					<circle id="XMLID_678_" class="st1" cx="754.7" cy="226.2" r="44.3"/>
					<circle id="XMLID_677_" class="st1" cx="754.7" cy="226.2" r="43.7"/>
					<circle id="XMLID_676_" class="st1" cx="754.7" cy="226.2" r="43"/>
					<circle id="XMLID_675_" class="st1" cx="754.7" cy="226.2" r="42.3"/>
					<circle id="XMLID_674_" class="st1" cx="754.7" cy="226.2" r="41.6"/>
					<circle id="XMLID_673_" class="st1" cx="754.7" cy="226.2" r="40.9"/>
					<circle id="XMLID_672_" class="st1" cx="754.7" cy="226.2" r="40.3"/>
					<circle id="XMLID_671_" class="st1" cx="754.7" cy="226.2" r="39.6"/>
					<circle id="XMLID_670_" class="st1" cx="754.7" cy="226.2" r="38.9"/>
					<circle id="XMLID_669_" class="st1" cx="754.7" cy="226.2" r="38.2"/>
					<circle id="XMLID_668_" class="st1" cx="754.7" cy="226.2" r="37.5"/>
					<circle id="XMLID_667_" class="st1" cx="754.7" cy="226.2" r="36.8"/>
					<circle id="XMLID_666_" class="st1" cx="754.7" cy="226.2" r="36.2"/>
					<circle id="XMLID_665_" class="st1" cx="754.7" cy="226.2" r="35.5"/>
					<circle id="XMLID_664_" class="st1" cx="754.7" cy="226.2" r="34.8"/>
					<circle id="XMLID_663_" class="st1" cx="754.7" cy="226.2" r="34.1"/>
					<circle id="XMLID_662_" class="st1" cx="754.7" cy="226.2" r="33.4"/>
					<circle id="XMLID_661_" class="st1" cx="754.7" cy="226.2" r="32.7"/>
					<circle id="XMLID_660_" class="st1" cx="754.7" cy="226.2" r="32.1"/>
					<circle id="XMLID_659_" class="st1" cx="754.7" cy="226.2" r="31.4"/>
					<circle id="XMLID_658_" class="st1" cx="754.7" cy="226.2" r="30.7"/>
					<circle id="XMLID_657_" class="st1" cx="754.7" cy="226.2" r="30"/>
					<circle id="XMLID_656_" class="st1" cx="754.7" cy="226.2" r="29.3"/>
					<circle id="XMLID_655_" class="st1" cx="754.7" cy="226.2" r="28.7"/>
					<circle id="XMLID_654_" class="st1" cx="754.7" cy="226.2" r="28"/>
					<circle id="XMLID_653_" class="st1" cx="754.7" cy="226.2" r="27.3"/>
					<circle id="XMLID_652_" class="st1" cx="754.7" cy="226.2" r="26.6"/>
					<circle id="XMLID_651_" class="st1" cx="754.7" cy="226.2" r="25.9"/>
					<circle id="XMLID_650_" class="st1" cx="754.7" cy="226.2" r="25.2"/>
					<circle id="XMLID_649_" class="st1" cx="754.7" cy="226.2" r="24.6"/>
					<circle id="XMLID_648_" class="st1" cx="754.7" cy="226.2" r="23.9"/>
					<circle id="XMLID_647_" class="st1" cx="754.7" cy="226.2" r="23.2"/>
					<circle id="XMLID_646_" class="st1" cx="754.7" cy="226.2" r="22.5"/>
					<circle id="XMLID_645_" class="st1" cx="754.7" cy="226.2" r="21.8"/>
					<circle id="XMLID_644_" class="st1" cx="754.7" cy="226.2" r="21.1"/>
					<circle id="XMLID_643_" class="st1" cx="754.7" cy="226.2" r="20.5"/>
					<circle id="XMLID_642_" class="st1" cx="754.7" cy="226.2" r="19.8"/>
					<circle id="XMLID_641_" class="st1" cx="754.7" cy="226.2" r="19.1"/>
					<circle id="XMLID_640_" class="st1" cx="754.7" cy="226.2" r="18.4"/>
					<circle id="XMLID_639_" class="st1" cx="754.7" cy="226.2" r="17.7"/>
					<circle id="XMLID_638_" class="st1" cx="754.7" cy="226.2" r="17.1"/>
					<circle id="XMLID_637_" class="st1" cx="754.7" cy="226.2" r="16.4"/>
					<circle id="XMLID_636_" class="st1" cx="754.7" cy="226.2" r="15.7"/>
					<circle id="XMLID_635_" class="st1" cx="754.7" cy="226.2" r="15"/>
					<circle id="XMLID_634_" class="st1" cx="754.7" cy="226.2" r="14.3"/>
					<circle id="XMLID_633_" class="st1" cx="754.7" cy="226.2" r="13.6"/>
					<circle id="XMLID_632_" class="st1" cx="754.7" cy="226.2" r="13"/>
					<circle id="XMLID_631_" class="st1" cx="754.7" cy="226.2" r="12.3"/>
					<circle id="XMLID_630_" class="st1" cx="754.7" cy="226.2" r="11.6"/>
					<circle id="XMLID_629_" class="st1" cx="754.7" cy="226.2" r="10.9"/>
					<circle id="XMLID_628_" class="st1" cx="754.7" cy="226.2" r="10.2"/>
					<circle id="XMLID_627_" class="st1" cx="754.7" cy="226.2" r="9.5"/>
					<circle id="XMLID_626_" class="st1" cx="754.7" cy="226.2" r="8.9"/>
					<circle id="XMLID_625_" class="st1" cx="754.7" cy="226.2" r="8.2"/>
					<circle id="XMLID_622_" class="st1" cx="754.7" cy="226.2" r="7.5"/>
					<circle id="XMLID_621_" class="st1" cx="754.7" cy="226.2" r="6.8"/>
					<circle id="XMLID_618_" class="st1" cx="754.7" cy="226.2" r="6.1"/>
					<circle id="XMLID_616_" class="st1" cx="754.7" cy="226.2" r="5.5"/>
					<circle id="XMLID_615_" class="st1" cx="754.7" cy="226.2" r="4.8"/>
					<circle id="XMLID_614_" class="st1" cx="754.7" cy="226.2" r="4.1"/>
					<circle id="XMLID_613_" class="st1" cx="754.7" cy="226.2" r="3.4"/>
					<circle id="XMLID_612_" class="st1" cx="754.7" cy="226.2" r="2.7"/>
					<circle id="XMLID_611_" class="st1" cx="754.7" cy="226.2" r="2"/>
					<circle id="XMLID_610_" class="st1" cx="754.7" cy="226.2" r="1.4"/>
					<circle id="XMLID_609_" class="st1" cx="754.7" cy="226.2" r="0.7"/>
				</g>
			</g>
			<g id="XMLID_57_">
				<path id="XMLID_58_" class="st0" d="M669.5,194.9l0,0.1L669.5,194.9c-0.1,0.2-0.1,0.4-0.2,0.5
					C669.3,195.2,669.4,195,669.5,194.9 M669.6,194.6c0,0.1-0.1,0.2-0.1,0.3l0,0C669.5,194.8,669.5,194.7,669.6,194.6 M669.6,194.6
					C669.6,194.6,669.6,194.6,669.6,194.6c0,0.1-0.1,0.2-0.1,0.3l0,0C669.5,194.8,669.5,194.7,669.6,194.6 M669.6,194.5
					c0.5-1.2,0.9-2.3,1.3-3.4l-0.4,1c-0.2,0.6-0.4,1.1-0.7,1.6C669.8,194.1,669.7,194.3,669.6,194.5
					C669.6,194.6,669.6,194.6,669.6,194.5 M670,193.6c0-0.1,0.1-0.2,0.1-0.3c0-0.1,0.1-0.2,0.1-0.3c0-0.1,0.1-0.2,0.2-0.4
					c0.2-0.5,0.4-1.1,0.6-1.6l0,0.1c-0.4,1.1-0.9,2.2-1.3,3.4C669.7,194.2,669.8,193.9,670,193.6 M672,188.7c0.8-1.8,1.2-2.5,1.4-3
					l0.1-0.3l0,0c0.1-0.2,0.2-0.4,0.3-0.6c0,0.1-0.1,0.2-0.2,0.3c-0.2,0.3-0.3,0.7-0.5,1c-0.5,0.9-0.9,1.8-1.3,2.7
					c-0.2,0.4-0.4,0.8-0.6,1.2C671.5,189.7,671.8,189.2,672,188.7 M665.6,243.5L665.6,243.5c-0.1-0.3-0.1-0.6-0.2-0.9
					c0.1,0.4,0.2,0.9,0.3,1.3C665.6,243.7,665.6,243.6,665.6,243.5 M664.1,231.4c0,0.5,0.1,1,0.1,1.5l0,0.8
					C664.1,233,664.1,232.2,664.1,231.4 M664.1,219.2c-0.1,1.5-0.2,3.1-0.2,4.8c0,0.5,0,1.1,0,1.6v0
					C663.9,222.8,663.9,221.5,664.1,219.2 M663.9,223.9c0,0.4,0,0.7,0,1.1l0,0.5C663.9,225,663.9,224.5,663.9,223.9 M667.8,199.8
					c-0.1,0.3-0.1,0.5-0.2,0.8c-0.1,0.2-0.1,0.4-0.2,0.6c-0.1,0.2-0.1,0.4-0.2,0.6l0,0.1C667.4,201.2,667.6,200.5,667.8,199.8
					 M667.8,199.6l0.1-0.1c0,0.1-0.1,0.2-0.1,0.3C667.8,199.7,667.8,199.7,667.8,199.6 M745.8,136.3L745.8,136.3L745.8,136.3
					c0.1,0,0.2,0,0.3,0l-0.1,0l0.1,0c0.1,0,0.3,0,0.5,0l0.1,0l0.1,0h0.1c-0.2,0-0.4,0.1-0.7,0.1c-0.3,0-0.5,0-0.8,0.1
					C745.6,136.3,745.7,136.3,745.8,136.3 M745.9,136.3L745.9,136.3L745.9,136.3L745.9,136.3 M746.9,136.2L746.9,136.2l0.1,0l0.5,0
					c0,0-0.1,0-0.1,0h0l-0.1,0C747.1,136.2,747,136.2,746.9,136.2L746.9,136.2l-0.2,0c0,0-0.1,0-0.2,0c-0.1,0-0.2,0-0.3,0
					C746.4,136.2,746.6,136.2,746.9,136.2 M747,136.2l0.1,0l0.2,0l0.1,0l0.1,0l0,0l0.1,0h0.1c0.1,0,0.2,0,0.3,0c-0.2,0-0.3,0-0.5,0
					L747,136.2L747,136.2 M747.3,136.2C747.3,136.2,747.3,136.2,747.3,136.2C747.3,136.2,747.3,136.2,747.3,136.2L747.3,136.2
					 M747.8,136.1l0.2,0c0,0,0,0,0,0C747.8,136.1,747.8,136.1,747.8,136.1L747.8,136.1 M747.8,136.1l0.1,0h0c0,0,0,0,0,0
					L747.8,136.1L747.8,136.1 M748,136.1C748,136.1,748,136.1,748,136.1L748,136.1C748,136.1,748,136.1,748,136.1L748,136.1
					 M748.5,136.1L748.5,136.1C748.5,136.1,748.5,136.1,748.5,136.1L748.5,136.1 M738.7,245.9c0-0.2-0.1-0.4-0.2-0.6
					c0-0.1,0-0.2,0-0.3l0-0.3l0-0.1l-0.6-0.9c-0.1-0.1-0.2-0.1-0.3-0.2c-0.2-0.3-0.2-0.3-0.3-0.3c-0.2-0.1-0.2-0.2-0.2-0.9l-0.4-0.1
					c0,0-0.1,0.1-0.2,0.1c-0.1,0.1-0.1,0.1-0.2,0.4c0,0.1,0.1,0.2,0.1,0.3c0,0.1-0.1,0.2-0.1,0.3l0,0c0,0.1,0.1,0.1,0.1,0.3
					c0,0.1-0.1,0.2-0.1,0.3c0,0.1,0.1,0.2,0.1,0.4c0,0,0,0-0.2,0.2c-0.2,0.2-0.2,1.7,0.2,2.1c0,0,0.6,0.5,0.9,0.6c0.1,0,0.1,0,1.2,0
					C738.7,246.1,738.7,246.1,738.7,245.9 M794.3,302.2c0.3-0.2,0.5-0.4,0.7-0.6c-0.2,0-0.5,0-0.7,0c0,0-0.3,0.1-0.5,0.1l-0.2,0
					l0.1-0.3l0-0.1c0-0.1,0.1-0.2,0.1-0.2l0,0c-0.1,0-0.4,0.1-0.5,0.1c-0.6,0.5-0.6,0.5-0.6,0.5c-0.1,0.2-0.1,0.2-0.3,0.3l-0.2,0.2
					l-0.2,0.2l0,0.1c0,0.2-0.2,0.3-0.3,0.4c-0.1,0.1-0.1,0.2-0.2,0.3c-0.1,0.1-0.3,0.2-0.3,0.4l0.1,0l0.1,0l0.2,0
					c0.2-0.1,0.4-0.3,0.6-0.5l0.1-0.1c0.2,0,0.3,0,0.5,0c0.2-0.1,0.3-0.3,0.5-0.4c0.2-0.2,0.3-0.3,0.5-0.4
					C793.9,302.4,794.1,302.4,794.3,302.2 M795.7,301.2l0.4-0.3c0.1-0.1,0.1-0.1,0.2-0.2l0-0.1l0.1-0.2l0.1-0.2l0,0l-0.1,0l0,0h0
					l0,0l0,0c-0.1,0-0.1,0.1-0.2,0.1l-0.1,0l-0.1,0.1c-0.3,0.2-0.3,0.2-0.3,0.3l0.1,0c0,0.1-0.1,0.1-0.2,0.2l-0.1,0.1L795.7,301.2
					 M793.3,301c0.2-0.2,0.5-0.4,0.7-0.7l-0.1,0c0,0-0.3,0.1-0.5,0.3c-0.1,0.1-0.1,0.1-0.3,0.5L793.3,301 M804.4,301.2
					c0.2-0.2,0.5-0.3,0.7-0.5c-0.1,0-0.1,0-0.1,0c0.5-0.4,0.5-0.4,0.6-0.5l-0.2,0.1c-0.4,0.3-0.7,0.5-1.1,0.8
					c-1.2,0.6-2.3,1.4-3.5,2c-1.3,0.6-1.3,0.6-1.6,0.8c-1,0.6-1.2,0.7-1.4,0.7h0l0,0h0l0,0h0h0h0l0,0c-0.1,0-0.9,0.5-1.2,0.7v0
					c0.2,0,0.2,0,0.2,0c-0.1,0.1-0.3,0.2-0.4,0.3l0.1,0C801.3,303.3,804.1,301.4,804.4,301.2 M795.2,306.3c0.1-0.1,0.2-0.1,0.3-0.2
					c0.1,0,0.1-0.1,0.2-0.1l-0.1,0c0,0,0,0-0.2,0.1l-0.1,0.1L795.2,306.3l-0.2,0L795.2,306.3 M809.8,297.7c0.2-0.1,0.6-0.5,0.7-0.6
					c0,0-0.1,0-0.2,0.1c-0.1,0.1-0.1,0.1-0.2,0.2c-0.1,0.1-0.1,0.1-0.2,0l-0.1,0l-0.1,0.1c1.4-1.1,1.4-1.1,1.5-1.3
					c-0.3,0.1-0.5,0.4-0.8,0.6c0.3-0.5,0.9-0.8,1.3-1.2l-0.1,0c1.2-1.2,1.2-1.3,1.2-1.3l0,0c-0.1,0-0.5,0.4-0.6,0.5
					c-1.8,1.8-1.8,1.8-2.8,2.7c-0.5,0.4-0.9,0.7-1.4,1.1c-0.1,0-0.2,0-0.3,0c-0.3,0.2-0.5,0.4-0.8,0.6l-0.2,0.2c0.1,0,0.2,0,0.3-0.1
					c-0.6,0.5-1.3,0.9-1.9,1.4l0.2,0c0.9-0.6,1.9-1.2,2.8-1.9l0.1,0l0,0l0,0c0.4-0.3,1.2-0.9,1.2-0.9l0.1,0L809.8,297.7
					 M822.4,281.4c0.2-0.2,0.2-0.5,0.2-0.5l-0.1-0.1c0-0.1,0.1-0.2,0.1-0.3l0,0c-0.1-0.1,0.1-0.3,0.1-0.4c0.4-0.5,0.2-1.1,0.2-1.1
					l-0.1,0l-0.2,0.1c-0.1,0.2-0.1,0.3-0.2,0.5l0,0c0,0,0,0,0,0.1c0,0.1,0,0.1-0.2,0.4c-0.1,0.1-0.3,0.4-0.3,0.7
					c0,0.2,0.1,0.3,0.1,0.5c0,0.1,0,0.2,0,0.3l0,0l0.2,0L822.4,281.4 M800.5,270.3c0-0.2,0.1-0.3,0.2-0.5l-0.4-0.1
					c-0.5,0.1-0.5,0.1-1.1,0.2c0.1,0,0.2-0.1,0.2-0.1c-0.1,0-0.4,0.1-0.5,0.3c0,0-0.2,0.4,0,0.5c0.1,0.1,0.2,0,0.3,0
					c0.1-0.1,0.1-0.1,0.6-0.2c0.1,0,0.1,0,0.2,0C800.2,270.3,800.3,270.3,800.5,270.3 M809.2,289.9c0.3-0.4,0.6-0.7,0.8-1.1
					c0.1-0.3,0.2-0.5,0.2-0.8c0.1-0.1,0.1-0.1,0.2-0.3c0.3-0.4,0.6-0.6,0.9-1l0-0.1c0.2-0.2,0.3-0.4,0.5-0.7c0,0,1-1.7,0.4-2.6
					l0.1-0.2c0.2-0.4,0.5-0.7,0.6-1.1c-1-0.1-1-0.1-0.9-0.6c0-0.1,0.1-0.2,0.1-0.2c0.1-0.2,0.1-0.2,0.4-0.8l-0.2,0
					c0-0.2,0.1-0.4,0.1-0.6c-0.4-0.3-0.5-0.3-0.4-1c-0.9-0.8-0.9-0.8-0.4-1.8c0,0,0,0,0.1-0.2c0.1-0.5,0.1-0.5,0.2-0.6
					c0-0.1,0.1-0.2,0.1-0.2c0,0,0.7-2.1,0.5-2.6c-0.4-0.1-0.8-0.1-1.1-0.3c0.1-0.3,0.2-0.5,0.2-0.8c0-0.1,0.1-0.2,0.1-0.3
					c0.5-1.3,0.4-2.7,0.2-3l-0.2,0c-0.1,0.3-0.3,0.5-0.4,0.8c0,0.1-0.1,0.2-0.1,0.3c-0.8,0.7-0.8,0.7-1.6,2.8
					c-0.1,0.2-0.1,0.3-0.3,0.7c-0.2,0.4-0.2,0.4-0.6,0.8c-0.3,0.7-0.6,1.4-0.9,2.1c-0.5,0.9-1.1,0.8-1.8,0.6
					c-0.2-0.3-0.2-0.3-0.1-0.5c-0.4-0.6-1-1.2-1.4-1.9c-0.7-0.1-0.7-0.1-0.8-0.4c0.2-0.3,0.3-0.7,0.5-1.1c0,0,0-0.1,0-0.2
					c-0.1-1.3,1.3-1.5,1.8-2.4l-0.2,0c-0.6-0.2-0.6-0.2-0.8-0.2c-0.1,0-0.1,0-0.3,0c-0.5,0-0.9-0.2-1.4-0.2c0,0-0.9-0.6-1.4-0.9
					l-0.2,0c-0.1,0-0.1,0-0.3,0c-0.1,0-0.3,0.1-0.4,0c0,0.2-0.1,0.3-0.1,0.5l0,0.2c0.4,0.2,0.4,0.2,0.8,0.3c-0.3,0.6-1,0.2-1.5,0.5
					c-0.5,0.3-0.9,0.7-1.4,1c-0.5,0.2-0.5,0.3-0.7,0.5c0,0,0,0.1-0.1,0.2c-0.1,0.6-0.4,1.1-0.5,1.2c-0.2,0.3-1.4,0.4-1.4-0.2
					c-0.2,0-0.4,0-0.6,0l-0.1-0.1c0-0.1,0-0.3,0-0.4c-0.2,0-0.3,0-0.6,0c-0.7,0.3-1.4,0.8-2.1,1.1c-0.8,0.4-1.2,1.3-2.2,1.3
					c0,0.1-0.1,0.3-0.1,0.5c0.2,0.5,0.2,0.5,0.2,0.6c0,0.2-0.1,0.3-0.1,0.5c-0.3,0-0.7,0-1,0c0.1-0.3,0.1-0.5,0.2-0.8
					c-0.2,0-0.4,0-0.6,0c-0.3,0.1-3.1,3.5-3.1,3.6c-0.1,0.2-0.2,0.3-0.9,0.6c-1.2,0.5-2.7,0-3.9,0.8c-0.6,0.4-1.3,0.4-1.9,0.8
					c-0.3,0.3-0.1,0.8-0.6,1c-0.2,0.1-0.3,0.1-0.9-0.2c0-0.1,0-0.3,0-0.4c-0.2,0.4-0.2,0.4-0.6,0.6l0,0.2c0,0.1,0,0.1-0.1,0.3
					c0,0.3,0,0.3-0.1,0.6c0,0.1,0,0.1-0.1,0.3c-0.5,0.4-0.8,0.7,0,2.5c-0.4,0.1-0.8-0.3-1.2,0c0,0.1-0.1,0.3-0.1,0.4
					c0.7,1.7,1.4,3.3,0.7,6.6c-0.1,0.3-0.2,0.5-0.3,0.8c-0.6,0-1.2,0.4-1.3,0.6l0,0.2c0.1,0,0.3,0,0.4,0c0.1,0.1,0.1,0.3,0.1,0.4
					c0.4,0.3,1.6,1.2,3,0c0.9-1,1.3-0.9,3.5-0.5c0.3,0,0.5,0.1,1.3-0.7c0.9-0.8,1.9-1.2,2.3-1.3c0.4-0.1,0.5,0,0.7,0.2
					c1.5-0.1,2.5-2.2,4.3-1.1c0.4,0.3,0.4,0.3,0.9,0.4c0.1,0,0.2,0,0.4,0c0.4,0,0.4,0,0.6,0.1c0,0.4-0.2,0.8-0.3,1.2
					c0.1,0,0.3,0,0.4,0.1c0,0,0,0-0.7,1.4l0.1,0.2c0.8-0.1,2.8-1.9,2.8-1.9l0.2,0.1l0,0.2c-0.4,0.5-1,0.8-1.4,1.4l0.2-0.1
					c0.3-0.3,0.3-0.3,0.7-0.2c-0.1,0.2-0.3,0.4-0.5,0.6l-0.2,0.1l-0.1,0.2c-0.3,0.3-0.3,0.3-0.5,0.5c0.3-0.1,0.5-0.5,0.9-0.4
					c-0.1,0.2-0.2,0.4-0.3,0.5l0.1,0.2l0,0.2l-0.1,0.2c0,0-0.1,0.1-0.2,0.2c-0.7,0.7-0.7,0.7-0.4,1.2c0.5,0,0.5,0,0.6,0
					c0,0.1,0,0.3,0.1,0.4c0.7,0.3,1.5-0.5,1.8-0.8c0.1,0,0.2,0,0.4,0.1c-0.1,0.2-0.4,0.4-0.5,0.7l0.2,0.1c3.6-1.2,3.6-1.2,5.7-2.9
					c0,0,0.1-0.1,0.2-0.3C803.7,293.9,806.8,292.4,809.2,289.9 M827.3,266.6L827.3,266.6l0.1-0.1l0-0.2l0-0.1l0-0.1l0,0l-0.1,0l0,0
					c-0.1-0.1-0.1-0.1-0.2-0.1c-0.1,0-0.2,0.1-0.2,0.1c0,0.2-0.1,0.3-0.2,0.5c0,0,0,0.1,0,0.2c0,0.2,0.1,0.1,0.2,0.1l0.1,0
					C827.2,266.7,827.3,266.6,827.3,266.6 M825.4,263.4L825.4,263.4c0-0.1,0.1-0.2,0.1-0.2c0-0.1,0-0.2,0-0.3c0-0.1,0.1-0.2,0.1-0.3
					l0-0.1l-0.1-0.3c0,0-0.1-0.3-0.2-0.3c-0.1,0,0-0.1,0-0.2c0.1-0.1,0.1-0.3,0.1-0.4l-0.2,0l-0.2,0.1c0,0.4,0,0.4-0.1,0.6
					c0,0.1-0.1,0.2-0.1,0.3l0.1,0.3c0,0.1,0.1,0.1,0.1,0.2c0.1,0.2,0,0.3,0,0.5l0.1,0.1l0.1,0L825.4,263.4 M823.7,260
					c0-0.1,0-0.2,0-0.3c-0.1,0.1-0.3,0-0.4,0.1l-0.4,0.3c-0.2,0.2-0.1,0.4-0.2,0.6l-0.3,0.5l0,0c0,0,0,0-1,0.1l-0.2,0l-0.2,0
					c-0.2,0-0.4,0-0.6,0l-0.2-0.1c-0.1,0.2-0.2,0.3-0.2,0.5c-0.1,0.2-0.1,0.4-0.1,0.5l-0.1,0.1c0.2,0,0.4-0.1,0.7-0.1
					c0.2,0,0.3,0.1,0.5,0.1l0.7-0.1c0.2-0.1,0.3-0.2,0.3-0.3c0.1-0.1,0.1-0.1,0.1-0.1c0.2,0,0.2,0,0.4-0.1l0,0l0.1-0.1
					c0,0,0.2-0.3,0.4-0.5c0.1-0.2,0.2-0.4,0.3-0.6c0.1-0.1,0.2-0.2,0.3-0.4C823.7,260.2,823.7,260.1,823.7,260 M802.5,265.6
					c0.1-0.2,0.1-0.6,0.1-0.7c0-0.1-0.1-0.2-0.1-0.3c-0.6,0.3-1,0.6-1,0.6c0,0-0.2,0.5-0.2,0.7c0,0.1,0,0.2,0,0.3c0.2,0,0.5,0,0.7,0
					C802.1,266.1,802.3,265.9,802.5,265.6 M796.5,265.6L796.5,265.6l-0.1-0.3c-0.4,0-0.8,0-1.1,0c0,0.1-0.1,0.2-0.1,0.3
					c0,0.1,0.1,0.1,0.1,0.2l0,0l0.2,0c0.1,0,0.1,0,0.2-0.2c0.2-0.1,0.3,0,0.4,0.1l0.1,0C796.4,265.7,796.5,265.6,796.5,265.6
					 M806.3,262.4l0-0.1c0-0.1-0.1-0.1-0.2-0.2c-0.1,0.1-0.3,0.2-0.4,0.3l-0.2,0.2l-0.2,0.1l0,0c-0.1,0.1-0.1,0.2-0.1,0.3
					c0,0.1-0.1,0.2-0.1,0.3c-0.1,0.1-0.1,0.2-0.2,0.3c0,0.1-0.1,0.1-0.2,0.2l0,0.1l0.1,0c0.1,0,0.3,0,0.4,0l0.1,0c0,0,0.1,0,0.2-0.2
					c0.1-0.1,0.1-0.2,0.1-0.3c0.1-0.2,0.2-0.3,0.3-0.5l0.1-0.1C806.3,262.7,806.3,262.5,806.3,262.4 M819.5,268.3
					c0.1-0.3,0.2-0.5,0.3-0.9c0-0.3-0.1-0.3-0.4-0.4c-0.1-0.2,0.1-0.5-0.2-0.7l-1.2-0.3c0.2-0.6,0.4-1.1,0.6-1.7c-0.4,0-0.5,0-0.8,0
					c0.1-0.4,0.3-0.9,0.5-1.3c0.3,0,0.4,0,0.7,0c0-0.1,0.1-0.3,0.1-0.5c-0.2-0.1-0.2-0.4-0.3-0.5c-0.1,0-0.3,0-0.5,0
					c-0.2,0-0.4,0-0.5,0c-0.1-0.4-0.1-0.8-0.1-1.2l0-0.1l-0.1-0.1c-0.1-0.1-0.1-0.1-0.5-1c-0.2-0.5-0.8-0.1-1.1-0.4
					c-0.1-0.1-0.1-0.1-0.1-0.3l-0.1-0.1c-0.2,0-0.2,0-0.5-0.1c-0.4-0.1-0.5-0.5-0.8-0.6c-0.4-0.1-0.7,0.1-1,0l-0.1,0h0h0l0,0h0h0h0
					l0,0h0l0,0h0h0h0h0h0h0l-0.1,0c-0.9,0-1.1-1-1.8-1.2c-0.1,0-0.1,0-0.7,0.5c-0.3,0.2-0.7,0-1,0.2c-0.5,0.3-0.5,0.4-0.5,0.6
					c-0.1,0.9-0.7,0.9-1.7,0.8c-0.5,0-0.1-0.7-0.5-0.8c-0.4-0.1-0.6,0.2-1,0.3c-0.5,0-1,0-1.5,0.1c0,0.2-0.1,0.4-0.1,0.6
					c0.4,0.2,0.4,0.2,0.2,1.1c0.1,0,0.2,0,0.4-0.1l0-0.2c0.2-0.1,0.3-0.2,0.5-0.3c0.5,0.2,1.1,0.1,1.5,0.6c0.4,0.6,0.4,0.6,0.5,0.6
					c0.9-0.2,1.9,0.2,2.2,0.8c0.6,1.1,0.6,1.5,0.6,1.7c-0.2,0.7-0.3,0.8-0.6,1c-0.4,0.2-0.9,0.3-1.2,0.7c-0.1,0.1-0.1,0.1-0.1,0.5
					c0,0,0,0.8,1.2-0.1c0.2-0.3,0.3-0.7,0.8-0.5c0.2,0.1,0.3,0.2,0.3,0.3c0.1,0.4,0.2,0.4,0.5,0.6c0.3,0.1,0.5,0.3,0.7,0.5
					c0.3,0.2,1.2,0.2,1.5,0.1l0.4-0.3c0.2-0.2,0.2-0.6,0.4-0.8c0.8,0,1-0.9,1.7-1.1l0.1,0c0.1,0,0.9,0.5,1,0.7
					c0.4,0.8,0.2,1.6,0.5,2.4l0.1,0c0.1,0,0.7-0.1,1.2-0.2c0.2,0,0.2,0,0.4,0.6C819,268.5,819.2,268.4,819.5,268.3 M796.9,258
					L796.9,258L796.9,258c-0.1-0.1-0.1-0.1,0-0.6c-0.1,0-0.2,0-0.4,0c-0.2,0-0.5,0-0.8,0l-0.1,0.1c0,0.1,0,0.1-0.1,0.1l-0.2,0l0,0
					c-0.1,0.1-0.1,0.2-0.1,0.3c0.1,0.1,0.1,0.2,0.2,0.2c0.1,0,0.2,0,0.2,0c0.1,0,0.2,0,0.3,0c0.2,0,0.3,0.1,0.5,0.1
					C796.6,258.1,796.7,258,796.9,258 M809.4,257.5c0-0.1,0-0.2,0.1-0.4c-0.2,0-0.3,0-0.5,0c0.2-0.6,0.2-0.6,0.1-0.7l0-0.2
					c0-0.1,0.1-0.2,0.1-0.3c-0.2,0-0.3,0-0.4,0c-0.1,0-0.2,0-0.3,0c0,0,0,0.3,0,0.5l0,0.2c0,0.3-0.1,0.5-0.2,0.8
					C808.6,257.5,809,257.5,809.4,257.5 M803.2,256.7L803.2,256.7L803.2,256.7L803.2,256.7 M806.5,257.7L806.5,257.7
					c0-0.1,0.1-0.2,0-0.3c0-0.1-0.2,0-0.2-0.1c0-0.2,0-0.3,0.1-0.5c0.2-0.6,0.2-0.7,0.1-0.8c-0.1-0.3-0.9-0.3-0.9-0.3
					c-0.4,0-0.7,0.4-1.1,0.4c-0.3,0-0.5,0-0.8,0c-0.1,0-0.4,0.2-0.5,0.4l0.1-0.1c-0.1,0-0.2,0-0.3,0c-0.1,0-0.1,0-0.5,0.3
					c0,0.1,0,0.2,0,0.3c0.2,0,0.3,0.1,0.5,0.2c0.1,0.1,0.1,0.1,0.5,0.1c0.4-0.1,0.4,0.3,0.4,0.3c0,0.6,0,0.6,0.2,0.5l0.1,0
					c0.1,0,0.2,0,0.2,0c0,0,0.3,0,0.5-0.2c0.2,0,0.4,0.1,0.6,0.1c0.2,0,0.4,0,0.6,0C806.4,257.9,806.5,257.7,806.5,257.7
					 M803.7,255.2c0,0,0-0.2,0-0.3l-0.3-0.2l-0.1,0c-0.1,0-0.2,0-0.2,0l-0.2,0l-0.1,0c0,0.1,0,0.2-0.1,0.3c-0.1,0.1-0.1,0.2-0.2,0.4
					l-0.1,0.2c0.4,0.3,0.4,0.3,0.4,0.3l0.4,0C803.2,255.8,803.6,255.5,803.7,255.2 M802.3,258.3c0.1-0.3,0.1-0.6,0.2-0.9
					c-0.2,0-0.5,0-0.7,0c0,0.1,0,0.3-0.1,0.4l-0.1-0.3c0,0.1,0,0.2-0.1,0.3c0,0.1,0,0.3,0,0.4C802,258.3,802.1,258.3,802.3,258.3
					 M802.2,260.2L802.2,260.2c0.1-0.5,0.1-0.5,0.2-0.8c-0.3,0-0.6,0-0.9-0.1c-0.2,0-0.3-0.1-0.5-0.1c-0.1,0-0.2,0-0.2,0
					c-0.4,0-0.8-0.3-1.2-0.2c-0.2,0-0.2,0-0.5,0.6c0-0.1,0-0.2,0-0.3c0,0.1-0.1,0.2-0.1,0.3c0,0.1,0.1,0.1,0.1,0.2
					c0.2,0,0.5,0,0.7,0c0.2,0,0.3-0.1,0.5-0.1c0.1,0,0.1,0.1,0.2,0.1l0.2,0c0,0,0.1,0,0.7,0.2c0.1,0,0.1,0.2,0.2,0.2
					C801.8,260.2,801.8,260.2,802.2,260.2 M798.1,260.3c0-0.2,0.1-0.3,0.1-0.5l0-0.1c0-0.1,0-0.1-0.1-0.2c0,0-0.1,0-0.2-0.1
					c-0.1,0-0.2,0-0.4-0.1c-0.1,0-0.2-0.1-0.4-0.1l-0.1,0c-0.1,0.2-0.1,0.4-0.2,0.6c0.1,0.1,0.1,0.2,0.1,0.3
					c0.3,0.2,0.3,0.2,0.5,0.2C797.8,260.3,798,260.3,798.1,260.3 M801.3,254.6c0-0.2,0-0.3-0.1-0.4c-0.1-0.1-0.2-0.1-0.3-0.2l0,0
					l0-0.2c0-0.1,0-0.1,0.1-0.5c-0.2-0.1-0.2-0.1-0.8,0c0-0.1,0-0.3,0.1-0.4c0.1-0.3,0.2-0.4,0.2-0.4l0.1-0.1c0-0.1,0-0.1,0.1-0.6
					c-0.3,0.4-0.3,0.4-0.9,1c-0.1,0.1-0.1,0.1-0.3,0.1c-0.1,0-0.1,0-0.2,0.3l0,0.1c0,0.2,0.1,0.5,0,0.7l-0.2,0.8
					c0,0.1,0,0.1-0.1,0.2c-0.2,0.2-0.3,0.6-0.3,0.6l-0.1,0.9c0.1,0,0.2,0,0.2,0c0.1,0,0.1,0.1,0.3,0.1c0.1,0,0.1,0,0.5-0.2
					c0.2-0.7,0.2-0.7,0.2-1.5c0.4-0.2,1-0.1,1.2,0C801.2,254.9,801.3,254.8,801.3,254.6 M794.3,257.2c0.1-0.5-0.9-1.2-0.9-1.2
					c-0.1,0-0.2,0-0.3,0l-0.2,0c0,0-0.4,0.1-0.5,0.3c0,0-0.4,0.6-1,0.7c-0.2,0-0.8-0.1-0.8-0.1c-0.2-0.1-0.4-0.2-0.6-0.3
					c-0.1,0-0.2,0-0.3,0c-0.1,0-0.7,0.7-0.7,1.1c0,0.2,0,0.2-0.1,0.2L789,258c-0.1,0.1-0.1,0.5-0.1,0.5c0,0.2,0,0.2-0.3,0.4l-0.3,0
					l-0.1,0.1c-0.6,0.6-0.6,1.3,0.8,1.3c0,0.1,0,0.1,0,0.2c0.1,0.5-0.4,0.8-0.5,1.3c0,0.3,0,0.3,0,0.3l0.1,0.1c0.1,0,0.1,0,0.2,0.7
					c0.4-0.3,0.6-0.4,0.6-0.4s0-0.1,0.1-0.2c0.1-0.3,0.1-0.6,0.2-0.9c0-0.1,0.1-0.2,0.2-0.3c0.1-0.6,0.2-1.2,0.3-1.8
					c0.3,0,0.5,0,0.8,0c0,0.2-0.1,0.4-0.1,0.6l-0.2,0.3c0,0.1,0,0.2,0,0.3c1,0.3,1,0.3,1.2,0.2c0,0.2-0.1,0.4-0.1,0.6
					c-0.1,0.2-0.2,0.3-0.3,0.5c0,0.1,0,0.2-0.1,0.3c0,0.2-0.1,0.6,0.5,0.6c0.3,0,0.5,0,0.8,0c0-0.1,0.1-0.2,0.1-0.3
					c0-0.1,0-0.3,0.1-0.4c0-0.2,0.1-0.6,0.1-0.7c0-0.1-0.2-0.1-0.3-0.2c-0.1-0.1-0.1-0.2-0.2-0.2c-0.3-0.4-0.3-0.4-0.1-1
					c0-0.1,0-0.2,0-0.3c0.1-0.3,0.1-0.3-0.4-0.8c-0.1-0.2-0.4-0.1-0.5-0.2l0-0.3c0-0.1,0.1-0.3,0.1-0.5c0.2,0,0.5,0,0.7,0
					c0.3,0,0.5-0.3,0.8-0.3c0.3,0,0.6,0.1,0.9,0l0,0C794.2,257.5,794.3,257.3,794.3,257.2 M796.8,253.5L796.8,253.5
					c-0.1-0.1-0.1-0.1-0.2-0.1c-0.3,0-0.3,0-0.5,0.4c-1.4,0-2.9,0.1-4.3,0.1c-0.4,0.1-0.4,0.5-0.8,0.6c-0.9,0.1-0.9,0.1-1,0.2
					c-0.1,0-0.2,0.1-0.2,0.1c-0.4,0.3-0.4,0.7-0.4,1.1c0.4-0.2,0.7-0.3,1.1-0.5c0.1-0.1,0.2-0.3,0.3-0.3c0.5-0.3,0.5-0.3,0.6-0.3
					c0.1,0,0.1,0,0.2,0c0.1-0.1,0.2-0.2,0.2-0.3l0.5,0.1c0.5,0,1.1,0,1.6,0c0.1,0,0.5,0.2,0.6,0.3c0.1,0.1,0.1,0.2,0.2,0.2
					c0.3,0,0.4-0.1,0.6-0.2c0.1-0.1,0.2-0.3,0.4-0.3l0.1,0C796.2,254.4,796.5,254.2,796.8,253.5 M792.4,268.5L792.4,268.5
					L792.4,268.5 M797.1,266.6L797.1,266.6l-0.2-0.2c-0.1-0.1-0.1-0.2-0.2-0.3c-0.1,0-0.3-0.1-0.6-0.1c-0.3,0-0.4,0.1-0.5,0.2
					c-0.1,0.1-0.1,0.1-0.5,0.2c-0.2,0.1-0.3,0.2-0.5,0.3c-0.2,0-0.3,0.1-0.5,0.1c-0.1,0-0.1,0.1-0.1,0.1c0,0.1,0,0.2-0.3,0.2
					c-0.6,0-0.6,0-0.6,0c-0.1,0.1-0.2,0.2-0.3,0.3c-0.2,0.1-0.4,0.3-0.4,0.3l-0.1,0.1l0,0.1l0,0.1l0-0.1c-0.1,0.4-0.1,0.4,0,0.5
					c0,0,0.6,0.3,0.8,0.2c0.1-0.1,0.1-0.1,0.2-0.3c0.1-0.1,1-0.9,1-0.9c0.3-0.2,0.7-0.1,1-0.3c0.2-0.1,0.3-0.3,0.5-0.4
					c0,0,0.3-0.1,0.6-0.1C797,266.9,797,266.9,797.1,266.6L797.1,266.6 M791.8,269.9c0-0.1,0.1-0.3,0.1-0.4l-0.1-0.3
					c-0.2,0-0.2,0-0.8,0.3c0,0.3,0,0.3,0,0.4C791.3,270,791.5,270,791.8,269.9 M793.9,266.3L793.9,266.3c0-0.1,0-0.2,0-0.3h-0.2
					c-0.1,0-0.1,0-0.2,0.1c-0.1,0.1-0.1,0.1-0.2,0.1c0,0,0,0-0.5,0c-0.2,0-0.5,0.1-0.7,0.1c-0.1,0-0.2,0-0.2,0
					c-0.3,0-0.6,0.2-0.9,0.2c-0.1,0-0.4,0-0.5-0.1c-0.3-0.4-1.2-0.3-1.6-0.1c-0.2,0.1-0.3,0.2-0.5,0.3c-0.1,0-0.2,0-0.3,0
					c0.2,0.1,0.2,0.4,0.5,0.5c0.1,0,0.1,0,1.4,0l0.2,0c1.1,0,1.1,0,1.1,0c0.3-0.1,0.5-0.1,0.8-0.2l0.1-0.1c0.1-0.1,0.2-0.2,0.4-0.3
					l0.4,0C793.7,266.5,793.7,266.5,793.9,266.3 M789.1,268.8l0.1,0c0-0.1,0-0.2,0-0.3c-0.4-0.1-0.5-0.1-0.5-0.2c0-0.1,0-0.2,0-0.3
					l-0.1,0l-0.4-0.1c-0.1-0.1-0.1-0.2-0.1-0.3c-0.1,0-0.3-0.1-0.4-0.1c-0.1,0-0.1,0-0.6,0.3c0.1,0.3,0.1,0.3,0.2,0.3
					c0.1,0.1,0.1,0.2,0.2,0.3c0,0.1,0,0.2,0.1,0.3C787.8,268.9,788,268.9,789.1,268.8 M787.5,266.7L787.5,266.7L787.5,266.7
					c-0.1-0.1,0-0.2,0-0.3c-0.5,0-0.5,0-0.6-0.1l-0.1,0l0,0c-0.1,0-0.1,0-0.2,0c-0.1,0-0.3-0.1-0.4-0.1c-0.1,0-0.2,0-0.4,0
					c-0.1,0-0.1,0-0.2,0.1c-0.1,0.1-0.2,0.2-0.3,0.2l0,0c-0.2,0.1-0.4-0.1-0.7,0c-0.1,0-0.2,0.1-0.2,0.1c-0.2,0.2,0.1,0.5,0.4,0.5
					c0.1,0,0.9,0,0.9,0c0,0,0.3-0.1,0.5-0.3c0.1-0.1,0.1-0.1,0.2-0.2c0.2,0,0.3,0.1,0.5,0.1C787,266.8,787,266.8,787.5,266.7
					 M783.3,267.1L783.3,267.1c-0.2-0.6-0.2-0.8-0.5-0.8c-0.3,0-0.4-0.2-0.5-0.5c-0.7,0-1.3,0-2,0c0.1-0.8,1-0.6,1.6-0.9
					c-0.3,0-0.6-0.2-0.9-0.2l-1.3-0.1c-0.7-0.1-1.4-0.4-2.1-0.5c-2,0.1-4.8,0.2-6.8,0.3c0,0.1,0,0.2,0,0.3c0.3,0,0.5,0,0.8,0
					c0,0.2,0,0.4,0,0.6c0.7,0,0.7,0,0.7,0c0.3,0.2,0.4,0.6,0.9,0.7c0.5,0.1,1-0.3,1.5-0.3c0.4,0,0.8-0.2,1.2-0.1
					c0.2,0.1,0.2,0.4,0.4,0.5c0.5,0.1,1.1-0.3,1.6,0.1c0.7,0.5,0.7,0.5,1.5,0.6c0.1-0.4,0.1-0.5,0.2-0.5c0.3-0.1,0.4,0.2,0.7,0.2
					c0.1,0,0.2,0,0.3,0c0.9-0.4,1.4,0.7,2.2,0.7c0.1,0,0.2,0,0.3,0L783.3,267.1 M766.8,263.3c0-0.1,0-0.2,0-0.3l-0.1-0.2
					c0-0.1,0-0.2,0-0.3c-0.1,0.1-0.2,0.1-0.2,0.3c0,0.1,0,0.2,0,0.3L766.8,263.3 M790,248.6L790,248.6c0-0.6,0-0.6-0.1-0.7
					c-0.2-0.2-1.1-0.1-1.1-0.1c-0.2,0-0.8-0.4-0.8-0.4c0-0.2,0.1-0.4,0.1-0.6l-0.4-0.7L787,246c-0.3,0.8-1.2,1-1.7,1.6
					c-0.5,0.5-0.6,1.3-1.2,1.8c-0.4,0.3-1,0.1-1.4,0.4c-0.3,0.3-0.7,0.6-0.8,1l-0.1,0.2c-0.4,0.3-0.7,0.7-1.2,0.9
					c-0.3,0.2-0.5,0.2-1.1,0.2c0,0.5-0.1,1-0.2,1.5c-0.5-0.1-1,0.2-1.5,0.1c-0.2,0-0.3-0.1-0.5-0.5l-0.3-0.1c-0.1,0-0.2,0-0.3,0
					c-0.1,0-0.2,0-0.3,0.1c0,0.7,0,0.7-0.1,0.9c-0.1,0.2-0.4,0.3-0.4,0.5l-0.2,1.2c-0.1,1,1.4,0.9,1.2,2l0.1,0.1c0,0.1,0,0.2,0,0.3
					c-0.2,0.7-0.3,1.1,0,1.4c0.5,0.5,1.2,0.1,1.7,0.3c0.1,0.5,0.3,0.6,0.5,0.7c0.7,0.2,1.3-0.5,2-0.4l0.1,0c0.1,0,0.1,0,0.4,0.5
					c0.2,0.3,0.5-0.2,0.8-0.1c0.1,0,0.3,0.2,0.4,0.5c0.1,0.1,0.1,0.1,0.3,0.2c0.2,0,0.2,0,0.5,0c0.1,0,0.2,0,0.4,0l0.1-0.1
					c0-0.2,0-0.4,0.1-0.6c0-0.1,0-0.1,0.6-0.5c0.4-0.3,0.3-0.9,0.2-1c-0.1-0.2-0.2-0.4-0.2-0.4l0.8-1c0.2-0.2,0.2-0.3,0.5-1.1
					c0.3,0,0.5,0,0.8,0c0.1-0.5,0.1-1,0.2-1.5c2.3,0,1.6-0.9,1.5-1c-0.4,0-0.4,0-1.1,0c-0.1-0.3-0.1-0.3,0.1-0.7
					c0-0.1,0-0.3,0.1-0.5c0.1-0.4-0.2-0.8-0.2-1.2c0-0.5,0.1-1,0.1-1.5c0.6,0,0.6,0,1,0C788.7,249.2,788.7,249.1,790,248.6
					 M764.6,260.6c0-0.4,0-0.7,0.1-1.1c-0.1,0-0.2-0.1-0.2-0.1c-0.1-0.1-0.1-0.2-0.2-0.3c0,0-0.3-0.1-0.5-0.1
					c-0.5,0.1-0.7-0.7-0.7-0.7c-0.1-0.4,0.1-0.8,0-1.2c-0.1-0.1-0.1-0.1-0.6-0.3c-0.3,0.6-0.2,1-0.2,1.1c0.2,0.4,1.2,1.8,1.4,1.9
					c0.3,0.1,0.3,0.1,0.5,0.3C764.1,260.6,764.3,260.6,764.6,260.6 M760.1,254.4L760.1,254.4l-0.1-0.2
					C760,254.2,760.1,254.3,760.1,254.4L760.1,254.4 M761.4,255.5l0-0.3c0-0.4-0.1-0.5-0.1-0.6c-0.1-0.1-0.2-0.1-0.3-0.2
					c-0.1-0.1-0.2-0.3-0.4-0.5l-0.1-0.1c-0.1-0.1-0.2-0.1-0.4-0.1l0,0c-0.2,0.3-0.2,0.4,0.3,0.9c0.1,0.1,0.2,0.2,0.3,0.2
					c0.1,0.1,0.2,0.1,0.3,0.2c0.1,0.1,0.2,0.3,0.2,0.4l0,0.1L761.4,255.5 M759.4,253c0-0.1,0.1-0.2,0.1-0.3
					c-0.1-0.1-0.3-0.1-0.4-0.3l-0.1-0.2c0-0.1,0-0.2-0.1-0.3l-0.3-0.2c0,0.1-0.1,0.2-0.1,0.3c0,0.1,0.1,0.1,0.1,0.2l0,0.2l0,0.2
					l0,0.2l0,0l0,0c0,0.1,0.2,0.1,0.3,0.1h0h0h0h0h0h0h0h0L759.4,253 M773.1,259.7c0,0-0.1-0.7-0.6-0.7c-0.5,0-0.5-0.1-0.1-0.7
					l0-0.1c0,0-1.3-1.2-1.7,0.3c-0.3,0-0.5,0-0.8-0.1c0-0.4,0.4-0.9-0.1-1.2c-0.1,0-0.2,0-0.3,0c-0.7,0-0.7,0-0.7,0
					c0,0-0.9-0.6-0.8-0.9c0-0.5,0-1,0-1.4c-1,0.1-1,0.1-1.5-0.5c-0.4-0.4-0.1-1-0.4-1.5c-0.1,0-0.2,0.1-0.3,0.1c-0.1,0-0.2,0-0.3,0
					c-0.4,0-0.8,0-1.2-0.6l-0.1-0.3c-0.6-0.2-0.8-0.8-1.2-1.1c-0.8-0.6-0.8-0.6-0.9-0.7c-0.2,0-0.4,0-0.5-0.1
					c-0.2-0.2,0-0.4-0.1-0.6c-0.2,0-0.5-0.1-0.9-1.1c-0.5,0-0.8,0.4-1.3,0.3c-0.6-0.1-0.9-0.7-1.5-0.9c-0.6,0.2-0.3,0.6,0.5,1.6
					c0.5,0.6,1.2,0.8,1.6,1.4c0.4,0.6,0.4,0.6,0.6,1.1c0.2,0.5,0.2,0.6,0.7,0.6c0.4,0,0.6,0.2,0.7,0.3c0.3,0.4,0.3,0.4,0.3,1.4
					c0,0.1,0,0.2,0,0.3c0.3,0.9,1.4,1.1,1.8,1.8c0.3,0.4,0.7,0.8,0.9,1.3c0.2,0.5,0.2,1.1,0.5,1.5c0.5,0.8,1.4,1.3,1.9,2
					c0.7,0.9,0.7,0.9,0.9,1.1c0.8,0.6,0.8,0.7,0.9,1l1.7-0.2c0.1,0,0.5-0.5,0.5-0.5c0-0.1,0-0.2,0-0.3c0.1-0.8,0.1-0.8,0.2-1.6
					c0-0.1,0-0.2,0-0.3c0.2-0.7,1-0.3,1.5-0.6L773.1,259.7 M799.1,245.8l0.2-0.3l-0.2-0.6c0.1-0.7,0.1-1.5,0.2-2.2
					c0-0.2-0.1-0.9-0.6-1c-0.1,0-0.2,0.1-0.3,0.3c-0.1,0.2-0.1,0.5-0.3,0.7c0,0-0.4,0.3-0.6,0.2c-0.2-0.1-0.5,0.2-0.7,0.5
					c-0.1,0.4-0.1,0.5-0.8,0.5c-0.2,0,0-0.3-0.1-0.5c-0.2,0-0.6,0.1-0.8,0.2l0,0.3c-0.2,0.2-0.3,0.2-0.6,0.2c-0.6,0-0.9,0.7-0.9,0.7
					c0,0.5-0.1,1-0.1,1.5c0.1,0.1,0.2,0.2,0.2,0.2c0.1-0.1,0.2-0.2,0.2-0.3c0-0.1,0-0.2,0-0.3c0-0.1,0-0.2,0-0.3c0-0.3,0-0.3,0-0.3
					l0.6-0.3c0.2-0.1,0.2-0.1,1.3,0c0,0.2,0,0.4-0.1,0.6c-0.1,0.7-0.1,0.7,0.1,0.9l0.1,0.1c0.1,0.1,0.3,0,0.4,0.1
					c0.2,0.1,0.2,0.2,0.4,0.3c0.1,0.1,0.1,0.1,0.4,0.1c0.1,0,0.1,0,0.3,0.3c0,0.1,0,0.2,0,0.3c0.1,0,0.2-0.1,0.2,0
					c0.1,0,0.1,0.2,0.2,0.2l0.3-0.1c0-0.2,0-0.4,0.1-0.6c0-0.3-0.1-0.4-0.2-0.4c-0.1,0-0.1,0-0.2-1c0.1-0.1,0.1-0.2,0.2-0.2
					c0.1,0,0.1,0,0.3,0.1C798.5,245.7,798.8,245.8,799.1,245.8L799.1,245.8 M796.2,242.2c0-0.3,0-0.6,0.1-0.9c0-0.2-0.1-0.4-0.3-0.5
					c-0.3-0.1-0.3-0.1-0.5-0.2c-0.2-0.2,0.1-0.6-0.2-0.8c0,0-0.3-0.3-0.6-0.3c-0.1,0-0.1,0-0.2-0.1c-0.1-0.1-0.1-0.3-0.1-0.4
					c-0.1-0.1-0.1-0.2,0-0.5c0-0.4,0-0.4-0.4-0.9c-0.2-0.3-0.6-0.3-0.8-0.6c-0.1-0.2-0.2-0.3-0.4-0.5l0,0c0,0,0,0-0.5-0.1
					c-0.2,1.2,0.2,1.2,1.1,1.2c-0.1,0.9-0.1,0.9,0.1,1.1c0,0,0.2,0.6,0.1,1.1c-0.1,0.5-0.1,0.5-0.1,0.5c0.4,0.9,1,0.7,1.3,0.7
					c0,0.1-0.2,0.2-0.2,0.3l-0.2,0.6c0,0.1,0,0.3,0.1,0.4c0.5,0.4,1,0.2,1,0.2c0.1-0.1-0.1-0.3,0.1-0.3
					C795.6,242.2,795.6,242.2,796.2,242.2 M798.7,239.5L798.7,239.5c-0.1-0.7-0.1-1-0.4-1.2c-0.2-0.2-0.2-0.2-0.2-0.3
					c0-0.1,0-0.1-0.1-0.3c-0.3-0.7-0.8-0.8-0.8-0.8c-0.1,0-0.1,0-0.1,0c0-0.1-0.1-0.2-0.1-0.3c0-0.1,0.1-0.2,0.1-0.3
					c0-0.3,0-0.6,0-0.9c-0.1,0-0.2,0.1-0.3,0.1c-0.1,0-0.2-0.1-0.3-0.1c-0.1,0-0.2,0-0.3,0c-0.1,0-0.2,0-0.2,0
					c-0.3,0-0.4,0.2-0.4,0.2c0,0.1,0,0.2-0.3,0.3c0,0-0.8,0.2-0.9,0.2c0.2,0.2,0.8,0.7,0.9,0.7c0.3,0.2,0.3,0.2,0.4,0.1l0.1,0
					c0,0.1,0,0.2,0,0.3c0.1,0.1,0.4,0.2,0.5,0.3c0.2,0.3,0,0.7,0.2,1c0.1,0.1,0.2,0.1,0.3,0.1c0.2,0.1,0.3,0.4,0.5,0.5
					c0,0,0.1,0,0.1,0.1c0.1,0,0.1,0,0.2,0.3c0.1,0.2,0.1,0.2,0.1,0.8c0.4,0,0.7,0,1.1,0C798.6,240.1,798.6,240.1,798.7,239.5
					 M791.6,237.8l0-0.1c-0.1,0.3-0.1,0.3-0.3,0.5c-0.4,0.5-0.4,0.5-0.4,0.7c0,0.1,0,0.1-0.4,0.8c-0.1,0.1-0.2,0.1-0.3,0.2
					c-0.1,0.2-0.2,0.5-0.3,0.6c-0.1,0.1-0.2,0.1-0.2,0.2c-0.1,0.1-0.1,0.1,0,0.2c0,0,0,0.4-0.1,0.5c-0.1,0.1-0.2,0.2-0.3,0.4
					c-0.1,0.1-0.1,0.3-0.3,0.4c-0.2,0.1-0.4,0.1-0.6,0.2c0,0.2-0.2,0.7-0.8,0.6c-0.2,0-0.4,0.4-0.6,0.9l0.1,0
					c0.3,0.1,1.3-0.1,1.2-0.8c0,0,0-0.9,1.6-0.9c0.1-1.6,0.9-2,1-2c0.1,0,0.2-0.1,0.2-0.2L791.6,237.8 M794.8,231.1v-0.2
					c0-0.2,0-0.2,0-0.3l-0.1-0.2l-0.1-0.2l0-0.2l-0.1-0.2l-0.1-0.2l0-0.2l-0.1-0.2l-0.1-0.1l-0.2-0.2l-0.2-0.1l-0.1,0h0h0h0h0h0h0
					l0,0h0c-0.1,0-0.1,0-0.2,0l-0.1-0.1l-0.1-0.2c-0.3-0.2-0.3-0.2-0.4-0.2c-0.2,0-0.4,0-0.7,0l0,0.2l0,0.2l0,0.2l0,0.1l0,0.2v0.2
					c0.1,0.2,0.1,0.2,0.1,0.5v0.2l-0.1,0.2c-0.1,0.1-0.2,0.4-0.1,0.8c0.1,0.4,0.1,0.4-0.1,0.5c-0.2,0.2-0.5,0.3-0.7,0.5l-0.1,0.2
					v0.2l0,0.2c0,0,0.1,0.3,0.5,0.7c0.3,0.3,0.5,0.4,0.5,0.4l0.1,0.1l0.1,0c-0.4,0.8-0.1,1.1,0.1,1.2c0.1,0,0.2,0.1,0.4,0.1
					c0.2,0,0.4,0,0.6,0c0-0.2,0-0.3,0-0.5c0-0.1-0.1-0.2-0.1-0.4c0-0.2,0-0.5,0-0.7c0-0.3,0.4-0.6,0.5-0.7l0.1-0.1l0.1-0.2l0.1-0.2
					c0.3-0.5,0.4-1.1,0.4-1.1v-0.2L794.8,231.1 M794,219.4c0-0.1,0-0.2,0-0.3c0-0.1-0.1-0.1-0.2-0.2c0-0.1,0-0.3,0-0.4
					c-0.5,0-0.5,0-0.7,0c-0.2,0-0.2,0.3-0.3,0.4c-0.1,0.1-0.3,0.2-0.4,0.4l0,0c-0.2,0.2-0.2,0.4-0.3,0.7c-0.1,0-0.2,0.1-0.3,0.1
					c0,0-0.2,0.6-0.2,0.9c0,0.9,0.1,1.7,0.1,2.6c0.3,0,0.5,0,0.8,0c0-0.8,0-0.8,0.1-1.2c0-0.2,0.2-0.2,0.3-0.3
					c0.1-0.4,0.1-0.4,0.1-0.5c0-0.1,0-0.1,0-0.1c0.1-0.2,0.2-0.3,0.3-0.4c0.1-0.3,0.1-0.3,0.4-0.6c0,0,0.3-0.4,0.3-0.5
					C794,219.6,794,219.5,794,219.4 M816.6,186.1c0-0.1-0.1-0.2-0.1-0.3l-0.1,0c-0.4,0.2,0.1,0.7-0.2,1c-0.5,0.4-0.5,0.4-0.9,0.5
					c-0.1,0-0.1,0-0.2,0.1l-0.1,0.1c-0.1,0-0.1,0-0.3,0l-0.2,0c-0.2,0.3-0.4,0.8-0.6,0.7c0,0-0.4-0.2-0.7-0.3
					c-0.5-0.3-0.8-0.7-1.3-1c-0.4-0.3-0.9-0.3-1.3-0.5c-0.1,0.8,0.6,1.4,0.7,2.2c-0.5,0.5,0.2,1.3-0.3,1.8c-0.2-0.1-0.3-0.3-0.5-0.4
					c0,0.2,0,0.4,0,0.5l-0.1,0c-0.5,0.1-0.2,1.7,0.9,2.2c0,0,0.1,0,0.2,0l0.2-0.2c0.1,0.2,0.1,0.5,0.2,0.7c-0.3,0-0.5,0-0.8,0
					c0,0.2,0.1,0.4,0.1,0.6c0,0.1,0.1,0.2,0.1,0.4c0.2,0.4,0.1,0.8,0.2,1.1c0.1,0.3,0.2,0.6,0.3,1c0.3,0.9,0.2,0.9-0.3,1
					c-0.4,0.5-0.3,1.2-0.6,1.7c-0.2-0.3-0.1-0.7-0.3-1.1l-0.1,0.2c0.1,0.6,0.1,0.6,0.1,0.8c-0.3,0-0.5,0-0.8,0
					c0.1,0.4,0.2,0.8,0.3,1.1c-0.3,0-0.7,0.1-0.7-0.9c-0.1,0-0.2,0-0.2,0c-0.1,0.2-0.1,0.2,0,0.5l0,0c0.1,0.7,0.1,0.7-0.6,0.7
					c0.1,0.6,0.2,1.1,0.3,1.7l-0.5,0c-0.1,0-0.2-0.1-0.3-0.1c-0.3-0.7-0.6-0.5-0.6-0.5c-0.2,1-1.4,0.5-2.1,0.7
					c-1.2,0.4-1.2,0.4-0.9,1.8c-0.4,0-0.7,0-1.1,0.1c0,0.2,0,0.2,0.2,0.9c-0.4,0-0.8,0.2-0.8,0.3c-1,1.8,0.2,1.6,1.1,1.5l0-0.1
					c0.1,0.5,0.1,0.5-0.1,0.9c-0.2,0.6-0.5,1.7,0.5,1.8c0.1,0,0.3,0,0.5,0c-0.2-1.4-0.2-1.4,0.5-1.8c0.3-0.2,0.3-0.4,0.3-0.4
					c-0.1-0.6-0.5-1.1-0.5-1.7c-0.2,0-0.5,0.1-0.8,0c0-0.1,0-0.2-0.1-0.3c0.5-0.4,0.5-0.4,0.8-0.3c0.8,0.1,1.1-0.7,1.7-1
					c0.6-0.2,1.2,0,1.8-0.2l0.1-0.1c0,0.1-0.1,0.2-0.1,0.2c-0.2,0.1-0.5,0-0.8,0.1c-0.3,0.1-0.4,0.5-0.7,0.6l-0.1,0
					c-0.4,0-0.8,0-1.2,0c0.1,0.6,0.2,1.3,0.3,2c0.2,0,0.3,0,0.5,0c0.3-0.1,0.7-0.4,0.7-0.4c0.2-0.2,0.2-0.5,0.4-0.8
					c0.2-0.3,0.6,0,0.8-0.3c0.1-0.1,0-0.4,0-0.5c0.1-0.1,0.2-0.1,0.2-0.1c0.7,0.8,0.7,0.8,0.8,0.8c0.5,0,0.5-0.8,1-0.8
					c0.2-0.3,0.2-0.3-0.2-1.1l0.2-0.1c0.8,0,1.8,0,2.5-0.1c0.3-0.6,1.3-0.5,1.2-1.3c-0.1-0.5-0.2-0.9-0.3-1.4c0-0.4,0.1-0.8,0.2-1.2
					l-0.1-0.3c-0.1-0.2-0.1-0.4-0.2-0.6c0-0.1-0.1-0.3-0.1-0.5c-0.2-0.5-0.2-0.5,0.3-0.8c0-0.1,0.1-2.1-0.4-3c0,0-1.3-2.4-2.4-2.6
					c0-0.1-0.1-0.3-0.1-0.4c0.3,0,0.7,0,1,0l0.2-0.2c0,0,0.1,0,0.2,0c0.6,0.3,0.6,0.3,0.8,0.3c0.2,0.3,0.2,0.3,1.1,0.4
					c0-0.3,0-0.3-0.3-1.1c0.4,0,0.7,0,1.1-0.1c0.2-0.2,0.2-0.2,0.5-0.4c0-0.5-0.4-0.9-0.3-1.3c0.4-0.2,0.4-0.2,0.7-0.2
					c0.1-0.3,0.1-0.3,0.6-0.4c0.1,0,0.1,0,0.2,0c0.1,0,0.2-0.1,0.3-0.1C816.7,186.3,816.7,186.3,816.6,186.1 M817.6,184.5
					L817.6,184.5l-0.1,0c0,0-0.1,0-0.1,0.1c0,0.1,0,0.1-0.1,0.2c0,0.1,0,0.1-0.1,0.2c0,0.1,0,0.1-0.1,0.2c0.2,0.1,0.3,0.2,0.4,0.2
					c0.3,0,0.3,0,0.3-0.1c0-0.1-0.1-0.2-0.1-0.3C817.6,184.8,817.6,184.7,817.6,184.5 M818.3,177.7c0-0.1-0.1-0.1-0.1-0.2l-0.2-0.1
					c0,0,0,0,0.1,0.3c0,0.1,0,0.2,0,0.3c0,0.1,0.1,0.2,0.2,0.3c0,0.1,0,0.3,0,0.4c0,0.1,0,0.2,0.1,0.3l0.1,0l0,0c0,0,0-0.1,0-0.2
					c0-0.1,0-0.2-0.1-0.3c0-0.1,0-0.2,0-0.2l0-0.1c0-0.1-0.1-0.1-0.1-0.2C818.3,177.9,818.3,177.8,818.3,177.7L818.3,177.7
					 M820.7,170.7l-0.1-0.1c-0.2-0.3-0.2-0.3-0.3-0.3l-0.1,0l-0.1,0l-0.1,0h0c0,0,0,0,0.5,0.7c0.1,0,0.2,0,0.3,0L820.7,170.7
					 M820.1,171.1c0.1,0,0.2,0,0.3,0c0,0-0.2-0.3-0.3-0.4c-0.2-0.2-0.3-0.5-0.5-0.7c-0.3-0.3-0.5-0.5-0.8-0.7
					c0.1,0.2,0.3,0.4,0.4,0.6c0.1,0.1,0.2,0.1,0.2,0.2C819.6,170.5,819.9,170.8,820.1,171.1 M814,164.4l-0.2-0.3l-0.2-0.1l0,0
					l-0.1,0.1l-0.1,0l0,0c0,0.2,0.1,0.3,0.2,0.4c0.1,0.1,0.2,0.3,0.4,0.4l0.1,0l0.2-0.1c0,0,0,0-0.1-0.3l0-0.1L814,164.4 M813.5,157
					c-0.2-0.1-0.3-0.3-0.5-0.4c-0.1,0-0.1-0.1-0.2-0.1l-0.1-0.1l0,0l-0.1,0l-0.1-0.1l0,0l-0.1,0l0.1,0.2l0.4,0.3l0,0l0,0v0
					c0.1,0,0.2,0.1,0.2,0.2c0.1,0.1,0.1,0,0.1,0l0,0l-0.1-0.1L813.5,157L813.5,157L813.5,157L813.5,157 M797.3,146.8
					c-0.1-0.1-0.3-0.1-0.4-0.2c-0.3-0.1-0.5-0.3-0.6-0.3l-0.1,0l0,0c-0.2,0-0.3-0.2-0.5-0.2l0,0c0,0,0,0,0.1,0.1
					c0.1,0.1,0.2,0.1,0.3,0.2v0l-0.1,0c0.1,0.1,1.1,0.6,1.2,0.7l0.2-0.1l-0.2-0.1l-0.1-0.1l0,0l0.1,0L797.3,146.8L797.3,146.8
					L797.3,146.8L797.3,146.8 M781.4,143.3c-0.1-0.1-0.3-0.2-0.4-0.2c-0.1,0-0.2-0.1-0.2-0.1c-0.1-0.1-0.3,0-0.3,0l-0.1,0.1l-0.1,0
					l-0.1,0l-0.1,0l0,0c-0.2-0.1-0.4-0.2-0.6-0.3c-0.3,0-0.3,0-0.3,0l0,0l0.2,0.1l0,0c-0.2,0-0.2,0-1-0.3l0,0.1
					c0.3,0.2,0.6,0.3,0.9,0.5c0.2,0.1,0.4,0.1,0.6,0.2c0.1,0,0.2,0.1,0.3,0.1c0.1,0,0.1,0,0.1,0l0-0.1c0.1,0,0.5,0.2,0.5,0.2
					c0.1,0.1,0.1,0.1,0.2,0.1c0.4,0.1,0.4,0.1,0.4,0.1l0.1,0h0.1l0,0c0,0-0.1-0.1-0.2-0.2l-0.1,0L781.4,143.3 M781.9,145.4
					c-0.5-0.3-0.6-0.4-1-0.5h0c-0.1,0-0.2,0-0.3,0c-0.2-0.1-0.2-0.1-0.3-0.1c-0.1-0.1-0.1-0.1-0.2-0.1l0,0l-0.1,0
					c-0.2,0-0.2,0-0.2,0c0,0.1,0.1,0.1,0.2,0.2l-0.1,0c0,0.1,0.1,0.2,0.1,0.3l-0.1,0c0.2,0,0.5,0.1,0.5,0.1l0.1,0l0.2,0l0.2,0l0,0
					l0,0h0.1c0.2,0.1,0.5,0.2,0.7,0.2L781.9,145.4 M779.1,144.2l-0.2-0.1l0,0l-0.1,0c-0.1,0-0.2-0.1-0.3-0.1l-0.2,0l0.2,0.2l0.1,0.1
					l0.1,0.1c0.3,0.1,0.3,0.1,0.3,0.1l0.1,0l0,0l0-0.1L779.1,144.2 M778,142.6c-0.3-0.2-0.3-0.2-1.1-0.2l0,0l0,0
					c0.3,0.2,0.6,0.4,0.9,0.6c-0.2,0-0.2,0-0.2,0c-0.2-0.1-0.4-0.2-0.6-0.3c-0.2-0.1-0.4-0.3-0.7-0.4c0,0-0.3-0.1-0.5,0l0,0
					c0.2,0.1,0.3,0.2,0.5,0.3c-0.2,0-0.3,0-0.5,0c-0.2-0.1-0.4-0.2-0.6-0.3c-0.1,0-0.1-0.1-0.2-0.1l-0.1,0l-0.1,0l-0.1,0l0,0
					c-0.1,0-0.3,0-0.4,0c0.1,0.1,0.1,0.1,1.4,1l-0.2-0.1c0.1,0.1,0.3,0.2,0.4,0.2l0,0c0.2,0.1,0.4,0.1,0.6,0.2
					c0.2,0.1,0.4,0.2,0.6,0.3c0,0,0,0,0.3,0c-0.4-0.3-0.4-0.3-0.6-0.4c0.4,0.1,0.4,0.1,0.7,0.1l0,0h0l0,0h0l0,0h0h0h0l0.1,0
					c0-0.1-0.1-0.1-0.2-0.1c0.2,0,0.4,0.2,0.6,0.1c0-0.2-0.2-0.2-0.2-0.3l0.1,0h0c0.2,0,0.3,0.1,0.5,0.1c0.1,0,0.2,0,0.3,0
					c-0.6-0.3-0.6-0.3-0.7-0.4C778.2,142.8,778.1,142.7,778,142.6 M774.3,142.6L774.3,142.6l-0.1,0l-0.2,0l0,0l0,0
					c0,0.1,0.5,0.3,0.5,0.3l0.4,0.1l0.1,0l-0.1-0.1l-0.1,0C774.6,142.8,774.6,142.8,774.3,142.6 M777.6,144.9c0.1,0,0.3,0,0.4,0
					c-0.1,0-0.1-0.1-0.2-0.1l-0.2,0c-0.2,0-0.3-0.1-0.5-0.2l-0.1-0.1c-0.1-0.1-0.3-0.2-0.5-0.2l-0.1,0c0.3,0.2,0.6,0.3,0.8,0.5
					C777.4,144.8,777.5,144.9,777.6,144.9 M760.6,140.5L760.6,140.5l-0.2-0.1l-0.1-0.1l-0.2,0h-0.1l-0.1,0l-0.1,0h-0.1l0,0.1
					l0.1,0.1l0.2,0l0.2,0.1l0.1,0c0,0,0.1,0,0.2,0L760.6,140.5L760.6,140.5L760.6,140.5 M756.7,141.6L756.7,141.6l0-0.2l0-0.1l0,0
					l-0.1-0.1h0l0,0.1c0,0,0,0.1-0.2,0.1l0,0.1l0.1-0.1l0.2,0.1L756.7,141.6L756.7,141.6 M759.6,140l-0.1-0.1l-0.1-0.1
					c-0.1,0-0.2,0-0.3,0c-0.2-0.3-0.2-0.3-0.2-0.3c-0.1,0-0.4-0.1-0.5-0.1v0.2l0,0h0l-0.1-0.1l0.1-0.1l0-0.1c-0.2,0-0.2,0-0.2-0.1
					l0,0h0l0,0.1l-0.1,0l0,0c0,0.1,0,0.1,0,0.2l0,0.2h-0.1l0,0.1c0,0.1,0.1,0.1,0.1,0.2c0,0.1,0,0.2-0.1,0.2l-0.1,0
					c-0.1,0.1,0,0.3,0,0.4c0.1,0.1,0.2,0.3,0.3,0.1l0.1-0.1l0.1-0.1l0.2,0l0.1,0c0.1,0,0.3,0,0.4,0l0.1-0.1c0,0,0,0,0.1,0
					c0.1,0,0.1,0,0.2,0l0,0l0.1-0.1c0.1,0,0.2,0,0.2,0C759.6,140.2,759.7,140.2,759.6,140 M757.3,139c0,0-0.2-0.3-0.3-0.3
					c0,0-0.3-0.1-0.2,0.1l0,0.1l-0.2,0l0-0.1l0-0.1c-0.1,0-0.2,0-0.3,0c-0.1,0-0.1,0.1-0.2,0.2c-0.1,0-0.2,0-0.3,0l-0.1,0.1l-0.1,0
					l-0.1,0.1v0.1l0.2,0.1l0,0.1l0,0.2c0.2,0,0.4,0,0.6,0c0.2,0,0.2,0,0.3,0.2c0.4,0,0.4,0,0.5,0h0.1c0.3,0,0.3-0.1,0.3-0.2
					l-0.1-0.2c-0.1,0-0.1,0-0.2,0c0-0.1,0-0.1,0-0.2L757.3,139 M756.4,138.1L756.4,138.1L756.4,138.1L756.4,138.1L756,138
					c0-0.2-0.1-0.2-0.2-0.3l-0.1,0.1l-0.1,0.1c-0.1,0-0.1,0-0.1,0.1l-0.2,0c0,0.2,0,0.2-0.1,0.3l-0.1,0h-0.1l-0.1,0.1l0,0.2l0.2,0h0
					l0.1,0.1c0,0,0,0,0.2,0.1l0.1,0c0.1,0,0.2,0,0.2,0l0.1-0.1c0,0,0,0,0.1,0c0.1,0,0.2,0,0.2-0.1l0,0c0.1,0,0.2,0,0.3,0
					c0-0.1,0-0.2,0-0.3l0,0L756.4,138.1L756.4,138.1L756.4,138.1 M755.4,139L755.4,139l0-0.1l0-0.1l-0.1,0l-0.1,0l0,0l-0.1,0l-0.1,0
					H755l-0.1,0l0,0h-0.1h-0.1c0,0.1,0,0.2,0,0.2c0.1,0,0.2,0,0.3,0h0.1c0,0,0.1,0,0.1,0.1l0,0l0.1,0L755.4,139L755.4,139L755.4,139
					 M754.9,137.9L754.9,137.9L754.9,137.9l0-0.1l-0.1,0l-0.1,0l0,0l-0.1,0l-0.1,0.1l0,0.1l0.1,0l0.1,0.1h0L754.9,137.9L754.9,137.9
					 M725.9,150.6l0.1-0.1c-0.2-0.1-0.2-0.1,0.1-0.4c-0.3,0-0.5,0-0.8,0c-0.1,0.1-0.2,0.1-0.2,0.2l-0.1,0.2
					c-0.3,0.3-0.5,0.5-0.8,0.8c0.1,0,0.2,0,0.4,0c0.2,0,0.3-0.2,0.5-0.3l0.1,0c0.1,0,0.3,0,0.4-0.1L725.9,150.6 M744.9,141.8
					c0,0,0.1-0.2,0.2-0.4l-0.2,0l-0.1-0.1l-0.1,0l-0.1,0c-2.9,0.7-2.9,0.7-3.2,0.7c0,0-0.1,0-0.1,0c-0.7,0.1-0.7,0.1-1.3,0.5
					c-0.2,0-0.4,0-0.6,0c-1.8,0.7-2.8,1.1-3.1,1.4l-0.2,0.1c-0.1,0.1-0.2,0.2-0.3,0.3c-1.3,0.2-1.3,0.2-1.6,0.6
					c0.5-0.1,0.5-0.1,0.5-0.1c-0.1,0.1-0.2,0.1-0.3,0.2l-0.1,0.1l0,0.1c-0.1,0-0.2,0.1-0.4,0.1h0c-0.2,0-0.2,0-0.3,0
					c-0.2,0.1-0.3,0.3-0.6,0.4l-2,0.9c-0.4,0.2-0.4,0.2-1.3,1c0.1,0,0.2,0,0.3,0c0.2-0.1,0.2-0.1,0.4-0.2l0.1,0
					c-0.1,0.1-0.1,0.1-0.2,0.3c0.2-0.1,0.3-0.2,0.4-0.3c0.1,0.3,0,0.4,0,0.5l-0.6,0.3l-0.1,0.1l-0.1,0.1c0.2,0,0.4,0,0.7,0
					c0.3,0.1,0.6,0.2,0.9,0.2l0.2,0c0.2,0,0.2,0,0.2,0c0.1-0.1,0.2-0.2,0.3-0.3l0.1-0.1l0-0.1c0.1-0.1,0.2-0.2,0.2-0.3l-0.1,0l0-0.1
					c0,0,0,0,0.2-0.6l0.1-0.2l0-0.1c0.2-0.1,0.3-0.3,0.4-0.5l0.1-0.1c0.6-0.2,1-0.7,1.5-0.9l0.2-0.1l0.1,0l0.1,0l0.1-0.1
					c0,0,2-0.9,2.5-1.4c0,0,0.6,0,0.9-0.2c0,0,0.1-0.1,0.2-0.1c0.3,0,0.9-0.2,1.2-0.6l1.5-0.4c0.2,0,0.4,0,0.6,0c0,0,0.9-0.3,1-0.3
					c0.1,0,0.3,0,0.5,0C744.7,142,744.8,141.9,744.9,141.8 M743,145.6l0-0.2c0-0.1-0.2-0.1-0.2-0.1c-0.1,0-0.2,0-0.9,0.5l0,0.1
					c0.1,0,0.2,0,0.3,0l0.1,0c0.1,0,0.1,0,0.2,0l0.2,0l0.1,0C742.9,145.7,743,145.6,743,145.6 M749.2,137.8L749.2,137.8
					c0.1-0.1,0.1-0.1,0.2-0.1l0,0v0l-0.1,0l-0.2,0l-0.1,0c-0.1,0-0.2,0-0.2,0l-0.2,0.1l-0.1,0l0,0c-0.2,0.1-0.3,0.2-0.3,0.2
					c-0.1,0.1,0.3,0,0.4-0.1C748.9,137.9,749.1,137.8,749.2,137.8 M747.7,138.2l0.1-0.1c0.4-0.2,0.5-0.3,0.8-0.4l0,0
					c-0.2,0-0.4,0.1-0.6,0.2l0.1-0.1c-0.1,0-0.2,0.1-0.3,0.1c-0.2,0-0.4,0.1-0.4,0.1l-0.1,0l-0.1,0.1l0,0l0,0c0.1,0,0.1-0.1,0.2,0
					l0.1,0l0,0l0,0C747.5,138.2,747.6,138.2,747.7,138.2 M746.4,138.5l0.2-0.1C746.5,138.4,746.4,138.5,746.4,138.5l-0.1-0.1l-0.1,0
					h-0.1l0,0l0,0c-0.2,0.1-0.2,0.1-0.2,0.1v0h0.1l0.1,0L746.4,138.5L746.4,138.5 M746.6,138.3l0.1-0.1l0.1-0.1c-0.1,0-0.2,0-0.4,0
					c-0.3,0-0.5,0.1-0.8,0.2c-0.1,0.1-0.3,0.1-0.4,0.2c0.1,0,0.2,0,0.2,0c0.2-0.1,0.3-0.1,0.5-0.2c-0.3,0.1-0.4,0.2-0.4,0.2l0.2,0
					c0.2-0.1,0.3-0.1,0.5-0.2L746.6,138.3 M747.6,137.9l0.2-0.1l0.2-0.1c-0.1,0-0.2,0-0.2,0l0,0c0.2-0.1,0.5-0.1,0.7-0.2l0.2-0.1h0
					l-0.2,0l0,0c-0.3,0.1-0.3,0.1-0.5,0.1c-0.4,0.1-0.4,0.1-0.5,0.1l0,0l-0.1,0h-0.1l-0.7,0.2c-0.1,0-0.2,0.1-0.3,0.1
					c-0.2,0-0.4,0.1-0.6,0.1l0,0h0h0l0,0h0l0,0h0h0c-0.1,0-0.1,0-0.3,0.1l-0.2,0.1l-0.1,0l0.1,0c0.1,0,0.2-0.1,0.4-0.1
					c0.1,0,0.2,0,0.3-0.1c0.3-0.1,0.5-0.1,0.8-0.2l0,0l0,0.1l0,0l0.1,0c0.7-0.3,0.7-0.3,0.7-0.2l0,0c-0.2,0.1-0.2,0.1-0.2,0.1
					C747.4,138,747.4,137.9,747.6,137.9 M745.5,138c0.1,0,0.2-0.1,0.4-0.1l0,0l-0.1,0c0.2-0.1,0.4-0.1,0.6-0.2l0.1,0
					c-0.2,0-0.2,0-0.3,0.1l-0.6,0.1c0,0,0,0-0.4,0.1l0,0l0,0l0.1-0.1c-0.6,0.2-0.6,0.2-0.6,0.2c0.1,0,0.1,0,0.1-0.1v0l-0.1,0
					c-0.4,0.1-0.6,0.2-0.7,0.2l0,0c0.2,0,0.3-0.1,0.5-0.1c0.3-0.1,0.3-0.1,0.4,0l0,0l0.1,0c-0.5,0.2-0.5,0.2-0.6,0.2
					c-0.1,0-0.3,0.1-0.4,0.1c-0.1,0-0.2,0.1-0.3,0.1c-0.1,0.1-0.1,0.1-0.1,0.1c0.2,0,0.7-0.2,1.1-0.3l0.2-0.1l0.2,0l0,0l0,0
					C744.9,138.2,745.3,138.1,745.5,138 M739.4,138.2c0.4-0.1,0.6-0.2,0.6-0.2c-0.1,0-0.2,0-0.3,0l0,0c0.4-0.1,0.7-0.2,1.1-0.3
					c-0.4,0.1-0.8,0.2-1.2,0.2l0.2-0.1l0.6-0.1l0.1,0c0.1,0,0.2,0,0.3-0.1c-0.1,0-0.3,0.1-0.4,0.1l0,0l0,0l0.1,0l-0.1,0
					c-0.5,0.1-1,0.2-1.5,0.3c0.4-0.2,0.8-0.1,1.2-0.3c-0.4-0.1-1.3,0.2-1.4,0.3l0,0l-0.1,0.1c0.1,0,0.2,0,0.3,0
					c-0.1,0-0.1,0-0.5,0.2l-0.2,0c-0.2,0-0.4,0.1-0.6,0.2c-0.1,0-0.3,0.1-0.4,0.1l0.2,0c0.1,0,0.1,0,0.1,0c-0.1,0.1-0.3,0-0.4,0.2
					c0.3,0,0.6-0.1,0.9-0.2l-0.2,0.1c0.1,0,0.2,0,0.7-0.1C738.5,138.4,738.5,138.4,739.4,138.2 M736.8,138.5l0.1,0L736.8,138.5
					L736.8,138.5 M732.7,140.1l0.3-0.1c0.3-0.1,0.3-0.1,0.4-0.2l-0.1,0c0.1-0.1,0.1-0.1,0.9-0.3c-0.1,0-0.1,0-0.2,0
					c0.5-0.2,1.1-0.4,1.6-0.5c0.3-0.1,0.5-0.2,0.8-0.3c0,0,0,0-0.4,0.1c0.1-0.1,0.1-0.1,0.2-0.1c0.2-0.1,0.5-0.1,0.7-0.2l-0.1,0
					c0.5-0.3,1-0.2,1.5-0.4l0,0c-0.2,0-0.7,0.1-0.9,0.2c-0.1,0-0.2,0-0.3,0.1c-0.5,0.1-0.9,0.3-1.4,0.3c0,0,0.1,0,0.7-0.2
					c0.1,0,0.2,0,0.3-0.1c0.1,0,0.2,0,0.3-0.1c0.1,0,0.2-0.1,0.3-0.1c0.5-0.1,0.5-0.1,0.5-0.1c-0.3,0.1-0.7,0.1-1,0.2l-0.1,0
					c0.2,0,0.3-0.1,0.5-0.1c0.3-0.1,0.5-0.1,0.8-0.2c-0.1,0-0.5,0.1-0.7,0.1c-0.1,0-0.1,0-0.2,0c-0.2,0-0.2,0-3.8,1
					c0.4-0.1,0.8-0.2,1.2-0.4c-0.2,0-1.5,0.4-1.8,0.5c0.1,0,0.1,0,0.9-0.2c-0.3,0.2-0.6,0.2-0.9,0.3l0,0c0.1,0,1-0.2,1.3-0.3
					c0.2-0.1,0.3-0.1,0.5-0.1l0.1,0c-0.3,0.1-0.7,0.2-1,0.3l0.1,0l0.5-0.1l-0.2,0.1c-0.6,0.2-0.6,0.2-0.7,0.2
					c-0.1,0-0.2,0.1-0.3,0.1l0,0l0,0c0,0-0.3,0-1.1,0.2c-0.2,0.1-0.4,0.1-0.6,0.2l0.2,0l0.1,0l0,0c0,0,0,0,0.8-0.2l0,0
					c-0.3,0.1-1.2,0.3-1.3,0.3h0l0,0c-0.2,0-1.1,0.3-1.3,0.4l0,0c0,0,0,0-1.4,0.6l0.1,0c0,0,2.6-0.8,2.8-0.8
					c0.5-0.1,0.9-0.3,1.4-0.4c0.1,0,0.1,0,1.8-0.5l0.2,0c-0.4,0.1-0.8,0.2-1.2,0.4l0.1,0c-0.1,0.1-0.1,0.1-1,0.4
					c-0.4,0.1-0.8,0.2-1.2,0.4l0.1,0c0.3-0.1,0.6-0.2,0.9-0.2c-0.3,0.1-0.6,0.2-1,0.3l0.1,0c0.1,0,0.1,0,0.7-0.2c0.1,0,0.1,0,0.2,0
					L732.7,140.1 M706.6,215.2c0.3-3.1,0.7-6.1,1.1-9c-3.8-0.1-7.5-0.3-11.1-0.5c-4.6-0.2-8.6-0.5-12.1-0.8c0,0-0.5,1.4-0.8,1.7
					l-0.1,0.1l-0.1,0.1l-0.1,0c-0.1,0-0.1,0-0.5,0.1l-0.1,0l-0.1,0l-0.1,0.1l-0.1,0.1l-0.2,0l-0.1-0.1l-0.1-0.2
					c-0.1-0.1-0.1-0.1-0.2-0.1c-0.1,0-0.4-0.1-0.7-0.2l-0.1,0l-0.1,0l-0.1,0.1c0.3,0.4,0.3,0.4,0.7,0.5c0.1,0.1,0.1,0.2,0,0.3l0,0.2
					c0,0.1,0.1,0.3,0.1,0.4c0,0.1,0,0.3-0.1,0.4l0,0.1l0,0.2c-0.1,0.7,0.2,1.4,0.2,2c0.2,0.8,0.3,0.9,0.3,1c0.2,0.1,0.2,0.1,0.3,0.1
					c0.4,0.1,0.4-0.5,0.6-0.7l0.1,0.2c0.4,1.6,1.3,3,1.2,4.6c0,0.2,0,0.2,0,0.3c-0.2,0.7-0.1,1.1-0.1,1.3c0.1,0.4,0.6,0.3,0.8,0.7
					l0.8,2.6c0.1,0.3,0.3,1.1,0,1.5c-0.4,0.6-0.2,0.8,0.6,2c0.5,0.7,0.7,1,0.9,1.9c0.1,0.4,0.1,0.4,1.4,2.6c0.4,0.7,0.2,1.5,0.5,2.2
					c0.1,0.3,0.1,0.3,0.3,0.5c0.1,0.1,0.1,0.2,0.1,0.3c0,0.9,0,1.8,0.1,2.7c0.3,1.3,1.8,1.8,2.3,1.2c0.9-1.2,0.9-1.2,1-1.2
					c0.4,0,0.9,0,1.3,0.1l0.1,0c0.1,0.1,0.2,0.2,0.3,0.3l0.2,0c0.1-0.2,0.2-0.4,0.3-0.6c0.7-1.5,2.7-0.8,3.6-2
					c0.2-0.3,0.2-0.3,1.2-0.3c0-0.8,0-1.2,0.4-1.1c0.6-0.5,0.6-0.5,3-0.3c0,0,0-1.1,0.3-1.6c0.5-0.1,0.9,0,1.3,0
					c0,0,0.4-1.3,0.6-1.5c0-2.7,0.2-5.5,0.4-8.2c-0.1,0.1-0.2,0.2-0.2,0.2c-0.1-0.4,0-0.7-0.1-1.1c-0.2-0.1-0.2-0.1-0.3-0.4
					c0-0.5,0.1-1,0.1-1.5c-0.2-0.3-0.2-0.3-0.4-0.5c-0.1,0.3-0.1,0.3-0.5,0.5c-0.4,0.2-0.4,0.2-0.8,2.2c-0.4-0.1-0.4-0.1-0.9-0.1
					c-0.2,0-0.3,0-0.4,0c-0.2-0.1-0.4-0.2-0.6-0.3c-0.2,0-0.2,0-0.3,0c-0.6,0.5-0.6,0.5-1,0.9c0,0-0.9-0.1-0.9-1.4
					c0.1-0.1,0.2-0.1,0.3-0.2c0.3-0.2,0.4-0.2,0.6-0.3l0.1,0c0.3,0.2,0.9,0.5,1.4,0.1c0-0.3,0-0.3-0.1-0.5c-0.2-0.1-0.3-0.1-0.4-0.1
					c-0.1,0-0.3,0-0.4,0c-0.2,0-0.3,0-0.4,0c-0.7-0.2-1.4-0.3-2-0.5c-0.2,0-0.3,0-0.4,0c0-0.5,0.1-1,0.2-1.5c0-0.1-0.1-0.2-0.1-0.3
					l-1.5-0.8c0.1-1.3-0.6-2.6-0.1-3.9c0.3-0.8,1.4-0.4,1.6-0.1c0.6,0.9,0.6,2.1,1.4,2.8c2,2,2,2,3.7,2.3c0.2,0,0.2,0,0.3,0
					c0.1,0,0.2,0,0.2,0c0.3-0.2,0.7,0,1-0.2c0.2,0,0.2,0,0.3,0C706.1,214.7,706.1,214.7,706.6,215.2L706.6,215.2 M793.3,195.5
					c-2-10.9-4.9-20.9-8.6-29.4c-20.2,0.5-44.8,0.3-64.4-0.4c-5.9,11.3-10.3,25.2-12.6,40.5c25.5,1,57.2,1.2,83.9,0.6
					c0-0.7,0-0.7-2.3-3c0-0.3,0-0.4,0-0.5c0.1-0.2,0.3-0.5,0.5-0.7c0-0.1,0-0.3,0-0.4c-0.1-0.4-0.1-0.6-0.1-0.8c0.2,0,0.5,0,0.7,0
					c0.2-0.2,0.3-0.5,0.4-0.7c0.1,0,0.3,0,0.4-0.1c0.4-0.1,0.5-0.1,0.6-0.1c0.1,0,0.3,0,0.4,0c0.1-0.1,0.2-0.3,0.3-0.4
					c0-0.1,0-0.3-0.1-0.4c-0.5-0.1-0.9-0.1-1.3-0.1c-0.2-0.2-0.4-0.5-0.6-0.7c-0.4-0.1-0.7-0.1-1-0.1c0,0.3,0,0.6,0.1,0.9
					c-0.2,0.1-0.6,0.2-0.8,0.2c-0.2-0.5-0.2-1-0.3-1.6c-0.5,0-1.1,0-1.6,0c-1.1-0.7-0.2-1.6,0.1-1.7c0.3,0,0.6,0,0.9,0
					c0.7-1.1,2-1.6,2.8-2.6c0.1,0,0.1,0,0.2,0l0.4,0.4c-0.5,0.8-0.9,2.7-0.9,2.7c0.1-0.1,0.2-0.2,0.3-0.3c0.5-0.1,0.9-0.1,1.3-0.1
					C792.5,196.3,792.7,195.7,793.3,195.5L793.3,195.5L793.3,195.5L793.3,195.5L793.3,195.5L793.3,195.5L793.3,195.5L793.3,195.5
					L793.3,195.5 M696.5,164.1c0.2,0,0.3,0,0.5,0.1l0,0l0,0l-0.1,0l0,0c0,0,0-0.1,0-0.2l0.2-0.2l0,0H697l-0.1,0c0,0,0,0-0.1,0.1
					l-0.1,0.1l-0.2,0.2C696.5,164,696.5,164,696.5,164.1 M716.4,148.3c0.3-0.2,0.7-0.4,1-0.7v0l-0.1,0l-0.1,0l-0.1,0.1
					c-0.3,0.2-0.6,0.4-0.9,0.6C716.2,148.3,716.3,148.3,716.4,148.3 M720.2,165.7c2.8-5.4,5.9-10.2,9.3-14.3c-0.2,0-0.2,0-0.5,0.3
					c-0.2,0-0.3,0-0.3,0c-0.2,0-0.2,0-0.2,0c-0.1,0-0.2,0-0.3,0c-0.3,0.2-0.4,0.3-0.5,0.4c-0.1,0-0.3,0-0.4,0c0-0.1,0-0.3,0-0.4
					c0.4-0.3,0.8-0.8,0.8-0.8c-0.1,0-0.1,0-1.5,0.5c-0.2,0-0.3,0-0.4,0c-0.5,0-0.6,0.1-0.8,0.3l-0.2,0.1c-0.2,0-0.2,0-0.3,0
					c-1.5,0.3-2.8,1.3-4.3,1.8c-0.2,0.1-0.2,0.1-0.2,0c0-0.1,0-0.3,0-0.4c0.3-0.5,0.3-0.5,0.6-0.8c0.3-0.1,0.6-0.1,0.8-0.1
					c0.2-0.2,0.3-0.3,0.5-0.5l0-0.2c0.1-0.1,0.1-0.3,0.2-0.4l-0.2-0.1c-0.1,0-0.2,0-0.2,0l0-0.2l-0.2,0c-0.2,0-0.3,0-0.3,0l-0.2,0
					c-0.1,0.1-0.3,0.2-0.4,0.3l0.2,0.1c-0.3,0.4-0.7,0.7-1,1.1c-0.7,0.5-0.7,0.5-0.8,0.6l0.1,0.1c0,0.1,0,0.3-0.1,0.4
					c-0.1,0.1-0.1,0.2-0.1,0.2c-0.4,0.2-0.6,0.6-1,0.9c-0.1,0-0.3-0.1-0.4-0.1c0.1-0.1,0.1-0.2,0.2-0.2l0.1-0.2
					c-1.3-0.1-2.2,1.1-3.4,1.2l0,0c-0.4,0.4-0.4,0.4-0.6,0.6c0.1,0.3,0,0.4-0.3,0.7c-0.1,0.1-0.1,0,0,0c-0.4,0-0.4,0-0.6-0.1
					c-0.1-0.1-0.2-0.1-0.2-0.1l-0.2-0.1c0-0.1-0.2-0.2-0.3-0.3c0-0.2,0-0.2,0.3-0.6c-1,0.4-1,0.4-1.2,0.8l0.1,0.2
					c-0.1,0.1-0.2,0.2-0.3,0.3l0.1,0.1l0.2,0l0.1,0.2c-0.1,0.2-0.1,0.3-0.3,0.5c-0.3,0.1-0.5,0-0.7,0c-0.1,0.1-0.2,0.2-0.3,0.2
					c0-0.2,0-0.4,0-0.6l-0.2-0.1c0-0.3,0-0.3,0.9-1.2c-0.1,0-0.2,0-0.3,0l0.6-0.6c1-0.9,1-0.9,1.2-1.1l-0.2-0.1
					c0.2-0.4,0.2-0.4,0.5-0.7l-0.1-0.1c0.1-0.2,0.2-0.4,0.3-0.5c0,0.5,0,0.5-0.1,0.6l0.1,0.1h0.2c0,0.1,0,0.3,0,0.4
					c0.2,0,0.5,0,0.7,0.1c0.1,0.1,0.1,0.2,0.2,0.3l0.2,0.1c0.2,0,0.2,0,0.2,0l0.1,0c3.5-1.4,3.6-1.5,3.7-2.5
					c-0.2-0.1-0.4-0.1-0.6-0.2c0-0.3,0.2-0.5,0.2-0.8l0.1-0.2l-0.1-0.1l0-0.2c-0.2,0-0.2,0-0.6,0l-0.1,0c0-0.1,0.1-0.3,0.1-0.4
					c0-0.1-0.1-0.1-0.2-0.1c-0.2,0.2-0.2,0.2-0.5,0.4c-0.2,0-0.2,0-0.2,0c0.1-0.1,0.1-0.1,0.6-0.5l0.1-0.1c0.1-0.2,0.1-0.2,0.4-0.4
					c0-0.1-0.1-0.1-0.1-0.1c-0.1,0-0.3,0.1-0.4,0.2l0-0.2l-0.2-0.1c0-0.2,0.1-0.2,0.2-0.3c0.2,0,0.5-0.2,0.7-0.3
					c0.1-0.1,0.2-0.2,0.3-0.3l-0.2,0c0-0.1,0.1-0.3,0.2-0.3l-0.1,0c-0.2,0.1-0.5,0.3-0.7,0.4l-0.2,0c0.1-0.1,0.2-0.2,0.4-0.3
					c0.2-0.1,0.2-0.1,0.5-0.3l0.2-0.1c-0.2,0-0.3,0-0.5,0c-0.7,0.4-0.7,0.4-0.9,0.6c-0.1,0.1-0.2,0.1-0.3,0.2l-0.2,0.1l-0.1,0
					c0.7-0.4,0.7-0.4,0.9-0.6c0-0.1,0-0.1-0.1-0.1l0.6-0.4l0,0l-0.1,0c-0.5,0.2-1.1,0.4-1.6,0.7c-0.2,0-0.2,0-0.2,0
					c0.1-0.2,0.1-0.2,0.5-0.4c0.1-0.1,0-0.1,0-0.1c-0.7,0.1-1,0.3-1.3,0.6v0.2c-0.2,0.1-0.3,0.2-0.5,0.3l-0.1,0l-0.1-0.2l-0.1-0.1
					c-0.9,0.6-0.9,0.6-1.2,0.7c0.4-0.3,0.7-0.7,1-1c-0.3,0.1-0.5,0.2-0.6,0.3c0,0-1.2,0.8-1.8,1c0.2-0.2,0.2-0.2,0.7-0.5
					c-0.2,0.1-0.3,0.1-1.1,0.5c-0.2,0.1-0.3,0.3-0.5,0.4c-0.1,0.1-0.2,0.1-0.2,0.2l-0.2,0.1l0-0.2c0.1,0,0.1,0,0.9-0.6
					c-0.3,0.1-0.5,0.3-0.8,0.4c-0.5,0-1.7,0.7-1.8,0.8l-0.1,0c-0.2,0.1-0.4,0.2-0.5,0.3l0,0l-0.2,0.1c-0.1,0.1-0.1,0.1-0.1,0.1
					c0.4-0.2,0.8-0.3,1.1-0.5c0.1,0,0.1,0,0.1,0c0.4-0.1,0.4-0.1,0.6-0.1c-0.1,0.1-0.3,0.2-0.4,0.3c-0.6,0-5,2.7-6,3.5l0.1-0.1
					c-0.6,0.3-1.2,0.5-1.7,0.9c0.1,0,0.2,0,0.2,0c-0.8,0.6-1.8,1.1-2.6,1.7c0-0.2,0-0.2-0.1-0.2l-0.4,0.3c-0.4,0.4-0.4,0.4-0.7,0.5
					l-0.1,0h0l0,0h0l0,0l0,0v0h0c-0.5,0.3-1.9,1.1-4,3c-0.1,0.1-0.2,0.1-0.2,0.1l-0.2,0.1c-0.2,0.2-0.3,0.3-0.5,0.4l0.1,0
					c-0.2,0.4-2,2.1-2,2.1c0.1,0.1,0.4,0.2,0.7,0.3c0.6-0.5,0.6-0.5,0.8-0.6c0.2-0.2,0.4-0.3,0.5-0.5c0,0.2-0.1,0.3-0.8,1
					c0.5,0.2,1.1,0.3,1.9,0.5c1.5-1,1.5-1,1.7-1.2c0.1-0.2,0.2-0.2,0.3-0.3l0.1-0.2l-0.1-0.2c0.2-0.6,0.8-1.2,0.8-1.2
					c0.5-0.5,1.1-1.1,1.6-1.6c0.3-0.1,0.9-0.6,1.2-0.8c0.9-0.8,2.1-1.2,3.1-1.8c0.7-0.4,1.3-1,2-1.5l2-1.1l0.1,0h0l0,0h0h0h0l0,0h0
					c-0.2,0.2-0.3,0.3-0.4,0.5c0.1,0,0.3-0.1,0.4-0.2l0,0.2c-0.1,0.1-0.2,0.2-0.3,0.3c-0.3,0.3-0.5,0.5-0.8,0.7c-0.1,0-0.2,0-0.3,0
					c-2,1.8-4.6,2.8-6.5,4.7l-0.2,0.2c-0.2,0.2-0.2,0.2-0.6,0.7l0.2,0.1c0,0.4-0.2,0.7-0.3,1.1l0.1,0.1c0.3-0.1,0.5-0.3,0.8-0.4
					l0.1,0.2c0.4,0,0.4,0,0.7-0.3l0.2-0.1c0.3,0,0.5,0.1,0.8,0.1c0.1-0.1,0.3-0.1,0.4-0.2c0.1,0,0.1,0,0.1,0
					c-0.1,0.2-0.2,0.3-0.3,0.5c0.2,0,0.4,0,0.5,0l-0.1,0.2c0,0-2.2,1.3-2.6,1.2c0-0.1,0-0.3,0.1-0.4c-0.2-0.1-0.4,0-0.6,0
					c-0.1-0.1-0.1-0.1-0.1-0.1c-0.2,0.1-0.3,0.1-0.5,0.3l-0.1-0.2c-0.5,0.3-0.6,0.3-1,0.7c3.5,0.5,8.5,0.9,15,1.2
					C714.7,165.4,717.4,165.6,720.2,165.7 M807.9,152.8c-0.3-0.2-0.6-0.3-0.9-0.5c-0.3-0.2-0.3-0.2-0.6-0.3l0,0l-0.1,0.1l0,0
					c-0.1-0.1-0.3-0.2-0.4-0.2c0.2,0.2,0.5,0.4,0.8,0.5c0.1,0.1,0.2,0.1,0.2,0.2c0.1,0.1,0.3,0.2,0.4,0.3c-0.2-0.1-0.2-0.1-0.6-0.4
					c-0.5-0.4-1-0.7-1.5-1c-0.1-0.1-0.3-0.2-0.4-0.2c-0.1-0.1-0.1-0.1-0.1-0.1c-0.5-0.1-1.7-0.9-1.7-0.9c-0.8-0.3-1-0.3-2.9-1.3
					c-0.2-0.1-0.2-0.1-0.2-0.1l0,0c-0.3-0.1-0.6-0.2-0.8-0.3c-0.2,0-0.2,0-0.2,0l0.2,0.2c-0.2,0.1-0.2,0.1-0.2,0.1
					c-1.3-0.4-1.3-0.4-1.3-0.4c0.7,0.9,1.8,1.2,2.7,1.8c0,0.1-0.1,0.1-0.2,0.1c-0.3-0.2-0.6-0.4-0.8-0.6c-0.1,0-0.2,0-0.3,0
					c-0.3-0.2-0.5-0.3-0.8-0.5l0,0c0-0.2-0.2-0.3-0.3-0.4l-0.2-0.1c-0.2,0-0.3,0-0.4,0c0.8,0.5,0.8,0.5,1,0.7l0,0.1
					c-0.5-0.2-0.6-0.2-0.9-0.2c-0.1,0-0.2,0-0.3,0l0,0.2c-0.1,0-0.1,0-0.9-0.3l-0.1,0c0.1,0.1,0.3,0.2,0.4,0.3
					c0.4,0.3,0.7,0.5,0.9,0.6l-0.1,0l-0.2-0.1c-0.2-0.1-0.3-0.2-0.4-0.3c0,0-2.8-1.7-3.6-2c-0.2-0.1-0.3-0.2-0.5-0.3
					c-0.3,0-0.6-0.1-0.9-0.1l-0.1,0.2c0,0.2-0.1,0.2-0.1,0.2c-0.1,0-0.3,0.1-0.4,0.1c0,0.1,0,0.1,0,0.1c-0.4-0.1-0.7-0.3-1.1-0.4
					c-0.1,0-0.1,0-0.2,0c-0.7-0.1-0.7-0.1-0.9-0.3c-0.4-0.1-0.7-0.3-1.1-0.4c-0.1,0-0.2,0-0.2,0l-0.2-0.1c-0.1-0.1-0.3-0.3-0.4-0.4
					l-0.2,0c-0.5,0-0.8,0-1.2,0h0c0.3,0.3,0.3,0.3,0.6,0.5c0,0.2-0.1,0.2-0.1,0.2c-0.2-0.1-0.4-0.2-0.9-0.7l0-0.1
					c-1-0.7-2.2-0.4-3.3-0.6c0.1,0.2,0.1,0.2,0.5,0.5c-0.1,0.1-0.3,0.1-0.5,0.1l0,0.2c0.6,0.4,1.2,0.6,1.8,1c0.1,0.1,0,0.1,0,0.1
					c-1-0.2-1.3-0.2-1.3-0.2c-0.1,0.1,0,0.1,0.1,0.2l0.2,0.1c0.4,0.1,0.4,0.1,0.6,0.3c-0.2,0-0.2,0-1-0.3c-0.2-0.2-0.3-0.2-0.4-0.2
					c-0.1,0-0.3,0-0.4,0c0,0.1-0.1,0.3-0.1,0.4c-0.6-0.1-1.3-0.4-1.3-0.4l-0.1,0.2c-0.1,0-0.2-0.1-0.2-0.1l-0.1,0.2
					c0.3,0.2,0.5,0.4,0.9,0.8c-0.1,0.1-0.3,0.1-0.5,0.1c-0.7-0.7-1.7-0.8-2.4-1.4l-0.1-0.1c-0.1-0.3-1.4-1.7-2.5-2
					c-0.1,0-0.1,0-0.1,0l0,0h0h0h0h0l0,0h0l0.1,0.3c-0.9,0.1-1.4-0.7-2.2-0.8l-0.2,0.1c0.1,0.3,0.3,0.5,0.5,0.7
					c0.3,0.2,0.3,0.2,0.5,0.5l-0.1,0c4.5,5.1,8.6,11.8,12,19.9c5.6-0.1,10.8-0.3,15.5-0.5c0-0.3,0-0.6,0.1-0.9c0.3,0,0.3,0,0.6,0.1
					l0.2-0.1c0.1,0,0.1,0,0.2,0l0.2,0.1c0.1,0,0.1,0,0.2,0l0.2-0.1c0.1-0.1,0.1-0.1,0.1-0.1c0.8,0.3,0.8,0.3,1,0.1l0.2,0
					c0.6,0,1.1-0.1,1.6-0.1c-0.1-0.1-0.2-0.3-0.3-0.4c-0.3-0.4-0.3-0.4-0.3-0.6c0.4,0.2,0.4,0.2,0.6,0.3c0.9-0.6,1.2,0.9,1.9,1.2
					c0.2,0,0.5,0,0.7,0c0.1-0.2,0.1-0.2-0.1-0.7c0.2,0,0.2,0,0.8,0.4l-0.1-0.2c0.1,0,0.2,0,0.2,0c0.2,0.1,0.4,0,0.5,0
					c-0.1-0.1-0.1-0.1-0.6-0.6l-0.2,0c-0.3-0.2-0.5-0.4-0.6-0.6l-0.1-0.2l0.1-0.2c-0.4-0.9-0.4-0.9-0.3-1.2
					c-0.1-0.3-0.4-0.8-0.6-1.4l0.1-0.2l0.2,0.1c0.2,0.1,0.2,0.1,0.2,0.1l-0.1-0.2c0-0.1,0-0.1,0-0.1c0.4,0.3,0.9,0.3,1.1,0.8
					c0.1,0.1,0.1,0.2,0.2,0.2c0.4,0.3,1.2,0.9,1.2,0.9c-0.1-0.5-0.5-1.5-0.5-1.5l0.2-0.1c-0.1-0.2-0.1-0.2-1.1-1.3l0.1-0.2
					c0.2-0.1,0.3-0.1,0.4-0.1c0.1,0.1,0.2,0.2,0.3,0.3l0.1,0.4c0.2,0.5,1.8,2.7,1.8,2.7c0.6,0.8,0.4,1.8,0.7,2.6
					c0.6,0,1.1-0.1,1.6-0.1c-0.2-0.3-0.5-0.8-0.8-1.1c-0.1-0.1-0.1-0.1-0.1-0.1c-0.4-0.5-0.4-0.5-0.5-0.8c0.2,0,0.2,0,0.8,0.4
					l0.1-0.2c-0.1-0.1-0.1-0.3-0.2-0.4c0.1,0.1,0.1,0.1,0.5,0.4c0.2,0.1,0.2,0.1,0.2,0.1c0-0.3,0-0.3-0.4-0.9l0.2-0.2l0.2,0.1
					c0.3,0,0.4,0,0.6-0.1c0.7,0.7,0.7,0.7,1,1c-0.5-0.8-1.5-1.3-1.6-2.5l0.1-0.1c0.2-0.5-0.7-1.6-1-2.1c0.2,0,0.2,0,0.8,0.3
					c0.2,0,0.2,0,0.3,0c-0.2-0.3-0.4-0.4-0.7-0.6c-0.3-0.2-0.3-0.2-0.9-0.6c-0.5-0.4-0.5-0.4-1.4-1.1c-0.2-0.1-0.2-0.1-1-0.6
					c-0.2,0-0.2,0-0.3,0l-0.4-0.2c-0.1-0.1-0.2-0.2-0.3-0.3c0-0.1,0-0.1,0-0.1c0.1,0.1,0.3,0.2,0.4,0.2c0.1,0,0.2,0,0.3-0.1
					c-0.1-0.4-0.7-0.8-1.5-1.4c-0.2-0.2-0.5-0.4-0.7-0.5c0.2,0,0.2,0,1.5,0.9c0.1,0,0.2,0,0.3,0c0.3,0.1,0.3,0.1,1,0.7
					c0.1,0.1,0.2,0,0.2,0c0.3,0.2,0.7,0.4,1,0.6c0.2,0.1,0.2,0.1,0.2,0.1c-0.1-0.1-0.1-0.1-1-0.8c-0.1-0.1-0.1-0.1-0.1-0.1
					c-0.1-0.1-0.1-0.1-1.5-1.1c0.1,0.1,0.3,0.2,0.4,0.2c0.1,0,0.1,0,0.1,0C808.7,153.4,807.9,152.8,807.9,152.8 M692.2,163.4
					L692.2,163.4c-0.3-0.1-0.5-0.1-0.8-0.2l0,0c-0.1,0.1-0.1,0.1-0.5,0.6c0.1,0,0.1,0,0.1,0l0,0l0,0l-0.1,0.1
					c-0.1,0.1-0.2,0.2-0.3,0.3l0.2-0.1l0,0.2l0.1,0c0.2-0.1,0.2-0.1,0.3-0.2l0.1-0.1l0,0l0.1,0l0,0
					C691.5,163.9,691.5,163.9,692.2,163.4 M694.6,163.9c-0.8-0.1-1.4-0.2-2-0.4c-0.2,0.2-0.4,0.5-0.6,0.8l-0.1,0.1
					c-0.5,0.5-0.5,0.5-0.6,0.7c-0.2,0.2-0.2,0.5-0.4,0.7l-0.2,0.2l-0.2,0.2c-0.3,0.3-0.4,0.7-0.6,1c-0.2,0.3-0.5,0.5-0.7,0.8
					l-0.1,0.1c-0.1,0.1-0.2,0.3-0.3,0.5c0.1,0,0.3,0.1,0.5,0.1c0.4-0.5,0.9-1,1-1l0.1,0c0,0.1,0,0.1,0,0.2l0,0
					c0.5-0.3,0.5-0.3,0.6-0.3c0.2-0.2,0.4-0.4,0.6-0.7c0.1,0,0.2,0,0.3,0.1c0.3-0.4,0.3-0.4,0.5-0.5l-0.1,0c-0.1,0-0.1,0-0.2,0
					c0-0.1,0.1-0.1,0.2-0.2l0-0.1l0.1-0.1c0.2-0.1,0.3-0.3,0.5-0.4C693.4,165,693.8,164.2,694.6,163.9 M707.7,206.2
					c2.3-15.3,6.7-29.2,12.6-40.5c-2.8-0.1-5.6-0.2-8.2-0.4c-6.4-0.3-11.5-0.7-15.1-1.1c-0.2,0-0.4,0-0.5-0.1l0,0.1h0h0h0h0h0l0,0h0
					c-1.1,0.8-1.1,0.8-1.2,0.9c0.2,0.1,0.2,0.1,1.2-0.5c0,0.3,0,0.3-1.7,2.3c-0.1,0.1-0.2,0.1-0.3,0.1c0-0.1-0.1-0.2-0.1-0.3
					c0.1-0.1,0.2-0.3,0.3-0.4c0-0.1,0-0.1-0.1-0.1c0.1-0.1,0.3-0.3,0.4-0.4l-0.2,0c-0.8,0.7-3.3,2.8-3.6,3.8l-0.2,0.2
					c0-0.1-0.1-0.2-0.1-0.2c-0.3-0.1-0.3-0.1-1.3,1.1l-0.1,0c0.1-0.5,0.1-0.5,0.3-1.1c-0.5,0.2-2.3,1.2-2.3,1.3
					c0-0.1-0.1-0.2-0.1-0.3c0.2-0.3,0.2-0.3,0.5-0.7l-0.1,0l-0.2,0.2c-0.3,0-0.3,0-0.3,0c-0.2,0.1-0.2,0.1-0.6,0.6
					c-0.1,0.1-0.2,0.1-0.2,0.1c0-0.3,0-0.3,0.4-0.8l-0.1,0.1l-0.1,0c0.1-0.1,0.2-0.3,0.3-0.4c0.1-0.1,0.2-0.3,0.4-0.4
					c0.1,0,0.2,0,0.3,0c0,0.1,0,0.2,0,0.3c0.1,0,0.2,0,0.3,0c0.4-0.5,1.7-2,1.7-2l-0.1,0c-0.3,0.1-0.3,0.1-0.9,0.6l0,0h0
					c0.2-0.4,0.2-0.4,0.7-0.8c0.2-0.2,0.3-0.3,0.4-0.4c0.1-0.8,0.9-1.1,1.3-1.7c-0.7,0.3-1.6,1.2-1.6,1.2c-0.2,0.2-0.2,0.2-0.2,0.3
					c-0.7,0.8-1.4,1.6-2,2.3c-0.2,0.2-0.2,0.3-0.3,0.4c-0.1,0.2-0.3,0.4-0.4,0.5c-0.2,0.3-0.4,0.6-0.6,0.9c-0.1,0.1-0.2,0.3-0.4,0.4
					l-0.1,0c-0.1,0-0.2,0-0.3,0.1l-0.1,0l-0.2-0.1c-0.4,0.4-0.8,0.8-1.2,1.2c-0.1-0.1-0.1-0.1-0.1-0.1l0,0c-0.2,0.1-0.3,0.3-0.4,0.4
					l-0.1,0.3c-0.2,0.3-0.4,0.5-0.6,0.8c-0.3,0.2-0.3,0.2-1,0.9c-0.1,0.1-0.1,0.1-0.1,0.1c-0.4,0.4-0.8,0.9-1.1,1.4l-0.2,0.1
					c-0.2,0.3-0.4,0.5-0.5,0.8l-0.1-0.1c0.1-0.3,0.1-0.4,0.2-0.5l0.1-0.2c-0.2,0.3-0.4,0.5-0.5,0.7l-0.4,0.7l-0.1,0.3
					c-0.1,0.1-0.1,0.2-0.2,0.3c0-0.2,0.1-0.4,0.1-0.5c-0.3,0.2-0.3,0.2-0.5,0.7c-0.1,0.2-0.1,0.2-0.1,0.2c-0.1,0.1-0.2,0.3-0.3,0.5
					c0,0.1,0,0.1,0,0.1c-0.2,0.4-0.4,0.8-0.6,1.3c-0.3,0.4-0.5,0.9-0.8,1.3c-1.6,3.1-1.6,3.1-2.3,4.4l-0.2,0.2
					c-0.1,0.2-0.1,0.2-0.1,0.1c0.1-0.3,0.1-0.5,0.2-0.8c0.1-0.3,0.1-0.3,0.1-0.3c0-0.1,0.1-0.2,0.1-0.3c0.1-0.1,0.1-0.1,0.1-0.1
					c-1.5,3.1-3.3,7.3-4.6,10.5l0,0c0,0.1-0.1,0.3-0.1,0.4c-0.1,0.3-0.2,0.7-0.3,1c0-0.1,0.1-0.2,0.1-0.3l0-0.1
					c0.5-0.9,0.3-2.2,1.5-2.6c0.1-0.3,0.2-0.6,0.4-0.9c0.4-1.1,0.4-1.1,1-2.4c0.5-1.1,1.1-1.4,1.1-1.4c0.2-0.3,0.4-0.6,0.5-0.8
					c0-0.1,0.1-0.2,0.1-0.3c0,0,0.6-1.4,0.9-1.7c0.2,0.1,0.2,0.1,0.2,0.1v0h0l0,0l0,0l0,0h0l0,0c0,0.2,0,0.4,0,0.5l0.1,0
					c0.1-0.1,0.1-0.1,0.8-1.1l0.1,0c0.3-0.2,0.3-0.2,0.8-0.8c0.2,1-0.6,1.8-0.6,2.8c0,0.2-0.1,0.5-0.1,0.7c-0.1,1.6-0.1,1.6,0.1,1.8
					c-0.5,3.7-0.5,3.7-0.7,4.1c-0.5,0.1-1,0.5-1.5,0.4c-0.1,0.1-0.2,0.2-0.3,0.3c0.1,0.5-0.1,0.9,0,1.3l0.2,0.2
					c0.2,0,0.3,0.1,0.5,0.1c0.1-0.3,0.2-0.7,0.4-1.1c0.7-0.6,1.9-2.5,2-2.5c0.1-0.3,0.1-0.4,0.2-0.5c-0.2,0-0.3,0-0.3,0
					c0-0.1,0-0.3,0-0.4c0-0.1,0.1-0.2,0.1-0.2c0.2-0.1,0.3-0.1,0.5-0.1c0.1,0.1,0.1,0.4,0.2,0.5c0,0,0,0,0.6-1.3l-0.2-0.1
					c0-0.6,0-1.6,0-1.6l-0.2-0.2c0-0.9,0.2-1.7,0.3-2.5c0-0.1,0-0.1,0-0.2c0.1-0.3,0.2-0.4,0.4-0.9c-0.1,0-0.2-0.1-0.2-0.1
					c0-0.2,0.2-0.5,0.3-0.7l0.2-0.2c0.2-0.2,0.2-0.3,0.2-0.3c0.4-0.8,0.4-0.8,0.5-1l0.1,0.2c0,0.1-0.6,1.6-0.3,4
					c-0.1,0.6,0.3,1.2,0.2,1.9c-0.3,1.4-1,2.5-1.3,3.9c0.1,0,0.2,0.1,0.3,0.1c0,0.5-0.2,0.9-0.3,1.2c-0.1,0-0.2,0-0.3,0
					c0-0.1,0.1-0.2,0.1-0.3c-0.1,0-0.2,0-0.3,0.1c-0.2,0.8-0.1,1.1,0,1.4c0.1-0.1,0.2-0.2,0.3-0.4l0.2-0.2c-0.1,0.6-0.2,1.3-0.4,1.9
					c0.2,0.3,0.2,0.3,0.3,0.3c0.1,0,0.2,0,0.3,0c0.1-0.2,0.3-0.4,0.4-0.7c0.1-0.2,0.1-0.3,0.1-0.4c0-0.3,0.1-0.4,0.4-0.7
					c0,0.1,0.1,0.2,0.1,0.3c0.2,0.1,0.2,0.1,0.3,0.1c0.2-0.2,0.2-0.2,0.6-1.1c0.1,0,0.2,0,0.3,0c0.4-0.4,0.1-0.8-0.1-0.9
					c-0.1,0.5-0.1,0.5-0.3,0.8c-0.1,0-0.2,0-0.3-0.1c0-0.5,0-0.5,0.3-1.6c-0.3-0.3-0.2-0.8-0.2-1c0-0.1,0.1-0.2,0.1-0.3l0.2-0.2
					l0.1,0.1c0,0.1,0.1,0.3,0.2,0.5c0.1,0,0.2,0,0.2,0l0.1,0c0.3-0.3,0.2-0.8,0.6-1.1c0.2,0,0.4,0.1,0.5,0.1
					c0.1,0.1,0.2,0.3,0.2,0.5c0.1,0,0.2,0.1,0.2,0.1c0,0.2-0.1,0.4-0.2,0.5l0.1,0.1l-0.1,0.5c-1,0.5-0.3,1.5-0.6,2.2
					c0,0.2-0.1,0.4-0.2,0.5c0,0.1-0.1,0.2-0.1,0.3c0,0.1,0,0.1,0,0.8l0,0.1l0,0.1l0,0.1l0,0.2l0,0.1c0,0.2-0.1,0.4-0.2,0.6l-0.1,0.1
					l-0.1,0.2c-0.1,0.5-0.1,0.5-0.2,0.8l0,0.1l0,0.1c0.1-0.1,0.2-0.3,0.3-0.4l0.2-0.3c0.1-0.2,0.1-0.4,0.2-0.6
					c0-0.1,0.1-0.2,0.1-0.3c0.1-0.2,0.1-0.1,0.2-0.1l0.1,0l0,0.1l0,0.1l0,0.1c0,0.1,0.1,0.3,0.1,0.4l0,0.2l0,0.1l0.1,0.1l0.1,0
					c0.1,0,0.2,0,0.3,0l0.1,0.1c0.2,0.1,0.2,0.1,0.2,0.1l0.1-0.1l0.1-0.1l0-0.1l0.1-0.1c0.1-0.5,0.1-0.5,0.3-0.7l0.1-0.1l0.2-0.1
					c0.1,0,0.2,0,0.3,0l0.2,0.2c0,0.1,0,0.3,0.1,0.4c0,0.1,0.1,0.3,0.2,0.4l0,0.1l0.1,0.1l0.1,0l0.1,0.1c0.4,0,0.7,0.1,1.1,0.1
					c0-0.2,0.1-0.3,0.1-0.5l0.1-0.2c0-0.2,0.1-0.4,0.2-0.5l0.2,0l0.1,0l0.1,0c0.1,0,0.2,0.1,0.3,0.1c0,0.1,0,0.3,0.1,0.4
					c0.2,0,0.2,0.1,0.3,0.1l0.1-0.1l0.1-0.1l0.1-0.1l0.1,0c0,0.1,0,0.3,0.1,0.4l0,0.1c-0.2,0.6-0.2,0.6-0.3,0.9
					c-0.5,0.9-0.5,1.4-0.5,1.6l0,0.1c0.1,0.4,0,0.5-0.2,0.8l-0.1,0.1l-0.1,0.1c0,0.2-0.1,0.4-0.2,0.5l-0.1,0.1
					c-0.6,0.9-0.6,0.9-0.8,0.9l-0.1,0.1l-0.1,0.1l0,0.1c3.5,0.4,7.5,0.7,12.1,0.9C700.1,205.9,703.8,206.1,707.7,206.2 M810.4,180.4
					c-0.9-1.7-2.4-2.9-3.3-4.6c-0.1-0.2-0.1-0.3-0.2-0.4c0,0-0.3-0.8-0.7-1l0,0h0l0,0l0,0h0l0,0h0l0,0c-0.6-0.5-0.9-1.3-1.3-2
					c-0.1,0-0.2,0-0.3,0c0.3,0.6,0.6,1.1,0.9,1.7c-0.1,0-0.3,0-0.4,0.1c0,0.1,0,0.2,0.1,0.3l0.1,0.2c0.1,0.1,0.1,0.2,0.2,0.3
					c0.2,0.2,0.3,0.3,0.4,0.6c0,0.1-0.2,0.1-0.3,0.1c-0.2,0-0.2,0-0.8-1.2c0-0.1-0.1-0.2-0.1-0.2c-0.7-0.7-1.7-1-2.5-1.6
					c-0.3-0.1-0.5-0.1-0.7-0.1c0.2,0.4,0.4,0.8,0.6,1.2c-0.3,0-0.5,0-0.8,0c0,0-0.6-1.1-1.3-1.1l0.1,0.2c0.1,0.2,0.2,0.4,0.3,0.5
					l0.1,0.2c-0.1,0-0.3,0-0.4,0c-0.1-0.1-0.2-0.2-0.2-0.3c-0.2-0.8-0.2-0.8-0.7-1.1c0,0.1-0.1,0.3-0.2,0.4c-0.1,0-0.2,0-0.2,0
					l-0.2,0c-0.5-0.2-0.4-0.6-0.4-1c0.6-0.3,0.4-1.3,1.2-1.4c0.1-0.5-0.5-0.9-0.1-1.4c-0.1-0.6-0.1-0.6,0.2-1.1l-0.1-0.2
					c0.2-0.1,0.2-0.1,0-1.5l0.1-0.2c0.1,0,0.3,0,0.4,0c-4.6,0.1-9.9,0.3-15.4,0.4c3.6,8.5,6.6,18.5,8.6,29.4c0.3,0,0.5,0.2,0.8,0.3
					c0.1,0,0.1,0,0.1,0h0h0h0h0h0h0l0,0c0.8,0.2,0.9,0.4,1,0.7c0,0.2,0.1,0.3,0.1,0.4c-0.1,0.2-0.1,0.3-0.3,0.6
					c0.1,0.4-0.1,0.9,0,1.3c0.2,0,0.3,0,0.5,0l0.2-0.1c0.9-1,1.2,1.4,1.9,2c0.1,0.6,0.2,1.1,0.3,1.6c-0.1,0.4-0.4,0.7-0.4,1.2
					c0.1,0.3,0.1,0.6,0.1,0.9c0.5,0,0.9,0,1.4,0c0.4-0.1,0.6-0.5,0.9-0.7c0.4-0.3,0.9-0.6,1.2-1c0.4,0,0.4,0,0.5-0.3
					c-0.2-1.1-0.2-1.1-0.1-1.5c-0.1-0.3-0.1-0.6-0.2-0.9c-0.3,0-2.3-2.3-2.3-2.3c-0.2-0.4-0.2-0.4-0.4-2.6c0.1,0,0.1,0,0.7-0.2
					c0.1,0,0.2,0,0.3,0c0.1,0,0.3-0.1,0.5-0.1c-0.2-0.8-0.4-1.6-0.6-2.4c0-0.6,0-0.6,0.1-0.8c0.9,0,0.5-1.2,1.1-1.5
					c0.8-0.5,1,1.1,1.8,0.7c0.7-0.4,1.1-1.1,1.1-1.1c0.9,0,0.9,0,1.8-2.5c0.4-1-0.3-2.3,0.8-3.2l0-0.2c0.9-0.3,0.4-1.2,0.8-1.8
					c0-0.1-0.1-0.3-0.2-0.4l0-0.1c-0.1-0.4-0.1-0.4-0.3-0.8c-0.1-0.2-0.1-0.2-0.1-0.3c0.1-0.6,0.1-0.6-0.1-1.1
					c-0.1-0.2-0.2-0.4-0.2-0.5l-0.1-0.2c-0.1-0.1-0.1-0.2-0.1-0.3c-0.2-0.4-0.3-1.9-0.3-1.9l0.2,0c0.1,0.1,0.3,0.2,0.4,0.3
					c0,0,1.5,1,3.6,8.8c0.1,0.1,0.3,0.1,0.4,0l0.1-0.1c0-0.2,0-0.4,0-0.5c0-0.1,0-0.3,0-0.4l0.2,0c0.3,0.7,0.4,0.9,1.1,0.9
					c-0.3-0.8-1.3-1.1-1.7-1.9c-0.4-0.8-0.5-1.6-0.8-2.4c0.1-0.1,0.1-0.1,0.1-0.6l0.2-0.1c0.3,0.1,0.5,0.4,0.8,0.5
					C810.4,180.7,810.4,180.5,810.4,180.4 M817,169l-0.3-0.4c-1.5-1.3-1.5-1.3-1.9-2c0-0.1,0-0.1,0.1-0.2c-0.2-0.2-0.4-0.4-0.5-0.4
					l0,0.1l0.1,0.1l-0.2,0.1c-1-1.2-0.9-1.4-0.9-1.6c-0.5,0-1.1,0.1-1.6,0.1c0,0,0.3,0.8,0.3,0.9c-0.1,0-0.2,0-0.3,0
					c0,0.2-0.2,0.4-0.2,0.5l-0.1,0c0,0.1,0,0.3,0.2,0.5c0.1,0.1,0.3,0.2,0.5,0.7c0.2,0.3,0.2,0.7,0.3,1c0,0.1,0.1,0.2,0.4,0.5
					l2.9,4.5c0.1,0.1,0.1,0.1,0.1,0.3c0.3,0.3,0.7,0.7,1,1c0.4,0.6,0.8,1.3,1.2,1.9l0.2,0.1l0,0v-0.1c0.2-0.1,0.3-0.3,0.5-0.3
					c-0.2-0.4-0.5-0.6-0.6-1c-0.1-0.3,0-0.7-0.2-1c-0.1-0.4-0.1-0.4-0.1-0.5l0.1,0l0.2,0.1l0.1,0l0.1,0c0-0.1-0.1-0.4-0.1-0.4
					c-0.3-0.4-0.6-0.8-0.8-1.2c0-0.2-0.1-0.4-0.1-0.6c0.3-0.1,0.5-0.1,0.8-0.1c-0.1-0.2-0.3-0.4-0.5-0.6c-0.2-0.2-0.5-0.4-0.7-0.6
					c0-0.1-0.1-0.2-0.2-0.2c-0.1-0.1-0.1-0.2-0.2-0.2l-0.4-1c0.2,0,0.2,0,0.4,0.2l0.2,0.1C816.8,169,816.9,169,817,169 M772.3,145.7
					c-0.2-0.2-0.4-0.4-0.5-0.6v0l0,0v0.1c0.1,0.1,0.2,0.2,0.4,0.3L772.3,145.7L772.3,145.7 M784.7,166.1c-3.4-8-7.5-14.8-12-19.9
					c-0.2,0-0.4,0-0.6,0c-0.2,0.1-0.5,0.3-1.6-0.2c-0.1,0-0.2,0.1-0.3,0.2c-0.1,0-0.2-0.1-0.3-0.2c-0.2-0.3-0.3-0.4-0.4-0.5
					c-0.5-0.3-0.5-0.3-0.9-0.1l-0.1,0c-0.3-0.1-0.5-0.1-0.7-0.1l-0.2,0.1c-0.1,0-0.2,0-0.3-0.1c-0.3,0.1-0.4,0.1-0.5,0.1
					c-0.3-0.1-0.5-0.4-0.8-0.5c0,0.1-0.1,0.2-0.1,0.3c-0.1,0-0.3,0-0.4,0l-0.2-0.2h0.3l0.1-0.3c0-0.3,0-0.3,0-0.3
					c-0.1,0-0.2-0.1-0.3-0.1c-0.1,0-0.2,0.1-0.3,0.1c0,0.1,0,0.2,0,0.3c-0.3,0.3-0.6,0.3-0.8,0.3l-0.1,0.1c0.1,0.1,0.1,0.2,0.2,0.2
					c0.1,0.1,0.1,0.1,0.1,0.1l-0.2,0.2c-0.1,0-0.1,0-0.1,0c-0.2,0-0.5,0-0.6,0.1c-0.3,0-0.3,0-0.4,0c-0.3,0.1-0.3,0.1-0.3,0.1
					l-0.1,0c0.3-0.3,1-1.1,1-1.2c0.2,0,0.2,0,0.3,0l0.2-0.2c0.2-0.2,0.3-0.2,0.3-0.2c0.1,0,0.2-0.1,0.3-0.1c0-0.1,0-0.2,0-0.3
					c0.1-0.2,0.2-0.2,0.4-0.2c-0.1-0.1-0.1-0.2-0.2-0.3c0-0.1,0-0.1,0.1-0.1c-0.1-0.2-0.3-0.4-0.5-0.5c-0.2-0.1-0.2-0.1-0.2-0.1
					c-0.3-0.3-0.8-0.4-1.1-0.8c-0.2,0-0.4,0-0.6,0c-0.2,0-0.4,0-0.6,0.1c-0.2-0.1-0.4-0.2-0.6-0.2c0,0.1,0.1,0.2,0.1,0.3
					c-0.1,0-0.2,0-0.3,0l-0.1-0.1l0.1-0.1c0-0.1-0.1-0.2-0.1-0.3c-0.2,0-0.3,0-0.5,0c-0.1,0-0.2,0-0.3-0.1c0-0.1-0.1-0.2-0.2-0.3
					c0.1-0.2,0.1-0.2,0-0.3c-0.3,0-0.6,0-0.9,0c-0.2,0.1-0.4,0.2-0.6,0.3c0,0.3,0,0.3,0,0.3c0,0.1-0.1,0.2-0.1,0.3
					c0.1,0.1,0.1,0.2,0.2,0.3c-0.3,0-0.6,0-0.9,0c-0.1,0.3-0.1,0.3-0.1,0.3l0,0h0h0l0,0h0v0l0,0c-0.1,0.1-0.1,0.1-0.1,0.1
					c-0.2,0.1-0.2,0.1-1.2-0.1c-0.2,0-0.2,0-0.2,0c-0.1,0-0.2,0-0.3-0.1c-0.1,0.2-0.3,0.4-0.4,0.5c-0.2,0-0.4,0-0.5,0
					c-0.3,0.1-0.6,0.3-0.9,0.4c-0.1,0-0.2-0.1-0.3-0.1c-0.7,0.3-2.3,1.2-2.3,1.2c0.1,0.2,0.3,0.3,0.5,0.5c0,0.1,0,0.2,0,0.2
					c-1,0.2-1,0.2-1.3,0.3c-0.4-0.2-0.4-0.2-1-0.1c-0.3,0-0.4,0-0.6,0l-0.3,0.1c-0.3,0.1-0.5,0.1-0.7,0.1c-0.1,0.1-0.2,0.1-0.3,0.2
					c0,0.2,0.1,0.4,0.2,0.6c0,0.1-0.1,0.1-0.1,0.1c0,0.1,0,0.2-0.1,0.3c0.1,0.1,0.2,0.1,0.3,0.2l0.2,0c0.1,0,0.2,0.1,0.3,0.1
					c0,0.1,0,0.2,0.1,0.3c0,0.1,0,0.1-0.1,0.2c-0.1,0.1-0.2,0.1-0.2,0.2c-0.3-0.1-0.6-0.3-0.9-0.4l0-0.3c-0.3-0.1-0.6-0.1-0.8-0.1
					l-0.2-0.3c-0.7-0.2-1.1,0.2-1.1,0.3c0.2,0,0.4,0.1,0.6,0.3c-0.1,0.1-0.2,0.1-0.3,0.2c-0.1-0.1-0.2-0.1-0.3-0.2
					c-0.2,0-0.3,0-0.3,0c-0.2,0.1-0.4,0.3-0.5,0.4c0,0.1,0,0.2,0.1,0.3c0.2,0,0.2,0,0.2,0h0h0h0h0h0l0,0h0c0.4,0.2,0.4,0.2,0.7,0.7
					c-0.1-0.1-0.1-0.1-1.5-0.5c0-0.1-0.1-0.2-0.1-0.3c0.2-0.2,0.2-0.3,0.2-0.4c0.5-1,0.5-1,0.5-1.2c-0.2-0.1-0.2-0.1-0.2-0.1h0h0h0
					h0h0h0h0c-0.3,0.6-0.3,0.6-0.5,0.9l-0.1,0.2c-0.7,0-1.3,0.7-1.4,0.8l0,0.1c0.1,1.2,0.1,1.2-0.5,1.7l0,0.1
					c-0.1,0.3-0.2,0.6-0.3,1c0.4,0.3,0.6,0.3,0.9,0.3c0.2-0.1,0.4-0.3,0.5-0.4c0.1,0,0.1,0,0.1,0c1.2,1.4,1.1,1.6,0.4,2.1
					c0.1,0.1,0.2,0.2,0.3,0.3c0.1,0.1,0.4,0.2,0.6,0.2l-0.1,0.2c-0.1,0-0.2,0.1-0.3,0.1c-0.3,0-0.3,0-0.4,0
					c-0.1-0.1-0.3-0.4-0.4-0.5c0.1-0.3,0.1-0.4,0.2-0.4c0-0.1,0.1-0.2,0.1-0.3l-0.2-0.2c0-0.1,0-0.2,0-0.3c-0.6-0.3-2-0.8-3.4,2.4
					c-0.2,0.1-0.2,0.1-1.3,0.6c-0.1,0.1-0.1,0.2-0.2,0.3c-0.4,0.2-0.4,0.3-0.9,0c-0.5-0.2-0.8-0.2-1.1-0.2l-0.1-0.1
					c1-0.8,2.4-0.6,3.3-1.5c0.3-0.1,0.6-0.2,1.3-1.5c-0.2,0-0.4-0.1-0.6-0.2c0-0.1,0-0.1,0.6-1.3l0.1-0.2c0.7-0.9,0.7-0.9,0.8-1.8
					c0.2-0.5,0.4-0.8,0.5-1.1c0.1,0,0.3,0,0.4,0l0.5-0.9c-0.2-0.1-0.4-0.2-0.6-0.2c-0.1,0-0.2,0-0.3,0c-0.5,0-0.9,0.2-1.3,0.2
					c-0.8,0.9-1.4,1.5-2.1,1.8c-0.3,0-0.3,0-0.4,0c-0.1,0-0.2,0.1-0.3,0.2c-0.1,0.2-0.1,0.2-0.2,0.2c-0.1,0.2,0,0.2,0,0.2
					c0,0.8-0.6,0.9-0.6,0.9c-0.2,0.1-0.4,0.3-0.5,0.5c0.4,0.2,0.4,0.4,0.3,0.8c0.1,0.1,0.2,0.2,0.2,0.3c0.2,0.6,0.2,0.6-0.5,1
					c-0.1,0-0.1,0-0.2,0c-0.1,0-0.2,0-0.3,0c-0.1-0.1-0.1-0.2-0.2-0.3c0-0.1,0.1-0.3,0.2-0.4c-0.6-0.3-0.6-0.3-0.7-0.5
					c-0.4-0.1-0.5-0.1-0.7-0.5c-0.4-0.2-0.6-0.2-0.8-0.2c0-0.1,0-0.2-0.1-0.3c-0.3,0-0.5,0-0.7,0c-0.1-0.2-0.2-0.5-0.3-0.7
					c0-0.1-0.1-0.2-0.1-0.3c-0.1,0-0.1,0-0.2,0c-0.1,0-0.1,0-0.8,1c0.1,0.1,0.2,0.1,0.3,0.2c0.2,1,0.2,1-0.3,1.4
					c-0.4,0.1-0.4,0.1-0.4,0.1c-0.4,0.2-0.6,0.6-1,0.5c0.2-0.3,0.5-0.5,0.7-0.8c0-0.2,0-0.2-0.1-0.2c-0.3,0.1-0.3,0.1-0.9,0.5
					c-0.3,0-0.3,0-0.4,0c-3.7,4-6.8,8.9-9.6,14.3C739.8,166.4,764.5,166.6,784.7,166.1 M709.7,223.1L709.7,223.1
					c0-0.5,0-0.7-0.1-0.9c-0.1-0.2-0.4-0.1-0.6-0.2c-0.2-0.2-0.2-0.2-0.3-0.6c0-0.2,0-0.3-0.1-0.5c-0.2-0.5-0.6-0.7-1-0.7
					c0,0-0.6,0-0.2-0.7c0.2-0.4,0.1-0.6,0.1-0.7c0-0.1-0.5-0.3-0.5-0.3c-0.2,0-0.3,0-0.5,0c0,0.7,0,0.7-0.2,0.9
					c-0.2,2.7-0.3,5.4-0.4,8.2c0.1,0,0.1,0,0.3,0c0.1,0,0.2,0,0.3,0c0.1,0,0.2,0,0.3,0c0-0.2,0.1-0.4,0.1-0.6
					c0.4-1.2,0.5-1.4,0.9-1.4l0.1,0c0.1,0.1,0.1,0.2,0.2,0.3c0.1,0.1,0.2,0.1,0.3,0.1c0-1.8,0.3-2.4,0.4-2.5
					c0.1-0.1,0.1-0.1,0.5-0.1C709.3,223.3,709.5,223.2,709.7,223.1 M793.4,211.7c0-0.3-0.2-0.6-0.4-0.8c-0.3,0-0.6-0.1-0.9-0.2
					c0-0.3-0.1-0.6,0-0.9c0.1-0.2,0.3-0.2,0.4-0.2c-0.3-0.9-0.7-1.7-1-2.6c-26.7,0.4-58.5,0.2-83.9-0.8c-0.4,3-0.8,6-1.1,9
					c0.4,1.3,0.4,1.3,0.7,1.5c0.5,0,1,0,1.4,0.1c0.1,0,0.1,0,1.4,0.8c0.6,0,1,0.1,1.5,0.1c0.1,0.1,0.3,0.1,0.4,0.2
					c0.9,0.1,1.6,0.1,2.4,0.1l1.7-0.3c0.5,0,1,0,1.5,0c0.8,0.6,1.3,1,3.1,3.8c0.4,0,0.4,0,0.5,0c0.5,0.1,0.5,0.1,1.7,0.7
					c-1.3-0.1-1.4,0.1-1.7,0.5c0.1,0.1,0.1,0.3,0.2,0.4c1.1,0.3,1.2,1.7,2.4,1.9c0.4,0.1,1.7-1.3,1.7-1.3c1.3,0.2,1.5,2.4,1.4,3.7
					c0,0.2,0,0.4,0,0.7c-0.4,2.6-0.4,2.6,3,9.4c0,0.5,0,0.6,0,0.7c-0.3,2.2,1.6,3.6,2.3,5.5c1,0.8,1,0.8,2.2-1.5
					c1.4-0.1,1.4-0.9,2.1-5.5c0-0.6,0-1.1,0-1.7c-0.1-1.6-0.1-1.6,1.9-2.1c1.1-2.1,3.7-2.9,4.7-5.2c0.3-0.1,0.6-0.1,0.9-0.2
					c0.2-0.7,0.3-0.8,0.9-0.9h0.1h0h0h0l0,0h0h0h0c0.7-0.2,0.7-0.2,0.9-1.9c0.5-0.3,1-0.3,1.4-0.3c0.1,0.1,0.3,0.1,0.4,0.2
					c0.4,0,0.4,0,0.5,0c0.5-0.3,1.1-0.5,1.5-0.9c0.6-0.2,1.1-0.2,1.6-0.2c0-0.3,0-0.6,0-0.9c0.3,0,0.6,0.1,0.9,0.2
					c0.5,1.2,0.8,2.5,1.6,3.7c1,0.9,1,0.9,1.3,1.3c0,0.2,0,0.3,0,0.4c0,0.3-0.1,0.7-0.1,1v-0.1c0.5-0.1,0.6-0.1,1.2,0.3
					c-0.3,3.7-0.3,3.7,1,3.7c0.2,0,0.3,0,0.4,0c0.5-0.3,0.5-0.3,1.3-0.6c0.4-0.2,0.4-0.3,0.4-0.4c0-0.1,0-0.2,0-0.3
					c0.1-0.1,0.2-0.2,0.4-0.3c1.7,0.5,0.9,2.5,2,3.4c0.1,0.5,0.1,0.5-0.4,1.3c1,4.2,1,4.2,0.4,4.6c-0.2,0.6-0.2,0.6-0.1,1.4
					c0,0.1,0,0.2,0,0.3c-1,3.4,2.9,4.6,3.5,7.4c0,0.5,0,1,0,1.6c0.8,2.1,4,3.4,4.1,3.4c0.2,0,0.3,0,0.3,0c0.1-0.1,0.1-0.3,0.2-0.4
					c-0.1-0.2-0.4-0.5-0.6-0.7c-0.6-0.9-0.8-4.1-0.8-4.1c0-0.1,0-0.2,0-0.3c0-0.4,0-0.5,0-0.6c-0.1-0.6,0-0.8,0-1
					c-2.7,0.2-2.5-2.9-4.2-3.8c0-0.1,0-0.3-0.1-0.4c0-0.3,0-0.4,0-0.5c-0.2-0.2-0.5-0.5-0.8-0.6c0-0.5,0-1,0-1.5
					c0.5-1.1,1.9-3.9,1.9-3.9c0.6,0.5,0.7,1.3,1.3,1.7c0.3,0,0.3,0,0.4,0c0.2-0.1,0.6-0.2,0.9-0.1c1.8,3.3,1.8,3.3,3,3.6
					c0.1,0.1,0.2,0.3,0.3,0.4c-0.7,1.1-0.3,1.8,0,2.4c0.7-0.9,2.8-3.5,2.8-3.5c0.5,0.1,3.1,0.3,3.2-3.7c0-0.6,0-0.9,0-1.3
					c0.1-1-0.5-1.9-0.5-2.9c-0.8-0.3-0.8-0.3-1.9-1.7c-0.9-0.7-1.2-1.9-2-2.8c0.1-1.3,0.1-1.3,0.9-1.8c0.5-2.4,0.5-2.4,4.2-2.8
					c0.1,0.1,0.1,0.2,0.1,0.4c-0.1,0.9-0.1,1.4-0.1,2c-1.5,1.9-1.5,1.9-1.3,2.4c1,0.1,1.7,0.1,2.5,0.1c0.1-0.8,0.4-1.6,0.4-2.4
					c-0.1-0.1-0.3-0.1-0.5-0.2c-0.1-0.6-0.1-1.3-0.1-1.9c0.1,0,0.3,0,0.4,0c0.3,0,0.3,0,0.4,0c1.3-0.9,1.3-0.9,2-0.9
					c0.1,0,0.2,0,0.3,0C785.9,224.5,792.7,216.8,793.4,211.7 M689.9,163L689.9,163c0,0-0.3,0.2-1.2,1.2l-0.1,0.1
					c0.2-0.2,0.3-0.3,0.5-0.5l0,0l0.1-0.1C689.4,163.5,689.7,163.2,689.9,163 M682.4,172.8c0.1-0.2,0.2-0.3,0.4-0.5
					c0.2-0.4,0.4-0.7,0.6-1c-0.2,0.2-0.4,0.4-0.6,0.7c0-0.1,0-0.1,1-1.4l-0.1,0c0.1-0.1,0.1-0.1,1.1-1.5c0,0,1.9-2.6,2.2-2.7
					c0.1-0.1,0.1-0.1,0.2-0.2c0.2-0.2,0.5-0.5,0.7-0.7c0.3-0.3,0.5-0.6,0.8-0.9l-0.1-0.1c0.5-0.5,1-0.9,1.4-1.4l0,0l0,0l-0.1,0
					l0-0.1c-0.3,0.3-0.6,0.6-0.9,0.9c-0.7,0.7-0.7,0.7-0.8,0.8c0.1-0.1,0.2-0.2,0.2-0.3c-0.4,0.4-0.7,0.8-1.1,1.2l-0.2,0.2
					c-0.4,0.4-0.8,0.8-1.2,1.3l0,0l0.1,0c-0.1,0.1-0.2,0.3-0.4,0.4v0c0.1-0.1,0.3-0.3,0.4-0.4c-0.5,0.6-1,1.1-1.5,1.7l0,0.1l0.2-0.2
					c-0.4,0.5-0.8,1-1.2,1.5c-0.3,0.4-0.5,0.8-0.9,1.1c0-0.1,0.1-0.2,0.1-0.2l0,0c-0.1,0.1-0.1,0.1-0.2,0.2l-0.2,0.2
					c-0.2,0.3-0.2,0.3-0.3,0.4l0.1,0c0,0.1-0.1,0.1-0.4,0.5l0,0c-0.1,0.1-0.2,0.3-0.4,0.4l0,0l0,0l0,0l0,0v0h0v0v0
					c-0.4,0.6-0.5,0.7-0.5,0.7c0.1-0.1,0.1-0.1,0.2-0.2c-0.5,0.8-0.5,0.8-0.8,1.1l0,0c0,0-0.9,1.1-0.9,1.2l0.1-0.1
					c0.1-0.1,0.2-0.2,0.2-0.3l-0.1,0.2l0,0c0.1-0.2,0.3-0.4,0.5-0.6l0,0.1l0.1,0l0,0.1l0,0c0.1-0.1,0.2-0.3,0.3-0.4
					c0,0.2-0.2,0.3-0.2,0.5l0,0l0.1,0c0.1-0.1,0.2-0.3,0.3-0.4l0.1,0l0.1-0.1c0.2-0.3,0.4-0.6,0.6-0.8l0.1-0.1
					C681.9,173.3,682.1,173.1,682.4,172.8L682.4,172.8 M684.5,168.9L684.5,168.9L684.5,168.9L684.5,168.9L684.5,168.9 M684.3,169.2
					c0.6-0.7,0.7-0.8,1.2-1.5v0c-0.2,0.1-0.3,0.3-0.4,0.4c0.1-0.2,0.2-0.3,0.4-0.4l0,0c-0.8,1-0.8,1-3.7,4.7l-0.6,0.7v0
					c0.2-0.2,0.4-0.5,0.5-0.7l0,0.1c0.1-0.1,0.2-0.2,0.2-0.3c0.6-0.8,1.7-2.2,1.7-2.2c0.1-0.2,0.3-0.3,0.4-0.5
					C684,169.5,684,169.5,684.3,169.2 M705.3,274.5c0-0.1-0.1-0.2-0.1-0.2c-1.3-3.2-1.3-3.2-2.8-3.7c0.3,1,0.3,1,0.3,1.1
					c0,0-0.2,0.6-0.6,1c-0.4,0.4,0.3,0.8,0.2,1.2c-0.3,0-0.3,0-0.3,0c0,0.3,0.4,0.7,0,1c-1.8-0.1-1.8-0.1-2.1,0.2
					c-0.1,0.1-0.1,0.1,0.3,0.8c0.1,0.1,0.1,0.1,0.1,0.9c0,0,0.6,1.6,1.1,1.9c0.1,0.1,0.4,0.3,0.7,1.1l0,0.1
					c-0.3-0.1-0.3-0.1-0.3-0.1c0,0.8,0.5,1.5,0.6,2.3c0,0.1,0.1,0.2,0.1,0.2c0.2,0.4,0.6,0.7,0.9,1.1c0.1,0.1,0.2,0.3,0.3,0.5
					c0.6,0.8,0.6,0.8,0.8,1.3c0.3,0,0.7,0,1,0.1c0.2,0.1,0.2,0.3,0.4,0.4c0.2,0.1,1.6,0.3,1.8-0.1c0.3-1.1-0.7-1.7-1-2.5
					c-0.2-0.5,0.1-1-0.1-1.6c-0.3-0.6-0.7-1.1-0.8-1.7l0.1-0.2c0,0,0.7-0.6,0.7-0.7c0-0.6-0.7-0.8-0.9-1.4c-0.1-0.4,0-0.7,0-1.1
					c-0.1-0.2-0.1-0.3-0.2-0.5c-0.1-0.2-0.2-0.3-0.3-0.5c0-0.1-0.1-0.2-0.1-0.2l0-0.1C705.4,275.1,705.4,275.1,705.3,274.5
					 M698.4,239.5c0-0.4-0.1-0.8-0.4-1.3c-1.5-0.3-2.6,1.7-4.2,0.9c-0.2,0-0.3,0-0.5,0c-1.4,0.1-1.7,0.2-2.5-0.3
					c-0.6-1.4-0.6-1.4-0.7-1.8c-0.1-0.1-0.3-0.2-0.5-0.3c-0.5-1.7-0.5-1.7-1.3-1.9c-4.6-7.9-4.6-7.9-4.4-9.2c0-0.2,0-0.4,0-1.1
					c-0.6-11.2-3.3-17.1-3.7-17.8c-0.1,0-0.1,0-0.6,0.2c-0.1,0.1-0.3,0.2-0.5,0.3l-0.2,0c-0.8-0.4-1.9-1-2.8-1.1
					c-0.7-2.1-0.7-2.1-1.2-2.5c-0.2,0.1-0.3,0.1-0.5,0.2c-0.1-0.1-0.3-0.2-0.5-0.2c-0.9,3.6-0.9,3.6-1.3,3.8c-0.1,0-0.1,0-0.3,0
					c-0.2-0.5-0.2-1-0.5-1.4c-0.3-0.1-0.7-0.1-0.9-0.6c0.3-1.6-0.3-1.9-0.8-2.2c-0.5-2.5,2.1-4.4,1.4-7c-0.4,0.1-0.8,0.4-1.2,0.4
					c-0.1,0.1-0.3,0.3-0.4,0.4c0.1-0.3,0-0.7-0.1-1c-0.2,0.2-0.5,0.6-0.6,0.9c-0.1-0.1-0.2-0.1-0.4,0.1c-0.4,1-0.4,1-0.7,1.4
					c0,0,0,0,0-0.2c0,0,0,0,0-0.2c0-0.1,0.1-0.3,0.1-0.5c0-0.1,0.1-0.2,0.1-0.3c-0.3,0.8-0.3,0.9-0.9,2.6c-0.9,3.4-2,8-2.7,11.4
					c-0.8,4.8-0.8,4.8-1.2,14.6c0,2.4,0.2,5.6,0.3,8c0.3,2.9,0.9,6.8,1.4,9.8l0-0.1c0,0,0,0,0.1,0.2c0.1,0.1,0.2,0.3,0.3,0.4
					c0-0.3,0-0.7,0.2-0.9c0,0,0,0,0-0.3c0.1-0.1,0.2-0.3,0.3-0.4c0.6,2.6,0.6,2.6,0.9,3.1c0.3,0.1,0.7,0.2,1.1,0.3
					c0.1,0.6,0.2,1.2,0.4,1.8c1,6,4.5,11,6.5,16.6c0.1,0.2,0.2,0.4,0.2,0.5c5.8,12.2,5.8,12.2,10.2,16.8c0.6,0.8,1.1,1.6,1.7,2.3
					c2.8,3.3,8.1,8,8.2,8l0.2,0.2c0.5,0.7,0.5,0.8,1.1,1.2c0.1,0,0.1,0,0.4,0.2c0.5,0.5,0.6,0.6,1.3,1c0.3,0,0.5,0.1,1-0.3
					c0.4,0,0.7,0.1,1-0.2c0-0.3,0-0.7,0.1-1l-3.8-7.6c0.1,0,0.3-0.1,0.5-0.1c0-1.3,0-1.3,0.1-1.6c-3-4.4-3-4.4-3.2-7.4
					c0.2-0.2,0.6-0.4,0.9-0.4c0.7-1,0.7-1,0.1-3.4c-0.1-0.3-0.2-0.5-0.5-1.1c-0.1-0.3-0.4-0.7-0.6-0.9c-0.4-1-0.8-2-1.5-3.3
					c-1.3-1.5-1.5-3.5-2.6-5.2c0-0.1-0.1-0.2-0.2-0.6c0-0.3-0.1-0.7-0.2-1l4.4-10.4C697.7,248.5,698.3,242.8,698.4,239.5
					 M747.4,136.1L747.4,136.1l-0.1,0L747.4,136.1 M742.6,136.7c-0.4,0.1-0.8,0.1-1.2,0.2c-0.1,0-0.1,0-0.1,0
					c-0.5,0.1-0.9,0.1-1.4,0.2v0c0.1,0,0.2,0,0.4-0.1c-0.5,0.1-0.6,0.1-0.8,0.1l-0.1,0l-0.4,0.1c-2,0.3-2.3,0.4-3.8,0.7
					c-0.1,0-0.1,0-0.1,0c-0.3,0.1-0.6,0.1-0.9,0.2c-0.1,0-0.1,0-0.1,0c-1,0.2-1.6,0.4-2,0.5c-0.5,0.1-0.9,0.2-1.4,0.4
					c0.3-0.1,0.5-0.1,0.7-0.2c-0.4,0.1-1.1,0.3-1.2,0.3l0,0l0.1,0c-0.3,0.1-0.6,0.2-0.9,0.3c-0.1,0-0.1,0-0.1,0l0.1,0
					c-0.2,0.1-0.4,0.1-0.6,0.2c-0.1,0-0.2,0.1-0.2,0.1c-0.2,0.1-0.4,0.1-0.5,0.2c-0.1,0-0.2,0.1-0.4,0.1l0.4-0.1l0.1,0
					c4-1.1,8.6-2.4,17-3.4l0,0c0.1,0,0.3,0,0.4,0l0.1,0l0.1,0l0.2,0c0.1,0,0.3,0,0.4,0c0.1,0,0.2,0,0.3,0l0.1,0l0.1,0l0,0l0.1,0
					l0.1,0l0,0c0.1,0,0.3,0,0.4,0l0.1,0c0.1,0,0.3,0,0.4,0l0.1,0l0.1,0l0,0l0,0h0l-0.1,0h0l-0.1,0l0,0l0,0h0l-0.1,0l-0.1,0l-0.1,0
					c0.2,0,0.5,0,0.7-0.1l0.1,0l0.1,0l0.1,0l0.1,0l0.1,0l0.1,0c0.2,0,0.4,0,0.5,0h0l0,0l-0.1,0l0.1,0l-0.1,0c-0.1,0-0.1,0-0.1,0
					c0.1,0,0.2,0,0.4,0c-0.2,0-0.5,0-0.7,0l-0.1,0c-0.1,0-0.2,0-0.3,0c0.5,0,1-0.1,1.5-0.1l0,0c-0.1,0-0.1,0-0.1,0
					c0.2,0,0.4,0,0.5,0c-0.1,0-0.2,0-0.3,0c-0.1,0-0.1,0-0.1,0c-0.1,0-0.3,0-0.4,0h0c-0.3,0-0.6,0-0.9,0c0,0,0.1,0,0.2,0
					c-0.2,0-0.3,0-0.5,0l0,0l-0.3,0l-0.1,0c0.1,0,0.2,0,0.3,0l0,0l0,0l0,0l-0.1,0c-0.1,0-0.3,0-0.4,0c-0.1,0-0.1,0-0.1,0l0.1,0
					c0.1,0,0.1,0,0.1,0c-0.4,0-0.8,0.1-1.2,0.1l0,0l0.1,0l-0.1,0c-0.2,0-0.4,0-0.7,0.1c-0.3,0-0.5,0-0.8,0.1l0.1,0
					c-0.1,0-0.2,0-0.4,0c0,0,0.1,0,0.2,0c-0.2,0-0.7,0.1-1.5,0.2l0.2,0l0,0l0,0h0l0,0l0,0l0,0h0h0c0.1,0,0.1,0,0.1,0l0,0l0,0l0,0
					l0,0h0l0,0h0c0.2,0,0.3,0,0.5-0.1l-0.1,0l-0.1,0l0.1,0c-0.1,0-0.3,0-0.5,0.1l-0.2,0l0,0c-0.3,0-0.7,0.1-1.1,0.1
					c0.1,0,0.2,0,0.4,0l-0.1,0c0.5-0.1,1-0.1,1.6-0.2l-0.1,0l0,0c-0.6,0.1-1.1,0.1-1.7,0.2c-0.3,0-0.5,0.1-0.8,0.1
					c-0.7,0.1-1.3,0.2-2.2,0.3c0.8-0.1,1.1-0.2,1.7-0.3h0h0l0,0l0,0h0l0,0l0,0l0,0C742.1,136.8,742.4,136.7,742.6,136.7
					c-0.1,0-0.3,0-0.4,0c0.5,0,1-0.1,1.4-0.2c0.1,0,0.1,0,0.1,0h0l0,0l0,0l0,0l0.1,0c-0.1,0-0.2,0-0.3,0c-0.1,0-0.2,0-0.3,0
					c0.1,0,0.2,0,0.3,0C743.2,136.7,742.9,136.7,742.6,136.7"/>
			</g>
		</g>
		<path id="XMLID_48_" class="st0" d="M287.6,135.7v205L172.3,225.3V308h0v10.9h10.9v-67.3l96.8,96.8l18.6,18.6V135.7H287.6z
			 M241.5,146.5L241.5,146.5l0-10.9h-10.9V203L115.3,87.7v231.2h10.9v-205l115.3,115.3V146.5z"/>
		<g id="XMLID_42_">
			<g id="XMLID_44_">
				<path id="XMLID_47_" class="st0" d="M51.2,128.3c13-0.5,26.2-3.1,36.5,8.6c11.2,12.7,13.4,29.2,5.6,46.6
					c-11,24.5-29.4,43.6-46.5,63.7c-8.4,9.9-17.1,19.9-23.5,31c-9.4,16.2-6,30,7.9,42.6c-11.9-2.4-24.1-18.7-25.3-32.5
					c-1.6-18.2,6.6-32.7,16.8-46.5c13.3-18.1,27.2-35.9,39.6-54.6c4.8-7.4,7.3-16.9,8.8-25.8C74.1,143.1,68.6,135.1,51.2,128.3z"/>
				<path id="XMLID_46_" class="st0" d="M86.8,318.8c-12,0-23.3,0.3-34.6-0.1c-19.3-0.5-29.7-16.2-22.1-34c3-7.2,7.5-14.1,12.6-20.1
					c14.4-17,29.3-33.5,44.1-50.3C86.8,248.7,86.8,283.3,86.8,318.8z"/>
				<path id="XMLID_45_" class="st0" d="M16.9,234.6c0-34.5,0-67.1,0-101.2c10.5,0.9,20.7,0.9,30.6,2.8c10.4,2,16.1,12.3,14.4,23.1
					c-3,18.9-13.3,34.2-24.1,49.2C31.7,216.9,24.7,224.8,16.9,234.6z"/>
			</g>
			<circle id="XMLID_43_" class="st0" cx="51.8" cy="78.5" r="39.5"/>
		</g>
		<g id="XMLID_22_">
			<path id="XMLID_39_" class="st0" d="M951.5,292.5l-44.1-44.1V319h10.9v-44.3l44.3,44.3h15.3L951.5,292.5z M1040.2,300.4l-53-53
				c1.7-1.4,3.4-3,5.1-4.6c12.2-12.2,18.4-27.2,18.4-44.4c0-17.2-6.2-32.2-18.4-44.4c-12.2-12.2-27.2-18.4-44.4-18.4h-97.5V319h10.9
				V146.4h86.6c14.3,0,26.6,5.1,36.7,15.2s15.2,22.4,15.2,36.7c0,14.3-5.1,26.6-15.2,36.7c-4.5,4.5-9.3,8-14.5,10.5l30.3,30.3
				l43.1,43h15.3L1040.2,300.4z"/>
			<g id="XMLID_23_">
				<path id="XMLID_38_" class="st0" d="M953.5,199.2c0,1.6-0.6,3-1.7,4.1c-1.1,1.1-2.5,1.7-4.1,1.7h-40.4v-11.5h40.4
					c1.6,0,3,0.6,4.1,1.7C952.9,196.2,953.5,197.6,953.5,199.2z"/>
				<path id="XMLID_25_" class="st0" d="M947.7,209.8h-45.2v-21.2h45.2c2.9,0,5.4,1.1,7.5,3.1c2.1,2.1,3.1,4.7,3.1,7.5
					c0,2.9-1.1,5.5-3.1,7.5C953.2,208.7,950.6,209.8,947.7,209.8z M912.1,200.1h35.6c0.4,0,0.5-0.1,0.7-0.3c0.2-0.2,0.3-0.3,0.3-0.7
					c0-0.3-0.1-0.5-0.3-0.7c-0.2-0.2-0.3-0.2-0.7-0.2h-35.6V200.1z"/>
			</g>
		</g>
		<path id="XMLID_5_" class="st0" d="M1285.6,302.8L1183.6,126l-9.4-16.3l-9.4,16.3l-102.1,176.8l-9.4,16.3h12.6l6.3-10.9L1089,279
			l85.2-147.6l78.3,135.7l23.7,41.1h-0.1l6.2,10.9h12.7L1285.6,302.8z M1205.4,277.9l-7-12.2l-24.2-42l-35.8,62.1l-0.9,1.5l-12.1,21
			h0l-6.3,10.9h12.6l3.1-5.4l39.4-68.2l39.4,68.2l3.1,5.4h12.5L1205.4,277.9z"/>
	</g>
</g>
</svg>
