<?xml version="1.0" encoding="UTF-8"?>
<svg xmlns="http://www.w3.org/2000/svg" xmlns:xlink="http://www.w3.org/1999/xlink" width="512" height="512" viewBox="0 0 60 60" version="1.1"><!-- Generator: Sketch 51.3 (57544) - http://www.bohemiancoding.com/sketch --><title>026 - App Design</title><desc>Created with Sketch.</desc><defs/><g id="Page-1" stroke="none" stroke-width="1" fill="none" fill-rule="evenodd"><g id="026---App-Design" fill-rule="nonzero"><path d="M43,17 L43.0000048,53 L17,53 L17,32.48 L17.33,15.64 C17.8391733,14.6332518 18.8718164,13.9989692 20,14 L40,14 C40.6242895,14.0001202 41.2328301,14.1959724 41.74,14.56 C42.0602839,14.7835363 42.3323438,15.0691992 42.54,15.4 C42.8415116,15.8791205 43.0010118,16.433904 43,17 Z" id="Shape" fill="#6A1B9A"/><path d="M40,17 L40.0000048,53 L17,53 L17,32.48 L17.33,15.64 C17.8391733,14.6332518 18.8718164,13.9989692 20,14 L37,14 C37.6242895,14.0001202 38.2328301,14.1959724 38.74,14.56 C39.0602839,14.7835363 39.3323438,15.0691992 39.54,15.4 C39.8415116,15.8791205 40.0010118,16.433904 40,17 Z" id="Shape" fill="#9D27B0"/><path d="M39.08,50.28 L37.92,49.8 C38.0283427,49.0608474 38.0317093,48.3100945 37.93,47.57 L39.08,47.09 C40.0978306,46.6663689 40.5808941,45.4989654 40.16,44.48 C39.7348356,43.4636871 38.5716922,42.9779299 37.55,43.39 L36.4,43.87 C35.9499291,43.2714651 35.4141839,42.7424588 34.81,42.3 L35.29,41.13 C35.500048,40.6451031 35.500048,40.0948969 35.29,39.61 C34.9851246,38.8604674 34.2575163,38.369495 33.4483542,38.3673021 C32.6391921,38.3651093 31.9089334,38.8521308 31.6,39.6 L31.12,40.77 C30.3774974,40.6616315 29.6234406,40.6582652 28.88,40.76 L28.4,39.6 C28.1991035,39.1122318 27.8096159,38.7263506 27.32,38.53 C26.8330316,38.3166135 26.2797161,38.312997 25.79,38.52 C24.7737864,38.9507358 24.2925117,40.1182726 24.71,41.14 L25.19,42.29 C24.5910016,42.7389945 24.0589945,43.2710016 23.61,43.87 L22.45,43.39 C21.4311035,42.9864834 20.2758612,43.4645147 19.84,44.47 C19.6347179,44.9605463 19.6332434,45.5126488 19.8359024,46.0042845 C20.0385614,46.4959202 20.428667,46.886608 20.92,47.09 L22.08,47.57 C21.9700008,48.3092639 21.9700008,49.0607361 22.08,49.8 L20.92,50.28 C20.5598503,50.4242106 20.2526717,50.6755386 20.04,51 L39.96,51 C39.7444322,50.6781572 39.4381564,50.4275678 39.08,50.28 Z M30.77,50.53 C30.0227278,50.841022 29.1616646,50.670969 28.5887331,50.0992174 C28.0158015,49.5274658 27.8439737,48.666755 28.1534544,47.9188432 C28.4629352,47.1709314 29.1927004,46.6832936 30.002114,46.6835469 C30.8115276,46.6838002 31.5409874,47.1718946 31.85,47.92 C32.2661691,48.9389592 31.7844828,50.1030346 30.77,50.53 Z" id="Shape" fill="#A5A5A4"/><path d="M20.93,43.4 C20.8583061,43.4266743 20.7909199,43.4637367 20.73,43.51 L21.61,43.87 C21.7619774,43.6673517 21.9255857,43.4736929 22.1,43.29 C21.7079989,43.2049549 21.2992806,43.2433814 20.93,43.4 Z M28.96,40.75 C29.0138826,40.7510997 29.0675046,40.7578025 29.12,40.77 L29.13,40.74 C29.0731497,40.738343 29.0162639,40.7416893 28.96,40.75 Z M34.81,42.3 L35.29,41.13 C35.500048,40.6451031 35.500048,40.0948969 35.29,39.61 C35.0901857,39.1169016 34.7012359,38.7243504 34.21,38.52 C33.6363042,38.2793671 32.9821147,38.3276879 32.45,38.65 C32.8291136,38.8675037 33.124746,39.2053692 33.29,39.61 C33.500048,40.0948969 33.500048,40.6451031 33.29,41.13 L32.81,42.3 C33.4141839,42.7424588 33.9499291,43.2714651 34.4,43.87 L35.55,43.39 C35.665727,43.3428512 35.7865353,43.3092933 35.91,43.29 C35.5799507,42.9214538 35.2111561,42.5895386 34.81,42.3 Z M39.08,50.28 L37.92,49.8 C38.0283427,49.0608474 38.0317093,48.3100945 37.93,47.57 L39.08,47.09 C40.0978306,46.6663689 40.5808941,45.4989654 40.16,44.48 C39.7348356,43.4636871 38.5716922,42.9779299 37.55,43.39 L37.28,43.5 C37.6816303,43.7102242 37.9940492,44.0581452 38.16,44.48 C38.5808941,45.4989654 38.0978306,46.6663689 37.08,47.09 L35.93,47.57 C36.0317093,48.3100945 36.0283427,49.0608474 35.92,49.8 L37.08,50.28 C37.4381564,50.4275678 37.7444322,50.6781572 37.96,51 L39.96,51 C39.7444322,50.6781572 39.4381564,50.4275678 39.08,50.28 Z" id="Shape" fill="#CFD8DC"/><path d="M28.87,40.74 L28.88,40.76 C28.91,40.76 28.93,40.75 28.96,40.75 C28.9307516,40.7417524 28.9003454,40.7383739 28.87,40.74 Z M37.08,43.4 C36.7118455,43.2389758 36.3017159,43.2004166 35.91,43.29 C36.0839723,43.4740884 36.2475589,43.6677215 36.4,43.87 L37.28,43.5 C37.2164704,43.4607305 37.1495334,43.427262 37.08,43.4 Z" id="Shape" fill="#CFD8DC"/><path d="M37.08,50.28 L35.92,49.8 C36.0283427,49.0608474 36.0317093,48.3100945 35.93,47.57 L37.08,47.09 C38.0978306,46.6663689 38.5808941,45.4989654 38.16,44.48 C37.9940492,44.0581452 37.6816303,43.7102242 37.28,43.5 L36.4,43.87 C36.2475589,43.6677215 36.0839723,43.4740884 35.91,43.29 C35.7865353,43.3092933 35.665727,43.3428512 35.55,43.39 L34.4,43.87 C33.9499291,43.2714651 33.4141839,42.7424588 32.81,42.3 L33.29,41.13 C33.500048,40.6451031 33.500048,40.0948969 33.29,39.61 C33.124746,39.2053692 32.8291136,38.8675037 32.45,38.65 C32.0673477,38.8613817 31.7676948,39.1962879 31.6,39.6 L31.12,40.77 C30.4610876,40.669909 29.7916301,40.6598167 29.13,40.74 L29.12,40.77 C29.0675046,40.7578025 29.0138826,40.7510997 28.96,40.75 C28.93,40.75 28.91,40.76 28.88,40.76 L28.87,40.74 L28.4,39.6 C28.1991035,39.1122318 27.8096159,38.7263506 27.32,38.53 C26.8330316,38.3166135 26.2797161,38.312997 25.79,38.52 C25.7036631,38.5572948 25.620115,38.6007398 25.54,38.65 C24.6876332,39.1621402 24.3353907,40.2188677 24.71,41.14 L25.19,42.29 C24.5910016,42.7389945 24.0589945,43.2710016 23.61,43.87 L22.45,43.39 C22.3372485,43.3442364 22.2199094,43.3107109 22.1,43.29 C21.9255857,43.4736929 21.7619774,43.6673517 21.61,43.87 L20.73,43.51 C20.3247078,43.7087723 20.007577,44.0508459 19.84,44.47 C19.6347179,44.9605463 19.6332434,45.5126488 19.8359024,46.0042845 C20.0385614,46.4959202 20.428667,46.886608 20.92,47.09 L22.08,47.57 C21.9700008,48.3092639 21.9700008,49.0607361 22.08,49.8 L20.92,50.28 C20.5598503,50.4242106 20.2526717,50.6755386 20.04,51 L37.96,51 C37.7444322,50.6781572 37.4381564,50.4275678 37.08,50.28 Z M30.77,50.53 C30.1961844,50.763336 29.5468339,50.7190621 29.01,50.41 C28.6218473,50.1979373 28.3182604,49.8590496 28.15,49.45 C27.7675949,48.52726 28.1319634,47.4641612 29,46.97 C29.0732875,46.9152808 29.1541305,46.8714908 29.24,46.84 C29.9073202,46.5218165 30.6957371,46.5977096 31.2901097,47.037344 C31.8844822,47.4769783 32.1878535,48.2086386 32.078962,48.9398702 C31.9700705,49.6711018 31.466679,50.2826229 30.77,50.53 Z" id="Shape" fill="#F5F5F5"/><path d="M43,51 L43,56 C43,57.6568542 41.6568542,59 40,59 L20,59 C18.3431458,59 17,57.6568542 17,56 L17,51 L43,51 Z" id="Shape" fill="#283593"/><path d="M40,51 L40,56 C40,57.6568542 38.6568542,59 37,59 L20,59 C18.3431458,59 17,57.6568542 17,56 L17,51 L40,51 Z" id="Shape" fill="#3F51B5"/><path d="M13,52 C13,53.6568542 11.6568542,55 10,55 C9.65842344,55.0021256 9.31939584,54.9411006 9,54.82 C7.80191937,54.4003329 6.99979755,53.2694557 6.99979755,52 C6.99979755,50.7305443 7.80191937,49.5996671 9,49.18 C9.31939584,49.0588994 9.65842344,48.9978744 10,49 C11.6568542,49 13,50.3431458 13,52 Z" id="Shape" fill="#C81E1E"/><ellipse id="Oval" fill="#F44335" cx="9" cy="52" rx="2" ry="2.82"/><path d="M8.44,42.08 L2.94,46.79 C2.55681307,47.0453167 2.06417191,47.0688958 1.65835222,46.851343 C1.25253253,46.6337902 0.99947439,46.2104548 1,45.75 L1,36.25 C0.992234479,35.6886399 1.36735981,35.1939691 1.91,35.05 C2.25978073,34.9436492 2.63896479,35.0025516 2.94,35.21 L8.44,40 C8.79082748,40.2296472 9.00222911,40.6206937 9.00222911,41.04 C9.00222911,41.4593063 8.79082748,41.8503528 8.44,42.08 Z" id="Shape" fill="#549414"/><path d="M6.44,41.08 L1,45.74 L1,36.25 C0.992234479,35.6886399 1.36735981,35.1939691 1.91,35.05 L6.44,39 C6.79082748,39.2296472 7.00222911,39.6206937 7.00222911,40.04 C7.00222911,40.4593063 6.79082748,40.8503528 6.44,41.08 Z" id="Shape" fill="#60A917"/><path d="M59,22 L59,30 C58.9967052,31.1032019 58.1032019,31.9967052 57,32 L54,32 C55.1032019,31.9967052 55.9967052,31.1032019 56,30 L56,22 C55.9967052,20.8967981 55.1032019,20.0032948 54,20 L57,20 C58.1032019,20.0032948 58.9967052,20.8967981 59,22 Z" id="Shape" fill="#0377BC"/><path d="M56,22 L56,30 C55.9967052,31.1032019 55.1032019,31.9967052 54,32 L38,32 L30,36 L34,28 L34,22 C34.0032948,20.8967981 34.8967981,20.0032948 36,20 L54,20 C55.1032019,20.0032948 55.9967052,20.8967981 56,22 Z" id="Shape" fill="#02A9F4"/><path d="M23,24 C23,28.9705627 18.9705627,33 14,33 C13.4975784,33.0006098 12.9959346,32.9604783 12.5,32.88 C8.16910765,32.1449193 5.00019906,28.3928319 5.00019906,24 C5.00019906,19.6071681 8.16910765,15.8550807 12.5,15.12 C12.9959346,15.0395217 13.4975784,14.9993902 14,15 C18.9705627,15 23,19.0294373 23,24 Z" id="Shape" fill="#FEC108"/><ellipse id="Oval" fill="#FFDC00" cx="12.5" cy="24" rx="7.5" ry="8.88"/><path d="M40,60 L20,60 C17.790861,60 16,58.209139 16,56 L16,32.48 C16,31.9277153 16.4477153,31.48 17,31.48 C17.5522847,31.48 18,31.9277153 18,32.48 L18,56 C18,57.1045695 18.8954305,58 20,58 L40,58 C41.1045695,58 42,57.1045695 42,56 L42,33 L38.236,33 L30.447,36.9 C30.0619016,37.0929365 29.5965301,37.0176091 29.2919605,36.7130395 C28.9873909,36.4084699 28.9120635,35.9430984 29.105,35.558 L33,27.764 L33,22 C33,20.3431458 34.3431458,19 36,19 L42,19 L42,17 C42,15.8954305 41.1045695,15 40,15 L20,15 C19.248576,14.9968086 18.5601688,15.4194604 18.223,16.091 C18.068934,16.4214426 17.7472365,16.6418479 17.3834567,16.6661982 C17.019677,16.6905485 16.6714745,16.5149842 16.4747426,16.208023 C16.2780107,15.9010618 16.2639316,15.5113573 16.438,15.191 C17.1132704,13.8438204 18.493063,12.9951046 20,13 L40,13 C42.209139,13 44,14.790861 44,17 L44,20 C44,20.5522847 43.5522847,21 43,21 L36,21 C35.4477153,21 35,21.4477153 35,22 L35,28 C35.0016999,28.1547301 34.9674687,28.3077438 34.9,28.447 L32.241,33.764 L37.558,31.105 C37.6953266,31.0365535 37.8465623,31.0006265 38,31 L43,31 C43.5522847,31 44,31.4477153 44,32 L44,56 C44,58.209139 42.209139,60 40,60 Z" id="Shape" fill="#000000"/><path d="M43,52 L17,52 C16.4477153,52 16,51.5522847 16,51 C16,50.4477153 16.4477153,50 17,50 L43,50 C43.5522847,50 44,50.4477153 44,51 C44,51.5522847 43.5522847,52 43,52 Z" id="Shape" fill="#000000"/><path d="M32,19 L28,19 C27.4477153,19 27,18.5522847 27,18 C27,17.4477153 27.4477153,17 28,17 L32,17 C32.5522847,17 33,17.4477153 33,18 C33,18.5522847 32.5522847,19 32,19 Z" id="Shape" fill="#000000"/><path d="M32,56 L28,56 C27.4477153,56 27,55.5522847 27,55 C27,54.4477153 27.4477153,54 28,54 L32,54 C32.5522847,54 33,54.4477153 33,55 C33,55.5522847 32.5522847,56 32,56 Z" id="Shape" fill="#000000"/><path d="M30.005,51.685 C28.461636,51.6866367 27.1688534,50.517018 27.0164759,48.9811937 C26.8640985,47.4453694 27.9018516,46.0445256 29.4154486,45.7428647 C30.9290455,45.4412037 32.4245538,46.3371668 32.8726134,47.8140614 C33.3206729,49.2909561 32.5750683,50.8668268 31.149,51.457 C30.78622,51.6069951 30.3975653,51.6844542 30.005,51.685 Z M29.999,47.685 C29.8682139,47.6847879 29.738695,47.7106237 29.618,47.761 C29.1427026,47.9576994 28.8941603,48.4828904 29.0434123,48.9751527 C29.1926643,49.4674149 29.6910178,49.76615 30.1955212,49.6657776 C30.7000245,49.5654052 31.0460858,49.0986713 30.9955562,48.586768 C30.9450266,48.0748647 30.5143911,47.684798 30,47.685 L29.999,47.685 Z" id="Shape" fill="#000000"/><path d="M30.005,51.685 C28.461636,51.6866367 27.1688534,50.517018 27.0164759,48.9811937 C26.8640985,47.4453694 27.9018516,46.0445256 29.4154486,45.7428647 C30.9290455,45.4412037 32.4245538,46.3371668 32.8726134,47.8140614 C33.3206729,49.2909561 32.5750683,50.8668268 31.149,51.457 C30.78622,51.6069951 30.3975653,51.6844542 30.005,51.685 Z M29.999,47.685 C29.8682139,47.6847879 29.738695,47.7106237 29.618,47.761 C29.1427026,47.9576994 28.8941603,48.4828904 29.0434123,48.9751527 C29.1926643,49.4674149 29.6910178,49.76615 30.1955212,49.6657776 C30.7000245,49.5654052 31.0460858,49.0986713 30.9955562,48.586768 C30.9450266,48.0748647 30.5143911,47.684798 30,47.685 L29.999,47.685 Z" id="Shape" fill="#000000"/><path d="M20.039,52 C19.6715782,51.9996979 19.3339141,51.7979306 19.1595701,51.4745068 C18.985226,51.1510829 19.0022852,50.7580994 19.204,50.451 C19.5275711,49.9558422 19.9952881,49.5718954 20.544,49.351 L21.01,49.157 C20.9920004,48.8402555 20.9920004,48.5227445 21.01,48.206 L20.538,48.006 C19.8005023,47.7009283 19.2149642,47.1145622 18.9109348,46.3766342 C18.6069055,45.6387062 18.6094481,44.8100484 18.918,44.074 C19.5673233,42.5623521 21.3039807,41.8446994 22.831,42.457 L23.308,42.657 C23.5199157,42.4205835 23.7445835,42.1959157 23.981,41.984 L23.787,41.52 C23.1610912,39.9904502 23.883177,38.2421016 25.406,37.6 C26.1503475,37.2897691 26.9891068,37.2969935 27.728,37.62 C28.4529419,37.9171788 29.0275469,38.4939467 29.322,39.22 L29.522,39.705 C29.8404529,39.6884931 30.1595471,39.6884931 30.478,39.705 L30.678,39.226 C31.1393108,38.1028346 32.2332891,37.3694998 33.4475,37.3694998 C34.6617109,37.3694998 35.7556892,38.1028346 36.217,39.226 C36.5324242,39.9605836 36.530615,40.7927947 36.212,41.526 L36.023,41.988 C36.2609837,42.2002988 36.4869981,42.4256455 36.7,42.663 L37.168,42.463 C37.9098323,42.1520389 38.7465349,42.1578192 39.484,42.479 C40.2155381,42.7796709 40.7934337,43.3647857 41.085,44.1 C41.7165464,45.6298279 40.9898589,47.3821113 39.461,48.016 L38.993,48.216 C39.0100059,48.5327719 39.0100059,48.8502281 38.993,49.167 L39.465,49.367 C40.0046515,49.5884603 40.4662265,49.9654481 40.791,50.45 C41.1008317,50.9072918 40.9812918,51.5291683 40.524,51.839 C40.0667082,52.1488317 39.4448317,52.0292918 39.135,51.572 C39.0304793,51.4140344 38.8815644,51.2905185 38.707,51.217 L37.541,50.735 C37.1160322,50.5589806 36.8659506,50.1157665 36.935,49.661 C37.0290553,49.0162191 37.0310754,48.3613489 36.941,47.716 C36.8799272,47.2664752 37.1291063,46.8321565 37.548,46.658 L38.698,46.178 C39.2045593,45.9665871 39.4460185,45.3863711 39.239,44.878 C39.026167,44.3728231 38.4495096,44.1292962 37.939,44.329 L36.794,44.807 C36.3750036,44.9825001 35.8903567,44.8535347 35.614,44.493 C35.2246495,43.9721107 34.7602747,43.5117798 34.236,43.127 C33.8588147,42.8570134 33.7168062,42.3630889 33.893,41.934 L34.373,40.764 C34.4787273,40.5255265 34.4787273,40.2534735 34.373,40.015 C34.276121,39.7655101 34.0826333,39.5656906 33.8363913,39.4608306 C33.5901493,39.3559707 33.3120049,39.35495 33.065,39.458 C32.8207859,39.5574231 32.6268772,39.7509713 32.527,39.995 L32.049,41.163 C31.8743587,41.5895457 31.4307982,41.8414749 30.975,41.773 C30.3253259,41.6777452 29.66543,41.6750518 29.015,41.765 C28.5656542,41.8248114 28.1322806,41.5748829 27.959,41.156 L27.48,39.996 C27.2589661,39.4958865 26.6828981,39.2590193 26.174,39.459 C25.6699871,39.6805616 25.4327594,40.2621234 25.638,40.773 L26.116,41.918 C26.2926949,42.3406499 26.1596097,42.8293158 25.793,43.104 C25.271227,43.4959484 24.8073271,43.9595117 24.415,44.481 C24.1417965,44.8476347 23.6547184,44.9822708 23.232,44.808 L22.071,44.328 C21.831361,44.2275061 21.5609961,44.2296748 21.323,44.334 C21.0725575,44.4266794 20.8716528,44.6188964 20.768,44.865 C20.6638683,45.110227 20.6618973,45.3868689 20.7625241,45.6335549 C20.8631509,45.8802408 21.0580556,46.0765742 21.304,46.179 L22.465,46.66 C22.8895596,46.8359271 23.139555,47.2785758 23.071,47.733 C22.9764947,48.373868 22.9764947,49.025132 23.071,49.666 C23.1389168,50.120339 22.8885463,50.562509 22.464,50.738 L21.304,51.218 C21.1297481,51.286194 20.9809186,51.4067249 20.878,51.563 C20.6892714,51.8401007 20.3742398,52.0041875 20.039,52 Z M30.005,51.685 C28.461636,51.6866367 27.1688534,50.517018 27.0164759,48.9811937 C26.8640985,47.4453694 27.9018516,46.0445256 29.4154486,45.7428647 C30.9290455,45.4412037 32.4245538,46.3371668 32.8726134,47.8140614 C33.3206729,49.2909561 32.5750683,50.8668268 31.149,51.457 C30.7862578,51.6071196 30.3975782,51.6845837 30.005,51.685 Z M30,47.685 C29.8692139,47.6847879 29.739695,47.7106237 29.619,47.761 C29.1436146,47.9577371 28.8950837,48.4830771 29.0444877,48.9753932 C29.1938917,49.4677093 29.6924692,49.7663231 30.1970159,49.6656786 C30.7015627,49.5650341 31.0474083,49.097979 30.9964842,48.5860186 C30.9455601,48.0740582 30.5144864,47.6842824 30,47.685 Z" id="Shape" fill="#000000"/><path d="M34,12 C33.4477153,12 33,11.5522847 33,11 L33,8 L10,8 C9.44771525,8 9,7.55228475 9,7 C9,6.44771525 9.44771525,6 10,6 L34,6 C34.5522847,6 35,6.44771525 35,7 L35,11 C35,11.5522847 34.5522847,12 34,12 Z" id="Shape" fill="#000000"/><path d="M26,12 C25.4477153,12 25,11.5522847 25,11 L25,7 C25,6.44771525 25.4477153,6 26,6 C26.5522847,6 27,6.44771525 27,7 L27,11 C27,11.5522847 26.5522847,12 26,12 Z" id="Shape" fill="#000000"/><path d="M30,11 C29.4477153,11 29,10.5522847 29,10 L29,7 C29,6.44771525 29.4477153,6 30,6 C30.5522847,6 31,6.44771525 31,7 L31,10 C31,10.5522847 30.5522847,11 30,11 Z" id="Shape" fill="#000000"/><path d="M36,8 L34,8 C33.4477153,8 33,7.55228475 33,7 C33,6.44771525 33.4477153,6 34,6 L36,6 C36.5522847,6 37,6.44771525 37,7 C37,7.55228475 36.5522847,8 36,8 Z" id="Shape" fill="#000000"/><path d="M10,56 C7.790861,56 6,54.209139 6,52 C6,49.790861 7.790861,48 10,48 C12.209139,48 14,49.790861 14,52 C14,54.209139 12.209139,56 10,56 Z M10,50 C8.8954305,50 8,50.8954305 8,52 C8,53.1045695 8.8954305,54 10,54 C11.1045695,54 12,53.1045695 12,52 C12,50.8954305 11.1045695,50 10,50 Z" id="Shape" fill="#000000"/><path d="M2.25,48 C1.0074929,47.9977955 0.00110053686,46.9905086 0,45.748 L0,36.248 C0.00104265584,35.4183029 0.458615584,34.6565105 1.19058602,34.2658475 C1.92255645,33.8751844 2.81012384,33.9190562 3.5,34.38 C3.53485881,34.4039828 3.56825178,34.4300293 3.6,34.458 L9.059,39.209 C9.65078774,39.6315102 10.0020333,40.3138634 10.0020333,41.041 C10.0020333,41.7681366 9.65078774,42.4504898 9.059,42.873 L3.594,47.548 C3.56204842,47.5738631 3.52866195,47.5979013 3.494,47.62 C3.12602196,47.8668701 2.69311613,47.9991083 2.25,48 Z M2.25,36 C2.20797977,36.0006553 2.16676706,36.0116453 2.13,36.032 C2.04631921,36.0727265 1.99455596,36.1589986 1.998,36.252 L1.998,45.752 C1.99830221,45.8370127 2.04161564,45.9160945 2.11308754,45.9621272 C2.18455945,46.00816 2.27447462,46.0148864 2.352,45.98 L7.793,41.32 C7.82456462,41.2936343 7.85798412,41.2695723 7.893,41.248 C7.96253878,41.2016317 8.00430609,41.1235803 8.00430609,41.04 C8.00430609,40.9564197 7.96253878,40.8783683 7.893,40.832 C7.85796647,40.8082565 7.82455872,40.7821984 7.793,40.754 L2.353,36.023 C2.3214856,36.007852 2.28696597,35.9999911 2.252,36 L2.25,36 Z" id="Shape" fill="#000000"/><path d="M57,33 L43,33 C42.4477153,33 42,32.5522847 42,32 C42,31.4477153 42.4477153,31 43,31 L57,31 C57.5522847,31 58,30.5522847 58,30 L58,22 C58,21.4477153 57.5522847,21 57,21 L43,21 C42.4477153,21 42,20.5522847 42,20 C42,19.4477153 42.4477153,19 43,19 L57,19 C58.6568542,19 60,20.3431458 60,22 L60,30 C60,31.6568542 58.6568542,33 57,33 Z" id="Shape" fill="#000000"/><path d="M30,37 C29.653382,37.0001616 29.3314002,36.8208177 29.1490684,36.5260309 C28.9667366,36.2312442 28.9500617,35.8630616 29.105,35.553 L33,27.764 L33,22 C33,20.3431458 34.3431458,19 36,19 L43,19 C43.5522847,19 44,19.4477153 44,20 C44,20.5522847 43.5522847,21 43,21 L36,21 C35.4477153,21 35,21.4477153 35,22 L35,28 C35.0016999,28.1547301 34.9674687,28.3077438 34.9,28.447 L32.241,33.764 L37.558,31.105 C37.6953266,31.0365535 37.8465623,31.0006265 38,31 L43,31 C43.5522847,31 44,31.4477153 44,32 C44,32.5522847 43.5522847,33 43,33 L38.236,33 L30.447,36.9 C30.3076128,36.9670922 30.1546883,37.0013035 30,37 Z" id="Shape" fill="#000000"/><path d="M40,25 L38,25 C37.4477153,25 37,24.5522847 37,24 C37,23.4477153 37.4477153,23 38,23 L40,23 C40.5522847,23 41,23.4477153 41,24 C41,24.5522847 40.5522847,25 40,25 Z" id="Shape" fill="#000000"/><path d="M54,25 L45,25 C44.4477153,25 44,24.5522847 44,24 C44,23.4477153 44.4477153,23 45,23 L54,23 C54.5522847,23 55,23.4477153 55,24 C55,24.5522847 54.5522847,25 54,25 Z" id="Shape" fill="#000000"/><path d="M14,34 C8.4771525,34 4,29.5228475 4,24 C4,18.4771525 8.4771525,14 14,14 C19.5228475,14 24,18.4771525 24,24 C23.9939376,29.5203344 19.5203344,33.9939376 14,34 Z M14,16 C9.581722,16 6,19.581722 6,24 C6,28.418278 9.581722,32 14,32 C18.418278,32 22,28.418278 22,24 C21.9950401,19.5837781 18.4162219,16.0049599 14,16 Z" id="Shape" fill="#000000"/><circle id="Oval" fill="#000000" cx="11" cy="22" r="1"/><circle id="Oval" fill="#000000" cx="17" cy="22" r="1"/><path d="M14,29 C12.2147893,28.9988833 10.5656052,28.0460383 9.673,26.5 C9.49436719,26.1902507 9.49455294,25.8087311 9.67348728,25.499156 C9.85242161,25.1895808 10.1829202,24.9989819 10.5404873,24.9991559 C10.8980544,24.99933 11.2283672,25.1902507 11.407,25.5 C11.9409827,26.4275378 12.9297365,26.9992123 14,26.9992123 C15.0702635,26.9992123 16.0590173,26.4275378 16.593,25.5 C16.7716328,25.1902507 17.1019456,24.99933 17.4595127,24.9991559 C17.8170798,24.9989819 18.1475784,25.1895808 18.3265127,25.499156 C18.5054471,25.8087311 18.5056328,26.1902507 18.327,26.5 C17.4343948,28.0460383 15.7852107,28.9988833 14,29 Z" id="Shape" fill="#000000"/><path d="M17,30 C16.6594916,30.0003327 16.342215,29.8273755 16.158,29.541 L15.169,28 C14.973065,27.6995009 14.9531037,27.317072 15.1166895,26.9978073 C15.2802752,26.6785427 15.6023419,26.4713631 15.9606969,26.4548727 C16.3190519,26.4383824 16.6587846,26.6151081 16.851,26.918 L17.841,28.458 C18.0394714,28.7657326 18.053872,29.1573337 17.878539,29.4788124 C17.7032059,29.8002911 17.3661833,30.0002276 17,30 Z" id="Shape" fill="#000000"/><path d="M47,8 C46.4477153,8 46,7.55228475 46,7 L46,5 C46,4.44771525 46.4477153,4 47,4 C47.5522847,4 48,4.44771525 48,5 L48,7 C48,7.55228475 47.5522847,8 47,8 Z" id="Shape" fill="#000000"/><path d="M45,10 L43,10 C42.4477153,10 42,9.55228475 42,9 C42,8.44771525 42.4477153,8 43,8 L45,8 C45.5522847,8 46,8.44771525 46,9 C46,9.55228475 45.5522847,10 45,10 Z" id="Shape" fill="#000000"/><path d="M47,14 C46.4477153,14 46,13.5522847 46,13 L46,11 C46,10.4477153 46.4477153,10 47,10 C47.5522847,10 48,10.4477153 48,11 L48,13 C48,13.5522847 47.5522847,14 47,14 Z" id="Shape" fill="#000000"/><path d="M51,10 L49,10 C48.4477153,10 48,9.55228475 48,9 C48,8.44771525 48.4477153,8 49,8 L51,8 C51.5522847,8 52,8.44771525 52,9 C52,9.55228475 51.5522847,10 51,10 Z" id="Shape" fill="#000000"/><path d="M9,8 C7.91826506,7.99941378 6.88288747,7.56073115 6.13,6.784 C5.89663315,6.54204031 5.80045137,6.19901704 5.874,5.871 C5.56509848,5.78226306 5.31767278,5.55046424 5.209,5.248 C5.06783713,4.8471777 4.99712648,4.42494378 5,4 C5,1.790861 6.790861,-3.82769592e-17 9,-4.4408921e-16 C11.209139,-8.49901461e-16 13,1.790861 13,4 C13,6.209139 11.209139,8 9,8 Z M7.126,5.129 C7.29469879,5.17721485 7.44757275,5.26935333 7.569,5.396 C8.23722988,6.08038234 9.29650357,6.19581665 10.096459,5.67142975 C10.8964145,5.14704285 11.2130933,4.12964401 10.8520641,3.24388539 C10.491035,2.35812677 9.55337303,1.85198859 8.61477433,2.03622441 C7.67617563,2.22046023 6.99941373,3.04349071 7,4 C6.99743266,4.19454679 7.02855877,4.38806997 7.092,4.572 C7.15595766,4.7506789 7.16775021,4.94386856 7.126,5.129 Z" id="Shape" fill="#000000"/><path d="M9,14 C6.790861,14 5,12.209139 5,10 C4.99712648,9.57505622 5.06783713,9.1528223 5.209,8.752 C5.31767278,8.44953576 5.56509848,8.21773694 5.874,8.129 C5.80045137,7.80098296 5.89663315,7.45795969 6.13,7.216 C7.3956208,5.9102985 9.38269401,5.6225754 10.9666933,6.51565923 C12.5506926,7.40874305 13.3329746,9.25787241 12.8708296,11.0165863 C12.4086846,12.7753001 10.81842,14.0009849 9,14 Z M7.126,8.871 C7.16775021,9.05613144 7.15595766,9.2493211 7.092,9.428 C7.02855877,9.61193003 6.99743266,9.80545321 7,10 C7.00132547,10.9561323 7.67921082,11.7775959 8.61771534,11.9603525 C9.55621985,12.1431091 10.4928135,11.6360358 10.8528158,10.7502655 C11.2128182,9.86449522 10.895525,8.84780649 10.0956227,8.32402494 C9.29572051,7.80024338 8.23696777,7.91588761 7.569,8.6 C7.44804832,8.72810631 7.29513095,8.82165169 7.126,8.871 Z" id="Shape" fill="#000000"/><path d="M4,11 C1.790861,11 2.705415e-16,9.209139 0,7 C-2.705415e-16,4.790861 1.790861,3 4,3 C6.209139,3 8,4.790861 8,7 C8,8.06086596 7.57857264,9.07828161 6.82842712,9.82842712 C6.07828161,10.5785726 5.06086596,11 4,11 Z M4,5 C2.8954305,5 2,5.8954305 2,7 C2,8.1045695 2.8954305,9 4,9 C5.1045695,9 6,8.1045695 6,7 C6,6.46956702 5.78928632,5.96085919 5.41421356,5.58578644 C5.03914081,5.21071368 4.53043298,5 4,5 Z" id="Shape" fill="#000000"/></g></g></svg>
